<?xml version="1.0" encoding="UTF-8" standalone="no"?>
<svg
   xmlns:dc="http://purl.org/dc/elements/1.1/"
   xmlns:cc="http://creativecommons.org/ns#"
   xmlns:rdf="http://www.w3.org/1999/02/22-rdf-syntax-ns#"
   xmlns:svg="http://www.w3.org/2000/svg"
   xmlns="http://www.w3.org/2000/svg"
   xmlns:sodipodi="http://sodipodi.sourceforge.net/DTD/sodipodi-0.dtd"
   xmlns:inkscape="http://www.inkscape.org/namespaces/inkscape"
   version="1.1"
   id="svg10"
   xml:space="preserve"
   width="228"
   height="148.8"
   viewBox="0 0 228 148.8"
   sodipodi:docname="hypergraph_example.pdf"
   inkscape:version="1.0.1 (c497b03c, 2020-09-10)"><metadata
     id="metadata16"><rdf:RDF><cc:Work
         rdf:about=""><dc:format>image/svg+xml</dc:format><dc:type
           rdf:resource="http://purl.org/dc/dcmitype/StillImage" /><dc:title></dc:title></cc:Work></rdf:RDF></metadata><defs
     id="defs14" /><sodipodi:namedview
     pagecolor="#ffffff"
     bordercolor="#666666"
     borderopacity="1"
     objecttolerance="10"
     gridtolerance="10"
     guidetolerance="10"
     inkscape:pageopacity="0"
     inkscape:pageshadow="2"
     inkscape:window-width="1276"
     inkscape:window-height="707"
     id="namedview12"
     showgrid="false"
     inkscape:zoom="3.1842105"
     inkscape:cx="114"
     inkscape:cy="74.400002"
     inkscape:window-x="0"
     inkscape:window-y="23"
     inkscape:window-maximized="0"
     inkscape:current-layer="g18" /><g
     id="g18"
     inkscape:groupmode="layer"
     inkscape:label="hypergraph_example"
     transform="matrix(1.3333333,0,0,-1.3333333,-120,988.8)"><g
       id="g20"
       transform="translate(171.38,646.67603)"><path
         d="m 0,0 c -10.083,0 -18.264999,14.265 -18.264999,31.827999 0,17.588001 8.181999,31.827 18.264999,31.827 10.082,0 18.264,-14.238999 18.264,-31.827 C 18.264,14.265 10.082,0 0,0 Z"
         style="fill:none;stroke:#000001;stroke-width:0.75;stroke-linecap:butt;stroke-linejoin:round;stroke-miterlimit:2.613;stroke-dasharray:none;stroke-opacity:1"
         id="path22" /></g><g
       id="g24"
       transform="translate(200.479,635.51703)"><path
         d="m 0,0 c -22.771,0 -41.25,6.638 -41.25,14.845 0,8.207 18.479,14.845001 41.25,14.845001 22.771,0 41.25,-6.638001 41.25,-14.845001 C 41.25,6.638 22.771,0 0,0 Z"
         style="fill:none;stroke:#000001;stroke-width:0.75;stroke-linecap:butt;stroke-linejoin:round;stroke-miterlimit:2.613;stroke-dasharray:none;stroke-opacity:1"
         id="path26" /></g><g
       id="g28"
       transform="translate(130.09801,666.60999)"><path
         d="m 0,0 c -0.183,-15.127 -8.0600004,-27.379 -17.615999,-27.351 -9.556002,0.028 -17.135,12.327 -16.953001,27.453 0.184002,15.127 8.061001,27.38 17.617,27.350999 C -7.3969998,27.424999 0.183,15.127 0,0 Z"
         style="fill:none;stroke:#000001;stroke-width:0.75;stroke-linecap:butt;stroke-linejoin:round;stroke-miterlimit:2.613;stroke-dasharray:none;stroke-opacity:1"
         id="path30" /></g><g
       id="g32"
       transform="translate(102.076,650.30298)"><path
         d="M 0,0 C 0.024,8.1920004 17.441,14.806 38.931,14.762 60.389,14.719 77.796997,8.0349998 77.773003,-0.157 77.748001,-8.349 60.299999,-14.988 38.841999,-14.945 17.351,-14.902 -0.025,-8.1929998 0,0 Z"
         style="fill:none;stroke:#000001;stroke-width:0.75;stroke-linecap:butt;stroke-linejoin:round;stroke-miterlimit:2.613;stroke-dasharray:none;stroke-opacity:1"
         id="path34" /></g><g
       id="g36"
       transform="translate(233.092,645.65503)"><path
         d="m 0,0 c -9.9720001,0 -18.059999,15.835 -18.059999,35.387001 0,19.551998 8.0879989,35.413002 18.059999,35.413002 9.9460001,0 18.034,-15.861004 18.034,-35.413002 C 18.034,15.835 9.9460001,0 0,0 Z"
         style="fill:none;stroke:#000001;stroke-width:0.75;stroke-linecap:butt;stroke-linejoin:round;stroke-miterlimit:2.613;stroke-dasharray:none;stroke-opacity:1"
         id="path38" /></g><g
       id="g40"
       transform="translate(200.479,691.72101)"><path
         d="m 0,0 c -22.771,0 -41.25,10.391 -41.25,23.190001 0,12.798997 18.479,23.19 41.25,23.19 22.771,0 41.25,-10.391003 41.25,-23.19 C 41.25,10.391 22.771,0 0,0 Z"
         style="fill:none;stroke:#000001;stroke-width:0.75;stroke-linecap:butt;stroke-linejoin:round;stroke-miterlimit:2.613;stroke-dasharray:none;stroke-opacity:1"
         id="path42" /></g><g
       id="g44"
       transform="translate(170.30099,706.51001)"><path
         d="M 0,0 C -0.73299998,0 -1.309,0.681 -1.309,1.492 -1.309,2.329 -0.73299998,3.01 0,3.01 0.73299998,3.01 1.335,2.329 1.335,1.492 1.335,0.681 0.73299998,0 0,0 Z"
         style="fill:#91cfec;fill-opacity:1;fill-rule:evenodd;stroke:#000001;stroke-width:0.75;stroke-linecap:butt;stroke-linejoin:round;stroke-miterlimit:2.613;stroke-dasharray:none;stroke-opacity:1"
         id="path46" /></g><g
       id="g48"
       transform="translate(229.3,708.03998)"><path
         d="m 0,0 c -0.73299998,0 -1.335,0.681 -1.335,1.492 0,0.837 0.60200002,1.492 1.335,1.492 0.73299998,0 1.309,-0.655 1.309,-1.492 C 1.309,0.681 0.73299998,0 0,0 Z"
         style="fill:#91cfec;fill-opacity:1;fill-rule:evenodd;stroke:#000001;stroke-width:0.75;stroke-linecap:butt;stroke-linejoin:round;stroke-miterlimit:2.613;stroke-dasharray:none;stroke-opacity:1"
         id="path50" /></g><g
       id="g52"
       transform="translate(170.327,653.953)"><path
         d="m 0,0 c -0.73299998,0 -1.335,0.68 -1.335,1.492 0,0.837 0.60200002,1.492 1.335,1.492 0.73299998,0 1.335,-0.655 1.335,-1.492 C 1.335,0.68 0.73299998,0 0,0 Z"
         style="fill:#91cfec;fill-opacity:1;fill-rule:evenodd;stroke:#000001;stroke-width:0.75;stroke-linecap:butt;stroke-linejoin:round;stroke-miterlimit:2.613;stroke-dasharray:none;stroke-opacity:1"
         id="path54" /></g><g
       id="g56"
       transform="translate(232.202,653.953)"><path
         d="m 0,0 c -0.73299998,0 -1.335,0.68 -1.335,1.492 0,0.837 0.60200002,1.492 1.335,1.492 0.73299998,0 1.335,-0.655 1.335,-1.492 C 1.335,0.68 0.73299998,0 0,0 Z"
         style="fill:#91cfec;fill-opacity:1;fill-rule:evenodd;stroke:#000001;stroke-width:0.75;stroke-linecap:butt;stroke-linejoin:round;stroke-miterlimit:2.613;stroke-dasharray:none;stroke-opacity:1"
         id="path58" /></g><g
       id="g60"
       transform="translate(114.64,649.586)"><path
         d="m 0,0 c -0.73299998,0 -1.335,0.681 -1.335,1.492 0,0.8379999 0.60200002,1.492 1.335,1.492 0.73299998,0 1.335,-0.6540001 1.335,-1.492 C 1.335,0.681 0.73299998,0 0,0 Z"
         style="fill:#91cfec;fill-opacity:1;fill-rule:evenodd;stroke:#000001;stroke-width:0.75;stroke-linecap:butt;stroke-linejoin:round;stroke-miterlimit:2.613;stroke-dasharray:none;stroke-opacity:1"
         id="path62" /></g><g
       id="g64"
       transform="translate(173.416,727.13501)"><path
         d="m 0,0 c -0.73299998,0 -1.335,0.65399998 -1.335,1.492 0,0.811 0.60200002,1.492 1.335,1.492 0.73299998,0 1.335,-0.681 1.335,-1.492 C 1.335,0.65399998 0.73299998,0 0,0 Z"
         style="fill:#91cfec;fill-opacity:1;fill-rule:evenodd;stroke:#000001;stroke-width:0.75;stroke-linecap:butt;stroke-linejoin:round;stroke-miterlimit:2.613;stroke-dasharray:none;stroke-opacity:1"
         id="path66" /></g><g
       id="g68"
       transform="translate(169.28,717.86902)"><path
         d="m 0,0 c -0.73299998,0 -1.309,0.65399998 -1.309,1.492 0,0.811 0.57600002,1.492 1.309,1.492 0.73299998,0 1.335,-0.681 1.335,-1.492 C 1.335,0.65399998 0.73299998,0 0,0 Z"
         style="fill:#91cfec;fill-opacity:1;fill-rule:evenodd;stroke:#000001;stroke-width:0.75;stroke-linecap:butt;stroke-linejoin:round;stroke-miterlimit:2.613;stroke-dasharray:none;stroke-opacity:1"
         id="path70" /></g><path
       d="m 187.132,715.58099 h 0.601 v 6.203 h -0.601 z"
       style="fill:#231f20;fill-opacity:1;fill-rule:nonzero;stroke:none"
       id="path72" /><g
       id="g74"
       transform="translate(189.314,720.81702)"><path
         d="M 0,0 H -0.60100001 V 0.967 H 0 Z m 0,-5.2360001 h -0.60100001 v 4.68599991 H 0 Z"
         style="fill:#231f20;fill-opacity:1;fill-rule:evenodd;stroke:none"
         id="path76" /></g><g
       id="g78"
       transform="translate(190.285,720.26703)"><path
         d="M 0,0 H 0.583 V -0.53399997 C 0.768,-0.32 0.982,-0.163 1.224,-0.061 1.467,0.042 1.745,0.093 2.0580001,0.093 2.401,0.093 2.7060001,0.029 2.9749999,-0.099 3.244,-0.227 3.4560001,-0.41 3.612,-0.648 3.72,-0.81599998 3.7969999,-1.012 3.845,-1.239 3.891,-1.464 3.914,-1.797 3.914,-2.2379999 V -4.6869998 H 3.3229999 V -2.063 c 0,0.5540001 -0.1069998,0.955 -0.3169999,1.20500002 -0.213,0.25 -0.552,0.37499997 -1.017,0.37499997 -0.273,0 -0.512,-0.055 -0.718,-0.164 C 1.066,-0.75599998 0.903,-0.91299998 0.78399997,-1.117 0.70999997,-1.245 0.657,-1.39 0.62800002,-1.554 c -0.03,-0.163 -0.045,-0.4480001 -0.045,-0.854 V -4.6869998 H 2e-8 L 0,0"
         style="fill:#231f20;fill-opacity:1;fill-rule:evenodd;stroke:none"
         id="path80" /></g><g
       id="g82"
       transform="translate(199.75101,717.73297)"><path
         d="m 0,0 h -4.23 c 0.036,-0.51 0.2210002,-0.922 0.5539999,-1.237 0.332,-0.315 0.746,-0.472 1.243,-0.472 0.352,0 0.669,0.092 0.9500001,0.2740001 0.2800001,0.1829999 0.49899998,0.43599989 0.65099999,0.76199993 H -0.15 C -0.365,-1.192 -0.66900002,-1.589 -1.059,-1.867 -1.45,-2.145 -1.9019999,-2.2839999 -2.415,-2.2839999 c -0.6819999,0 -1.259,0.2419998 -1.7309999,0.7279999 -0.4710002,0.486 -0.7060003,1.07 -0.7060003,1.751 0,0.71399997 0.2310004,1.303 0.6920004,1.768 C -3.6989999,2.4300001 -3.109,2.6619999 -2.391,2.6619999 c 0.7060001,0 1.2800001,-0.2419998 1.724,-0.727 C -0.222,1.45 0,0.819 0,0.042 Z M -0.66500002,0.50700002 C -0.778,1.034 -0.98699998,1.431 -1.291,1.697 c -0.304,0.266 -0.7,0.398 -1.1880001,0.398 -0.454,0 -0.839,-0.1420001 -1.155,-0.429 C -3.9489999,1.38 -4.1409998,0.995 -4.2119999,0.50700002 h 3.54699988"
         style="fill:#231f20;fill-opacity:1;fill-rule:evenodd;stroke:none"
         id="path84" /></g><g
       id="g86"
       transform="translate(201.05099,720.81702)"><path
         d="M 0,0 H -0.60100001 V 0.967 H 0 Z m 0,-5.2360001 h -0.60100001 v 4.68599991 H 0 Z"
         style="fill:#231f20;fill-opacity:1;fill-rule:evenodd;stroke:none"
         id="path88" /></g><g
       id="g90"
       transform="translate(202.431,715.58099)"><path
         d="m 0,0 v 4.0819998 h -0.88999998 v 0.605 H 0 V 6.2030001 H 0.60100001 V 4.6869998 H 1.49 v -0.605 H 0.60100001 V 0 H 0"
         style="fill:#231f20;fill-opacity:1;fill-rule:evenodd;stroke:none"
         id="path92" /></g><g
       id="g94"
       transform="translate(209,717.73297)"><path
         d="m 0,0 h -4.23 c 0.036,-0.51 0.2210002,-0.922 0.5539999,-1.237 0.332,-0.315 0.746,-0.472 1.243,-0.472 0.352,0 0.669,0.092 0.9500001,0.2740001 0.2800001,0.1829999 0.49899998,0.43599989 0.65099999,0.76199993 H -0.15 C -0.365,-1.192 -0.66900002,-1.589 -1.059,-1.867 -1.45,-2.145 -1.9019999,-2.2839999 -2.415,-2.2839999 c -0.6819999,0 -1.259,0.2419998 -1.7309999,0.7279999 -0.4710002,0.486 -0.7060003,1.07 -0.7060003,1.751 0,0.71399997 0.2310004,1.303 0.6920004,1.768 C -3.6989999,2.4300001 -3.109,2.6619999 -2.391,2.6619999 c 0.7060001,0 1.2800001,-0.2419998 1.724,-0.727 C -0.222,1.45 0,0.819 0,0.042 Z M -0.66500002,0.50700002 C -0.778,1.034 -0.98699998,1.431 -1.291,1.697 c -0.304,0.266 -0.7,0.398 -1.1880001,0.398 -0.454,0 -0.839,-0.1420001 -1.155,-0.429 C -3.9489999,1.38 -4.1409998,0.995 -4.2119999,0.50700002 h 3.54699988"
         style="fill:#231f20;fill-opacity:1;fill-rule:evenodd;stroke:none"
         id="path96" /></g><g
       id="g98"
       transform="translate(213.371,719.53302)"><path
         d="M 0,0 C 0.191,0.271 0.428,0.47600001 0.70999997,0.61699998 0.99199998,0.75800001 1.309,0.82700002 1.658,0.82700002 c 0.6370001,0 1.099,-0.19 1.388,-0.57200002 0.29,-0.383 0.4349999,-0.99699998 0.4349999,-1.843 V -3.9519999 H 2.905 V -1.464 c 0,0.61799999 -0.102,1.05800002 -0.307,1.321 -0.203,0.264 -0.5369999,0.395 -1,0.395 C 1.331,0.252 1.0959999,0.196 0.893,0.087 0.68900001,-0.022 0.52899998,-0.179 0.41,-0.382 0.33899998,-0.51 0.28799998,-0.65600001 0.25600001,-0.82 0.225,-0.98299998 0.209,-1.268 0.209,-1.674 V -3.9519999 H -0.35800001 V -1.329 c 0,0.53899998 -0.10899999,0.938 -0.32799997,1.195 C -0.90399998,0.124 -1.24,0.252 -1.691,0.252 -1.964,0.252 -2.2030001,0.196 -2.4089999,0.087 -2.6140001,-0.022 -2.777,-0.179 -2.8959999,-0.382 -2.971,-0.51 -3.023,-0.65600001 -3.052,-0.82 -3.083,-0.98299998 -3.097,-1.268 -3.097,-1.674 v -2.2779999 h -0.592 v 4.68599992 h 0.592 V 0.201 c 0.1789999,0.208 0.389,0.36300001 0.632,0.46800002 0.243,0.10599995 0.5179999,0.158 0.8249999,0.158 0.355,0 0.67899998,-0.074 0.97099998,-0.22400004 C -0.377,0.454 -0.153,0.253 0,0"
         style="fill:#231f20;fill-opacity:1;fill-rule:evenodd;stroke:none"
         id="path100" /></g><g
       id="g102"
       transform="translate(221.526,682.901)"><path
         d="M 0,0 C 0,-0.541 0.172,-0.99299997 0.51499998,-1.358 0.85900002,-1.723 1.285,-1.905 1.797,-1.905 c 0.502,0 0.924,0.182 1.265,0.547 0.3410001,0.36500003 0.5109999,0.82000002 0.5109999,1.365 0,0.55399998 -0.1729998,1.009 -0.5179998,1.366 C 2.71,1.729 2.273,1.908 1.742,1.908 1.265,1.908 0.85500001,1.724 0.51300001,1.358 0.172,0.99199998 0,0.53899997 0,0 Z m -0.63099998,-0.01 c 0,0.68699998 0.23599997,1.275 0.70699998,1.7639999 0.471,0.4880002 1.029,0.7320002 1.675,0.7320002 0.677,0 1.256,-0.24 1.7350001,-0.7190002 C 3.964,1.2869999 4.204,0.71399998 4.204,0.049 4.204,-0.64899998 3.97,-1.245 3.5009999,-1.739 3.0320001,-2.234 2.4649999,-2.4809999 1.797,-2.4809999 c -0.679,0 -1.25299998,0.243 -1.723,0.727 C -0.39500001,-1.27 -0.63099998,-0.68900001 -0.63099998,-0.01"
         style="fill:#231f20;fill-opacity:1;fill-rule:evenodd;stroke:none"
         id="path104" /></g><g
       id="g106"
       transform="translate(227.03799,680.55298)"><path
         d="M 0,0 H -0.60900002 V 4.6869998 H -0.042 V 4.1459999 C 0.105,4.3540001 0.266,4.5050001 0.44100001,4.6020002 0.61699998,4.6979999 0.82,4.7490001 1.053,4.7550001 L 1.057,4.1030002 C 0.67900002,4.0700002 0.409,3.957 0.246,3.7650001 0.081,3.5729999 0,3.2609999 0,2.8299999 V 0"
         style="fill:#231f20;fill-opacity:1;fill-rule:evenodd;stroke:none"
         id="path108" /></g><g
       id="g110"
       transform="translate(232.577,682.849)"><path
         d="M 0,0 C 0,0.53399997 -0.177,0.99 -0.53100001,1.367 -0.884,1.745 -1.2999999,1.934 -1.7769999,1.934 -2.2709999,1.934 -2.694,1.7539999 -3.046,1.394 -3.398,1.035 -3.5739999,0.59600001 -3.5739999,0.077 c 0,-0.54799998 0.1769998,-1.008 0.5309999,-1.38 0.3529999,-0.3719999 0.78,-0.5579999 1.2840001,-0.5579999 0.4619999,0 0.87099989,0.186 1.2269999,0.5579999 C -0.177,-0.931 0,-0.497 0,0 Z M -0.017,1.649 V 3.9070001 H 0.58700001 V -2.296 H -0.017 v 0.707 C -0.228,-1.85 -0.489,-2.053 -0.801,-2.2 c -0.313,-0.1469999 -0.643,-0.2200001 -0.993,-0.2200001 -0.676,0 -1.245,0.2390001 -1.7069999,0.7160001 -0.464,0.477 -0.6950002,1.06300003 -0.6950002,1.755 0,0.68800002 0.2280002,1.266 0.6860001,1.7359999 0.4560001,0.4700001 1.0290001,0.7050002 1.716,0.7050002 0.3690001,0 0.705,-0.071 1.007,-0.2150001 0.303,-0.1440001 0.559,-0.353 0.77,-0.628"
         style="fill:#231f20;fill-opacity:1;fill-rule:evenodd;stroke:none"
         id="path112" /></g><g
       id="g114"
       transform="translate(238.71001,682.70502)"><path
         d="m 0,0 h -4.23 c 0.036,-0.51 0.2210002,-0.922 0.5539999,-1.237 0.332,-0.315 0.746,-0.472 1.243,-0.472 0.352,0 0.669,0.092 0.9500001,0.2740001 0.2800001,0.1829999 0.49899998,0.43599989 0.65099999,0.76199993 H -0.15 C -0.365,-1.1929999 -0.66900002,-1.589 -1.059,-1.867 -1.45,-2.145 -1.9019999,-2.2839999 -2.415,-2.2839999 c -0.6819999,0 -1.259,0.2419998 -1.7309999,0.7279999 -0.4710002,0.486 -0.7060003,1.07 -0.7060003,1.751 0,0.71399997 0.2310004,1.303 0.6920004,1.768 C -3.6989999,2.4300001 -3.109,2.6619999 -2.391,2.6619999 c 0.7060001,0 1.2800001,-0.2419998 1.724,-0.727 C -0.222,1.45 0,0.819 0,0.042 Z M -0.66500002,0.50700002 C -0.778,1.034 -0.98699998,1.431 -1.291,1.697 c -0.304,0.266 -0.7,0.398 -1.1880001,0.398 -0.454,0 -0.839,-0.1420001 -1.155,-0.429 C -3.9489999,1.38 -4.1409998,0.995 -4.2119999,0.50700002 h 3.54699988"
         style="fill:#231f20;fill-opacity:1;fill-rule:evenodd;stroke:none"
         id="path116" /></g><g
       id="g118"
       transform="translate(240.00101,680.55298)"><path
         d="M 0,0 H -0.60900002 V 4.6869998 H -0.042 V 4.1459999 C 0.105,4.3540001 0.266,4.5050001 0.44100001,4.6020002 0.61699998,4.6979999 0.82,4.7490001 1.053,4.7550001 L 1.057,4.1030002 C 0.67900002,4.0700002 0.409,3.957 0.246,3.7650001 0.081,3.5729999 0,3.2609999 0,2.8299999 V 0"
         style="fill:#231f20;fill-opacity:1;fill-rule:evenodd;stroke:none"
         id="path120" /></g><g
       id="g122"
       transform="translate(241.284,682.02698)"><path
         d="m 0,0 h 0.61799997 v -0.018 c 0,-0.292 0.084,-0.533 0.25100004,-0.72499997 C 1.0369999,-0.935 1.245,-1.031 1.492,-1.031 c 0.235,0 0.43,0.074 0.587,0.221 0.1559999,0.148 0.234,0.33399999 0.234,0.558 0,0.224 -0.061,0.405 -0.1840001,0.541 C 2.0050001,0.426 1.781,0.55400002 1.457,0.67299997 0.93800002,0.85799998 0.59799998,1.047 0.43900001,1.239 0.28099998,1.432 0.201,1.691 0.201,2.0150001 0.201,2.382 0.333,2.6930001 0.59899997,2.947 0.86400002,3.2030001 1.187,3.3310001 1.563,3.3310001 c 0.401,0 0.7179999,-0.1130002 0.9539999,-0.3400002 C 2.753,2.763 2.8789999,2.4460001 2.8959999,2.04 h -0.642 c -0.015,0.223 -0.084,0.394 -0.2109999,0.516 -0.126,0.122 -0.3,0.1830001 -0.518,0.1830001 -0.196,0 -0.359,-0.065 -0.49,-0.197 C 0.90399998,2.4089999 0.83899998,2.2449999 0.83899998,2.049 c 0,-0.14 0.028,-0.256 0.081,-0.352 C 0.97399997,1.602 1.063,1.5169999 1.188,1.44 1.301,1.368 1.467,1.2999999 1.6849999,1.234 c 0.217,-0.065 0.362,-0.113 0.4360002,-0.143 C 2.414,0.96600002 2.6289999,0.80000001 2.767,0.592 2.905,0.384 2.974,0.121 2.974,-0.201 2.974,-0.60299998 2.8329999,-0.93800002 2.552,-1.2029999 2.2709999,-1.466 1.914,-1.598 1.483,-1.598 c -0.44,0 -0.79399999,0.144 -1.061,0.432 C 0.154,-0.87699997 0.015,-0.489 0,0"
         style="fill:#231f20;fill-opacity:1;fill-rule:evenodd;stroke:none"
         id="path124" /></g><g
       id="g126"
       transform="translate(157.80299,680.526)"><path
         d="m 0,0 h 0.61799997 v -0.017 c 0,-0.293 0.084,-0.534 0.25200003,-0.72599997 C 1.0369999,-0.935 1.245,-1.031 1.492,-1.031 c 0.235,0 0.43,0.074 0.587,0.221 0.1559999,0.148 0.234,0.33399999 0.234,0.558 0,0.224 -0.061,0.405 -0.1840001,0.541 C 2.0050001,0.426 1.781,0.55400002 1.457,0.67299997 0.93800002,0.85799998 0.59799998,1.047 0.43900001,1.239 0.28099998,1.432 0.201,1.691 0.201,2.0150001 0.201,2.382 0.333,2.6930001 0.59899997,2.947 0.86400002,3.2030001 1.187,3.3310001 1.563,3.3310001 c 0.401,0 0.7179999,-0.1130002 0.9539999,-0.3400002 C 2.753,2.763 2.8789999,2.4460001 2.8970001,2.04 H 2.2539999 C 2.2390001,2.263 2.1700001,2.434 2.043,2.556 1.917,2.678 1.743,2.74 1.525,2.74 1.329,2.74 1.166,2.674 1.035,2.5420001 0.90399998,2.4089999 0.83899998,2.2449999 0.83899998,2.049 c 0,-0.14 0.028,-0.256 0.081,-0.352 C 0.97399997,1.602 1.063,1.5169999 1.188,1.44 1.301,1.368 1.467,1.2999999 1.6849999,1.234 1.9019999,1.169 2.0469999,1.121 2.122,1.091 2.414,0.96600002 2.6289999,0.80000001 2.767,0.592 2.905,0.384 2.974,0.121 2.974,-0.201 2.974,-0.60299998 2.8329999,-0.93800002 2.552,-1.2029999 2.2709999,-1.466 1.914,-1.598 1.483,-1.598 c -0.44,0 -0.79399999,0.144 -1.061,0.432 C 0.154,-0.87699997 0.015,-0.489 0,0"
         style="fill:#231f20;fill-opacity:1;fill-rule:evenodd;stroke:none"
         id="path128" /></g><g
       id="g130"
       transform="translate(161.479,683.73804)"><path
         d="m 0,0 h 0.592 v -2.4879999 c 0,-0.638 0.103,-1.0900002 0.311,-1.3570001 0.206,-0.2660001 0.548,-0.398 1.0219999,-0.398 0.2710002,0 0.5080002,0.055 0.711,0.164 C 2.8410001,-3.97 3.006,-3.8110001 3.131,-3.605 c 0.071,0.122 0.122,0.2680001 0.1540001,0.434 0.03,0.1659999 0.046,0.4549999 0.046,0.8659999 V 0 H 3.9319999 V -4.6869998 H 3.3310001 v 0.5079999 c -0.181,-0.2220001 -0.385,-0.382 -0.6090002,-0.4809999 -0.224,-0.1010003 -0.4959998,-0.1500001 -0.8139999,-0.1500001 -0.675,0 -1.162,0.1830001 -1.45999999,0.5479998 C 0.15,-3.8970001 0,-3.2920001 0,-2.4460001 V 0"
         style="fill:#231f20;fill-opacity:1;fill-rule:evenodd;stroke:none"
         id="path132" /></g><g
       id="g134"
       transform="translate(166.34801,683.73804)"><path
         d="m 0,0 h 0.592 v -0.768 c 0.17000002,0.26499998 0.414,0.476 0.73,0.633 C 1.639,0.023 1.9759999,0.102 2.3340001,0.102 3.0420001,0.102 3.628,-0.134 4.092,-0.60299998 4.5560002,-1.0729999 4.7880001,-1.661 4.7880001,-2.3640001 4.7880001,-3.052 4.559,-3.631 4.1009998,-4.1030002 3.641,-4.5739999 3.0680001,-4.8099999 2.382,-4.8099999 c -0.3810001,0 -0.724,0.074 -1.03,0.2209997 -0.305,0.1480002 -0.55799998,0.362 -0.76,0.6440003 V -6.2030001 H 0 Z m 0.592,-2.313 c 0,-0.5339999 0.176,-0.9909999 0.528,-1.3700001 0.352,-0.3800001 0.767,-0.5689997 1.2440001,-0.5689997 0.4919998,0 0.914,0.1809997 1.2649998,0.5399999 0.352,0.359 0.5280002,0.8 0.5280002,1.3219998 C 4.1570001,-1.842 3.98,-1.383 3.6270001,-1.012 3.273,-0.64099997 2.846,-0.45699998 2.3429999,-0.45699998 1.88,-0.45699998 1.472,-0.643 1.12,-1.015 0.768,-1.387 0.592,-1.819 0.592,-2.313"
         style="fill:#231f20;fill-opacity:1;fill-rule:evenodd;stroke:none"
         id="path136" /></g><g
       id="g138"
       transform="translate(171.843,683.73804)"><path
         d="m 0,0 h 0.592 v -0.768 c 0.17000002,0.26499998 0.414,0.476 0.73,0.633 C 1.639,0.023 1.9759999,0.102 2.3340001,0.102 3.0420001,0.102 3.628,-0.134 4.092,-0.60299998 4.5560002,-1.0729999 4.7880001,-1.661 4.7880001,-2.3640001 4.7880001,-3.052 4.559,-3.631 4.1009998,-4.1030002 3.641,-4.5739999 3.0680001,-4.8099999 2.382,-4.8099999 c -0.3810001,0 -0.724,0.074 -1.03,0.2209997 -0.305,0.1480002 -0.55799998,0.362 -0.76,0.6440003 V -6.2030001 H 0 Z m 0.592,-2.313 c 0,-0.5339999 0.176,-0.9909999 0.528,-1.3700001 0.352,-0.3800001 0.767,-0.5689997 1.2440001,-0.5689997 0.4919998,0 0.914,0.1809997 1.2649998,0.5399999 0.352,0.359 0.5280002,0.8 0.5280002,1.3219998 C 4.1570001,-1.842 3.98,-1.383 3.6270001,-1.012 3.273,-0.64099997 2.846,-0.45699998 2.3429999,-0.45699998 1.88,-0.45699998 1.472,-0.643 1.12,-1.015 0.768,-1.387 0.592,-1.819 0.592,-2.313"
         style="fill:#231f20;fill-opacity:1;fill-rule:evenodd;stroke:none"
         id="path140" /></g><path
       d="m 177.36501,679.052 h 0.601 v 6.203 h -0.601 z"
       style="fill:#231f20;fill-opacity:1;fill-rule:nonzero;stroke:none"
       id="path142" /><g
       id="g144"
       transform="translate(179.54601,684.28802)"><path
         d="M 0,0 H -0.60100001 V 0.967 H 0 Z m 0,-5.2360001 h -0.60100001 v 4.68599991 H 0 Z"
         style="fill:#231f20;fill-opacity:1;fill-rule:evenodd;stroke:none"
         id="path146" /></g><g
       id="g148"
       transform="translate(185.11301,681.20398)"><path
         d="m 0,0 h -4.23 c 0.036,-0.51 0.2210002,-0.922 0.5539999,-1.237 0.332,-0.315 0.746,-0.472 1.243,-0.472 0.352,0 0.669,0.092 0.9500001,0.2740001 0.2800001,0.1829999 0.49899998,0.43599989 0.65099999,0.76199993 H -0.15 C -0.365,-1.192 -0.66900002,-1.589 -1.059,-1.867 -1.45,-2.145 -1.9019999,-2.2839999 -2.415,-2.2839999 c -0.6819999,0 -1.259,0.2419998 -1.7309999,0.7279999 -0.4710002,0.486 -0.7060003,1.07 -0.7060003,1.751 0,0.71399997 0.2310004,1.303 0.6920004,1.768 C -3.6989999,2.4300001 -3.109,2.6619999 -2.391,2.6619999 c 0.7060001,0 1.2800001,-0.2419998 1.724,-0.727 C -0.222,1.45 0,0.819 0,0.042 Z M -0.66500002,0.50700002 C -0.778,1.034 -0.98699998,1.431 -1.291,1.697 c -0.304,0.266 -0.7,0.398 -1.1880001,0.398 -0.454,0 -0.839,-0.1420001 -1.155,-0.429 C -3.9489999,1.38 -4.1409998,0.995 -4.2119999,0.50700002 h 3.54699988"
         style="fill:#231f20;fill-opacity:1;fill-rule:evenodd;stroke:none"
         id="path150" /></g><g
       id="g152"
       transform="translate(186.405,679.052)"><path
         d="M 0,0 H -0.60900002 V 4.6869998 H -0.042 V 4.1459999 C 0.105,4.3540001 0.266,4.5050001 0.44100001,4.6020002 0.61699998,4.6979999 0.82,4.7490001 1.053,4.7550001 l 0.004,-0.651 C 0.67900002,4.0700002 0.409,3.957 0.246,3.7650001 0.081,3.5729999 0,3.2609999 0,2.8299999 V 0"
         style="fill:#231f20;fill-opacity:1;fill-rule:evenodd;stroke:none"
         id="path154" /></g><g
       id="g156"
       transform="translate(129.578,652.71399)"><path
         d="M 0,0 H 0.583 V -0.53399997 C 0.768,-0.32 0.982,-0.163 1.224,-0.061 1.467,0.042 1.745,0.093 2.0569999,0.093 2.401,0.093 2.7060001,0.029 2.9749999,-0.099 3.244,-0.227 3.4560001,-0.41 3.612,-0.648 3.72,-0.81599998 3.7969999,-1.012 3.845,-1.239 3.891,-1.464 3.914,-1.797 3.914,-2.2379999 V -4.6869998 H 3.3229999 V -2.063 c 0,0.5540001 -0.1069998,0.955 -0.3169999,1.20500002 -0.213,0.25 -0.552,0.37499997 -1.017,0.37499997 -0.273,0 -0.512,-0.055 -0.718,-0.164 C 1.066,-0.75599998 0.903,-0.91299998 0.78399997,-1.117 0.70999997,-1.245 0.657,-1.39 0.62800002,-1.554 c -0.03,-0.163 -0.045,-0.4480001 -0.045,-0.854 V -4.6869998 H 2e-8 L 0,0"
         style="fill:#231f20;fill-opacity:1;fill-rule:evenodd;stroke:none"
         id="path158" /></g><g
       id="g160"
       transform="translate(138.40601,650.40002)"><path
         d="M 0,0 C 0,0.497 -0.177,0.931 -0.532,1.302 -0.88700002,1.672 -1.297,1.857 -1.7589999,1.857 -2.263,1.857 -2.6900001,1.672 -3.043,1.302 -3.3970001,0.931 -3.5739999,0.47099998 -3.5739999,-0.077 c 0,-0.52199997 0.1759999,-0.963 0.5279999,-1.322 0.352,-0.359 0.7750001,-0.539 1.2690001,-0.539 0.477,0 0.8929999,0.1890001 1.24599989,0.568 C -0.177,-0.99 0,-0.53399997 0,0 Z m 0,-1.631 c -0.188,-0.2709999 -0.44100001,-0.4819999 -0.76,-0.636 -0.32,-0.1530001 -0.6649999,-0.23 -1.034,-0.23 -0.6869999,0 -1.2599999,0.2360001 -1.716,0.706 -0.4579999,0.469 -0.6860001,1.04900002 -0.6860001,1.74 0,0.70099997 0.2340002,1.2869999 0.7000001,1.76 0.467,0.4710001 1.052,0.706 1.754,0.706 0.361,0 0.691,-0.072 0.992,-0.2189999 C -0.449,2.049 -0.199,1.8380001 0,1.563 v 0.75 H 0.58700001 V -2.3729999 H 0 V -1.631"
         style="fill:#231f20;fill-opacity:1;fill-rule:evenodd;stroke:none"
         id="path162" /></g><g
       id="g164"
       transform="translate(140.35201,648.02698)"><path
         d="m 0,0 v 4.0819998 h -0.88999998 v 0.605 H 0 V 6.2030001 H 0.60100001 V 4.6869998 H 1.49 v -0.605 H 0.60100001 V 0 H 0"
         style="fill:#231f20;fill-opacity:1;fill-rule:evenodd;stroke:none"
         id="path166" /></g><g
       id="g168"
       transform="translate(142.93401,653.263)"><path
         d="M 0,0 H -0.60100001 V 0.967 H 0 Z m 0,-5.2360001 h -0.60100001 v 4.68599991 H 0 Z"
         style="fill:#231f20;fill-opacity:1;fill-rule:evenodd;stroke:none"
         id="path170" /></g><g
       id="g172"
       transform="translate(144.28,650.37604)"><path
         d="M 0,0 C 0,-0.541 0.172,-0.99299997 0.51499998,-1.358 0.85900002,-1.723 1.285,-1.905 1.797,-1.905 c 0.502,0 0.924,0.182 1.265,0.547 0.3410001,0.36500003 0.5109999,0.82000002 0.5109999,1.365 0,0.55399998 -0.1729998,1.009 -0.5179998,1.366 C 2.71,1.729 2.273,1.908 1.742,1.908 1.265,1.908 0.85500001,1.724 0.51300001,1.358 0.172,0.99199998 0,0.53899997 0,0 Z m -0.63099998,-0.01 c 0,0.68699998 0.23599997,1.275 0.70699998,1.7639999 C 0.547,2.2420001 1.105,2.487 1.751,2.487 2.428,2.487 3.007,2.247 3.4860001,1.7669999 3.964,1.2869999 4.204,0.71399998 4.204,0.049 4.204,-0.64899998 3.97,-1.245 3.5009999,-1.739 3.0320001,-2.234 2.4649999,-2.4809999 1.797,-2.4809999 c -0.679,0 -1.25299998,0.243 -1.723,0.727 C -0.39500001,-1.27 -0.63099998,-0.68900001 -0.63099998,-0.01"
         style="fill:#231f20;fill-opacity:1;fill-rule:evenodd;stroke:none"
         id="path174" /></g><g
       id="g176"
       transform="translate(149.192,652.71399)"><path
         d="M 0,0 H 0.583 V -0.53399997 C 0.768,-0.32 0.982,-0.163 1.224,-0.061 1.467,0.042 1.745,0.093 2.0569999,0.093 2.401,0.093 2.7060001,0.029 2.9749999,-0.099 3.244,-0.227 3.4560001,-0.41 3.612,-0.648 3.72,-0.81599998 3.7969999,-1.012 3.845,-1.239 3.891,-1.464 3.914,-1.797 3.914,-2.2379999 V -4.6869998 H 3.3229999 V -2.063 c 0,0.5540001 -0.1069998,0.955 -0.3169999,1.20500002 -0.213,0.25 -0.552,0.37499997 -1.017,0.37499997 -0.273,0 -0.512,-0.055 -0.718,-0.164 C 1.066,-0.75599998 0.903,-0.91299998 0.78399997,-1.117 0.70999997,-1.245 0.657,-1.39 0.62800002,-1.554 c -0.03,-0.163 -0.045,-0.4480001 -0.045,-0.854 V -4.6869998 H 2e-8 L 0,0"
         style="fill:#231f20;fill-opacity:1;fill-rule:evenodd;stroke:none"
         id="path178" /></g><g
       id="g180"
       transform="translate(101.65601,671.04602)"><path
         d="M 0,0 H -0.60900002 V 4.6859999 H -0.042 v -0.54 C 0.105,4.3540001 0.266,4.5050001 0.44100001,4.6020002 0.61699998,4.6979999 0.82,4.7490001 1.053,4.7550001 L 1.057,4.1030002 C 0.67900002,4.0700002 0.409,3.9560001 0.246,3.7650001 0.081,3.5729999 0,3.2609999 0,2.8299999 V 0"
         style="fill:#231f20;fill-opacity:1;fill-rule:evenodd;stroke:none"
         id="path182" /></g><g
       id="g184"
       transform="translate(107.83299,673.198)"><path
         d="m 0,0 h -4.23 c 0.036,-0.51 0.2210002,-0.922 0.5539999,-1.237 0.332,-0.315 0.746,-0.472 1.243,-0.472 0.352,0 0.669,0.092 0.9500001,0.2740001 0.2800001,0.1829999 0.49899998,0.43599989 0.65099999,0.76199993 H -0.15 C -0.365,-1.192 -0.66900002,-1.589 -1.059,-1.867 -1.45,-2.145 -1.9019999,-2.2839999 -2.415,-2.2839999 c -0.6819999,0 -1.259,0.2419998 -1.7309999,0.7279999 -0.4710002,0.486 -0.7060003,1.07 -0.7060003,1.751 0,0.71399997 0.2310004,1.303 0.6920004,1.768 C -3.6989999,2.4300001 -3.109,2.6619999 -2.391,2.6619999 c 0.7060001,0 1.2800001,-0.2419998 1.724,-0.727 C -0.222,1.45 0,0.819 0,0.042 Z M -0.66500002,0.50700002 C -0.778,1.034 -0.98699998,1.431 -1.291,1.697 c -0.304,0.266 -0.7,0.398 -1.1880001,0.398 -0.454,0 -0.839,-0.1420001 -1.155,-0.429 C -3.9489999,1.38 -4.1409998,0.995 -4.2119999,0.50700002 h 3.54699988"
         style="fill:#231f20;fill-opacity:1;fill-rule:evenodd;stroke:none"
         id="path186" /></g><g
       id="g188"
       transform="translate(109.32401,670.66302)"><path
         d="M 0,0 C 0.092,-0.273 0.25600001,-0.486 0.49399998,-0.63800001 0.73299998,-0.791 1.0219999,-0.86699998 1.364,-0.86699998 c 0.534,0 0.9629999,0.17799997 1.284,0.53299998 0.323,0.356 0.484,0.83 0.484,1.425 V 1.214 C 2.905,0.90399998 2.6459999,0.67000001 2.3570001,0.51300001 2.066,0.35499998 1.748,0.276 1.3969999,0.276 0.694,0.276 0.109,0.51200002 -0.35800001,0.982 -0.82300001,1.451 -1.056,2.0369999 -1.056,2.7379999 c 0,0.691 0.23000003,1.2690001 0.691,1.7390003 0.459,0.468 1.03000002,0.7019997 1.707,0.7019997 0.396,0 0.737,-0.071 1.0250001,-0.2119999 C 2.655,4.8249998 2.911,4.6020002 3.132,4.3010001 V 5.0689998 H 3.72 V 1.159 C 3.72,0.34 3.5150001,-0.30000001 3.1040001,-0.759 2.6930001,-1.22 2.1270001,-1.45 1.406,-1.45 0.875,-1.45 0.41999998,-1.319 0.039,-1.056 -0.342,-0.792 -0.58700001,-0.44100001 -0.69800001,0 Z M -0.417,2.7639999 C -0.417,2.2160001 -0.243,1.758 0.105,1.389 0.452,1.019 0.87199997,0.83499997 1.364,0.83499997 1.826,0.83499997 2.2360001,1.019 2.5910001,1.39 c 0.355,0.371 0.5319998,0.8060001 0.5319998,1.3060001 0,0.533 -0.174,0.99 -0.523,1.3670001 C 2.2490001,4.441 1.8380001,4.6300001 1.364,4.6300001 c -0.489,0 -0.90700002,-0.1810002 -1.258,-0.54 C -0.243,3.7309999 -0.417,3.289 -0.417,2.7639999"
         style="fill:#231f20;fill-opacity:1;fill-rule:evenodd;stroke:none"
         id="path190" /></g><g
       id="g192"
       transform="translate(114.586,676.28198)"><path
         d="M 0,0 H -0.60100001 V 0.967 H 0 Z m 0,-5.2360001 h -0.60100001 v 4.68599991 H 0 Z"
         style="fill:#231f20;fill-opacity:1;fill-rule:evenodd;stroke:none"
         id="path194" /></g><g
       id="g196"
       transform="translate(115.93201,673.39398)"><path
         d="M 0,0 C 0,-0.541 0.172,-0.99299997 0.51499998,-1.358 0.85900002,-1.723 1.285,-1.905 1.797,-1.905 c 0.502,0 0.924,0.182 1.265,0.547 0.3410001,0.36500003 0.5109999,0.82000002 0.5109999,1.365 0,0.55399998 -0.1729998,1.009 -0.5179998,1.366 C 2.71,1.729 2.273,1.908 1.742,1.908 1.265,1.908 0.85500001,1.724 0.51300001,1.358 0.172,0.99199998 0,0.53899997 0,0 Z m -0.63099998,-0.01 c 0,0.68699998 0.23599997,1.275 0.70699998,1.7639999 0.471,0.4880002 1.029,0.7320002 1.675,0.7320002 0.677,0 1.256,-0.24 1.7350001,-0.7190002 C 3.964,1.2869999 4.204,0.71399998 4.204,0.049 4.204,-0.64899998 3.97,-1.245 3.5009999,-1.739 3.0320001,-2.234 2.4649999,-2.4809999 1.797,-2.4809999 c -0.679,0 -1.25299998,0.243 -1.723,0.727 C -0.39500001,-1.27 -0.63099998,-0.68900001 -0.63099998,-0.01"
         style="fill:#231f20;fill-opacity:1;fill-rule:evenodd;stroke:none"
         id="path198" /></g><g
       id="g200"
       transform="translate(120.84399,675.73199)"><path
         d="M 0,0 H 0.583 V -0.53399997 C 0.768,-0.32 0.982,-0.163 1.224,-0.061 1.467,0.042 1.745,0.093 2.0569999,0.093 2.401,0.093 2.7060001,0.029 2.9749999,-0.099 3.244,-0.227 3.4560001,-0.41 3.612,-0.648 3.72,-0.81599998 3.7969999,-1.012 3.845,-1.239 3.891,-1.464 3.914,-1.797 3.914,-2.2379999 v -2.448 H 3.3229999 V -2.063 c 0,0.5540001 -0.1069998,0.955 -0.3169999,1.20500002 -0.213,0.25 -0.552,0.37499997 -1.017,0.37499997 -0.273,0 -0.512,-0.055 -0.718,-0.164 C 1.066,-0.75599998 0.903,-0.91299998 0.78399997,-1.117 0.70999997,-1.245 0.657,-1.39 0.62800002,-1.554 c -0.03,-0.163 -0.045,-0.4480001 -0.045,-0.854 V -4.6859999 H 2e-8 L 0,0"
         style="fill:#231f20;fill-opacity:1;fill-rule:evenodd;stroke:none"
         id="path202" /></g><g
       id="g204"
       transform="translate(186.869,651.27399)"><path
         d="M 0,0 C -0.185,0.34 -0.41,0.592 -0.67500001,0.75599998 -0.94099998,0.91900002 -1.256,1 -1.623,1 -2.1059999,1 -2.516,0.81699997 -2.8510001,0.451 -3.187,0.084 -3.3559999,-0.368 -3.3559999,-0.907 c 0,-0.54 0.1689999,-0.991 0.5079999,-1.353 0.3370001,-0.362 0.7539999,-0.543 1.251,-0.543 0.364,0 0.68400002,0.09 0.963,0.2690001 C -0.356,-2.3559999 -0.145,-2.105 0,-1.781 H 0.66500002 C 0.48300001,-2.29 0.198,-2.6830001 -0.192,-2.9619999 c -0.38799998,-0.2780001 -0.848,-0.417 -1.375,-0.417 -0.6790001,0 -1.252,0.2409999 -1.719,0.7219998 C -3.753,-2.175 -3.987,-1.595 -3.987,-0.916 c 0,0.692 0.237,1.28 0.71,1.76100002 C -2.8050001,1.326 -2.2290001,1.5679999 -1.5499999,1.5679999 -1.043,1.5679999 -0.59500002,1.431 -0.206,1.156 0.182,0.88300001 0.47099998,0.497 0.66500002,0 H 0"
         style="fill:#231f20;fill-opacity:1;fill-rule:evenodd;stroke:none"
         id="path206" /></g><g
       id="g208"
       transform="translate(188.39,652.71399)"><path
         d="m 0,0 h 0.592 v -2.4879999 c 0,-0.638 0.103,-1.0900002 0.311,-1.3570001 0.206,-0.2660001 0.548,-0.398 1.0219999,-0.398 0.2710002,0 0.5080002,0.055 0.711,0.164 C 2.8410001,-3.97 3.006,-3.8110001 3.131,-3.605 c 0.071,0.122 0.122,0.2680001 0.1540001,0.434 0.03,0.1659999 0.046,0.4549999 0.046,0.8659999 V 0 H 3.9319999 V -4.6869998 H 3.3310001 v 0.5079999 c -0.181,-0.2220001 -0.385,-0.382 -0.6090002,-0.4809999 -0.224,-0.1010003 -0.4959998,-0.1500001 -0.8139999,-0.1500001 -0.675,0 -1.162,0.1830001 -1.45999999,0.5479998 C 0.15,-3.8970001 0,-3.2920001 0,-2.4460001 V 0"
         style="fill:#231f20;fill-opacity:1;fill-rule:evenodd;stroke:none"
         id="path210" /></g><g
       id="g212"
       transform="translate(192.979,649.50201)"><path
         d="m 0,0 h 0.61799997 v -0.017 c 0,-0.293 0.084,-0.534 0.25100004,-0.72599997 C 1.0369999,-0.935 1.245,-1.031 1.492,-1.031 c 0.235,0 0.43,0.074 0.587,0.221 0.1559999,0.148 0.234,0.33399999 0.234,0.558 0,0.224 -0.061,0.405 -0.1840001,0.541 C 2.0050001,0.426 1.781,0.55400002 1.457,0.67299997 0.93800002,0.85799998 0.59799998,1.047 0.43900001,1.239 0.28099998,1.432 0.201,1.691 0.201,2.0150001 0.201,2.382 0.333,2.6930001 0.59899997,2.947 0.86400002,3.2030001 1.187,3.3310001 1.563,3.3310001 c 0.401,0 0.7179999,-0.1130002 0.9539999,-0.3400002 C 2.753,2.763 2.8789999,2.4460001 2.8959999,2.04 h -0.642 C 2.2390001,2.263 2.1700001,2.434 2.043,2.556 1.917,2.678 1.743,2.74 1.525,2.74 1.329,2.74 1.166,2.674 1.035,2.5420001 0.90399998,2.4089999 0.83899998,2.2449999 0.83899998,2.049 c 0,-0.14 0.028,-0.256 0.081,-0.352 C 0.97399997,1.602 1.063,1.5169999 1.188,1.44 1.301,1.368 1.467,1.2999999 1.6849999,1.234 1.9019999,1.169 2.0469999,1.121 2.122,1.091 2.414,0.96600002 2.6289999,0.80000001 2.767,0.592 2.905,0.384 2.974,0.121 2.974,-0.201 2.974,-0.60299998 2.8329999,-0.93800002 2.552,-1.2029999 2.2709999,-1.466 1.914,-1.598 1.483,-1.598 c -0.44,0 -0.79399999,0.144 -1.061,0.432 C 0.154,-0.87699997 0.015,-0.489 0,0"
         style="fill:#231f20;fill-opacity:1;fill-rule:evenodd;stroke:none"
         id="path214" /></g><g
       id="g216"
       transform="translate(197.08099,648.02698)"><path
         d="m 0,0 v 4.0819998 h -0.88999998 v 0.605 H 0 V 6.2030001 H 0.60100001 V 4.6869998 H 1.49 v -0.605 H 0.60100001 V 0 H 0"
         style="fill:#231f20;fill-opacity:1;fill-rule:evenodd;stroke:none"
         id="path218" /></g><g
       id="g220"
       transform="translate(199.42999,650.37604)"><path
         d="M 0,0 C 0,-0.541 0.172,-0.99299997 0.51499998,-1.358 0.85900002,-1.723 1.285,-1.905 1.797,-1.905 c 0.502,0 0.924,0.182 1.265,0.547 0.3410001,0.36500003 0.5109999,0.82000002 0.5109999,1.365 0,0.55399998 -0.1729998,1.009 -0.5179998,1.366 C 2.71,1.729 2.273,1.908 1.742,1.908 1.265,1.908 0.85500001,1.724 0.51300001,1.358 0.172,0.99199998 0,0.53899997 0,0 Z m -0.63099998,-0.01 c 0,0.68699998 0.23599997,1.275 0.70699998,1.7639999 C 0.547,2.2420001 1.105,2.487 1.751,2.487 2.428,2.487 3.007,2.247 3.4860001,1.7669999 3.964,1.2869999 4.204,0.71399998 4.204,0.049 4.204,-0.64899998 3.97,-1.245 3.5009999,-1.739 3.0320001,-2.234 2.4649999,-2.4809999 1.797,-2.4809999 c -0.679,0 -1.25299998,0.243 -1.723,0.727 C -0.39500001,-1.27 -0.63099998,-0.68900001 -0.63099998,-0.01"
         style="fill:#231f20;fill-opacity:1;fill-rule:evenodd;stroke:none"
         id="path222" /></g><g
       id="g224"
       transform="translate(208.022,651.979)"><path
         d="M 0,0 C 0.191,0.271 0.428,0.47600001 0.70999997,0.616 0.99199998,0.75800001 1.309,0.82700002 1.658,0.82700002 c 0.6370001,0 1.099,-0.19 1.388,-0.57200002 0.29,-0.383 0.4349999,-0.99699998 0.4349999,-1.843 V -3.9519999 H 2.905 V -1.464 c 0,0.61799999 -0.102,1.05800002 -0.307,1.321 -0.203,0.264 -0.5380001,0.39399998 -1,0.39399998 C 1.331,0.25099998 1.0959999,0.196 0.893,0.087 0.68900001,-0.022 0.52899998,-0.179 0.41,-0.382 0.33899998,-0.51 0.28799998,-0.65600001 0.25600001,-0.82 0.225,-0.98299998 0.209,-1.268 0.209,-1.674 V -3.9519999 H -0.35800001 V -1.329 c 0,0.53899998 -0.10899999,0.938 -0.32799997,1.195 C -0.90399998,0.124 -1.24,0.25099998 -1.691,0.25099998 -1.964,0.25099998 -2.2030001,0.196 -2.4089999,0.087 -2.6140001,-0.022 -2.777,-0.179 -2.8970001,-0.382 -2.971,-0.51 -3.023,-0.65600001 -3.052,-0.82 -3.083,-0.98299998 -3.097,-1.268 -3.097,-1.674 v -2.2779999 h -0.592 v 4.68599992 h 0.592 V 0.201 c 0.1789999,0.208 0.389,0.36300001 0.632,0.46800002 0.243,0.10599995 0.5179999,0.158 0.8249999,0.158 0.355,0 0.67899998,-0.074 0.97099998,-0.22400004 C -0.377,0.454 -0.153,0.253 0,0"
         style="fill:#231f20;fill-opacity:1;fill-rule:evenodd;stroke:none"
         id="path226" /></g><g
       id="g228"
       transform="translate(217.062,650.17902)"><path
         d="m 0,0 h -4.23 c 0.036,-0.51 0.2210002,-0.922 0.5539999,-1.237 0.332,-0.315 0.746,-0.472 1.243,-0.472 0.352,0 0.669,0.092 0.9500001,0.2740001 0.2800001,0.1829999 0.49899998,0.43599989 0.65099999,0.76199993 H -0.15 C -0.365,-1.192 -0.66900002,-1.589 -1.059,-1.867 -1.45,-2.145 -1.9019999,-2.2839999 -2.415,-2.2839999 c -0.6819999,0 -1.259,0.2419998 -1.7309999,0.7279999 -0.4710002,0.486 -0.7060003,1.07 -0.7060003,1.751 0,0.71399997 0.2310004,1.303 0.6920004,1.768 C -3.6989999,2.4300001 -3.109,2.6619999 -2.391,2.6619999 c 0.7060001,0 1.2800001,-0.2419998 1.724,-0.727 C -0.222,1.45 0,0.819 0,0.042 Z M -0.66500002,0.50700002 C -0.778,1.034 -0.98699998,1.431 -1.291,1.697 c -0.304,0.266 -0.7,0.398 -1.1880001,0.398 -0.454,0 -0.839,-0.1420001 -1.155,-0.429 C -3.9489999,1.38 -4.1409998,0.995 -4.2119999,0.50700002 h 3.54699988"
         style="fill:#231f20;fill-opacity:1;fill-rule:evenodd;stroke:none"
         id="path230" /></g><g
       id="g232"
       transform="translate(218.353,648.02698)"><path
         d="M 0,0 H -0.60900002 V 4.6869998 H -0.042 V 4.1459999 C 0.105,4.3540001 0.266,4.5050001 0.44100001,4.6020002 0.61699998,4.6979999 0.82,4.7490001 1.053,4.7550001 l 0.004,-0.651 C 0.67900002,4.0700002 0.409,3.957 0.246,3.7650001 0.081,3.5729999 0,3.2609999 0,2.8299999 V 0"
         style="fill:#231f20;fill-opacity:1;fill-rule:evenodd;stroke:none"
         id="path234" /></g><g
       id="g236"
       transform="translate(224.22301,705.24603)"><path
         d="M 0,0 C 0,0.32499998 0.069,0.57099997 0.205,0.736 0.342,0.90200001 0.51499998,0.98500001 0.72500002,0.98500001 0.93,0.98500001 1.103,0.90200001 1.241,0.736 1.38,0.57099997 1.449,0.33199998 1.449,0.019 1.449,-0.319 1.381,-0.57099997 1.2439999,-0.73699998 1.108,-0.903 0.935,-0.98500001 0.72500002,-0.98500001 0.51700001,-0.98500001 0.345,-0.90200001 0.207,-0.736 0.069,-0.57 0,-0.324 0,0 Z m 0.268,0 c 0,-0.244 0.045,-0.42500001 0.133,-0.54400002 0.089,-0.11899996 0.19900002,-0.17899996 0.33,-0.17899996 0.12299997,0 0.22899997,0.06 0.317,0.18099998 0.089,0.12 0.133,0.3 0.133,0.542 0,0.242 -0.045,0.423 -0.133,0.542 -0.089,0.11900001 -0.19900003,0.17800002 -0.331,0.17800002 -0.124,0 -0.23000002,-0.06 -0.31800002,-0.17900002 C 0.312,0.422 0.268,0.241 0.268,0"
         style="fill:#231f20;fill-opacity:1;fill-rule:evenodd;stroke:none"
         id="path238" /></g><g
       id="g240"
       transform="translate(225.979,704.30402)"><path
         d="M 0,0 V 1.885 H 0.236 V 1.599 C 0.297,1.732 0.352,1.82 0.40200001,1.863 0.453,1.906 0.509,1.928 0.57200002,1.928 c 0.0869999,0 0.17699999,-0.035 0.26799995,-0.103 l -0.089,-0.297 c -0.065,0.047 -0.12799996,0.07 -0.19,0.07 C 0.505,1.598 0.454,1.5779999 0.408,1.539 0.362,1.5 0.33,1.446 0.311,1.376 0.277,1.2539999 0.261,1.1239999 0.261,0.98699998 L 0.261,0 H 0"
         style="fill:#231f20;fill-opacity:1;fill-rule:evenodd;stroke:none"
         id="path242" /></g><g
       id="g244"
       transform="translate(227.974,704.30402)"><path
         d="M 0,0 V 0.238 C -0.047,0.147 -0.109,0.077 -0.183,0.029 c -0.075,-0.048 -0.155,-0.071 -0.24200001,-0.071 -0.18199999,0 -0.33999997,0.086 -0.472,0.258 C -1.031,0.38800001 -1.097,0.63 -1.097,0.94300001 -1.097,1.1569999 -1.068,1.338 -1.008,1.487 c 0.059,0.149 0.138,0.26 0.23699998,0.333 0.0980001,0.072 0.208,0.108 0.32900002,0.108 0.086,0 0.166,-0.023 0.24,-0.069 0.074,-0.045 0.135,-0.109 0.184,-0.19 V 2.602 H 0.245 V 0 Z m -0.829,0.94099998 c 0,-0.24399996 0.042,-0.42500001 0.12699998,-0.54399997 C -0.61699998,0.27900001 -0.519,0.22 -0.407,0.22 c 0.111,0 0.208,0.057 0.289,0.171 0.082,0.113 0.123,0.285 0.123,0.51399997 C 0.005,1.169 -0.036,1.362 -0.118,1.483 -0.199,1.604 -0.30199998,1.665 -0.426,1.665 -0.53600001,1.665 -0.63099998,1.607 -0.70999997,1.49 -0.79000002,1.373 -0.829,1.191 -0.829,0.94099998"
         style="fill:#231f20;fill-opacity:1;fill-rule:evenodd;stroke:none"
         id="path246" /></g><g
       id="g248"
       transform="translate(229.687,704.91101)"><path
         d="M 0,0 0.27000001,-0.041 C 0.225,-0.242 0.143,-0.394 0.025,-0.496 c -0.117,-0.10299997 -0.263,-0.15299998 -0.437,-0.15299998 -0.21899998,0 -0.39600002,0.083 -0.532,0.24899998 -0.135,0.166 -0.2029999,0.406 -0.2029999,0.719 0,0.32599998 0.069,0.574 0.20499993,0.745 C -0.805,1.235 -0.63200002,1.321 -0.423,1.321 c 0.2,0 0.367,-0.084 0.5,-0.252 C 0.211,0.89999997 0.278,0.657 0.278,0.33899998 l -9.9999e-4,-0.085 h -1.15399998 c 0.011,-0.212 0.06,-0.371 0.14699996,-0.479 0.088,-0.108 0.194,-0.162 0.32000001,-0.162 C -0.214,-0.38700002 -0.077,-0.258 0,0 Z M -0.861,0.51700001 H 0.001 C -0.01,0.68 -0.045,0.80199998 -0.103,0.88200002 -0.187,0.99900001 -0.29499998,1.058 -0.42500001,1.058 c -0.11699999,0 -0.217,-0.049 -0.30000001,-0.14699999 -0.083,-0.097 -0.12799996,-0.22900003 -0.13599998,-0.394"
         style="fill:#231f20;fill-opacity:1;fill-rule:evenodd;stroke:none"
         id="path250" /></g><g
       id="g252"
       transform="translate(230.286,704.30402)"><path
         d="M 0,0 V 1.885 H 0.236 V 1.599 C 0.297,1.732 0.352,1.82 0.40200001,1.863 0.453,1.906 0.509,1.928 0.57200002,1.928 c 0.0869999,0 0.17699999,-0.035 0.26799995,-0.103 l -0.089,-0.297 c -0.065,0.047 -0.12799996,0.07 -0.19,0.07 C 0.505,1.598 0.454,1.5779999 0.408,1.539 0.362,1.5 0.33,1.446 0.311,1.376 0.278,1.2539999 0.261,1.1239999 0.261,0.98699998 V 0 H 0"
         style="fill:#231f20;fill-opacity:1;fill-rule:evenodd;stroke:none"
         id="path254" /></g><g
       id="g256"
       transform="translate(231.286,704.30402)"><path
         d="M 0,0 V 2.602 H 0.261 V 1.118 L 0.88200002,1.885 H 1.2209999 L 0.63,1.186 1.28,0 H 0.958 L 0.445,0.96399998 0.261,0.74699997 V 0 H 0"
         style="fill:#231f20;fill-opacity:1;fill-rule:evenodd;stroke:none"
         id="path258" /></g><g
       id="g260"
       transform="translate(233.828,704.91101)"><path
         d="M 0,0 0.27000001,-0.041 C 0.225,-0.242 0.143,-0.394 0.025,-0.496 c -0.117,-0.10299997 -0.263,-0.15299998 -0.437,-0.15299998 -0.21899998,0 -0.39600002,0.083 -0.532,0.24899998 -0.135,0.166 -0.2029999,0.406 -0.2029999,0.719 0,0.32599998 0.069,0.574 0.20499993,0.745 C -0.805,1.235 -0.63200002,1.321 -0.423,1.321 c 0.2,0 0.367,-0.084 0.5,-0.252 C 0.211,0.89999997 0.278,0.657 0.278,0.33899998 l -9.9999e-4,-0.085 h -1.15399998 c 0.011,-0.212 0.06,-0.371 0.14699996,-0.479 0.088,-0.108 0.194,-0.162 0.32000001,-0.162 C -0.214,-0.38700002 -0.077,-0.258 0,0 Z M -0.861,0.51700001 H 0.001 C -0.01,0.68 -0.045,0.80199998 -0.103,0.88200002 -0.187,0.99900001 -0.294,1.058 -0.42500001,1.058 c -0.11699999,0 -0.217,-0.049 -0.30000001,-0.14699999 -0.083,-0.097 -0.12799996,-0.22900003 -0.13599998,-0.394"
         style="fill:#231f20;fill-opacity:1;fill-rule:evenodd;stroke:none"
         id="path262" /></g><g
       id="g264"
       transform="translate(234.42101,703.578)"><path
         d="m 0,0 -0.028,0.30000001 c 0.058,-0.019 0.107,-0.029 0.149,-0.029 0.055,0 0.101,0.012 0.13699998,0.034 0.037,0.023 0.066,0.057 0.09,0.105 0.008,0.017 0.042,0.12100001 0.10300002,0.312 L -0.137,2.6110001 H 0.145 L 0.468,1.52 C 0.509,1.383 0.546,1.238 0.57999998,1.0829999 c 0.03,0.1460001 0.065,0.2890001 0.106,0.4290001 L 1.0169999,2.6110001 H 1.28 L 0.69199997,0.694 C 0.615,0.445 0.55400002,0.27900001 0.51,0.196 0.466,0.113 0.416,0.053 0.359,0.016 0.303,-0.021 0.239,-0.039 0.168,-0.039 0.119,-0.039 0.062,-0.026 0,0"
         style="fill:#231f20;fill-opacity:1;fill-rule:evenodd;stroke:none"
         id="path266" /></g><g
       id="g268"
       transform="translate(229.15601,650.67303)"><path
         d="M 0,0 0.25799998,-0.041 C 0.228,-0.266 0.154,-0.437 0.035,-0.556 c -0.119,-0.11800002 -0.262,-0.17699998 -0.429,-0.17699998 -0.20200001,0 -0.36900001,0.083 -0.5,0.24899998 -0.131,0.16600002 -0.196,0.412 -0.196,0.738 0,0.32800001 0.066,0.57300002 0.19799999,0.737 C -0.76,1.155 -0.58999997,1.237 -0.384,1.237 c 0.16,0 0.295,-0.049 0.405,-0.149 C 0.13,0.98799997 0.2,0.83899998 0.231,0.63999998 L -0.023,0.593 c -0.025,0.12700002 -0.068,0.22299998 -0.13,0.286 -0.061,0.064 -0.13499998,0.095 -0.22100001,0.095 -0.12900001,0 -0.236,-0.057 -0.32099999,-0.171 -0.084,-0.11399996 -0.12700002,-0.29499996 -0.12700002,-0.54399997 0,-0.257 0.041,-0.443 0.12200004,-0.558 0.081,-0.11399998 0.185,-0.17199998 0.31199997,-0.17199998 C -0.289,-0.47099998 -0.204,-0.433 -0.134,-0.356 -0.064,-0.28 -0.019,-0.161 0,0"
         style="fill:#231f20;fill-opacity:1;fill-rule:evenodd;stroke:none"
         id="path270" /></g><g
       id="g272"
       transform="translate(230.647,649.98199)"><path
         d="M 0,0 V 0.27700001 C -0.06,0.17 -0.131,0.09 -0.213,0.038 c -0.081,-0.054 -0.174,-0.08 -0.277,-0.08 -0.12199998,0 -0.22600002,0.032 -0.31199998,0.098 -0.087,0.066 -0.14399999,0.149 -0.17400003,0.249 -0.0279999,0.10099998 -0.042,0.23799998 -0.042,0.412 v 1.168 h 0.25999998 V 0.83999997 c 0,-0.19499999 0.01,-0.324 0.03,-0.38999999 C -0.709,0.384 -0.67299997,0.331 -0.62,0.292 c 0.052,-0.039 0.11199999,-0.059 0.18,-0.059 0.12599999,0 0.229,0.051 0.309,0.154 0.069,0.089 0.102,0.252 0.102,0.488 v 1.01 H 0.234 L 0.234,0 H 0"
         style="fill:#231f20;fill-opacity:1;fill-rule:evenodd;stroke:none"
         id="path274" /></g><g
       id="g276"
       transform="translate(231.192,650.54498)"><path
         d="m 0,0 0.259,0.05 c 0.015,-0.133 0.058,-0.232 0.126,-0.296 0.069,-0.064 0.16000001,-0.097 0.27399997,-0.097 0.11300004,0 0.20100004,0.029 0.26300003,0.084 0.062,0.057 0.093,0.128 0.093,0.214 0,0.075 -0.026,0.133 -0.08,0.175 C 0.899,0.158 0.81,0.193 0.66900002,0.236 0.466,0.299 0.33000001,0.352 0.261,0.396 0.193,0.439 0.139,0.498 0.101,0.57099997 0.064,0.64499997 0.045,0.72799998 0.045,0.82200002 0.045,0.98299998 0.096,1.114 0.199,1.214 0.30199998,1.315 0.445,1.365 0.62699997,1.365 0.74199998,1.365 0.842,1.344 0.92900002,1.303 1.0169999,1.261 1.0829999,1.206 1.1289999,1.136 c 0.046,-0.07 0.078,-0.16999998 0.096,-0.29999998 l -0.25600002,-0.043 C 0.94599997,0.99900001 0.834,1.102 0.634,1.102 0.51999998,1.102 0.43599998,1.079 0.38,1.034 0.325,0.988 0.297,0.93 0.297,0.85900002 c 0,-0.07 0.026,-0.125 0.079,-0.16500002 C 0.408,0.67 0.50300004,0.633 0.66000004,0.57999998 0.87699997,0.51 1.0169999,0.45500001 1.081,0.414 1.145,0.373 1.195,0.318 1.23,0.247 1.266,0.177 1.284,0.093 1.284,-0.004 1.284,-0.184 1.226,-0.329 1.112,-0.44 0.99800002,-0.551 0.842,-0.607 0.64499998,-0.607 0.27399998,-0.607 0.059,-0.405 0,0"
         style="fill:#231f20;fill-opacity:1;fill-rule:evenodd;stroke:none"
         id="path278" /></g><g
       id="g280"
       transform="translate(233.366,650.26801)"><path
         d="m 0,0 0.036,-0.282 c -0.072,-0.019 -0.138,-0.029 -0.195,-0.029 -0.092,0 -0.165,0.018 -0.221,0.054 -0.055,0.036 -0.093,0.086 -0.11399998,0.149 -0.021,0.062 -0.031,0.187 -0.031,0.374 V 1.3509999 H -0.71700001 V 1.599 h 0.19200003 V 2.066 L -0.264,2.2579999 V 1.599 H 0 V 1.3509999 H -0.264 V 0.248 c 0,-0.101 0.007,-0.167 0.023,-0.196 0.022,-0.043 0.064,-0.065 0.126,-0.065 0.03,0 0.068,0.005 0.115,0.013"
         style="fill:#231f20;fill-opacity:1;fill-rule:evenodd;stroke:none"
         id="path282" /></g><g
       id="g284"
       transform="translate(233.618,649.98199)"><path
         d="M 0,0 V 2.602 H 0.261 V 1.118 L 0.88200002,1.885 H 1.2209999 L 0.63,1.186 1.28,0 H 0.958 L 0.445,0.96399998 0.261,0.74699997 V 0 H 0"
         style="fill:#231f20;fill-opacity:1;fill-rule:evenodd;stroke:none"
         id="path286" /></g><g
       id="g288"
       transform="translate(236.161,650.58899)"><path
         d="M 0,0 0.27000001,-0.041 C 0.225,-0.242 0.143,-0.394 0.025,-0.496 c -0.117,-0.10299997 -0.263,-0.15299998 -0.437,-0.15299998 -0.21899998,0 -0.39600002,0.083 -0.532,0.24899998 -0.135,0.166 -0.2029999,0.406 -0.2029999,0.719 0,0.32599998 0.069,0.574 0.20499993,0.745 C -0.805,1.235 -0.63200002,1.321 -0.423,1.321 c 0.2,0 0.367,-0.084 0.5,-0.252 C 0.211,0.89999997 0.278,0.657 0.278,0.33899998 l -9.9999e-4,-0.085 h -1.15399998 c 0.011,-0.212 0.06,-0.371 0.14699996,-0.479 0.088,-0.108 0.194,-0.162 0.32000001,-0.162 C -0.214,-0.38700002 -0.077,-0.258 0,0 Z M -0.861,0.51700001 H 0.001 C -0.01,0.68 -0.045,0.80199998 -0.103,0.88200002 -0.187,0.99900001 -0.29499998,1.058 -0.42500001,1.058 c -0.11699999,0 -0.217,-0.049 -0.30000001,-0.14699999 -0.083,-0.097 -0.12799996,-0.22900003 -0.13599998,-0.394"
         style="fill:#231f20;fill-opacity:1;fill-rule:evenodd;stroke:none"
         id="path290" /></g><g
       id="g292"
       transform="translate(236.75301,649.25702)"><path
         d="m 0,0 -0.028,0.30000001 c 0.058,-0.019 0.107,-0.029 0.149,-0.029 0.055,0 0.101,0.012 0.13699998,0.034 0.036,0.023 0.066,0.057 0.09,0.105 0.008,0.017 0.042,0.12100001 0.10300002,0.312 L -0.137,2.6110001 H 0.145 L 0.468,1.519 C 0.509,1.383 0.546,1.238 0.57999998,1.0829999 c 0.03,0.1460001 0.065,0.2890001 0.106,0.4290001 L 1.0169999,2.6110001 H 1.28 L 0.69199997,0.694 C 0.615,0.445 0.55400002,0.27900001 0.51,0.196 0.466,0.113 0.416,0.053 0.359,0.016 0.303,-0.021 0.239,-0.039 0.168,-0.039 0.119,-0.039 0.062,-0.026 0,0"
         style="fill:#231f20;fill-opacity:1;fill-rule:evenodd;stroke:none"
         id="path294" /></g><g
       id="g296"
       transform="translate(164.267,650.52802)"><path
         d="M 0,0 V 1.885 H 0.236 V 1.617 c 0.057,0.1039999 0.127,0.182 0.209,0.233 0.082,0.052 0.17699997,0.078 0.28299998,0.078 0.083,0 0.16000003,-0.017 0.23000002,-0.049 0.07,-0.033 0.127,-0.075 0.17,-0.128 C 1.172,1.6979999 1.204,1.63 1.225,1.546 1.246,1.462 1.257,1.3329999 1.257,1.159 V 0 H 0.99400001 V 1.1469999 C 0.99400001,1.285 0.98299998,1.386 0.959,1.45 0.935,1.514 0.898,1.564 0.84799998,1.598 0.797,1.633 0.73900002,1.651 0.67299997,1.651 0.54799997,1.651 0.44800001,1.604 0.373,1.51 0.299,1.417 0.261,1.257 0.261,1.029 V 0 H 0"
         style="fill:#231f20;fill-opacity:1;fill-rule:evenodd;stroke:none"
         id="path298" /></g><g
       id="g300"
       transform="translate(166.933,650.76099)"><path
         d="M 0,0 C -0.087,-0.091 -0.178,-0.16 -0.273,-0.206 -0.368,-0.252 -0.466,-0.275 -0.56800001,-0.275 -0.72899997,-0.275 -0.857,-0.227 -0.953,-0.13 c -0.096,0.097 -0.144,0.228 -0.144,0.392 0,0.109 0.023,0.206 0.068,0.28999998 0.044,0.084 0.10600003,0.15000004 0.18399998,0.19700003 0.079,0.047 0.19700002,0.082 0.35500002,0.10499996 0.21299999,0.031 0.369,0.067 0.469,0.11000001 l 0.002,0.0809999 C -0.019,1.174 -0.042,1.265 -0.089,1.317 -0.153,1.393 -0.253,1.4299999 -0.38800001,1.4299999 -0.51,1.4299999 -0.602,1.406 -0.662,1.355 -0.722,1.3049999 -0.76599997,1.21 -0.79500001,1.072 L -1.052,1.115 c 0.036,0.202 0.11000003,0.349 0.22200002,0.442 0.11199998,0.091 0.273,0.138 0.47999998,0.138 0.163,0 0.29,-0.031 0.382,-0.091 C 0.125,1.542 0.183,1.467 0.207,1.377 0.231,1.287 0.243,1.156 0.243,0.98299998 v -0.426 C 0.243,0.259 0.249,0.071 0.261,-0.006 0.271,-0.084 0.294,-0.159 0.327,-0.233 H 0.053 C 0.026,-0.168 0.008,-0.09 0,0 Z M -0.021,0.71399998 C -0.117,0.666 -0.259,0.62599998 -0.449,0.592 -0.55900001,0.574 -0.63599997,0.552 -0.68,0.528 -0.723,0.503 -0.757,0.47 -0.782,0.42500001 c -0.024,-0.045 -0.036,-0.095 -0.036,-0.15400001 0,-0.089 0.028,-0.161 0.084,-0.215 0.055,-0.054 0.13200002,-0.081 0.23000002,-0.081 0.094,0 0.17900002,0.024 0.255,0.073 0.076,0.048 0.133,0.113 0.171,0.194 0.038,0.081 0.057,0.19900001 0.057,0.35400001 v 0.11799997"
         style="fill:#231f20;fill-opacity:1;fill-rule:evenodd;stroke:none"
         id="path302" /></g><g
       id="g304"
       transform="translate(168.16701,650.81403)"><path
         d="m 0,0 0.036,-0.282 c -0.072,-0.019 -0.138,-0.029 -0.195,-0.029 -0.092,0 -0.165,0.018 -0.221,0.054 -0.055,0.037 -0.093,0.086 -0.11399998,0.149 -0.021,0.062 -0.031,0.187 -0.031,0.374 V 1.3509999 H -0.71700001 V 1.599 h 0.19200003 V 2.066 L -0.264,2.2579999 V 1.599 H 0 V 1.3509999 H -0.264 V 0.248 c 0,-0.101 0.007,-0.167 0.023,-0.196 0.022,-0.043 0.064,-0.065 0.126,-0.065 0.03,0 0.068,0.005 0.115,0.013"
         style="fill:#231f20;fill-opacity:1;fill-rule:evenodd;stroke:none"
         id="path306" /></g><g
       id="g308"
       transform="translate(168.411,652.763)"><path
         d="M 0.261,0 H 0 V 0.368 H 0.261 Z M 0,0 Z M 0.261,-2.234 H 0 v 1.88500004 h 0.261 z"
         style="fill:#231f20;fill-opacity:1;fill-rule:evenodd;stroke:none"
         id="path310" /></g><g
       id="g312"
       transform="translate(168.976,651.47101)"><path
         d="M 0,0 C 0,0.32499998 0.069,0.57099997 0.205,0.736 0.342,0.90200001 0.51499998,0.98500001 0.72500002,0.98500001 0.93,0.98500001 1.103,0.90200001 1.241,0.736 1.38,0.57099997 1.449,0.33199998 1.449,0.019 1.449,-0.319 1.381,-0.57099997 1.2439999,-0.73699998 1.108,-0.903 0.935,-0.98500001 0.72500002,-0.98500001 0.518,-0.98500001 0.345,-0.90200001 0.207,-0.736 0.069,-0.57 0,-0.324 0,0 Z m 0.268,0 c 0,-0.244 0.045,-0.42500001 0.133,-0.54400002 0.089,-0.11899996 0.19900002,-0.17899996 0.33,-0.17899996 0.12299997,0 0.22899997,0.06 0.317,0.18099998 0.089,0.12 0.133,0.3 0.133,0.542 0,0.242 -0.045,0.423 -0.133,0.542 -0.089,0.11900001 -0.19900003,0.17800002 -0.331,0.17800002 -0.124,0 -0.23000002,-0.06 -0.31800002,-0.17900002 C 0.312,0.422 0.268,0.241 0.268,0"
         style="fill:#231f20;fill-opacity:1;fill-rule:evenodd;stroke:none"
         id="path314" /></g><g
       id="g316"
       transform="translate(170.731,650.52802)"><path
         d="M 0,0 V 1.885 H 0.236 V 1.617 c 0.057,0.1039999 0.127,0.182 0.209,0.233 0.082,0.052 0.17699997,0.078 0.28299998,0.078 0.083,0 0.16000003,-0.017 0.23000002,-0.049 0.07,-0.033 0.127,-0.075 0.17,-0.128 C 1.172,1.6979999 1.204,1.63 1.225,1.546 1.246,1.462 1.257,1.3329999 1.257,1.159 V 0 H 0.99400001 V 1.1469999 C 0.99400001,1.285 0.98299998,1.386 0.959,1.45 0.935,1.514 0.898,1.564 0.84799998,1.598 0.797,1.633 0.73900002,1.651 0.67299997,1.651 0.54799997,1.651 0.44800001,1.604 0.373,1.51 0.299,1.417 0.261,1.257 0.261,1.029 V 0 H 0"
         style="fill:#231f20;fill-opacity:1;fill-rule:evenodd;stroke:none"
         id="path318" /></g><g
       id="g320"
       transform="translate(172.396,650.52802)"><path
         d="M 0,0 V 2.602 H 0.261 V 1.118 L 0.88200002,1.885 H 1.2209999 L 0.63,1.186 1.28,0 H 0.958 L 0.445,0.96399998 0.261,0.74699997 V 0 H 0"
         style="fill:#231f20;fill-opacity:1;fill-rule:evenodd;stroke:none"
         id="path322" /></g><g
       id="g324"
       transform="translate(174.938,651.13501)"><path
         d="M 0,0 0.27000001,-0.041 C 0.225,-0.242 0.143,-0.394 0.025,-0.496 c -0.117,-0.10299997 -0.263,-0.15299998 -0.437,-0.15299998 -0.21899998,0 -0.39600002,0.083 -0.532,0.24899998 -0.135,0.166 -0.2029999,0.406 -0.2029999,0.719 0,0.32599998 0.069,0.574 0.20499993,0.745 C -0.805,1.235 -0.63200002,1.321 -0.423,1.321 c 0.2,0 0.367,-0.084 0.5,-0.252 C 0.211,0.89999997 0.278,0.657 0.278,0.33899998 l -9.9999e-4,-0.085 h -1.15399998 c 0.011,-0.212 0.06,-0.371 0.14699996,-0.479 0.088,-0.108 0.194,-0.162 0.32000001,-0.162 C -0.214,-0.38700002 -0.077,-0.258 0,0 Z M -0.861,0.51700001 H 0.001 C -0.01,0.68 -0.045,0.80199998 -0.103,0.88200002 -0.187,0.99900001 -0.29499998,1.058 -0.42500001,1.058 c -0.11699999,0 -0.217,-0.049 -0.30000001,-0.14699999 -0.083,-0.097 -0.12799996,-0.22900003 -0.13599998,-0.394"
         style="fill:#231f20;fill-opacity:1;fill-rule:evenodd;stroke:none"
         id="path326" /></g><g
       id="g328"
       transform="translate(175.53101,649.802)"><path
         d="m 0,0 -0.028,0.30000001 c 0.058,-0.019 0.107,-0.029 0.149,-0.029 0.055,0 0.101,0.012 0.13699998,0.034 0.037,0.023 0.066,0.057 0.09,0.105 0.008,0.017 0.042,0.12100001 0.10300002,0.312 L -0.137,2.6110001 H 0.145 L 0.468,1.52 C 0.509,1.383 0.546,1.238 0.57999998,1.0829999 0.61000001,1.229 0.64499998,1.372 0.68699997,1.512 L 1.0169999,2.6110001 H 1.28 L 0.69199997,0.694 C 0.615,0.445 0.55400002,0.27900001 0.51,0.196 0.466,0.113 0.416,0.053 0.359,0.016 0.303,-0.021 0.239,-0.039 0.168,-0.039 0.119,-0.039 0.062,-0.026 0,0"
         style="fill:#231f20;fill-opacity:1;fill-rule:evenodd;stroke:none"
         id="path330" /></g><g
       id="g332"
       transform="translate(109.946,646.16101)"><path
         d="M 0,0 V 1.885 H 0.236 V 1.599 C 0.297,1.732 0.352,1.819 0.40200001,1.863 0.453,1.906 0.509,1.928 0.57200002,1.928 c 0.0869999,0 0.17699999,-0.035 0.26799995,-0.103 l -0.089,-0.297 c -0.065,0.047 -0.12799996,0.07 -0.19,0.07 C 0.505,1.598 0.454,1.5779999 0.408,1.539 0.362,1.5 0.33,1.446 0.311,1.376 0.277,1.2539999 0.261,1.1239999 0.261,0.98699998 L 0.261,0 H 0"
         style="fill:#231f20;fill-opacity:1;fill-rule:evenodd;stroke:none"
         id="path334" /></g><g
       id="g336"
       transform="translate(111.99699,646.76801)"><path
         d="M 0,0 0.27000001,-0.041 C 0.225,-0.242 0.143,-0.394 0.025,-0.496 c -0.117,-0.10299997 -0.263,-0.15299998 -0.437,-0.15299998 -0.21899998,0 -0.39600002,0.083 -0.532,0.24899998 -0.135,0.166 -0.2029999,0.406 -0.2029999,0.719 0,0.32599998 0.069,0.574 0.20499993,0.745 C -0.805,1.235 -0.63200002,1.321 -0.423,1.321 c 0.2,0 0.367,-0.084 0.5,-0.252 C 0.211,0.89999997 0.278,0.657 0.278,0.33899998 l -9.9999e-4,-0.085 h -1.15399998 c 0.011,-0.212 0.06,-0.371 0.14699996,-0.479 0.088,-0.108 0.194,-0.162 0.32000001,-0.162 C -0.214,-0.38700002 -0.077,-0.258 0,0 Z M -0.861,0.51700001 H 0.001 C -0.01,0.68 -0.045,0.80199998 -0.103,0.88200002 -0.187,0.99900001 -0.29499998,1.058 -0.42500001,1.058 c -0.11699999,0 -0.217,-0.049 -0.30000001,-0.14699999 -0.083,-0.097 -0.12799996,-0.22900003 -0.13599998,-0.394"
         style="fill:#231f20;fill-opacity:1;fill-rule:evenodd;stroke:none"
         id="path338" /></g><g
       id="g340"
       transform="translate(112.54601,646.00397)"><path
         d="m 0,0 0.25600001,-0.046 c 0.012,-0.101 0.047,-0.176 0.10599997,-0.225 0.06,-0.049 0.14100004,-0.073 0.24700004,-0.073 0.11499995,0 0.20699996,0.027 0.27399999,0.082 0.068,0.055 0.11500001,0.137 0.13999999,0.246 C 1.038,0.05 1.046,0.19 1.046,0.403 0.98900002,0.321 0.92500001,0.26 0.85399997,0.219 0.783,0.177 0.704,0.156 0.61799997,0.156 0.433,0.156 0.28,0.234 0.158,0.391 c -0.139,0.17999997 -0.21,0.41999998 -0.21,0.722 0,0.202 0.031,0.379 0.093,0.531 0.061,0.1509999 0.143,0.2629999 0.243,0.334 0.1,0.07 0.212,0.1060001 0.336,0.1060001 0.091,0 0.17400002,-0.022 0.24900001,-0.068 C 0.944,1.9709999 1.011,1.904 1.069,1.814 V 2.0409999 H 1.3099999 V 0.412 c 0,-0.29 -0.024,-0.497 -0.071,-0.62 C 1.192,-0.33199998 1.114,-0.43 1.007,-0.50099998 0.89899998,-0.57300001 0.769,-0.60900002 0.61799997,-0.60900002 0.41800001,-0.60900002 0.264,-0.555 0.156,-0.447 0.048,-0.33899998 -0.003,-0.19 0,0 Z M 0.219,1.132 C 0.219,0.885 0.259,0.70499998 0.341,0.59100002 0.423,0.477 0.523,0.421 0.64099997,0.421 0.759,0.421 0.86000001,0.47600001 0.94300001,0.588 1.026,0.699 1.067,0.87599998 1.067,1.118 1.067,1.355 1.024,1.531 0.93900001,1.646 0.85399997,1.762 0.75099998,1.819 0.62800002,1.819 0.51999998,1.819 0.424,1.762 0.342,1.646 0.26,1.531 0.219,1.36 0.219,1.132"
         style="fill:#231f20;fill-opacity:1;fill-rule:evenodd;stroke:none"
         id="path342" /></g><g
       id="g344"
       transform="translate(114.254,648.39502)"><path
         d="M 0.261,0 H 0 V 0.368 H 0.261 Z M 0,0 Z M 0.261,-2.234 H 0 v 1.88500004 h 0.261 z"
         style="fill:#231f20;fill-opacity:1;fill-rule:evenodd;stroke:none"
         id="path346" /></g><g
       id="g348"
       transform="translate(114.81799,647.104)"><path
         d="M 0,0 C 0,0.32499998 0.069,0.57099997 0.205,0.736 0.342,0.90200001 0.51499998,0.98500001 0.72500002,0.98500001 0.93,0.98500001 1.103,0.90200001 1.241,0.736 1.38,0.57099997 1.449,0.33199998 1.449,0.019 1.449,-0.319 1.381,-0.57099997 1.2439999,-0.73699998 1.108,-0.903 0.935,-0.98500001 0.72500002,-0.98500001 0.518,-0.98500001 0.345,-0.90200001 0.207,-0.736 0.069,-0.569 0,-0.324 0,0 Z m 0.268,0 c 0,-0.244 0.045,-0.42500001 0.133,-0.54400002 0.089,-0.11899996 0.19900002,-0.17899996 0.33,-0.17899996 0.12299997,0 0.22899997,0.06 0.317,0.18099998 0.089,0.12 0.133,0.3 0.133,0.542 0,0.242 -0.045,0.423 -0.133,0.542 -0.089,0.11900001 -0.19900003,0.17800002 -0.331,0.17800002 -0.124,0 -0.23000002,-0.06 -0.31800002,-0.17900002 C 0.312,0.422 0.268,0.241 0.268,0"
         style="fill:#231f20;fill-opacity:1;fill-rule:evenodd;stroke:none"
         id="path350" /></g><g
       id="g352"
       transform="translate(116.57401,646.16101)"><path
         d="M 0,0 V 1.885 H 0.236 V 1.617 c 0.057,0.1039999 0.127,0.182 0.209,0.233 0.082,0.052 0.17699997,0.078 0.28299998,0.078 0.083,0 0.16000003,-0.017 0.23000002,-0.049 0.07,-0.033 0.127,-0.075 0.17,-0.128 C 1.172,1.6979999 1.204,1.63 1.225,1.546 1.246,1.462 1.257,1.3329999 1.257,1.159 V 0 H 0.99400001 V 1.1469999 C 0.99400001,1.285 0.98299998,1.386 0.959,1.45 0.935,1.514 0.898,1.564 0.84799998,1.598 0.797,1.633 0.73900002,1.651 0.67299997,1.651 0.54799997,1.651 0.44800001,1.604 0.373,1.51 0.299,1.417 0.261,1.257 0.261,1.029 V 0 H 0"
         style="fill:#231f20;fill-opacity:1;fill-rule:evenodd;stroke:none"
         id="path354" /></g><g
       id="g356"
       transform="translate(118.239,646.16101)"><path
         d="M 0,0 V 2.602 H 0.261 V 1.118 L 0.88200002,1.885 H 1.2209999 L 0.63,1.186 1.28,0 H 0.958 L 0.445,0.96399998 0.261,0.74699997 V 0 H 0"
         style="fill:#231f20;fill-opacity:1;fill-rule:evenodd;stroke:none"
         id="path358" /></g><g
       id="g360"
       transform="translate(120.78101,646.76801)"><path
         d="M 0,0 0.27000001,-0.041 C 0.225,-0.242 0.143,-0.394 0.025,-0.496 c -0.117,-0.10299997 -0.263,-0.15299998 -0.437,-0.15299998 -0.21899998,0 -0.39600002,0.083 -0.532,0.24899998 -0.135,0.166 -0.2029999,0.406 -0.2029999,0.719 0,0.32599998 0.069,0.574 0.20499993,0.745 C -0.805,1.235 -0.63200002,1.321 -0.423,1.321 c 0.2,0 0.367,-0.084 0.5,-0.252 C 0.211,0.89999997 0.278,0.657 0.278,0.33899998 l -9.9999e-4,-0.085 h -1.15399998 c 0.011,-0.212 0.06,-0.371 0.14699996,-0.479 0.088,-0.108 0.194,-0.162 0.32000001,-0.162 C -0.214,-0.38700002 -0.077,-0.258 0,0 Z M -0.861,0.51700001 H 0.001 C -0.01,0.68 -0.045,0.80199998 -0.103,0.88200002 -0.187,0.99900001 -0.294,1.058 -0.42500001,1.058 c -0.11699999,0 -0.217,-0.049 -0.30000001,-0.14699999 -0.083,-0.097 -0.12799996,-0.22900003 -0.13599998,-0.394"
         style="fill:#231f20;fill-opacity:1;fill-rule:evenodd;stroke:none"
         id="path362" /></g><g
       id="g364"
       transform="translate(121.373,645.435)"><path
         d="m 0,0 -0.028,0.30000001 c 0.058,-0.019 0.107,-0.029 0.149,-0.029 0.055,0 0.101,0.012 0.13699998,0.034 0.036,0.023 0.066,0.057 0.09,0.105 0.008,0.017 0.042,0.12100001 0.10300002,0.312 L -0.137,2.6110001 H 0.145 L 0.468,1.52 C 0.509,1.383 0.546,1.238 0.57999998,1.0829999 c 0.03,0.1460001 0.065,0.2890001 0.106,0.4290001 L 1.0169999,2.6110001 H 1.28 L 0.69199997,0.694 C 0.615,0.445 0.55400002,0.27900001 0.51,0.196 0.466,0.113 0.416,0.053 0.359,0.016 0.303,-0.021 0.239,-0.039 0.168,-0.039 0.119,-0.039 0.062,-0.026 0,0"
         style="fill:#231f20;fill-opacity:1;fill-rule:evenodd;stroke:none"
         id="path366" /></g><g
       id="g368"
       transform="translate(167.989,702.95599)"><path
         d="m 0,0 0.259,0.05 c 0.015,-0.133 0.058,-0.232 0.126,-0.296 0.069,-0.064 0.16000001,-0.097 0.27399997,-0.097 0.11300004,0 0.20100004,0.029 0.26300003,0.084 0.062,0.057 0.093,0.128 0.093,0.214 0,0.075 -0.026,0.133 -0.08,0.175 C 0.899,0.158 0.81,0.193 0.66900002,0.236 0.466,0.299 0.33000001,0.352 0.261,0.396 0.193,0.439 0.139,0.498 0.101,0.57099997 0.064,0.64499997 0.045,0.72799998 0.045,0.82200002 0.045,0.98299998 0.096,1.114 0.199,1.214 0.30199998,1.315 0.445,1.365 0.62699997,1.365 0.74199998,1.365 0.842,1.344 0.92900002,1.303 1.0169999,1.261 1.0829999,1.206 1.1289999,1.136 c 0.046,-0.07 0.078,-0.16999998 0.096,-0.29999998 l -0.25600002,-0.043 C 0.94599997,0.99900001 0.834,1.102 0.634,1.102 0.51999998,1.102 0.43599998,1.079 0.38,1.034 0.325,0.988 0.297,0.93 0.297,0.85900002 c 0,-0.07 0.026,-0.125 0.079,-0.16500002 C 0.408,0.67 0.50300004,0.633 0.66000004,0.57999998 0.87699997,0.51 1.0169999,0.45500001 1.081,0.414 1.145,0.373 1.195,0.318 1.23,0.247 1.266,0.177 1.284,0.093 1.284,-0.004 1.284,-0.184 1.226,-0.329 1.112,-0.44 0.99800002,-0.551 0.842,-0.607 0.64499998,-0.607 0.27399998,-0.607 0.059,-0.405 0,0"
         style="fill:#231f20;fill-opacity:1;fill-rule:evenodd;stroke:none"
         id="path370" /></g><g
       id="g372"
       transform="translate(170.593,702.39301)"><path
         d="M 0,0 V 0.27700001 C -0.06,0.17 -0.131,0.09 -0.213,0.038 c -0.082,-0.054 -0.174,-0.08 -0.277,-0.08 -0.12199998,0 -0.22600002,0.032 -0.31199998,0.098 -0.087,0.066 -0.14399999,0.149 -0.17400003,0.249 -0.0279999,0.10099998 -0.042,0.23799998 -0.042,0.412 v 1.168 h 0.25999998 V 0.83999997 c 0,-0.19499999 0.01,-0.324 0.03,-0.38999999 C -0.709,0.384 -0.67299997,0.331 -0.62,0.292 c 0.052,-0.039 0.11199999,-0.059 0.18,-0.059 0.12599999,0 0.229,0.051 0.309,0.154 0.069,0.089 0.102,0.252 0.102,0.488 v 1.01 H 0.234 L 0.234,0 H 0"
         style="fill:#231f20;fill-opacity:1;fill-rule:evenodd;stroke:none"
         id="path374" /></g><g
       id="g376"
       transform="translate(171.23801,701.67102)"><path
         d="M 0,0 V 2.6070001 H 0.24 V 2.362 C 0.299,2.464 0.365,2.5369999 0.437,2.582 0.509,2.628 0.592,2.65 0.685,2.65 0.80699998,2.65 0.917,2.614 1.015,2.542 1.114,2.47 1.1929999,2.3599999 1.252,2.2119999 1.312,2.0650001 1.342,1.888 1.342,1.681 1.342,1.36 1.275,1.113 1.141,0.94 1.006,0.76599997 0.84899997,0.68 0.66799998,0.68 0.58699998,0.68 0.51200002,0.7 0.442,0.742 0.373,0.783 0.312,0.842 0.261,0.917 V 0 Z M 0.236,1.654 C 0.236,1.41 0.277,1.2309999 0.359,1.115 0.44,1 0.53899997,0.94199997 0.65499997,0.94199997 c 0.111,0 0.20900005,0.06 0.29300004,0.18000003 C 1.0319999,1.241 1.074,1.426 1.074,1.6749999 1.074,1.922 1.033,2.1040001 0.95200002,2.2219999 0.87,2.3410001 0.77100002,2.4000001 0.65399998,2.4000001 0.54799997,2.4000001 0.453,2.336 0.366,2.2090001 0.27900001,2.082 0.236,1.896 0.236,1.654"
         style="fill:#231f20;fill-opacity:1;fill-rule:evenodd;stroke:none"
         id="path378" /></g><g
       id="g380"
       transform="translate(172.895,701.67102)"><path
         d="M 0,0 V 2.6070001 H 0.24 V 2.362 C 0.299,2.464 0.365,2.5369999 0.437,2.582 0.509,2.628 0.592,2.65 0.685,2.65 0.80699998,2.65 0.917,2.614 1.015,2.542 1.114,2.47 1.1929999,2.3599999 1.252,2.2119999 1.312,2.0650001 1.342,1.888 1.342,1.681 1.342,1.36 1.275,1.113 1.141,0.94 1.006,0.76599997 0.84899997,0.68 0.66799998,0.68 0.58699998,0.68 0.51200002,0.7 0.442,0.742 0.373,0.783 0.312,0.842 0.261,0.917 V 0 Z M 0.236,1.654 C 0.236,1.41 0.277,1.2309999 0.359,1.115 0.44,1 0.53899997,0.94199997 0.65499997,0.94199997 c 0.111,0 0.20900005,0.06 0.29300004,0.18000003 C 1.0319999,1.241 1.074,1.426 1.074,1.6749999 1.074,1.922 1.033,2.1040001 0.95200002,2.2219999 0.87,2.3410001 0.77100002,2.4000001 0.65399998,2.4000001 0.54799997,2.4000001 0.453,2.336 0.366,2.2090001 0.27900001,2.082 0.236,1.896 0.236,1.654"
         style="fill:#231f20;fill-opacity:1;fill-rule:evenodd;stroke:none"
         id="path382" /></g><g
       id="g384"
       transform="translate(174.56,702.39301)"><path
         d="M 0,0 V 2.602 H 0.261 V 1.1189999 L 0.88200002,1.885 H 1.2209999 L 0.63,1.186 1.28,0 H 0.958 L 0.445,0.96399998 0.261,0.74699997 V 0 H 0"
         style="fill:#231f20;fill-opacity:1;fill-rule:evenodd;stroke:none"
         id="path386" /></g><g
       id="g388"
       transform="translate(177.102,703)"><path
         d="M 0,0 0.27000001,-0.041 C 0.225,-0.242 0.143,-0.394 0.025,-0.496 c -0.117,-0.10299997 -0.263,-0.15299998 -0.437,-0.15299998 -0.21899998,0 -0.39600002,0.083 -0.532,0.24899998 -0.135,0.166 -0.2029999,0.406 -0.2029999,0.719 0,0.32599998 0.069,0.574 0.20499993,0.745 C -0.805,1.235 -0.63200002,1.321 -0.423,1.321 c 0.2,0 0.367,-0.084 0.5,-0.252 C 0.211,0.89999997 0.278,0.657 0.278,0.33899998 l -9.9999e-4,-0.085 h -1.15399998 c 0.011,-0.212 0.06,-0.371 0.14699996,-0.479 0.088,-0.108 0.194,-0.162 0.32000001,-0.162 C -0.214,-0.38700002 -0.077,-0.258 0,0 Z M -0.861,0.51700001 H 0.001 C -0.01,0.68 -0.045,0.80199998 -0.103,0.88200002 -0.187,0.99900001 -0.29499998,1.058 -0.42500001,1.058 c -0.11699999,0 -0.217,-0.049 -0.30000001,-0.14699999 -0.083,-0.097 -0.12799996,-0.22900003 -0.13599998,-0.394"
         style="fill:#231f20;fill-opacity:1;fill-rule:evenodd;stroke:none"
         id="path390" /></g><g
       id="g392"
       transform="translate(177.69501,701.66699)"><path
         d="m 0,0 -0.028,0.30000001 c 0.058,-0.019 0.107,-0.029 0.149,-0.029 0.055,0 0.101,0.012 0.13699998,0.034 0.036,0.023 0.066,0.057 0.09,0.105 0.008,0.017 0.042,0.12100001 0.10300002,0.312 L -0.137,2.6110001 H 0.145 L 0.468,1.52 C 0.509,1.383 0.546,1.238 0.57999998,1.0829999 c 0.03,0.1460001 0.065,0.2890001 0.106,0.4290001 L 1.0169999,2.6110001 H 1.28 L 0.69199997,0.694 C 0.615,0.445 0.55400002,0.27900001 0.51,0.196 0.466,0.113 0.416,0.053 0.359,0.016 0.303,-0.021 0.239,-0.039 0.168,-0.039 0.119,-0.039 0.062,-0.026 0,0"
         style="fill:#231f20;fill-opacity:1;fill-rule:evenodd;stroke:none"
         id="path394" /></g><g
       id="g396"
       transform="translate(162.981,714.46497)"><path
         d="M 0,0 0.27000001,-0.041 C 0.225,-0.242 0.143,-0.394 0.025,-0.496 c -0.117,-0.10299997 -0.263,-0.15399997 -0.437,-0.15399997 -0.21899998,0 -0.39600002,0.084 -0.532,0.24999997 -0.135,0.166 -0.2029999,0.406 -0.2029999,0.719 0,0.32599998 0.069,0.574 0.20499993,0.745 C -0.805,1.235 -0.63200002,1.321 -0.423,1.321 c 0.2,0 0.367,-0.084 0.5,-0.252 C 0.211,0.89999997 0.278,0.657 0.278,0.33899998 l -9.9999e-4,-0.085 h -1.15399998 c 0.011,-0.212 0.06,-0.371 0.14699996,-0.479 0.088,-0.108 0.194,-0.162 0.32000001,-0.162 C -0.214,-0.38700002 -0.077,-0.258 0,0 Z M -0.861,0.51700001 H 0.001 C -0.01,0.68 -0.045,0.80199998 -0.103,0.88200002 -0.187,0.99900001 -0.29499998,1.058 -0.42500001,1.058 c -0.11699999,0 -0.217,-0.049 -0.30000001,-0.14699999 -0.083,-0.097 -0.12799996,-0.22900003 -0.13599998,-0.394"
         style="fill:#231f20;fill-opacity:1;fill-rule:evenodd;stroke:none"
         id="path398" /></g><g
       id="g400"
       transform="translate(163.41,713.85797)"><path
         d="M 0,0 0.565,0.98000001 0.042,1.885 H 0.37 L 0.607,1.4429999 C 0.651,1.3609999 0.687,1.291 0.71600002,1.232 c 0.043,0.08 0.082,0.149 0.11599999,0.208 L 1.094,1.885 H 1.406 L 0.87199997,0.99699997 1.447,0 H 1.126 l -0.31799998,0.58600002 -0.084,0.15799999 L 0.31799998,0 H 0"
         style="fill:#231f20;fill-opacity:1;fill-rule:evenodd;stroke:none"
         id="path402" /></g><g
       id="g404"
       transform="translate(165.65601,714.14398)"><path
         d="m 0,0 0.036,-0.282 c -0.072,-0.019 -0.138,-0.029 -0.195,-0.029 -0.092,0 -0.165,0.018 -0.221,0.054 -0.055,0.037 -0.093,0.086 -0.11399998,0.149 -0.021,0.062 -0.031,0.187 -0.031,0.374 V 1.3509999 H -0.71700001 V 1.599 h 0.19200003 V 2.066 L -0.264,2.2579999 V 1.599 H 0 V 1.3509999 H -0.264 V 0.249 c 0,-0.102 0.007,-0.168 0.023,-0.197 0.022,-0.043 0.064,-0.065 0.126,-0.065 0.03,0 0.068,0.005 0.115,0.013"
         style="fill:#231f20;fill-opacity:1;fill-rule:evenodd;stroke:none"
         id="path406" /></g><g
       id="g408"
       transform="translate(166.959,714.46497)"><path
         d="M 0,0 0.27000001,-0.041 C 0.225,-0.242 0.143,-0.394 0.025,-0.496 c -0.117,-0.10299997 -0.263,-0.15399997 -0.437,-0.15399997 -0.21899998,0 -0.39600002,0.084 -0.532,0.24999997 -0.135,0.166 -0.2029999,0.406 -0.2029999,0.719 0,0.32599998 0.069,0.574 0.20499993,0.745 C -0.805,1.235 -0.63200002,1.321 -0.423,1.321 c 0.2,0 0.367,-0.084 0.5,-0.252 C 0.211,0.89999997 0.278,0.657 0.278,0.33899998 l -9.9999e-4,-0.085 h -1.15399998 c 0.011,-0.212 0.06,-0.371 0.14699996,-0.479 0.088,-0.108 0.194,-0.162 0.32000001,-0.162 C -0.214,-0.38700002 -0.077,-0.258 0,0 Z M -0.861,0.51700001 H 0.001 C -0.01,0.68 -0.045,0.80199998 -0.103,0.88200002 -0.187,0.99900001 -0.29499998,1.058 -0.42500001,1.058 c -0.11699999,0 -0.217,-0.049 -0.30000001,-0.14699999 -0.083,-0.097 -0.12799996,-0.22900003 -0.13599998,-0.394"
         style="fill:#231f20;fill-opacity:1;fill-rule:evenodd;stroke:none"
         id="path410" /></g><g
       id="g412"
       transform="translate(167.558,713.85797)"><path
         d="M 0,0 V 1.885 H 0.236 V 1.617 c 0.057,0.1039999 0.127,0.182 0.209,0.233 0.082,0.052 0.17699997,0.078 0.28299998,0.078 0.083,0 0.16000003,-0.017 0.23000002,-0.049 0.07,-0.033 0.127,-0.075 0.17,-0.128 C 1.172,1.6979999 1.204,1.63 1.225,1.546 1.246,1.462 1.257,1.3329999 1.257,1.159 V 0 H 0.99400001 V 1.1469999 C 0.99400001,1.285 0.98299998,1.386 0.959,1.45 0.935,1.514 0.898,1.564 0.84799998,1.598 0.797,1.633 0.73900002,1.651 0.67299997,1.651 0.54799997,1.651 0.44800001,1.604 0.373,1.51 0.299,1.417 0.261,1.257 0.261,1.029 V 0 H 0"
         style="fill:#231f20;fill-opacity:1;fill-rule:evenodd;stroke:none"
         id="path414" /></g><g
       id="g416"
       transform="translate(170.21899,713.85797)"><path
         d="M 0,0 V 0.238 C -0.047,0.147 -0.108,0.077 -0.183,0.029 c -0.075,-0.048 -0.155,-0.071 -0.24200001,-0.071 -0.18199999,0 -0.33999997,0.086 -0.472,0.258 C -1.031,0.38800001 -1.097,0.63 -1.097,0.94300001 -1.097,1.1569999 -1.068,1.338 -1.008,1.487 c 0.059,0.149 0.138,0.26 0.23699998,0.332 0.0980001,0.072 0.208,0.109 0.32900002,0.109 0.086,0 0.166,-0.023 0.24,-0.069 0.074,-0.045 0.135,-0.109 0.184,-0.19 V 2.602 H 0.245 V 0 Z m -0.829,0.94099998 c 0,-0.24399996 0.042,-0.42500001 0.12699998,-0.54399997 C -0.61699998,0.27900001 -0.519,0.22 -0.407,0.22 c 0.111,0 0.208,0.057 0.289,0.171 0.082,0.113 0.123,0.285 0.123,0.51399997 C 0.005,1.169 -0.036,1.362 -0.118,1.483 -0.199,1.604 -0.30199998,1.665 -0.426,1.665 -0.53600001,1.665 -0.63099998,1.607 -0.70999997,1.49 -0.79000002,1.373 -0.829,1.191 -0.829,0.94099998"
         style="fill:#231f20;fill-opacity:1;fill-rule:evenodd;stroke:none"
         id="path418" /></g><g
       id="g420"
       transform="translate(171.93201,714.46497)"><path
         d="M 0,0 0.27000001,-0.041 C 0.225,-0.242 0.143,-0.394 0.025,-0.496 c -0.117,-0.10299997 -0.263,-0.15399997 -0.437,-0.15399997 -0.21899998,0 -0.39600002,0.084 -0.532,0.24999997 -0.135,0.166 -0.2029999,0.406 -0.2029999,0.719 0,0.32599998 0.069,0.574 0.20499993,0.745 C -0.805,1.235 -0.63200002,1.321 -0.423,1.321 c 0.2,0 0.367,-0.084 0.5,-0.252 C 0.211,0.89999997 0.278,0.657 0.278,0.33899998 l -9.9999e-4,-0.085 h -1.15399998 c 0.011,-0.212 0.06,-0.371 0.14699996,-0.479 0.088,-0.108 0.194,-0.162 0.32000001,-0.162 C -0.214,-0.38700002 -0.077,-0.258 0,0 Z M -0.861,0.51700001 H 0.001 C -0.01,0.68 -0.045,0.80199998 -0.103,0.88200002 -0.187,0.99900001 -0.29499998,1.058 -0.42500001,1.058 c -0.11699999,0 -0.217,-0.049 -0.30000001,-0.14699999 -0.083,-0.097 -0.12799996,-0.22900003 -0.13599998,-0.394"
         style="fill:#231f20;fill-opacity:1;fill-rule:evenodd;stroke:none"
         id="path422" /></g><g
       id="g424"
       transform="translate(173.534,713.85797)"><path
         d="M 0,0 V 0.238 C -0.047,0.147 -0.109,0.077 -0.183,0.029 c -0.075,-0.048 -0.155,-0.071 -0.24200001,-0.071 -0.18199999,0 -0.33999997,0.086 -0.472,0.258 C -1.031,0.38800001 -1.097,0.63 -1.097,0.94300001 -1.097,1.1569999 -1.068,1.338 -1.008,1.487 c 0.059,0.149 0.138,0.26 0.23699998,0.332 0.0980001,0.072 0.208,0.109 0.32900002,0.109 0.086,0 0.166,-0.023 0.24,-0.069 0.074,-0.045 0.135,-0.109 0.184,-0.19 V 2.602 H 0.245 V 0 Z m -0.829,0.94099998 c 0,-0.24399996 0.042,-0.42500001 0.12699998,-0.54399997 C -0.61699998,0.27900001 -0.519,0.22 -0.407,0.22 c 0.111,0 0.208,0.057 0.289,0.171 0.082,0.113 0.123,0.285 0.123,0.51399997 C 0.005,1.169 -0.036,1.362 -0.118,1.483 -0.199,1.604 -0.30199998,1.665 -0.426,1.665 -0.53600001,1.665 -0.63099998,1.607 -0.70999997,1.49 -0.79000002,1.373 -0.829,1.191 -0.829,0.94099998"
         style="fill:#231f20;fill-opacity:1;fill-rule:evenodd;stroke:none"
         id="path426" /></g><g
       id="g428"
       transform="translate(174.189,713.13501)"><path
         d="M 0,0 V 2.6070001 H 0.24 V 2.362 C 0.299,2.464 0.365,2.5369999 0.437,2.582 0.509,2.628 0.592,2.65 0.685,2.65 0.80699998,2.65 0.917,2.614 1.015,2.542 1.114,2.47 1.1929999,2.3599999 1.252,2.2119999 1.312,2.0650001 1.342,1.888 1.342,1.681 1.342,1.36 1.275,1.113 1.141,0.94 1.006,0.76599997 0.84899997,0.68 0.66799998,0.68 0.58699998,0.68 0.51200002,0.7 0.442,0.742 0.373,0.783 0.312,0.842 0.261,0.917 V 0 Z M 0.236,1.654 C 0.236,1.411 0.277,1.2309999 0.359,1.115 0.44,1 0.53899997,0.94199997 0.65499997,0.94199997 c 0.111,0 0.20900005,0.06 0.29300004,0.18000003 C 1.0319999,1.241 1.074,1.426 1.074,1.6749999 1.074,1.922 1.033,2.1040001 0.95200002,2.2219999 0.87,2.3410001 0.77100002,2.4000001 0.65399998,2.4000001 0.54799997,2.4000001 0.453,2.336 0.366,2.2090001 0.27900001,2.082 0.236,1.896 0.236,1.654"
         style="fill:#231f20;fill-opacity:1;fill-rule:evenodd;stroke:none"
         id="path430" /></g><g
       id="g432"
       transform="translate(175.84599,713.85797)"><path
         d="M 0,0 V 1.885 H 0.236 V 1.599 C 0.297,1.732 0.352,1.819 0.40200001,1.863 0.453,1.906 0.509,1.928 0.57200002,1.928 c 0.0869999,0 0.17699999,-0.035 0.26799995,-0.103 l -0.089,-0.297 c -0.065,0.047 -0.12799996,0.07 -0.19,0.07 C 0.505,1.598 0.454,1.5779999 0.408,1.539 0.362,1.5 0.33,1.446 0.311,1.376 0.277,1.2539999 0.261,1.1239999 0.261,0.98699998 L 0.261,0 H 0"
         style="fill:#231f20;fill-opacity:1;fill-rule:evenodd;stroke:none"
         id="path434" /></g><g
       id="g436"
       transform="translate(176.839,716.09198)"><path
         d="M 0.261,0 H 0 V 0.368 H 0.261 Z M 0,0 Z M 0.261,-2.234 H 0 v 1.88500004 h 0.261 z"
         style="fill:#231f20;fill-opacity:1;fill-rule:evenodd;stroke:none"
         id="path438" /></g><g
       id="g440"
       transform="translate(178.515,714.54803)"><path
         d="M 0,0 0.25799998,-0.041 C 0.228,-0.266 0.154,-0.437 0.035,-0.556 c -0.119,-0.11800002 -0.262,-0.17699998 -0.429,-0.17699998 -0.20200001,0 -0.36900001,0.083 -0.5,0.24899998 -0.131,0.167 -0.196,0.412 -0.196,0.738 0,0.32800001 0.066,0.57300002 0.19799999,0.737 C -0.76,1.155 -0.58999997,1.237 -0.384,1.237 c 0.16,0 0.295,-0.049 0.405,-0.149 C 0.13,0.98799997 0.2,0.83899998 0.231,0.63999998 L -0.023,0.593 c -0.025,0.12700002 -0.068,0.22299998 -0.13,0.286 -0.061,0.064 -0.13499998,0.095 -0.22100001,0.095 -0.12900001,0 -0.236,-0.057 -0.32099999,-0.171 -0.084,-0.11399996 -0.12700002,-0.29499996 -0.12700002,-0.54399997 0,-0.257 0.041,-0.443 0.12200004,-0.558 0.081,-0.11399998 0.185,-0.17199998 0.31199997,-0.17199998 C -0.289,-0.47099998 -0.204,-0.433 -0.134,-0.356 -0.064,-0.28 -0.019,-0.161 0,0"
         style="fill:#231f20;fill-opacity:1;fill-rule:evenodd;stroke:none"
         id="path442" /></g><g
       id="g444"
       transform="translate(180.05099,714.46497)"><path
         d="M 0,0 0.27000001,-0.041 C 0.225,-0.242 0.143,-0.394 0.025,-0.496 c -0.117,-0.10299997 -0.263,-0.15399997 -0.437,-0.15399997 -0.21899998,0 -0.39600002,0.084 -0.532,0.24999997 -0.135,0.166 -0.2029999,0.406 -0.2029999,0.719 0,0.32599998 0.069,0.574 0.20499993,0.745 C -0.805,1.235 -0.63200002,1.321 -0.423,1.321 c 0.2,0 0.367,-0.084 0.5,-0.252 C 0.211,0.89999997 0.278,0.657 0.278,0.33899998 l -9.9999e-4,-0.085 h -1.15399998 c 0.011,-0.212 0.06,-0.371 0.14699996,-0.479 0.088,-0.108 0.194,-0.162 0.32000001,-0.162 C -0.214,-0.38700002 -0.077,-0.258 0,0 Z M -0.861,0.51700001 H 0.001 C -0.01,0.68 -0.045,0.80199998 -0.103,0.88200002 -0.187,0.99900001 -0.294,1.058 -0.42500001,1.058 c -0.11699999,0 -0.217,-0.049 -0.30000001,-0.14699999 -0.083,-0.097 -0.12799996,-0.22900003 -0.13599998,-0.394"
         style="fill:#231f20;fill-opacity:1;fill-rule:evenodd;stroke:none"
         id="path446" /></g><g
       id="g448"
       transform="translate(170.457,723.685)"><path
         d="M 0,0 V 0.238 C -0.047,0.147 -0.109,0.077 -0.183,0.029 c -0.075,-0.048 -0.155,-0.071 -0.24200001,-0.071 -0.18199999,0 -0.33999997,0.086 -0.472,0.258 C -1.031,0.38800001 -1.097,0.63 -1.097,0.94300001 -1.097,1.1569999 -1.068,1.338 -1.008,1.487 c 0.059,0.149 0.138,0.26 0.23699998,0.332 0.0980001,0.072 0.208,0.109 0.32900002,0.109 0.086,0 0.166,-0.023 0.24,-0.069 0.074,-0.045 0.135,-0.109 0.184,-0.19 V 2.602 H 0.245 V 0 Z m -0.829,0.94099998 c 0,-0.24399996 0.042,-0.42500001 0.12699998,-0.54399997 C -0.61699998,0.27900001 -0.519,0.22 -0.407,0.22 c 0.111,0 0.208,0.057 0.289,0.171 0.082,0.113 0.123,0.285 0.123,0.51399997 C 0.005,1.169 -0.036,1.362 -0.118,1.483 -0.199,1.604 -0.30199998,1.665 -0.426,1.665 -0.53600001,1.665 -0.63099998,1.607 -0.70999997,1.49 -0.79000002,1.373 -0.829,1.191 -0.829,0.94099998"
         style="fill:#231f20;fill-opacity:1;fill-rule:evenodd;stroke:none"
         id="path450" /></g><g
       id="g452"
       transform="translate(171.11099,725.91901)"><path
         d="M 0.261,0 H 0 V 0.368 H 0.261 Z M 0,0 Z M 0.261,-2.234 H 0 v 1.88500004 h 0.261 z"
         style="fill:#231f20;fill-opacity:1;fill-rule:evenodd;stroke:none"
         id="path454" /></g><g
       id="g456"
       transform="translate(171.674,724.24701)"><path
         d="m 0,0 0.259,0.05 c 0.015,-0.133 0.058,-0.232 0.126,-0.296 0.069,-0.064 0.16000001,-0.097 0.27399997,-0.097 0.11300004,0 0.20100004,0.029 0.26300003,0.084 0.062,0.057 0.093,0.128 0.093,0.214 0,0.075 -0.026,0.133 -0.08,0.175 C 0.899,0.158 0.81,0.193 0.66900002,0.236 0.466,0.299 0.33000001,0.352 0.261,0.396 0.193,0.439 0.139,0.498 0.101,0.57099997 0.064,0.64499997 0.045,0.72799998 0.045,0.82200002 0.045,0.98299998 0.096,1.114 0.199,1.214 0.30199998,1.315 0.445,1.365 0.62699997,1.365 0.74199998,1.365 0.842,1.344 0.92900002,1.303 1.0169999,1.261 1.0829999,1.206 1.1289999,1.136 c 0.046,-0.07 0.078,-0.16999998 0.096,-0.29999998 l -0.25600002,-0.043 C 0.94599997,0.99900001 0.834,1.102 0.634,1.102 0.51999998,1.102 0.43599998,1.079 0.38,1.034 0.325,0.988 0.297,0.93 0.297,0.85900002 c 0,-0.07 0.026,-0.125 0.079,-0.16500002 C 0.408,0.67 0.50300004,0.633 0.66000004,0.57999998 0.87699997,0.51 1.0169999,0.45500001 1.081,0.414 1.145,0.373 1.195,0.318 1.23,0.247 1.266,0.177 1.284,0.093 1.284,-0.004 1.284,-0.183 1.226,-0.329 1.112,-0.44 0.99800002,-0.551 0.842,-0.607 0.64499998,-0.607 0.27399998,-0.607 0.059,-0.405 0,0"
         style="fill:#231f20;fill-opacity:1;fill-rule:evenodd;stroke:none"
         id="path458" /></g><g
       id="g460"
       transform="translate(174.278,724.375)"><path
         d="M 0,0 0.25799998,-0.041 C 0.228,-0.266 0.154,-0.437 0.035,-0.556 c -0.119,-0.11800002 -0.262,-0.17699998 -0.429,-0.17699998 -0.20200001,0 -0.36900001,0.083 -0.5,0.24899998 -0.131,0.16600002 -0.196,0.412 -0.196,0.738 0,0.32800001 0.066,0.57300002 0.19799999,0.737 C -0.76,1.155 -0.58999997,1.237 -0.384,1.237 c 0.16,0 0.295,-0.05 0.405,-0.149 C 0.13,0.98799997 0.2,0.83899998 0.231,0.63999998 L -0.023,0.593 c -0.025,0.12700002 -0.068,0.22299998 -0.13,0.286 -0.061,0.064 -0.13499998,0.095 -0.22100001,0.095 -0.12900001,0 -0.236,-0.057 -0.32099999,-0.171 -0.084,-0.11399996 -0.12700002,-0.29499996 -0.12700002,-0.54399997 0,-0.257 0.041,-0.443 0.12200004,-0.558 0.081,-0.11399998 0.185,-0.17199998 0.31199997,-0.17199998 C -0.289,-0.47099998 -0.204,-0.433 -0.134,-0.356 -0.064,-0.28 -0.019,-0.161 0,0"
         style="fill:#231f20;fill-opacity:1;fill-rule:evenodd;stroke:none"
         id="path462" /></g><g
       id="g464"
       transform="translate(174.658,724.62701)"><path
         d="M 0,0 C 0,0.32499998 0.069,0.57099997 0.205,0.736 0.342,0.90200001 0.51499998,0.98500001 0.72500002,0.98500001 0.93,0.98500001 1.103,0.90200001 1.241,0.736 1.38,0.57099997 1.449,0.33199998 1.449,0.019 1.449,-0.319 1.381,-0.57099997 1.2439999,-0.73699998 1.108,-0.903 0.935,-0.98500001 0.72500002,-0.98500001 0.518,-0.98500001 0.345,-0.90200001 0.207,-0.736 0.069,-0.57 0,-0.324 0,0 Z m 0.268,0 c 0,-0.244 0.045,-0.42500001 0.133,-0.54400002 0.089,-0.11899996 0.19900002,-0.17899996 0.33,-0.17899996 0.12299997,0 0.22899997,0.06 0.317,0.18099998 0.089,0.12 0.133,0.3 0.133,0.542 0,0.242 -0.045,0.423 -0.133,0.542 -0.089,0.11900001 -0.19900003,0.17800002 -0.331,0.17800002 -0.124,0 -0.23000002,-0.06 -0.31800002,-0.17900002 C 0.312,0.422 0.268,0.241 0.268,0"
         style="fill:#231f20;fill-opacity:1;fill-rule:evenodd;stroke:none"
         id="path466" /></g><g
       id="g468"
       transform="translate(177.427,723.685)"><path
         d="M 0,0 V 0.27700001 C -0.06,0.17 -0.131,0.09 -0.213,0.038 c -0.082,-0.054 -0.174,-0.08 -0.277,-0.08 -0.12199998,0 -0.22600002,0.032 -0.31199998,0.098 -0.087,0.066 -0.14399999,0.149 -0.17400003,0.249 -0.0279999,0.10099998 -0.043,0.23799998 -0.043,0.412 v 1.168 h 0.26099998 V 0.83999997 c 0,-0.19499999 0.01,-0.324 0.03,-0.38999999 C -0.709,0.384 -0.67299997,0.331 -0.62,0.292 c 0.052,-0.039 0.11199999,-0.059 0.18,-0.059 0.12599999,0 0.229,0.051 0.309,0.154 0.069,0.089 0.102,0.252 0.102,0.488 v 1.01 H 0.234 L 0.234,0 H 0"
         style="fill:#231f20;fill-opacity:1;fill-rule:evenodd;stroke:none"
         id="path470" /></g><g
       id="g472"
       transform="translate(178.071,723.685)"><path
         d="M 0,0 V 1.885 H 0.236 V 1.617 c 0.057,0.1039999 0.127,0.182 0.209,0.233 0.082,0.052 0.17699997,0.078 0.28299998,0.078 0.083,0 0.16000003,-0.017 0.23000002,-0.049 0.07,-0.033 0.127,-0.075 0.17,-0.128 C 1.172,1.6979999 1.204,1.63 1.225,1.546 1.246,1.462 1.257,1.3329999 1.257,1.159 V 0 H 0.99400001 V 1.1469999 C 0.99400001,1.285 0.98299998,1.386 0.959,1.45 0.935,1.514 0.898,1.564 0.84799998,1.598 0.797,1.633 0.73900002,1.651 0.67299997,1.651 0.54799997,1.651 0.44800001,1.604 0.373,1.51 0.299,1.417 0.261,1.257 0.261,1.029 V 0 H 0"
         style="fill:#231f20;fill-opacity:1;fill-rule:evenodd;stroke:none"
         id="path474" /></g><g
       id="g476"
       transform="translate(180.313,723.97101)"><path
         d="m 0,0 0.036,-0.282 c -0.072,-0.019 -0.138,-0.029 -0.195,-0.029 -0.092,0 -0.165,0.018 -0.221,0.054 -0.055,0.036 -0.093,0.085 -0.11399998,0.149 -0.021,0.062 -0.031,0.187 -0.031,0.374 V 1.35 h -0.19200003 v 0.249 h 0.19200003 V 2.066 L -0.264,2.2579999 V 1.599 H 0 V 1.35 H -0.264 V 0.248 c 0,-0.101 0.007,-0.167 0.023,-0.196 0.022,-0.043 0.064,-0.065 0.126,-0.065 0.03,0 0.068,0.005 0.115,0.013"
         style="fill:#231f20;fill-opacity:1;fill-rule:evenodd;stroke:none"
         id="path478" /></g><g
       id="g480"
       transform="translate(137.297,641.12396)"><path
         d="m 0,0 c -0.73299998,0 -1.335,0.681 -1.335,1.492 0,0.837 0.60200002,1.492 1.335,1.492 0.73299998,0 1.335,-0.655 1.335,-1.492 C 1.335,0.681 0.73299998,0 0,0 Z"
         style="fill:#91cfec;fill-opacity:1;fill-rule:evenodd;stroke:#000001;stroke-width:0.75;stroke-linecap:butt;stroke-linejoin:round;stroke-miterlimit:2.613;stroke-dasharray:none;stroke-opacity:1"
         id="path482" /></g><g
       id="g484"
       transform="translate(132.602,637.69897)"><path
         d="M 0,0 V 1.885 H 0.236 V 1.617 c 0.057,0.1039999 0.127,0.182 0.209,0.233 0.082,0.052 0.17699997,0.078 0.28299998,0.078 0.083,0 0.16000003,-0.017 0.23000002,-0.049 0.07,-0.033 0.127,-0.075 0.17,-0.128 C 1.172,1.6979999 1.204,1.63 1.225,1.546 1.246,1.462 1.257,1.3329999 1.257,1.159 V 0 H 0.99400001 V 1.1469999 C 0.99400001,1.285 0.98299998,1.386 0.959,1.45 0.935,1.514 0.898,1.564 0.84799998,1.598 0.797,1.633 0.73900002,1.651 0.67299997,1.651 0.54799997,1.651 0.44800001,1.604 0.373,1.51 0.299,1.417 0.261,1.257 0.261,1.029 V 0 H 0"
         style="fill:#231f20;fill-opacity:1;fill-rule:evenodd;stroke:none"
         id="path486" /></g><g
       id="g488"
       transform="translate(135.26801,637.93103)"><path
         d="M 0,0 C -0.087,-0.091 -0.178,-0.16 -0.273,-0.206 -0.368,-0.252 -0.466,-0.275 -0.56800001,-0.275 -0.72899997,-0.275 -0.857,-0.227 -0.953,-0.13 c -0.096,0.097 -0.144,0.228 -0.144,0.392 0,0.109 0.023,0.206 0.068,0.28999998 0.044,0.084 0.10600003,0.15000004 0.18399998,0.19700003 0.079,0.047 0.19700002,0.082 0.35500002,0.10499996 0.21299999,0.031 0.369,0.067 0.469,0.11000001 l 0.002,0.0809999 C -0.019,1.174 -0.042,1.265 -0.089,1.317 -0.153,1.393 -0.253,1.4299999 -0.38800001,1.4299999 -0.51,1.4299999 -0.602,1.406 -0.662,1.355 -0.722,1.3049999 -0.76599997,1.21 -0.79500001,1.072 L -1.052,1.115 c 0.036,0.202 0.11000003,0.349 0.22200002,0.441 0.11199998,0.092 0.273,0.139 0.47999998,0.139 0.163,0 0.29,-0.031 0.382,-0.091 C 0.125,1.542 0.183,1.467 0.207,1.377 0.231,1.287 0.243,1.156 0.243,0.98299998 v -0.426 C 0.243,0.259 0.249,0.071 0.26,-0.006 0.271,-0.084 0.294,-0.159 0.327,-0.233 H 0.053 C 0.026,-0.168 0.008,-0.09 0,0 Z M -0.021,0.71399998 C -0.117,0.666 -0.259,0.62599998 -0.449,0.593 -0.55900001,0.574 -0.63599997,0.552 -0.68,0.528 -0.723,0.503 -0.757,0.47 -0.782,0.42500001 c -0.024,-0.045 -0.036,-0.095 -0.036,-0.15400001 0,-0.089 0.028,-0.161 0.084,-0.215 0.055,-0.054 0.13200002,-0.081 0.23000002,-0.081 0.094,0 0.17900002,0.024 0.255,0.073 0.076,0.048 0.133,0.113 0.171,0.194 0.038,0.081 0.057,0.19900001 0.057,0.35400001 v 0.11799997"
         style="fill:#231f20;fill-opacity:1;fill-rule:evenodd;stroke:none"
         id="path490" /></g><g
       id="g492"
       transform="translate(135.92101,637.69897)"><path
         d="M 0,0 V 1.885 H 0.235 V 1.621 c 0.052,0.098 0.11799998,0.1739999 0.2,0.227 0.082,0.053 0.171,0.08 0.268,0.08 0.10899997,0 0.20099998,-0.029 0.27599997,-0.085 C 1.054,1.7869999 1.108,1.705 1.14,1.598 1.202,1.707 1.2719999,1.79 1.352,1.845 1.432,1.9 1.52,1.928 1.617,1.928 1.765,1.928 1.882,1.878 1.967,1.7769999 2.052,1.676 2.095,1.515 2.095,1.294 V 0 H 1.834 v 1.187 c 0,0.1359999 -0.01,0.231 -0.03,0.287 C 1.785,1.53 1.753,1.574 1.71,1.604 1.666,1.635 1.616,1.651 1.562,1.651 1.45,1.651 1.358,1.6059999 1.2869999,1.5169999 1.216,1.427 1.181,1.2869999 1.181,1.095 V 0 H 0.91799998 v 1.224 c 0,0.157 -0.024,0.267 -0.072,0.3309999 C 0.79799997,1.6189999 0.732,1.651 0.648,1.651 0.528,1.651 0.43399998,1.603 0.365,1.506 0.296,1.41 0.261,1.234 0.261,0.97799998 V 0 H 0"
         style="fill:#231f20;fill-opacity:1;fill-rule:evenodd;stroke:none"
         id="path494" /></g><g
       id="g496"
       transform="translate(139.46001,638.30603)"><path
         d="M 0,0 0.27000001,-0.041 C 0.225,-0.242 0.143,-0.394 0.025,-0.496 c -0.117,-0.10299997 -0.263,-0.15299998 -0.437,-0.15299998 -0.21899998,0 -0.39600002,0.083 -0.532,0.24899998 -0.135,0.166 -0.2029999,0.406 -0.2029999,0.719 0,0.32599998 0.069,0.574 0.20499993,0.745 C -0.805,1.235 -0.63200002,1.321 -0.423,1.321 c 0.2,0 0.367,-0.084 0.5,-0.252 C 0.211,0.89999997 0.278,0.657 0.278,0.33899998 l -9.9999e-4,-0.085 h -1.15399998 c 0.011,-0.212 0.06,-0.371 0.14699996,-0.479 0.088,-0.108 0.194,-0.162 0.32000001,-0.162 C -0.214,-0.38700002 -0.077,-0.258 0,0 Z M -0.861,0.51700001 H 0.001 C -0.01,0.68 -0.045,0.80199998 -0.103,0.88200002 -0.187,0.99900001 -0.29499998,1.058 -0.42500001,1.058 c -0.11699999,0 -0.217,-0.049 -0.30000001,-0.14699999 -0.083,-0.097 -0.12799996,-0.22900003 -0.13599998,-0.394"
         style="fill:#231f20;fill-opacity:1;fill-rule:evenodd;stroke:none"
         id="path498" /></g></g></svg>
