<?xml version="1.0" encoding="UTF-8" standalone="no"?>
<!DOCTYPE svg PUBLIC "-//W3C//DTD SVG 1.1//EN"
 "http://www.w3.org/Graphics/SVG/1.1/DTD/svg11.dtd">
<!-- Generated by graphviz version 2.43.0 (0)
 -->
<!-- Title: G Pages: 1 -->
<svg width="205pt" height="197pt"
 viewBox="0.00 0.00 205.07 197.09" xmlns="http://www.w3.org/2000/svg" xmlns:xlink="http://www.w3.org/1999/xlink">
<g id="graph0" class="graph" transform="scale(1 1) rotate(0) translate(4 193.09)">
<title>G</title>
<polygon fill="white" stroke="transparent" points="-4,4 -4,-193.09 201.07,-193.09 201.07,4 -4,4"/>
<!-- n1 -->
<g id="box1" class="node">
<title>n1</title>
<ellipse fill="none" stroke="black" cx="56.97" cy="-49.19" rx="18" ry="18"/>
<text text-anchor="middle" x="56.97" y="-45.49" font-family="Serif" font-size="14.00">R</text>
</g>
<!-- n7 -->
<!-- junction -->
<g id="junction1" class="node">
<title>n7</title>
<ellipse fill="black" stroke="black" cx="29" cy="-23.81" rx="2.5" ry="2.5"/>
<text text-anchor="middle" x="22" y="-30.11" font-family="Serif" font-size="14.00">x</text>
</g>
<!-- n1&#45;&#45;n7 -->
<g id="edge1" class="edge">
<title>n1&#45;&#45;n7</title>
<path fill="none" stroke="black" d="M43.64,-37.09C38.69,-32.6 33.63,-28 30.95,-25.57"/>
</g>
<!-- n10 -->
<!-- junction -->
<g id="junction4" class="node">
<title>n10</title>
<ellipse fill="black" stroke="black" cx="87.06" cy="-76.06" rx="2.5" ry="2.5"/>
<text text-anchor="middle" x="78.06" y="-82.36" font-family="Serif" font-size="14.00">w</text>
</g>
<!-- n1&#45;&#45;n10 -->
<g id="edge7" class="edge">
<title>n1&#45;&#45;n10</title>
<path fill="none" stroke="black" d="M70.61,-61.37C76.08,-66.26 81.81,-71.37 84.85,-74.08"/>
</g>
<!-- n2 -->
<g id="box2" class="node">
<title>n2</title>
<ellipse fill="none" stroke="black" cx="125.37" cy="-63.43" rx="18" ry="18"/>
<text text-anchor="middle" x="125.37" y="-59.73" font-family="Serif" font-size="14.00">S</text>
</g>
<!-- n8 -->
<!-- junction -->
<g id="junction2" class="node">
<title>n8</title>
<ellipse fill="black" stroke="black" cx="161.15" cy="-51.32" rx="2.5" ry="2.5"/>
<text text-anchor="middle" x="154.15" y="-57.62" font-family="Serif" font-size="14.00">y</text>
</g>
<!-- n2&#45;&#45;n8 -->
<g id="edge3" class="edge">
<title>n2&#45;&#45;n8</title>
<path fill="none" stroke="black" d="M142.42,-57.66C148.76,-55.52 155.23,-53.32 158.66,-52.16"/>
</g>
<!-- n2&#45;&#45;n10 -->
<g id="edge8" class="edge">
<title>n2&#45;&#45;n10</title>
<path fill="none" stroke="black" d="M108.01,-69.15C100.88,-71.5 93.42,-73.96 89.62,-75.22"/>
</g>
<!-- n3 -->
<g id="box3" class="node">
<title>n3</title>
<ellipse fill="none" stroke="black" cx="78.84" cy="-115.56" rx="18" ry="18"/>
<text text-anchor="middle" x="78.84" y="-111.86" font-family="Serif" font-size="14.00">T</text>
</g>
<!-- n9 -->
<!-- junction -->
<g id="junction3" class="node">
<title>n9</title>
<ellipse fill="black" stroke="black" cx="71.14" cy="-152.54" rx="2.5" ry="2.5"/>
<text text-anchor="middle" x="64.64" y="-158.84" font-family="Serif" font-size="14.00">z</text>
</g>
<!-- n3&#45;&#45;n9 -->
<g id="edge5" class="edge">
<title>n3&#45;&#45;n9</title>
<path fill="none" stroke="black" d="M75.08,-133.62C73.74,-140.07 72.38,-146.59 71.66,-150.04"/>
</g>
<!-- n3&#45;&#45;n10 -->
<g id="edge9" class="edge">
<title>n3&#45;&#45;n10</title>
<path fill="none" stroke="black" d="M82.57,-97.66C84.1,-90.31 85.7,-82.62 86.51,-78.7"/>
</g>
<!-- n4 -->
<!-- n4&#45;&#45;n7 -->
<g id="edge2" class="edge">
<title>n4&#45;&#45;n7</title>
<path fill="none" stroke="black" d="M1.2,-1.08C4.77,-3.99 20.89,-17.17 26.81,-22.02"/>
</g>
<!-- n5 -->
<!-- n5&#45;&#45;n8 -->
<g id="edge4" class="edge">
<title>n5&#45;&#45;n8</title>
<path fill="none" stroke="black" d="M195.69,-41.52C191.26,-42.78 171.23,-48.46 163.87,-50.55"/>
</g>
<!-- n6 -->
<!-- n6&#45;&#45;n9 -->
<g id="edge6" class="edge">
<title>n6&#45;&#45;n9</title>
<path fill="none" stroke="black" d="M63.86,-187.7C64.8,-183.18 69.02,-162.79 70.57,-155.31"/>
</g>
</g>
</svg>
