<?xml version="1.0" encoding="UTF-8" standalone="no"?>
<!DOCTYPE svg PUBLIC "-//W3C//DTD SVG 1.1//EN"
 "http://www.w3.org/Graphics/SVG/1.1/DTD/svg11.dtd">
<!-- Generated by graphviz version 2.43.0 (0)
 -->
<!-- Title: G Pages: 1 -->
<svg width="227pt" height="186pt"
 viewBox="0.00 0.00 226.80 185.60" xmlns="http://www.w3.org/2000/svg" xmlns:xlink="http://www.w3.org/1999/xlink">
<g id="graph0" class="graph" transform="scale(1 1) rotate(0) translate(4 181.6)">
<title>G</title>
<polygon fill="white" stroke="transparent" points="-4,4 -4,-181.6 222.8,-181.6 222.8,4 -4,4"/>
<!-- n1 -->
<g id="node1" class="node">
<title>n1</title>
<ellipse fill="none" stroke="black" cx="35.8" cy="-72.6" rx="27" ry="18"/>
<text text-anchor="middle" x="35.8" y="-68.9" font-family="Times,serif" font-size="14.00">Box</text>
</g>
<!-- n5 -->
<g id="node5" class="node">
<title>n5</title>
<ellipse fill="black" stroke="black" cx="35.8" cy="-1.8" rx="1.8" ry="1.8"/>
<text text-anchor="middle" x="17" y="-7.4" font-family="Times,serif" font-size="14.00">Name</text>
</g>
<!-- n1&#45;&gt;n5 -->
<g id="edge4" class="edge">
<title>n1&#45;&gt;n5</title>
<path fill="none" stroke="black" d="M35.8,-54.59C35.8,-42.06 35.8,-25.34 35.8,-14.34"/>
<polygon fill="black" stroke="black" points="39.3,-14.19 35.8,-4.19 32.3,-14.19 39.3,-14.19"/>
<text text-anchor="middle" x="51.3" y="-25.4" font-family="Times,serif" font-size="14.00">name</text>
</g>
<!-- n2 -->
<g id="node2" class="node">
<title>n2</title>
<ellipse fill="none" stroke="black" cx="54.8" cy="-159.6" rx="27" ry="18"/>
<text text-anchor="middle" x="54.8" y="-155.9" font-family="Times,serif" font-size="14.00">Port</text>
</g>
<!-- n2&#45;&gt;n1 -->
<g id="edge1" class="edge">
<title>n2&#45;&gt;n1</title>
<path fill="none" stroke="black" d="M44.76,-142.83C41.59,-137.01 38.47,-130.22 36.8,-123.6 35,-116.47 34.28,-108.59 34.12,-101.24"/>
<polygon fill="black" stroke="black" points="37.63,-101.02 34.24,-90.98 30.63,-100.94 37.63,-101.02"/>
<text text-anchor="middle" x="47.3" y="-112.4" font-family="Times,serif" font-size="14.00">box</text>
</g>
<!-- n4 -->
<g id="node4" class="node">
<title>n4</title>
<ellipse fill="none" stroke="black" cx="127.8" cy="-72.6" rx="27" ry="18"/>
<text text-anchor="middle" x="127.8" y="-68.9" font-family="Times,serif" font-size="14.00">Junction</text>
</g>
<!-- n2&#45;&gt;n4 -->
<g id="edge2" class="edge">
<title>n2&#45;&gt;n4</title>
<path fill="none" stroke="black" d="M63.9,-142.51C70.02,-132.31 78.63,-119.1 87.8,-108.6 92.26,-103.49 97.46,-98.43 102.6,-93.81"/>
<polygon fill="black" stroke="black" points="105.24,-96.16 110.52,-86.97 100.66,-90.86 105.24,-96.16"/>
<text text-anchor="middle" x="110.3" y="-112.4" font-family="Times,serif" font-size="14.00">junction</text>
</g>
<!-- n3 -->
<g id="node3" class="node">
<title>n3</title>
<ellipse fill="none" stroke="black" cx="147.8" cy="-159.6" rx="29.9" ry="18"/>
<text text-anchor="middle" x="147.8" y="-155.9" font-family="Times,serif" font-size="14.00">OuterPort</text>
</g>
<!-- n3&#45;&gt;n4 -->
<g id="edge3" class="edge">
<title>n3&#45;&gt;n4</title>
<path fill="none" stroke="black" d="M143.75,-141.4C141,-129.69 137.29,-113.94 134.15,-100.57"/>
<polygon fill="black" stroke="black" points="137.47,-99.42 131.77,-90.49 130.66,-101.02 137.47,-99.42"/>
<text text-anchor="middle" x="179.3" y="-112.4" font-family="Times,serif" font-size="14.00">outer_junction</text>
</g>
<!-- n6 -->
<g id="node6" class="node">
<title>n6</title>
<ellipse fill="black" stroke="black" cx="127.8" cy="-1.8" rx="1.8" ry="1.8"/>
<text text-anchor="middle" x="100" y="-7.4" font-family="Times,serif" font-size="14.00">VarName</text>
</g>
<!-- n4&#45;&gt;n6 -->
<g id="edge5" class="edge">
<title>n4&#45;&gt;n6</title>
<path fill="none" stroke="black" d="M127.8,-54.59C127.8,-42.06 127.8,-25.34 127.8,-14.34"/>
<polygon fill="black" stroke="black" points="131.3,-14.19 127.8,-4.19 124.3,-14.19 131.3,-14.19"/>
<text text-anchor="middle" x="149.8" y="-25.4" font-family="Times,serif" font-size="14.00">variable</text>
</g>
</g>
</svg>
