<?xml version="1.0" encoding="UTF-8" standalone="no"?>
<!DOCTYPE svg PUBLIC "-//W3C//DTD SVG 1.1//EN"
 "http://www.w3.org/Graphics/SVG/1.1/DTD/svg11.dtd">
<!-- Generated by graphviz version 2.44.1 (20200629.0846)
 -->
<!-- Title: G Pages: 1 -->
<svg width="395pt" height="254pt"
 viewBox="0.00 0.00 394.54 254.04" xmlns="http://www.w3.org/2000/svg" xmlns:xlink="http://www.w3.org/1999/xlink">
<g id="graph0" class="graph" transform="scale(1 1) rotate(0) translate(4 250.04)">
<title>G</title>
<polygon fill="white" stroke="transparent" points="-4,4 -4,-250.04 390.54,-250.04 390.54,4 -4,4"/>
<!-- n1 -->
<g id="box1" class="node">
<title>n1</title>
<ellipse fill="none" stroke="black" cx="59.77" cy="-228.04" rx="25.13" ry="18"/>
<text text-anchor="middle" x="59.77" y="-224.34" font-family="Serif" font-size="14.00">region</text>
</g>
<!-- n10 -->
<!-- junction -->
<g id="junction1" class="node">
<title>n10</title>
<ellipse fill="black" stroke="black" cx="78.49" cy="-185.98" rx="2.5" ry="2.5"/>
<text text-anchor="middle" x="48.49" y="-192.28" font-family="Serif" font-size="14.00">regionkey</text>
</g>
<!-- n1&#45;&#45;n10 -->
<g id="edge1" class="edge">
<title>n1&#45;&#45;n10</title>
<path fill="none" stroke="black" d="M67.6,-210.45C71.37,-201.98 75.47,-192.75 77.39,-188.45"/>
</g>
<!-- n2 -->
<g id="box2" class="node">
<title>n2</title>
<ellipse fill="none" stroke="black" cx="89.9" cy="-138.04" rx="24.95" ry="18"/>
<text text-anchor="middle" x="89.9" y="-134.34" font-family="Serif" font-size="14.00">nation</text>
</g>
<!-- n2&#45;&#45;n10 -->
<g id="edge2" class="edge">
<title>n2&#45;&#45;n10</title>
<path fill="none" stroke="black" d="M85.65,-155.89C83.17,-166.33 80.29,-178.42 79.07,-183.51"/>
</g>
<!-- n11 -->
<!-- junction -->
<g id="junction2" class="node">
<title>n11</title>
<ellipse fill="black" stroke="black" cx="133.92" cy="-112.91" rx="2.5" ry="2.5"/>
<text text-anchor="middle" x="104.42" y="-99.21" font-family="Serif" font-size="14.00">nationkey</text>
</g>
<!-- n2&#45;&#45;n11 -->
<g id="edge3" class="edge">
<title>n2&#45;&#45;n11</title>
<path fill="none" stroke="black" d="M109.6,-126.8C118.2,-121.89 127.29,-116.7 131.51,-114.29"/>
</g>
<!-- n15 -->
<!-- junction -->
<g id="junction6" class="node">
<title>n15</title>
<ellipse fill="black" stroke="black" cx="44.35" cy="-118.58" rx="2.5" ry="2.5"/>
<text text-anchor="middle" x="26.35" y="-124.88" font-family="Serif" font-size="14.00">name</text>
</g>
<!-- n2&#45;&#45;n15 -->
<g id="edge12" class="edge">
<title>n2&#45;&#45;n15</title>
<path fill="none" stroke="black" d="M68.46,-128.88C59.78,-125.17 50.85,-121.36 46.71,-119.59"/>
</g>
<!-- n3 -->
<g id="box3" class="node">
<title>n3</title>
<ellipse fill="none" stroke="black" cx="181.38" cy="-130.71" rx="30.72" ry="18"/>
<text text-anchor="middle" x="181.38" y="-127.01" font-family="Serif" font-size="14.00">supplier</text>
</g>
<!-- n3&#45;&#45;n11 -->
<g id="edge4" class="edge">
<title>n3&#45;&#45;n11</title>
<path fill="none" stroke="black" d="M155.43,-120.98C147.81,-118.12 140.5,-115.38 136.68,-113.94"/>
</g>
<!-- n12 -->
<!-- junction -->
<g id="junction3" class="node">
<title>n12</title>
<ellipse fill="black" stroke="black" cx="229.57" cy="-121.83" rx="2.5" ry="2.5"/>
<text text-anchor="middle" x="255.07" y="-128.13" font-family="Serif" font-size="14.00">supplykey</text>
</g>
<!-- n3&#45;&#45;n12 -->
<g id="edge6" class="edge">
<title>n3&#45;&#45;n12</title>
<path fill="none" stroke="black" d="M210.8,-125.29C217.38,-124.08 223.41,-122.97 226.77,-122.35"/>
</g>
<!-- n4 -->
<g id="box4" class="node">
<title>n4</title>
<ellipse fill="none" stroke="black" cx="131.98" cy="-61.8" rx="34.96" ry="18"/>
<text text-anchor="middle" x="131.98" y="-58.1" font-family="Serif" font-size="14.00">customer</text>
</g>
<!-- n4&#45;&#45;n11 -->
<g id="edge5" class="edge">
<title>n4&#45;&#45;n11</title>
<path fill="none" stroke="black" d="M132.67,-79.96C133.1,-91.21 133.61,-104.55 133.82,-110.18"/>
</g>
<!-- n13 -->
<!-- junction -->
<g id="junction4" class="node">
<title>n13</title>
<ellipse fill="black" stroke="black" cx="163.28" cy="-24.48" rx="2.5" ry="2.5"/>
<text text-anchor="middle" x="139.78" y="-30.78" font-family="Serif" font-size="14.00">custkey</text>
</g>
<!-- n4&#45;&#45;n13 -->
<g id="edge8" class="edge">
<title>n4&#45;&#45;n13</title>
<path fill="none" stroke="black" d="M146.17,-44.89C152.12,-37.79 158.36,-30.36 161.4,-26.73"/>
</g>
<!-- n5 -->
<g id="box5" class="node">
<title>n5</title>
<ellipse fill="none" stroke="black" cx="211.84" cy="-18" rx="21.56" ry="18"/>
<text text-anchor="middle" x="211.84" y="-14.3" font-family="Serif" font-size="14.00">order</text>
</g>
<!-- n5&#45;&#45;n13 -->
<g id="edge9" class="edge">
<title>n5&#45;&#45;n13</title>
<path fill="none" stroke="black" d="M190.12,-20.9C180.62,-22.17 170.6,-23.51 165.95,-24.13"/>
</g>
<!-- n14 -->
<!-- junction -->
<g id="junction5" class="node">
<title>n14</title>
<ellipse fill="black" stroke="black" cx="252.22" cy="-45.47" rx="2.5" ry="2.5"/>
<text text-anchor="middle" x="225.22" y="-51.77" font-family="Serif" font-size="14.00">orderkey</text>
</g>
<!-- n5&#45;&#45;n14 -->
<g id="edge10" class="edge">
<title>n5&#45;&#45;n14</title>
<path fill="none" stroke="black" d="M228.73,-29.49C237.03,-35.13 246.09,-41.3 250.1,-44.03"/>
</g>
<!-- n6 -->
<g id="box6" class="node">
<title>n6</title>
<ellipse fill="none" stroke="black" cx="271.31" cy="-92.73" rx="31.58" ry="18"/>
<text text-anchor="middle" x="271.31" y="-89.03" font-family="Serif" font-size="14.00">lineitem</text>
</g>
<!-- n6&#45;&#45;n12 -->
<g id="edge7" class="edge">
<title>n6&#45;&#45;n12</title>
<path fill="none" stroke="black" d="M250.93,-106.94C243.15,-112.37 235.27,-117.85 231.64,-120.39"/>
</g>
<!-- n6&#45;&#45;n14 -->
<g id="edge11" class="edge">
<title>n6&#45;&#45;n14</title>
<path fill="none" stroke="black" d="M264.2,-75.13C260.04,-64.84 255.23,-52.92 253.2,-47.9"/>
</g>
<!-- n16 -->
<!-- junction -->
<g id="junction7" class="node">
<title>n16</title>
<ellipse fill="black" stroke="black" cx="313.04" cy="-65.85" rx="2.5" ry="2.5"/>
<text text-anchor="middle" x="348.54" y="-72.15" font-family="Serif" font-size="14.00">extendedprice</text>
</g>
<!-- n6&#45;&#45;n16 -->
<g id="edge14" class="edge">
<title>n6&#45;&#45;n16</title>
<path fill="none" stroke="black" d="M292.66,-78.98C300.04,-74.23 307.34,-69.53 310.86,-67.26"/>
</g>
<!-- n17 -->
<!-- junction -->
<g id="junction8" class="node">
<title>n17</title>
<ellipse fill="black" stroke="black" cx="302.84" cy="-131.97" rx="2.5" ry="2.5"/>
<text text-anchor="middle" x="323.34" y="-138.27" font-family="Serif" font-size="14.00">discount</text>
</g>
<!-- n6&#45;&#45;n17 -->
<g id="edge16" class="edge">
<title>n6&#45;&#45;n17</title>
<path fill="none" stroke="black" d="M284.5,-109.14C290.98,-117.21 298.05,-126.01 301.19,-129.91"/>
</g>
<!-- n7 -->
<!-- n7&#45;&#45;n15 -->
<g id="edge13" class="edge">
<title>n7&#45;&#45;n15</title>
<path fill="none" stroke="black" d="M1.26,-104.74C6.17,-106.32 33.47,-115.09 41.88,-117.79"/>
</g>
<!-- n8 -->
<!-- n8&#45;&#45;n16 -->
<g id="edge15" class="edge">
<title>n8&#45;&#45;n16</title>
<path fill="none" stroke="black" d="M350.16,-39.17C345.93,-42.22 322.41,-59.12 315.17,-64.33"/>
</g>
<!-- n9 -->
<!-- n9&#45;&#45;n17 -->
<g id="edge17" class="edge">
<title>n9&#45;&#45;n17</title>
<path fill="none" stroke="black" d="M335.67,-163.46C331.3,-159.27 310.93,-139.73 304.67,-133.72"/>
</g>
</g>
</svg>
