<?xml version="1.0" encoding="UTF-8" standalone="no"?>
<!DOCTYPE svg PUBLIC "-//W3C//DTD SVG 1.1//EN"
 "http://www.w3.org/Graphics/SVG/1.1/DTD/svg11.dtd">
<!-- Generated by graphviz version 2.44.1 (20200629.0846)
 -->
<!-- Title: G Pages: 1 -->
<svg width="165pt" height="233pt"
 viewBox="0.00 0.00 165.42 232.96" xmlns="http://www.w3.org/2000/svg" xmlns:xlink="http://www.w3.org/1999/xlink">
<g id="graph0" class="graph" transform="scale(1 1) rotate(0) translate(4 228.96)">
<title>G</title>
<polygon fill="white" stroke="transparent" points="-4,4 -4,-228.96 161.42,-228.96 161.42,4 -4,4"/>
<!-- n1 -->
<g id="box1" class="node">
<title>n1</title>
<ellipse fill="none" stroke="black" cx="82.64" cy="-146.42" rx="18" ry="18"/>
<text text-anchor="middle" x="82.64" y="-142.72" font-family="Serif" font-size="14.00">α</text>
</g>
<!-- n7 -->
<!-- junction -->
<g id="junction1" class="node">
<title>n7</title>
<ellipse fill="black" stroke="black" cx="121.65" cy="-164.53" rx="2.5" ry="2.5"/>
<text text-anchor="middle" x="115.65" y="-170.83" font-family="Serif" font-size="14.00">1</text>
</g>
<!-- n1&#45;&#45;n7 -->
<g id="edge1" class="edge">
<title>n1&#45;&#45;n7</title>
<path fill="none" stroke="black" d="M99.41,-154.2C107.01,-157.73 115.18,-161.52 119.17,-163.38"/>
</g>
<!-- n8 -->
<!-- junction -->
<g id="junction2" class="node">
<title>n8</title>
<ellipse fill="black" stroke="black" cx="39.66" cy="-148.64" rx="2.5" ry="2.5"/>
<text text-anchor="middle" x="33.66" y="-154.94" font-family="Serif" font-size="14.00">2</text>
</g>
<!-- n1&#45;&#45;n8 -->
<g id="edge3" class="edge">
<title>n1&#45;&#45;n8</title>
<path fill="none" stroke="black" d="M64.66,-147.35C56.01,-147.79 46.58,-148.28 42.18,-148.51"/>
</g>
<!-- n9 -->
<!-- junction -->
<g id="junction3" class="node">
<title>n9</title>
<ellipse fill="black" stroke="black" cx="74.83" cy="-186.33" rx="2.5" ry="2.5"/>
<text text-anchor="middle" x="68.83" y="-192.63" font-family="Serif" font-size="14.00">3</text>
</g>
<!-- n1&#45;&#45;n9 -->
<g id="edge5" class="edge">
<title>n1&#45;&#45;n9</title>
<path fill="none" stroke="black" d="M79.1,-164.51C77.65,-171.93 76.12,-179.71 75.35,-183.67"/>
</g>
<!-- n10 -->
<!-- junction -->
<g id="junction4" class="node">
<title>n10</title>
<ellipse fill="black" stroke="black" cx="73.29" cy="-105.86" rx="2.5" ry="2.5"/>
<text text-anchor="middle" x="67.29" y="-112.16" font-family="Serif" font-size="14.00">4</text>
</g>
<!-- n1&#45;&#45;n10 -->
<g id="edge7" class="edge">
<title>n1&#45;&#45;n10</title>
<path fill="none" stroke="black" d="M78.51,-128.51C76.71,-120.7 74.81,-112.42 73.87,-108.38"/>
</g>
<!-- n11 -->
<!-- junction -->
<g id="junction5" class="node">
<title>n11</title>
<ellipse fill="black" stroke="black" cx="106.5" cy="-112.21" rx="2.5" ry="2.5"/>
<text text-anchor="middle" x="100.5" y="-113.51" font-family="Serif" font-size="14.00">5</text>
</g>
<!-- n1&#45;&#45;n11 -->
<g id="edge9" class="edge">
<title>n1&#45;&#45;n11</title>
<path fill="none" stroke="black" d="M93.17,-131.31C97.77,-124.73 102.64,-117.74 105.02,-114.33"/>
</g>
<!-- n2 -->
<g id="box2" class="node">
<title>n2</title>
<ellipse fill="none" stroke="black" cx="96.63" cy="-74.41" rx="18" ry="18"/>
<text text-anchor="middle" x="96.63" y="-70.71" font-family="Serif" font-size="14.00">βγ</text>
</g>
<!-- n2&#45;&#45;n10 -->
<g id="edge8" class="edge">
<title>n2&#45;&#45;n10</title>
<path fill="none" stroke="black" d="M85.78,-89.03C81.59,-94.68 77.26,-100.52 74.96,-103.61"/>
</g>
<!-- n2&#45;&#45;n11 -->
<g id="edge10" class="edge">
<title>n2&#45;&#45;n11</title>
<path fill="none" stroke="black" d="M101.22,-91.98C102.99,-98.77 104.82,-105.78 105.79,-109.51"/>
</g>
<!-- n12 -->
<!-- junction -->
<g id="junction6" class="node">
<title>n12</title>
<ellipse fill="black" stroke="black" cx="103.8" cy="-37.33" rx="2.5" ry="2.5"/>
<text text-anchor="middle" x="97.8" y="-43.63" font-family="Serif" font-size="14.00">6</text>
</g>
<!-- n2&#45;&#45;n12 -->
<g id="edge11" class="edge">
<title>n2&#45;&#45;n12</title>
<path fill="none" stroke="black" d="M100.13,-56.31C101.38,-49.83 102.65,-43.29 103.32,-39.83"/>
</g>
<!-- n3 -->
<!-- n3&#45;&#45;n7 -->
<g id="edge2" class="edge">
<title>n3&#45;&#45;n7</title>
<path fill="none" stroke="black" d="M156.05,-181.29C151.55,-179.1 130.92,-169.04 123.95,-165.65"/>
</g>
<!-- n4 -->
<!-- n4&#45;&#45;n8 -->
<g id="edge4" class="edge">
<title>n4&#45;&#45;n8</title>
<path fill="none" stroke="black" d="M1.18,-151.48C5.49,-151.16 29.05,-149.42 37.02,-148.83"/>
</g>
<!-- n5 -->
<!-- n5&#45;&#45;n9 -->
<g id="edge6" class="edge">
<title>n5&#45;&#45;n9</title>
<path fill="none" stroke="black" d="M67.13,-223.8C67.99,-219.61 72.7,-196.66 74.3,-188.9"/>
</g>
<!-- n6 -->
<!-- n6&#45;&#45;n12 -->
<g id="edge12" class="edge">
<title>n6&#45;&#45;n12</title>
<path fill="none" stroke="black" d="M103.14,-1.41C103.22,-6.02 103.61,-26.85 103.75,-34.5"/>
</g>
</g>
</svg>
