<?xml version="1.0" encoding="UTF-8" standalone="no"?>
<!DOCTYPE svg PUBLIC "-//W3C//DTD SVG 1.1//EN"
 "http://www.w3.org/Graphics/SVG/1.1/DTD/svg11.dtd">
<!-- Generated by graphviz version 2.44.1 (20200629.0846)
 -->
<!-- Title: G Pages: 1 -->
<svg width="148pt" height="147pt"
 viewBox="0.00 0.00 148.12 146.95" xmlns="http://www.w3.org/2000/svg" xmlns:xlink="http://www.w3.org/1999/xlink">
<g id="graph0" class="graph" transform="scale(1 1) rotate(0) translate(4 142.95)">
<title>G</title>
<polygon fill="white" stroke="transparent" points="-4,4 -4,-142.95 144.12,-142.95 144.12,4 -4,4"/>
<!-- n1 -->
<g id="box1" class="node">
<title>n1</title>
<ellipse fill="none" stroke="black" cx="70.2" cy="-18" rx="18" ry="18"/>
<text text-anchor="middle" x="70.2" y="-14.3" font-family="Serif" font-size="14.00">E</text>
</g>
<!-- n7 -->
<!-- junction -->
<g id="junction1" class="node">
<title>n7</title>
<ellipse fill="black" stroke="black" cx="31.85" cy="-33.14" rx="2.5" ry="2.5"/>
</g>
<!-- n1&#45;&#45;n7 -->
<g id="edge1" class="edge">
<title>n1&#45;&#45;n7</title>
<path fill="none" stroke="black" d="M53.27,-24.68C45.88,-27.6 38.05,-30.69 34.23,-32.2"/>
</g>
<!-- n8 -->
<!-- junction -->
<g id="junction2" class="node">
<title>n8</title>
<ellipse fill="black" stroke="black" cx="103.73" cy="-42" rx="2.5" ry="2.5"/>
</g>
<!-- n1&#45;&#45;n8 -->
<g id="edge4" class="edge">
<title>n1&#45;&#45;n8</title>
<path fill="none" stroke="black" d="M85,-28.6C91.46,-33.22 98.31,-38.12 101.65,-40.51"/>
</g>
<!-- n2 -->
<g id="box2" class="node">
<title>n2</title>
<ellipse fill="none" stroke="black" cx="97.63" cy="-82.81" rx="18" ry="18"/>
<text text-anchor="middle" x="97.63" y="-79.11" font-family="Serif" font-size="14.00">E</text>
</g>
<!-- n2&#45;&#45;n8 -->
<g id="edge5" class="edge">
<title>n2&#45;&#45;n8</title>
<path fill="none" stroke="black" d="M100.32,-64.79C101.5,-56.93 102.75,-48.6 103.35,-44.53"/>
</g>
<!-- n9 -->
<!-- junction -->
<g id="junction3" class="node">
<title>n9</title>
<ellipse fill="black" stroke="black" cx="60.14" cy="-99.94" rx="2.5" ry="2.5"/>
</g>
<!-- n2&#45;&#45;n9 -->
<g id="edge7" class="edge">
<title>n2&#45;&#45;n9</title>
<path fill="none" stroke="black" d="M81.08,-90.37C73.86,-93.67 66.2,-97.17 62.47,-98.88"/>
</g>
<!-- n3 -->
<g id="box3" class="node">
<title>n3</title>
<ellipse fill="none" stroke="black" cx="27.94" cy="-74.21" rx="18" ry="18"/>
<text text-anchor="middle" x="27.94" y="-70.51" font-family="Serif" font-size="14.00">E</text>
</g>
<!-- n3&#45;&#45;n7 -->
<g id="edge2" class="edge">
<title>n3&#45;&#45;n7</title>
<path fill="none" stroke="black" d="M29.67,-56.08C30.42,-48.17 31.22,-39.78 31.61,-35.68"/>
</g>
<!-- n3&#45;&#45;n9 -->
<g id="edge8" class="edge">
<title>n3&#45;&#45;n9</title>
<path fill="none" stroke="black" d="M42.16,-85.57C48.36,-90.53 54.94,-95.78 58.15,-98.35"/>
</g>
<!-- n4 -->
<!-- n4&#45;&#45;n7 -->
<g id="edge3" class="edge">
<title>n4&#45;&#45;n7</title>
<path fill="none" stroke="black" d="M1.28,-10.8C5.27,-13.72 23.62,-27.12 29.81,-31.64"/>
</g>
<!-- n5 -->
<!-- n5&#45;&#45;n8 -->
<g id="edge6" class="edge">
<title>n5&#45;&#45;n8</title>
<path fill="none" stroke="black" d="M138.74,-27.55C134.16,-29.44 113.16,-38.11 106.07,-41.04"/>
</g>
<!-- n6 -->
<!-- n6&#45;&#45;n9 -->
<g id="edge9" class="edge">
<title>n6&#45;&#45;n9</title>
<path fill="none" stroke="black" d="M55.31,-137.78C55.85,-133.55 58.81,-110.38 59.81,-102.54"/>
</g>
</g>
</svg>
