<?xml version="1.0" encoding="UTF-8" standalone="no"?>
<!DOCTYPE svg PUBLIC "-//W3C//DTD SVG 1.1//EN"
 "http://www.w3.org/Graphics/SVG/1.1/DTD/svg11.dtd">
<!-- Generated by graphviz version 2.44.1 (20200629.0846)
 -->
<!-- Title: G Pages: 1 -->
<svg width="215pt" height="113pt"
 viewBox="0.00 0.00 214.79 112.70" xmlns="http://www.w3.org/2000/svg" xmlns:xlink="http://www.w3.org/1999/xlink">
<g id="graph0" class="graph" transform="scale(1 1) rotate(0) translate(4 108.7)">
<title>G</title>
<polygon fill="white" stroke="transparent" points="-4,4 -4,-108.7 210.79,-108.7 210.79,4 -4,4"/>
<!-- n1 -->
<g id="box1" class="node">
<title>n1</title>
<ellipse fill="none" stroke="black" cx="68.42" cy="-75.46" rx="18" ry="18"/>
<text text-anchor="middle" x="68.42" y="-71.76" font-family="Serif" font-size="14.00">S₁</text>
</g>
<!-- n6 -->
<!-- junction -->
<g id="junction1" class="node">
<title>n6</title>
<ellipse fill="black" stroke="black" cx="33.89" cy="-88.89" rx="2.5" ry="2.5"/>
</g>
<!-- n1&#45;&#45;n6 -->
<g id="edge1" class="edge">
<title>n1&#45;&#45;n6</title>
<path fill="none" stroke="black" d="M51.56,-82.02C45.53,-84.36 39.44,-86.73 36.22,-87.98"/>
</g>
<!-- n8 -->
<!-- junction -->
<g id="junction3" class="node">
<title>n8</title>
<ellipse fill="black" stroke="black" cx="103.56" cy="-58.1" rx="2.5" ry="2.5"/>
</g>
<!-- n1&#45;&#45;n8 -->
<g id="edge5" class="edge">
<title>n1&#45;&#45;n8</title>
<path fill="none" stroke="black" d="M84.75,-67.39C91.06,-64.28 97.58,-61.05 101.04,-59.34"/>
</g>
<!-- n2 -->
<g id="box2" class="node">
<title>n2</title>
<ellipse fill="none" stroke="black" cx="138.55" cy="-75.75" rx="18" ry="18"/>
<text text-anchor="middle" x="138.55" y="-72.05" font-family="Serif" font-size="14.00">S₂</text>
</g>
<!-- n7 -->
<!-- junction -->
<g id="junction2" class="node">
<title>n7</title>
<ellipse fill="black" stroke="black" cx="172.94" cy="-89.54" rx="2.5" ry="2.5"/>
</g>
<!-- n2&#45;&#45;n7 -->
<g id="edge3" class="edge">
<title>n2&#45;&#45;n7</title>
<path fill="none" stroke="black" d="M155.34,-82.48C161.34,-84.89 167.41,-87.32 170.61,-88.61"/>
</g>
<!-- n2&#45;&#45;n8 -->
<g id="edge6" class="edge">
<title>n2&#45;&#45;n8</title>
<path fill="none" stroke="black" d="M122.28,-67.55C116,-64.38 109.5,-61.1 106.06,-59.37"/>
</g>
<!-- n3 -->
<g id="box3" class="node">
<title>n3</title>
<ellipse fill="none" stroke="black" cx="103.72" cy="-18" rx="18" ry="18"/>
<text text-anchor="middle" x="103.72" y="-14.3" font-family="Serif" font-size="14.00">R₂</text>
</g>
<!-- n3&#45;&#45;n8 -->
<g id="edge7" class="edge">
<title>n3&#45;&#45;n8</title>
<path fill="none" stroke="black" d="M103.65,-36.17C103.62,-43.63 103.58,-51.45 103.57,-55.43"/>
</g>
<!-- n4 -->
<!-- n4&#45;&#45;n6 -->
<g id="edge2" class="edge">
<title>n4&#45;&#45;n6</title>
<path fill="none" stroke="black" d="M1.33,-103.12C5.5,-101.3 24.39,-93.04 31.32,-90.01"/>
</g>
<!-- n5 -->
<!-- n5&#45;&#45;n7 -->
<g id="edge4" class="edge">
<title>n5&#45;&#45;n7</title>
<path fill="none" stroke="black" d="M205.47,-103.83C201.29,-102 182.43,-93.71 175.5,-90.67"/>
</g>
</g>
</svg>
