<?xml version="1.0" encoding="UTF-8" standalone="no"?>
<!DOCTYPE svg PUBLIC "-//W3C//DTD SVG 1.1//EN"
 "http://www.w3.org/Graphics/SVG/1.1/DTD/svg11.dtd">
<!-- Generated by graphviz version 2.44.1 (20200629.0846)
 -->
<!-- Title: G Pages: 1 -->
<svg width="217pt" height="113pt"
 viewBox="0.00 0.00 216.71 112.88" xmlns="http://www.w3.org/2000/svg" xmlns:xlink="http://www.w3.org/1999/xlink">
<g id="graph0" class="graph" transform="scale(1 1) rotate(0) translate(4 108.88)">
<title>G</title>
<polygon fill="white" stroke="transparent" points="-4,4 -4,-108.88 212.71,-108.88 212.71,4 -4,4"/>
<!-- n1 -->
<g id="box1" class="node">
<title>n1</title>
<ellipse fill="none" stroke="black" cx="136.34" cy="-54.65" rx="18" ry="18"/>
<text text-anchor="middle" x="136.34" y="-50.95" font-family="Serif" font-size="14.00">S₁</text>
</g>
<!-- n6 -->
<!-- junction -->
<g id="junction1" class="node">
<title>n6</title>
<ellipse fill="black" stroke="black" cx="172.71" cy="-47.52" rx="2.5" ry="2.5"/>
</g>
<!-- n1&#45;&#45;n6 -->
<g id="edge1" class="edge">
<title>n1&#45;&#45;n6</title>
<path fill="none" stroke="black" d="M154.1,-51.17C160.44,-49.92 166.86,-48.66 170.25,-48"/>
<text text-anchor="middle" x="157.6" y="-54.97" font-family="Serif" font-size="14.00">1</text>
</g>
<!-- n8 -->
<!-- junction -->
<g id="junction3" class="node">
<title>n8</title>
<ellipse fill="black" stroke="black" cx="98.55" cy="-65.01" rx="2.5" ry="2.5"/>
</g>
<!-- n1&#45;&#45;n8 -->
<g id="edge5" class="edge">
<title>n1&#45;&#45;n8</title>
<path fill="none" stroke="black" d="M118.77,-59.47C111.99,-61.33 104.97,-63.25 101.25,-64.27"/>
<text text-anchor="middle" x="115.27" y="-63.27" font-family="Serif" font-size="14.00">2</text>
</g>
<!-- n2 -->
<g id="box2" class="node">
<title>n2</title>
<ellipse fill="none" stroke="black" cx="67.42" cy="-41.23" rx="18" ry="18"/>
<text text-anchor="middle" x="67.42" y="-37.53" font-family="Serif" font-size="14.00">S₂</text>
</g>
<!-- n7 -->
<!-- junction -->
<g id="junction2" class="node">
<title>n7</title>
<ellipse fill="black" stroke="black" cx="36.52" cy="-20.76" rx="2.5" ry="2.5"/>
</g>
<!-- n2&#45;&#45;n7 -->
<g id="edge3" class="edge">
<title>n2&#45;&#45;n7</title>
<path fill="none" stroke="black" d="M52.33,-31.24C46.94,-27.66 41.49,-24.05 38.61,-22.14"/>
<text text-anchor="middle" x="48.83" y="-20.04" font-family="Serif" font-size="14.00">1</text>
</g>
<!-- n2&#45;&#45;n8 -->
<g id="edge6" class="edge">
<title>n2&#45;&#45;n8</title>
<path fill="none" stroke="black" d="M81.89,-52.29C87.48,-56.56 93.26,-60.97 96.32,-63.31"/>
<text text-anchor="middle" x="85.39" y="-56.09" font-family="Serif" font-size="14.00">2</text>
</g>
<!-- n3 -->
<!-- n3&#45;&#45;n6 -->
<g id="edge2" class="edge">
<title>n3&#45;&#45;n6</title>
<path fill="none" stroke="black" d="M207.33,-39.54C202.89,-40.56 182.81,-45.19 175.43,-46.89"/>
<text text-anchor="middle" x="203.83" y="-43.34" font-family="Serif" font-size="14.00">1</text>
</g>
<!-- n4 -->
<!-- n4&#45;&#45;n7 -->
<g id="edge4" class="edge">
<title>n4&#45;&#45;n7</title>
<path fill="none" stroke="black" d="M7,-1C10.79,-3.54 27.91,-15 34.2,-19.21"/>
<text text-anchor="middle" x="3.5" y="-4.8" font-family="Serif" font-size="14.00">2</text>
</g>
<!-- n5 -->
<!-- n5&#45;&#45;n8 -->
<g id="edge7" class="edge">
<title>n5&#45;&#45;n8</title>
<path fill="none" stroke="black" d="M91.01,-103.7C91.86,-99.37 96.47,-75.68 98.03,-67.66"/>
<text text-anchor="middle" x="87.51" y="-92.5" font-family="Serif" font-size="14.00">3</text>
</g>
</g>
</svg>
