<?xml version="1.0" encoding="UTF-8" standalone="no"?>
<!DOCTYPE svg PUBLIC "-//W3C//DTD SVG 1.1//EN"
 "http://www.w3.org/Graphics/SVG/1.1/DTD/svg11.dtd">
<!-- Generated by graphviz version 2.44.1 (20200629.0846)
 -->
<!-- Title: G Pages: 1 -->
<svg width="145pt" height="153pt"
 viewBox="0.00 0.00 144.58 152.57" xmlns="http://www.w3.org/2000/svg" xmlns:xlink="http://www.w3.org/1999/xlink">
<g id="graph0" class="graph" transform="scale(1 1) rotate(0) translate(4 148.57)">
<title>G</title>
<polygon fill="white" stroke="transparent" points="-4,4 -4,-148.57 140.58,-148.57 140.58,4 -4,4"/>
<!-- n1 -->
<g id="box1" class="node">
<title>n1</title>
<ellipse fill="none" stroke="black" cx="78.63" cy="-51.41" rx="18" ry="18"/>
<text text-anchor="middle" x="78.63" y="-47.71" font-family="Serif" font-size="14.00">R₁</text>
</g>
<!-- n5 -->
<!-- junction -->
<g id="junction1" class="node">
<title>n5</title>
<ellipse fill="black" stroke="black" cx="108.43" cy="-25.34" rx="2.5" ry="2.5"/>
</g>
<!-- n1&#45;&#45;n5 -->
<g id="edge1" class="edge">
<title>n1&#45;&#45;n5</title>
<path fill="none" stroke="black" d="M92.48,-39.29C97.83,-34.61 103.36,-29.77 106.29,-27.2"/>
<text text-anchor="middle" x="95.98" y="-28.09" font-family="Serif" font-size="14.00">1</text>
</g>
<!-- n6 -->
<!-- junction -->
<g id="junction2" class="node">
<title>n6</title>
<ellipse fill="black" stroke="black" cx="41.11" cy="-38.81" rx="2.5" ry="2.5"/>
</g>
<!-- n1&#45;&#45;n6 -->
<g id="edge3" class="edge">
<title>n1&#45;&#45;n6</title>
<path fill="none" stroke="black" d="M61.19,-45.55C54.45,-43.29 47.49,-40.95 43.79,-39.71"/>
<text text-anchor="middle" x="57.69" y="-34.35" font-family="Serif" font-size="14.00">2</text>
</g>
<!-- n7 -->
<!-- junction -->
<g id="junction3" class="node">
<title>n7</title>
<ellipse fill="black" stroke="black" cx="86.3" cy="-90.25" rx="2.5" ry="2.5"/>
</g>
<!-- n1&#45;&#45;n7 -->
<g id="edge5" class="edge">
<title>n1&#45;&#45;n7</title>
<path fill="none" stroke="black" d="M82.2,-69.47C83.6,-76.6 85.06,-83.98 85.8,-87.73"/>
<text text-anchor="middle" x="78.7" y="-73.27" font-family="Serif" font-size="14.00">3</text>
</g>
<!-- n2 -->
<g id="box2" class="node">
<title>n2</title>
<ellipse fill="none" stroke="black" cx="94.18" cy="-126.57" rx="18" ry="18"/>
<text text-anchor="middle" x="94.18" y="-122.87" font-family="Serif" font-size="14.00">R₂</text>
</g>
<!-- n2&#45;&#45;n7 -->
<g id="edge6" class="edge">
<title>n2&#45;&#45;n7</title>
<path fill="none" stroke="black" d="M90.33,-108.84C88.96,-102.5 87.57,-96.09 86.83,-92.71"/>
<text text-anchor="middle" x="86.83" y="-97.64" font-family="Serif" font-size="14.00">1</text>
</g>
<!-- n3 -->
<!-- n3&#45;&#45;n5 -->
<g id="edge2" class="edge">
<title>n3&#45;&#45;n5</title>
<path fill="none" stroke="black" d="M135.39,-1.11C131.93,-4.22 116.29,-18.27 110.55,-23.43"/>
<text text-anchor="middle" x="131.89" y="-4.91" font-family="Serif" font-size="14.00">1</text>
</g>
<!-- n4 -->
<!-- n4&#45;&#45;n6 -->
<g id="edge4" class="edge">
<title>n4&#45;&#45;n6</title>
<path fill="none" stroke="black" d="M7,-26.54C11.38,-28.11 31.16,-35.23 38.42,-37.84"/>
<text text-anchor="middle" x="3.5" y="-30.34" font-family="Serif" font-size="14.00">2</text>
</g>
</g>
</svg>
