<?xml version="1.0" encoding="UTF-8" standalone="no"?>
<!DOCTYPE svg PUBLIC "-//W3C//DTD SVG 1.1//EN"
 "http://www.w3.org/Graphics/SVG/1.1/DTD/svg11.dtd">
<!-- Generated by graphviz version 2.44.1 (20200629.0846)
 -->
<!-- Title: G Pages: 1 -->
<svg width="164pt" height="212pt"
 viewBox="0.00 0.00 164.28 212.46" xmlns="http://www.w3.org/2000/svg" xmlns:xlink="http://www.w3.org/1999/xlink">
<g id="graph0" class="graph" transform="scale(1 1) rotate(0) translate(4 208.46)">
<title>G</title>
<polygon fill="white" stroke="transparent" points="-4,4 -4,-208.46 160.28,-208.46 160.28,4 -4,4"/>
<!-- n1 -->
<g id="box1" class="node">
<title>n1</title>
<ellipse fill="none" stroke="black" cx="46.27" cy="-67.78" rx="18" ry="18"/>
</g>
<!-- n5 -->
<!-- n1&#45;&#45;n5 -->
<g id="edge4" class="edge">
<title>n1&#45;&#45;n5</title>
<path fill="none" stroke="black" d="M31.8,-56.98C20.53,-48.56 6.23,-37.89 2.83,-35.36"/>
</g>
<!-- n9 -->
<!-- junction -->
<g id="junction1" class="node">
<title>n9</title>
<ellipse fill="black" stroke="black" cx="48.85" cy="-126.45" rx="2.5" ry="2.5"/>
</g>
<!-- n1&#45;&#45;n9 -->
<g id="edge1" class="edge">
<title>n1&#45;&#45;n9</title>
<path fill="none" stroke="black" d="M47.08,-86.03C47.68,-99.75 48.45,-117.27 48.73,-123.83"/>
</g>
<!-- n10 -->
<!-- junction -->
<g id="junction3" class="node">
<title>n10</title>
<ellipse fill="black" stroke="black" cx="99.86" cy="-48.59" rx="2.5" ry="2.5"/>
</g>
<!-- n1&#45;&#45;n10 -->
<g id="edge5" class="edge">
<title>n1&#45;&#45;n10</title>
<path fill="none" stroke="black" d="M63.23,-61.71C75.74,-57.23 91.58,-51.56 97.49,-49.44"/>
</g>
<!-- n2 -->
<g id="box2" class="node">
<title>n2</title>
<ellipse fill="none" stroke="black" cx="129.13" cy="-96.52" rx="18" ry="18"/>
</g>
<!-- n3 -->
<g id="box3" class="node">
<title>n3</title>
<ellipse fill="none" stroke="black" cx="103.78" cy="-148.04" rx="18" ry="18"/>
</g>
<!-- n2&#45;&#45;n3 -->
<g id="edge8" class="edge">
<title>n2&#45;&#45;n3</title>
<path fill="none" stroke="black" d="M121.11,-112.82C118.15,-118.83 114.8,-125.65 111.84,-131.67"/>
</g>
<!-- n2&#45;&#45;n10 -->
<g id="edge6" class="edge">
<title>n2&#45;&#45;n10</title>
<path fill="none" stroke="black" d="M119.71,-81.09C113.03,-70.14 104.67,-56.46 101.34,-51"/>
</g>
<!-- n7 -->
<!-- n3&#45;&#45;n7 -->
<g id="edge9" class="edge">
<title>n3&#45;&#45;n7</title>
<path fill="none" stroke="black" d="M120.24,-155.42C134.04,-161.61 152.02,-169.67 155.27,-171.12"/>
</g>
<!-- n8 -->
<!-- n3&#45;&#45;n8 -->
<g id="edge10" class="edge">
<title>n3&#45;&#45;n8</title>
<path fill="none" stroke="black" d="M101.68,-166.04C99.94,-180.85 97.71,-199.96 97.3,-203.41"/>
</g>
<!-- n3&#45;&#45;n9 -->
<g id="edge2" class="edge">
<title>n3&#45;&#45;n9</title>
<path fill="none" stroke="black" d="M87,-141.45C74.13,-136.39 57.54,-129.87 51.34,-127.43"/>
</g>
<!-- n4 -->
<!-- n4&#45;&#45;n9 -->
<g id="edge3" class="edge">
<title>n4&#45;&#45;n9</title>
<path fill="none" stroke="black" d="M1.04,-154.53C5.61,-151.85 37.63,-133.04 46.55,-127.8"/>
</g>
<!-- n6 -->
<!-- n6&#45;&#45;n10 -->
<g id="edge7" class="edge">
<title>n6&#45;&#45;n10</title>
<path fill="none" stroke="black" d="M125.17,-1.04C122.75,-5.58 105.8,-37.43 101.08,-46.3"/>
</g>
</g>
</svg>
