<?xml version="1.0" encoding="UTF-8" standalone="no"?>
<!DOCTYPE svg PUBLIC "-//W3C//DTD SVG 1.1//EN"
 "http://www.w3.org/Graphics/SVG/1.1/DTD/svg11.dtd">
<!-- Generated by graphviz version 2.44.1 (0)
 -->
<!-- Title: G Pages: 1 -->
<svg width="1238pt" height="463pt"
 viewBox="0.00 0.00 1238.07 463.00" xmlns="http://www.w3.org/2000/svg" xmlns:xlink="http://www.w3.org/1999/xlink">
<g id="graph0" class="graph" transform="scale(1 1) rotate(0) translate(4 459)">
<title>G</title>
<polygon fill="white" stroke="transparent" points="-4,4 -4,-459 1234.07,-459 1234.07,4 -4,4"/>
<!-- S_S1 -->
<g id="node1" class="node">
<title>S_S1</title>
<ellipse fill="#6c9ac3" stroke="#6c9ac3" cx="29.25" cy="-371" rx="29.5" ry="29.5"/>
<text text-anchor="middle" x="29.25" y="-367.3" font-family="Times,serif" font-size="14.00">S_S1</text>
</g>
<!-- T_exp_1 -->
<g id="node9" class="node">
<title>T_exp_1</title>
<polygon fill="#e28f41" stroke="#e28f41" points="166.49,-103.5 101.49,-103.5 101.49,-38.5 166.49,-38.5 166.49,-103.5"/>
<text text-anchor="middle" x="133.99" y="-67.3" font-family="Times,serif" font-size="14.00">T_exp_1</text>
</g>
<!-- S_S1&#45;&gt;T_exp_1 -->
<g id="edge1" class="edge">
<title>S_S1&#45;&gt;T_exp_1</title>
<path fill="none" stroke="black" d="M39.64,-343.58C57.65,-291 97.15,-175.66 118.54,-113.19"/>
<polygon fill="black" stroke="black" points="121.89,-114.24 121.82,-103.64 115.26,-111.97 121.89,-114.24"/>
<text text-anchor="middle" x="79.99" y="-232.8" font-family="Times,serif" font-size="14.00">1</text>
</g>
<!-- T_exp_i21 -->
<g id="node10" class="node">
<title>T_exp_i21</title>
<polygon fill="#e28f41" stroke="#e28f41" points="900.08,-155.5 825.08,-155.5 825.08,-80.5 900.08,-80.5 900.08,-155.5"/>
<text text-anchor="middle" x="862.58" y="-114.3" font-family="Times,serif" font-size="14.00">T_exp_i21</text>
</g>
<!-- S_S1&#45;&gt;T_exp_i21 -->
<g id="edge6" class="edge">
<title>S_S1&#45;&gt;T_exp_i21</title>
<path fill="none" stroke="black" d="M48.61,-393.21C67.47,-413.38 98.83,-440 132.99,-440 132.99,-440 132.99,-440 748.23,-440 858.14,-440 782.65,-306.59 822.08,-204 827.01,-191.17 832.94,-177.54 838.68,-165"/>
<polygon fill="black" stroke="black" points="841.98,-166.2 843.02,-155.66 835.64,-163.25 841.98,-166.2"/>
<text text-anchor="middle" x="414.79" y="-443.8" font-family="Times,serif" font-size="14.00">1</text>
</g>
<!-- T_exp_a1 -->
<g id="node11" class="node">
<title>T_exp_a1</title>
<polygon fill="#e28f41" stroke="#e28f41" points="611.38,-353.5 540.38,-353.5 540.38,-282.5 611.38,-282.5 611.38,-353.5"/>
<text text-anchor="middle" x="575.88" y="-314.3" font-family="Times,serif" font-size="14.00">T_exp_a1</text>
</g>
<!-- S_S1&#45;&gt;T_exp_a1 -->
<g id="edge10" class="edge">
<title>S_S1&#45;&gt;T_exp_a1</title>
<path fill="none" stroke="black" d="M56.21,-383.43C76.6,-392.05 105.98,-402 132.99,-402 132.99,-402 132.99,-402 291.79,-402 383.89,-402 411.99,-410.52 497.38,-376 509.43,-371.13 521.27,-363.91 531.93,-356.2"/>
<polygon fill="black" stroke="black" points="534.34,-358.77 540.21,-349.96 530.12,-353.19 534.34,-358.77"/>
<text text-anchor="middle" x="290.79" y="-405.8" font-family="Times,serif" font-size="14.00">1</text>
</g>
<!-- T_exp_e1 -->
<g id="node12" class="node">
<title>T_exp_e1</title>
<polygon fill="#e28f41" stroke="#e28f41" points="388.29,-274.5 317.29,-274.5 317.29,-203.5 388.29,-203.5 388.29,-274.5"/>
<text text-anchor="middle" x="352.79" y="-235.3" font-family="Times,serif" font-size="14.00">T_exp_e1</text>
</g>
<!-- S_S1&#45;&gt;T_exp_e1 -->
<g id="edge14" class="edge">
<title>S_S1&#45;&gt;T_exp_e1</title>
<path fill="none" stroke="black" d="M57.68,-363.37C106.6,-349.29 211.51,-316.87 294.29,-276 298.96,-273.69 303.72,-271.09 308.4,-268.36"/>
<polygon fill="black" stroke="black" points="310.51,-271.17 317.25,-263 306.89,-265.19 310.51,-271.17"/>
<text text-anchor="middle" x="187.99" y="-324.8" font-family="Times,serif" font-size="14.00">1</text>
</g>
<!-- S_E1 -->
<g id="node2" class="node">
<title>S_E1</title>
<ellipse fill="#6c9ac3" stroke="#6c9ac3" cx="239.39" cy="-175" rx="29.8" ry="29.8"/>
<text text-anchor="middle" x="239.39" y="-171.3" font-family="Times,serif" font-size="14.00">S_E1</text>
</g>
<!-- S_E1&#45;&gt;T_exp_e1 -->
<g id="edge13" class="edge">
<title>S_E1&#45;&gt;T_exp_e1</title>
<path fill="none" stroke="black" d="M265.67,-189.52C278.22,-196.73 293.73,-205.64 308.12,-213.91"/>
<polygon fill="black" stroke="black" points="306.49,-217.01 316.9,-218.96 309.97,-210.94 306.49,-217.01"/>
<text text-anchor="middle" x="290.79" y="-208.8" font-family="Times,serif" font-size="14.00">1</text>
</g>
<!-- T_asymp_1 -->
<g id="node13" class="node">
<title>T_asymp_1</title>
<polygon fill="#e28f41" stroke="#e28f41" points="393.29,-373.5 312.29,-373.5 312.29,-292.5 393.29,-292.5 393.29,-373.5"/>
<text text-anchor="middle" x="352.79" y="-329.3" font-family="Times,serif" font-size="14.00">T_asymp_1</text>
</g>
<!-- S_E1&#45;&gt;T_asymp_1 -->
<g id="edge16" class="edge">
<title>S_E1&#45;&gt;T_asymp_1</title>
<path fill="none" stroke="black" d="M256.01,-200.13C270.15,-222.53 291.83,-255.99 312.29,-284 312.35,-284.09 312.41,-284.17 312.48,-284.26"/>
<polygon fill="black" stroke="black" points="309.72,-286.41 318.52,-292.32 315.32,-282.22 309.72,-286.41"/>
<text text-anchor="middle" x="290.79" y="-260.8" font-family="Times,serif" font-size="14.00">1</text>
</g>
<!-- T_ill_1 -->
<g id="node15" class="node">
<title>T_ill_1</title>
<polygon fill="#e28f41" stroke="#e28f41" points="380.79,-109 324.79,-109 324.79,-53 380.79,-53 380.79,-109"/>
<text text-anchor="middle" x="352.79" y="-77.3" font-family="Times,serif" font-size="14.00">T_ill_1</text>
</g>
<!-- S_E1&#45;&gt;T_ill_1 -->
<g id="edge20" class="edge">
<title>S_E1&#45;&gt;T_ill_1</title>
<path fill="none" stroke="black" d="M254.01,-148.74C262.15,-135.11 273.58,-119.05 287.29,-108 295.44,-101.43 305.42,-96.22 315.07,-92.21"/>
<polygon fill="black" stroke="black" points="316.45,-95.43 324.54,-88.58 313.95,-88.89 316.45,-95.43"/>
<text text-anchor="middle" x="290.79" y="-111.8" font-family="Times,serif" font-size="14.00">1</text>
</g>
<!-- S_I1 -->
<g id="node3" class="node">
<title>S_I1</title>
<ellipse fill="#6c9ac3" stroke="#6c9ac3" cx="466.84" cy="-28" rx="27.1" ry="27.1"/>
<text text-anchor="middle" x="466.84" y="-24.3" font-family="Times,serif" font-size="14.00">S_I1</text>
</g>
<!-- S_I1&#45;&gt;T_exp_1 -->
<g id="edge2" class="edge">
<title>S_I1&#45;&gt;T_exp_1</title>
<path fill="none" stroke="black" d="M439.44,-30.37C408.81,-33.2 356.82,-38.29 312.29,-44 265.77,-49.96 212.61,-58.26 176.73,-64.07"/>
<polygon fill="black" stroke="black" points="175.94,-60.66 166.64,-65.72 177.07,-67.56 175.94,-60.66"/>
<text text-anchor="middle" x="290.79" y="-50.8" font-family="Times,serif" font-size="14.00">1</text>
</g>
<!-- T_prog_1 -->
<g id="node16" class="node">
<title>T_prog_1</title>
<polygon fill="#e28f41" stroke="#e28f41" points="610.88,-88 540.88,-88 540.88,-18 610.88,-18 610.88,-88"/>
<text text-anchor="middle" x="575.88" y="-49.3" font-family="Times,serif" font-size="14.00">T_prog_1</text>
</g>
<!-- S_I1&#45;&gt;T_prog_1 -->
<g id="edge22" class="edge">
<title>S_I1&#45;&gt;T_prog_1</title>
<path fill="none" stroke="black" d="M493.48,-33.99C504.61,-36.59 517.96,-39.71 530.61,-42.66"/>
<polygon fill="black" stroke="black" points="530.01,-46.11 540.55,-44.98 531.6,-39.3 530.01,-46.11"/>
<text text-anchor="middle" x="518.88" y="-43.8" font-family="Times,serif" font-size="14.00">1</text>
</g>
<!-- S_I21 -->
<g id="node4" class="node">
<title>S_I21</title>
<ellipse fill="#6c9ac3" stroke="#6c9ac3" cx="747.23" cy="-69" rx="31.7" ry="31.7"/>
<text text-anchor="middle" x="747.23" y="-65.3" font-family="Times,serif" font-size="14.00">S_I21</text>
</g>
<!-- S_I21&#45;&gt;T_exp_i21 -->
<g id="edge5" class="edge">
<title>S_I21&#45;&gt;T_exp_i21</title>
<path fill="none" stroke="black" d="M779.07,-65.88C787.4,-66.02 796.26,-67.09 804.08,-70 808.31,-71.58 812.44,-73.6 816.44,-75.94"/>
<polygon fill="black" stroke="black" points="814.64,-78.94 824.93,-81.47 818.46,-73.08 814.64,-78.94"/>
<text text-anchor="middle" x="800.58" y="-73.8" font-family="Times,serif" font-size="14.00">1</text>
</g>
<!-- T_death2_1 -->
<g id="node17" class="node">
<title>T_death2_1</title>
<polygon fill="#e28f41" stroke="#e28f41" points="903.08,-293.5 822.08,-293.5 822.08,-212.5 903.08,-212.5 903.08,-293.5"/>
<text text-anchor="middle" x="862.58" y="-249.3" font-family="Times,serif" font-size="14.00">T_death2_1</text>
</g>
<!-- S_I21&#45;&gt;T_death2_1 -->
<g id="edge24" class="edge">
<title>S_I21&#45;&gt;T_death2_1</title>
<path fill="none" stroke="black" d="M754.34,-100.08C761.15,-128.86 774.31,-171.8 797.08,-203 801.84,-209.52 807.67,-215.61 813.86,-221.14"/>
<polygon fill="black" stroke="black" points="811.94,-224.1 821.85,-227.85 816.44,-218.74 811.94,-224.1"/>
<text text-anchor="middle" x="800.58" y="-212.8" font-family="Times,serif" font-size="14.00">1</text>
</g>
<!-- T_rec_1 -->
<g id="node18" class="node">
<title>T_rec_1</title>
<polygon fill="#e28f41" stroke="#e28f41" points="893.58,-62 831.58,-62 831.58,0 893.58,0 893.58,-62"/>
<text text-anchor="middle" x="862.58" y="-27.3" font-family="Times,serif" font-size="14.00">T_rec_1</text>
</g>
<!-- S_I21&#45;&gt;T_rec_1 -->
<g id="edge26" class="edge">
<title>S_I21&#45;&gt;T_rec_1</title>
<path fill="none" stroke="black" d="M770.8,-47.22C778.53,-41.11 787.62,-35.26 797.08,-32 804.67,-29.38 813.07,-28.15 821.23,-27.74"/>
<polygon fill="black" stroke="black" points="821.41,-31.24 831.36,-27.61 821.32,-24.24 821.41,-31.24"/>
<text text-anchor="middle" x="800.58" y="-35.8" font-family="Times,serif" font-size="14.00">1</text>
</g>
<!-- S_A1 -->
<g id="node5" class="node">
<title>S_A1</title>
<ellipse fill="#6c9ac3" stroke="#6c9ac3" cx="466.84" cy="-336" rx="30.59" ry="30.59"/>
<text text-anchor="middle" x="466.84" y="-332.3" font-family="Times,serif" font-size="14.00">S_A1</text>
</g>
<!-- S_A1&#45;&gt;T_exp_a1 -->
<g id="edge9" class="edge">
<title>S_A1&#45;&gt;T_exp_a1</title>
<path fill="none" stroke="black" d="M497.09,-331.08C507.33,-329.36 519.07,-327.39 530.27,-325.5"/>
<polygon fill="black" stroke="black" points="531.07,-328.92 540.35,-323.81 529.91,-322.01 531.07,-328.92"/>
<text text-anchor="middle" x="518.88" y="-330.8" font-family="Times,serif" font-size="14.00">1</text>
</g>
<!-- T_arec_1 -->
<g id="node14" class="node">
<title>T_arec_1</title>
<polygon fill="#e28f41" stroke="#e28f41" points="697.38,-323 629.38,-323 629.38,-255 697.38,-255 697.38,-323"/>
<text text-anchor="middle" x="663.38" y="-285.3" font-family="Times,serif" font-size="14.00">T_arec_1</text>
</g>
<!-- S_A1&#45;&gt;T_arec_1 -->
<g id="edge18" class="edge">
<title>S_A1&#45;&gt;T_arec_1</title>
<path fill="none" stroke="black" d="M493.96,-350.53C523.93,-365.1 573.78,-382.75 611.38,-363 624.39,-356.17 634.73,-344.35 642.6,-332.14"/>
<polygon fill="black" stroke="black" points="645.79,-333.63 647.9,-323.25 639.77,-330.05 645.79,-333.63"/>
<text text-anchor="middle" x="518.88" y="-364.8" font-family="Times,serif" font-size="14.00">1</text>
</g>
<!-- S_R1 -->
<g id="node6" class="node">
<title>S_R1</title>
<ellipse fill="#6c9ac3" stroke="#6c9ac3" cx="976.63" cy="-164" rx="30.59" ry="30.59"/>
<text text-anchor="middle" x="976.63" y="-160.3" font-family="Times,serif" font-size="14.00">S_R1</text>
</g>
<!-- T_rec2_1 -->
<g id="node19" class="node">
<title>T_rec2_1</title>
<polygon fill="#e28f41" stroke="#e28f41" points="1118.17,-198 1050.17,-198 1050.17,-130 1118.17,-130 1118.17,-198"/>
<text text-anchor="middle" x="1084.17" y="-160.3" font-family="Times,serif" font-size="14.00">T_rec2_1</text>
</g>
<!-- S_R1&#45;&gt;T_rec2_1 -->
<g id="edge28" class="edge">
<title>S_R1&#45;&gt;T_rec2_1</title>
<path fill="none" stroke="black" d="M1007.31,-164C1017.38,-164 1028.85,-164 1039.77,-164"/>
<polygon fill="black" stroke="black" points="1040,-167.5 1050,-164 1040,-160.5 1040,-167.5"/>
<text text-anchor="middle" x="1028.67" y="-167.8" font-family="Times,serif" font-size="14.00">1</text>
</g>
<!-- S_R21 -->
<g id="node7" class="node">
<title>S_R21</title>
<ellipse fill="#6c9ac3" stroke="#6c9ac3" cx="1195.62" cy="-164" rx="34.39" ry="34.39"/>
<text text-anchor="middle" x="1195.62" y="-160.3" font-family="Times,serif" font-size="14.00">S_R21</text>
</g>
<!-- S_D1 -->
<g id="node8" class="node">
<title>S_D1</title>
<ellipse fill="#6c9ac3" stroke="#6c9ac3" cx="976.63" cy="-253" rx="30.59" ry="30.59"/>
<text text-anchor="middle" x="976.63" y="-249.3" font-family="Times,serif" font-size="14.00">S_D1</text>
</g>
<!-- T_exp_1&#45;&gt;S_E1 -->
<g id="edge3" class="edge">
<title>T_exp_1&#45;&gt;S_E1</title>
<path fill="none" stroke="black" d="M166.58,-102.77C180.61,-116.88 196.98,-133.35 210.55,-146.99"/>
<polygon fill="black" stroke="black" points="208.23,-149.63 217.76,-154.25 213.19,-144.69 208.23,-149.63"/>
<text text-anchor="middle" x="187.99" y="-129.8" font-family="Times,serif" font-size="14.00">1</text>
</g>
<!-- T_exp_1&#45;&gt;S_I1 -->
<g id="edge4" class="edge">
<title>T_exp_1&#45;&gt;S_I1</title>
<path fill="none" stroke="black" d="M166.65,-59.1C179.8,-54.38 195.28,-49.11 209.49,-45 243.59,-35.14 252.03,-31.03 287.29,-27 336.2,-21.41 393.15,-23.14 429.33,-25.26"/>
<polygon fill="black" stroke="black" points="429.21,-28.76 439.41,-25.89 429.65,-21.78 429.21,-28.76"/>
<text text-anchor="middle" x="290.79" y="-30.8" font-family="Times,serif" font-size="14.00">1</text>
</g>
<!-- T_exp_i21&#45;&gt;S_E1 -->
<g id="edge8" class="edge">
<title>T_exp_i21&#45;&gt;S_E1</title>
<path fill="none" stroke="black" d="M824.83,-127.33C802.77,-132.14 774.07,-137 748.23,-137 351.79,-137 351.79,-137 351.79,-137 325.21,-137 296.88,-146.81 275.44,-156.46"/>
<polygon fill="black" stroke="black" points="273.67,-153.43 266.11,-160.85 276.65,-159.76 273.67,-153.43"/>
<text text-anchor="middle" x="518.88" y="-140.8" font-family="Times,serif" font-size="14.00">1</text>
</g>
<!-- T_exp_i21&#45;&gt;S_I21 -->
<g id="edge7" class="edge">
<title>T_exp_i21&#45;&gt;S_I21</title>
<path fill="none" stroke="black" d="M824.83,-102.11C812.42,-96.75 798.56,-90.76 786.07,-85.36"/>
<polygon fill="black" stroke="black" points="787.4,-82.12 776.83,-81.36 784.62,-88.55 787.4,-82.12"/>
<text text-anchor="middle" x="800.58" y="-95.8" font-family="Times,serif" font-size="14.00">1</text>
</g>
<!-- T_exp_a1&#45;&gt;S_E1 -->
<g id="edge12" class="edge">
<title>T_exp_a1&#45;&gt;S_E1</title>
<path fill="none" stroke="black" d="M540.15,-287.11C505.53,-258.2 449.54,-216.35 393.29,-195 356.41,-181 311.33,-176.49 279.71,-175.19"/>
<polygon fill="black" stroke="black" points="279.64,-171.68 269.54,-174.86 279.42,-178.68 279.64,-171.68"/>
<text text-anchor="middle" x="414.79" y="-207.8" font-family="Times,serif" font-size="14.00">1</text>
</g>
<!-- T_exp_a1&#45;&gt;S_A1 -->
<g id="edge11" class="edge">
<title>T_exp_a1&#45;&gt;S_A1</title>
<path fill="none" stroke="black" d="M540.34,-307.15C532.09,-305.94 523.37,-305.82 515.38,-308 510.66,-309.29 505.94,-311.17 501.39,-313.37"/>
<polygon fill="black" stroke="black" points="499.52,-310.4 492.38,-318.22 502.84,-316.56 499.52,-310.4"/>
<text text-anchor="middle" x="518.88" y="-311.8" font-family="Times,serif" font-size="14.00">1</text>
</g>
<!-- T_exp_e1&#45;&gt;S_E1 -->
<g id="edge15" class="edge">
<title>T_exp_e1&#45;&gt;S_E1</title>
<path fill="none" stroke="black" d="M317.27,-234.79C307.16,-232.57 296.38,-229.18 287.29,-224 279.1,-219.33 271.45,-212.79 264.79,-206.01"/>
<polygon fill="black" stroke="black" points="267.34,-203.61 257.99,-198.63 262.2,-208.35 267.34,-203.61"/>
<text text-anchor="middle" x="290.79" y="-230.8" font-family="Times,serif" font-size="14.00">2</text>
</g>
<!-- T_asymp_1&#45;&gt;S_A1 -->
<g id="edge17" class="edge">
<title>T_asymp_1&#45;&gt;S_A1</title>
<path fill="none" stroke="black" d="M393.29,-334.06C403.88,-334.34 415.33,-334.65 425.93,-334.93"/>
<polygon fill="black" stroke="black" points="426.11,-338.44 436.2,-335.21 426.29,-331.44 426.11,-338.44"/>
<text text-anchor="middle" x="414.79" y="-337.8" font-family="Times,serif" font-size="14.00">1</text>
</g>
<!-- T_arec_1&#45;&gt;S_R1 -->
<g id="edge19" class="edge">
<title>T_arec_1&#45;&gt;S_R1</title>
<path fill="none" stroke="black" d="M696.68,-254.78C721.64,-230.66 758.37,-199.93 797.08,-184 821.38,-174 891.04,-168.5 935.82,-165.91"/>
<polygon fill="black" stroke="black" points="936.28,-169.39 946.07,-165.34 935.9,-162.4 936.28,-169.39"/>
<text text-anchor="middle" x="800.58" y="-187.8" font-family="Times,serif" font-size="14.00">1</text>
</g>
<!-- T_ill_1&#45;&gt;S_I1 -->
<g id="edge21" class="edge">
<title>T_ill_1&#45;&gt;S_I1</title>
<path fill="none" stroke="black" d="M380.91,-68.17C396.4,-60.85 415.94,-51.6 432.37,-43.83"/>
<polygon fill="black" stroke="black" points="434.09,-46.89 441.63,-39.45 431.1,-40.56 434.09,-46.89"/>
<text text-anchor="middle" x="414.79" y="-55.8" font-family="Times,serif" font-size="14.00">1</text>
</g>
<!-- T_prog_1&#45;&gt;S_I21 -->
<g id="edge23" class="edge">
<title>T_prog_1&#45;&gt;S_I21</title>
<path fill="none" stroke="black" d="M611.15,-56.24C638.35,-58.81 676.47,-62.41 705.27,-65.13"/>
<polygon fill="black" stroke="black" points="705.14,-68.63 715.43,-66.09 705.8,-61.66 705.14,-68.63"/>
<text text-anchor="middle" x="663.38" y="-67.8" font-family="Times,serif" font-size="14.00">1</text>
</g>
<!-- T_death2_1&#45;&gt;S_D1 -->
<g id="edge25" class="edge">
<title>T_death2_1&#45;&gt;S_D1</title>
<path fill="none" stroke="black" d="M903.08,-253C913.67,-253 925.12,-253 935.72,-253"/>
<polygon fill="black" stroke="black" points="935.99,-256.5 945.99,-253 935.98,-249.5 935.99,-256.5"/>
<text text-anchor="middle" x="924.58" y="-256.8" font-family="Times,serif" font-size="14.00">1</text>
</g>
<!-- T_rec_1&#45;&gt;S_R1 -->
<g id="edge27" class="edge">
<title>T_rec_1&#45;&gt;S_R1</title>
<path fill="none" stroke="black" d="M893.68,-61.59C896.9,-65.05 900.09,-68.57 903.08,-72 919.74,-91.1 937.37,-113.41 951.08,-131.27"/>
<polygon fill="black" stroke="black" points="948.62,-133.82 957.47,-139.65 954.19,-129.57 948.62,-133.82"/>
<text text-anchor="middle" x="924.58" y="-104.8" font-family="Times,serif" font-size="14.00">1</text>
</g>
<!-- T_rec2_1&#45;&gt;S_R21 -->
<g id="edge29" class="edge">
<title>T_rec2_1&#45;&gt;S_R21</title>
<path fill="none" stroke="black" d="M1118.31,-164C1128.51,-164 1139.91,-164 1150.72,-164"/>
<polygon fill="black" stroke="black" points="1150.84,-167.5 1160.84,-164 1150.84,-160.5 1150.84,-167.5"/>
<text text-anchor="middle" x="1139.67" y="-167.8" font-family="Times,serif" font-size="14.00">1</text>
</g>
</g>
</svg>
