<?xml version="1.0" encoding="UTF-8" standalone="no"?>
<!DOCTYPE svg PUBLIC "-//W3C//DTD SVG 1.1//EN"
 "http://www.w3.org/Graphics/SVG/1.1/DTD/svg11.dtd">
<!-- Generated by graphviz version 2.44.1 (0)
 -->
<!-- Title: G Pages: 1 -->
<svg width="142pt" height="152pt"
 viewBox="0.00 0.00 142.00 151.90" xmlns="http://www.w3.org/2000/svg" xmlns:xlink="http://www.w3.org/1999/xlink">
<g id="graph0" class="graph" transform="scale(1 1) rotate(0) translate(4 147.9)">
<title>G</title>
<polygon fill="white" stroke="transparent" points="-4,4 -4,-147.9 138,-147.9 138,4 -4,4"/>
<!-- n1 -->
<g id="box1" class="node">
<title>n1</title>
<ellipse fill="none" stroke="black" cx="18" cy="-42.85" rx="18" ry="18"/>
<text text-anchor="middle" x="18" y="-39.15" font-family="Serif" font-size="14.00">x</text>
</g>
<!-- n4 -->
<!-- junction -->
<g id="junction1" class="node">
<title>n4</title>
<ellipse fill="black" stroke="black" cx="10.48" cy="-105.02" rx="2.5" ry="2.5"/>
<text text-anchor="middle" x="4.48" y="-111.32" font-family="Serif" font-size="14.00">a</text>
</g>
<!-- n1&#45;&#45;n4 -->
<g id="edge1" class="edge">
<title>n1&#45;&#45;n4</title>
<path fill="none" stroke="black" d="M15.82,-60.84C14.02,-75.75 11.62,-95.6 10.78,-102.52"/>
</g>
<!-- n5 -->
<!-- junction -->
<g id="junction2" class="node">
<title>n5</title>
<ellipse fill="black" stroke="black" cx="65.96" cy="-2.5" rx="2.5" ry="2.5"/>
<text text-anchor="middle" x="59.46" y="-8.8" font-family="Serif" font-size="14.00">b</text>
</g>
<!-- n1&#45;&#45;n5 -->
<g id="edge3" class="edge">
<title>n1&#45;&#45;n5</title>
<path fill="none" stroke="black" d="M31.87,-31.18C43.38,-21.5 58.69,-8.62 64.03,-4.13"/>
</g>
<!-- n7 -->
<!-- junction -->
<g id="junction4" class="node">
<title>n7</title>
<ellipse fill="black" stroke="black" cx="67.74" cy="-69.39" rx="2.5" ry="2.5"/>
<text text-anchor="middle" x="60.74" y="-75.69" font-family="Serif" font-size="14.00">d</text>
</g>
<!-- n1&#45;&#45;n7 -->
<g id="edge7" class="edge">
<title>n1&#45;&#45;n7</title>
<path fill="none" stroke="black" d="M34.01,-51.39C45.37,-57.45 59.57,-65.03 65.24,-68.05"/>
</g>
<!-- n2 -->
<g id="box2" class="node">
<title>n2</title>
<ellipse fill="none" stroke="black" cx="116" cy="-40.2" rx="18" ry="18"/>
<text text-anchor="middle" x="116" y="-36.5" font-family="Serif" font-size="14.00">y</text>
</g>
<!-- n2&#45;&#45;n5 -->
<g id="edge4" class="edge">
<title>n2&#45;&#45;n5</title>
<path fill="none" stroke="black" d="M101.53,-29.29C89.52,-20.25 73.55,-8.21 67.98,-4.02"/>
</g>
<!-- n6 -->
<!-- junction -->
<g id="junction3" class="node">
<title>n6</title>
<ellipse fill="black" stroke="black" cx="127.02" cy="-101.81" rx="2.5" ry="2.5"/>
<text text-anchor="middle" x="121.02" y="-108.11" font-family="Serif" font-size="14.00">c</text>
</g>
<!-- n2&#45;&#45;n6 -->
<g id="edge5" class="edge">
<title>n2&#45;&#45;n6</title>
<path fill="none" stroke="black" d="M119.19,-58.02C121.83,-72.8 125.35,-92.47 126.57,-99.33"/>
</g>
<!-- n2&#45;&#45;n7 -->
<g id="edge8" class="edge">
<title>n2&#45;&#45;n7</title>
<path fill="none" stroke="black" d="M100.47,-49.59C89.45,-56.26 75.67,-64.59 70.17,-67.92"/>
</g>
<!-- n3 -->
<g id="box3" class="node">
<title>n3</title>
<ellipse fill="none" stroke="black" cx="69.37" cy="-125.9" rx="18" ry="18"/>
<text text-anchor="middle" x="69.37" y="-122.2" font-family="Serif" font-size="14.00">z</text>
</g>
<!-- n3&#45;&#45;n4 -->
<g id="edge2" class="edge">
<title>n3&#45;&#45;n4</title>
<path fill="none" stroke="black" d="M52.34,-119.86C38.21,-114.85 19.4,-108.19 12.85,-105.86"/>
</g>
<!-- n3&#45;&#45;n6 -->
<g id="edge6" class="edge">
<title>n3&#45;&#45;n6</title>
<path fill="none" stroke="black" d="M86.05,-118.93C99.88,-113.15 118.28,-105.46 124.7,-102.78"/>
</g>
<!-- n3&#45;&#45;n7 -->
<g id="edge9" class="edge">
<title>n3&#45;&#45;n7</title>
<path fill="none" stroke="black" d="M68.85,-107.71C68.47,-94.8 68.01,-78.67 67.82,-72.23"/>
</g>
</g>
</svg>
