<?xml version="1.0" encoding="UTF-8" standalone="no"?>
<!DOCTYPE svg PUBLIC "-//W3C//DTD SVG 1.1//EN"
 "http://www.w3.org/Graphics/SVG/1.1/DTD/svg11.dtd">
<!-- Generated by graphviz version 2.44.1 (0)
 -->
<!-- Title: G Pages: 1 -->
<svg width="754pt" height="909pt"
 viewBox="0.00 0.00 754.00 909.00" xmlns="http://www.w3.org/2000/svg" xmlns:xlink="http://www.w3.org/1999/xlink">
<g id="graph0" class="graph" transform="scale(1 1) rotate(0) translate(4 905)">
<title>G</title>
<polygon fill="white" stroke="transparent" points="-4,4 -4,-905 750,-905 750,4 -4,4"/>
<!-- S_S1 -->
<g id="node1" class="node">
<title>S_S1</title>
<ellipse fill="#6c9ac3" stroke="#6c9ac3" cx="408.19" cy="-254.32" rx="29.5" ry="29.5"/>
<text text-anchor="middle" x="408.19" y="-250.62" font-family="Times,serif" font-size="14.00">S_S1</text>
</g>
<!-- T_exp_12 -->
<g id="node17" class="node">
<title>T_exp_12</title>
<polygon fill="#e28f41" stroke="#e28f41" points="518.81,-198.41 447.81,-198.41 447.81,-127.41 518.81,-127.41 518.81,-198.41"/>
<text text-anchor="middle" x="483.31" y="-159.21" font-family="Times,serif" font-size="14.00">T_exp_12</text>
</g>
<!-- S_S1&#45;&gt;T_exp_12 -->
<g id="edge1" class="edge">
<title>S_S1&#45;&gt;T_exp_12</title>
<path fill="none" stroke="black" d="M427.15,-231.25C433.4,-223.64 440.58,-214.91 447.67,-206.29"/>
<polygon fill="black" stroke="black" points="450.48,-208.38 454.12,-198.43 445.07,-203.94 450.48,-208.38"/>
<text text-anchor="middle" x="433.91" y="-207.57" font-family="Times,serif" font-size="14.00">1</text>
</g>
<!-- T_exp_i212 -->
<g id="node18" class="node">
<title>T_exp_i212</title>
<polygon fill="#e28f41" stroke="#e28f41" points="315.11,-324.54 233.11,-324.54 233.11,-242.54 315.11,-242.54 315.11,-324.54"/>
<text text-anchor="middle" x="274.11" y="-279.84" font-family="Times,serif" font-size="14.00">T_exp_i212</text>
</g>
<!-- S_S1&#45;&gt;T_exp_i212 -->
<g id="edge5" class="edge">
<title>S_S1&#45;&gt;T_exp_i212</title>
<path fill="none" stroke="black" d="M379.43,-260.59C363.65,-264.03 343.62,-268.39 325.27,-272.39"/>
<polygon fill="black" stroke="black" points="324.31,-269.02 315.29,-274.57 325.81,-275.86 324.31,-269.02"/>
<text text-anchor="middle" x="348.85" y="-270.29" font-family="Times,serif" font-size="14.00">1</text>
</g>
<!-- T_exp_a12 -->
<g id="node19" class="node">
<title>T_exp_a12</title>
<polygon fill="#e28f41" stroke="#e28f41" points="604.85,-295.28 527.85,-295.28 527.85,-218.28 604.85,-218.28 604.85,-295.28"/>
<text text-anchor="middle" x="566.35" y="-253.08" font-family="Times,serif" font-size="14.00">T_exp_a12</text>
</g>
<!-- S_S1&#45;&gt;T_exp_a12 -->
<g id="edge9" class="edge">
<title>S_S1&#45;&gt;T_exp_a12</title>
<path fill="none" stroke="black" d="M437.57,-254.78C459.97,-255.13 491.31,-255.62 517.47,-256.02"/>
<polygon fill="black" stroke="black" points="517.52,-259.52 527.58,-256.18 517.63,-252.52 517.52,-259.52"/>
<text text-anchor="middle" x="474.02" y="-259.2" font-family="Times,serif" font-size="14.00">1</text>
</g>
<!-- T_exp_e12 -->
<g id="node20" class="node">
<title>T_exp_e12</title>
<polygon fill="#e28f41" stroke="#e28f41" points="377.2,-435.19 300.2,-435.19 300.2,-358.19 377.2,-358.19 377.2,-435.19"/>
<text text-anchor="middle" x="338.7" y="-392.99" font-family="Times,serif" font-size="14.00">T_exp_e12</text>
</g>
<!-- S_S1&#45;&gt;T_exp_e12 -->
<g id="edge13" class="edge">
<title>S_S1&#45;&gt;T_exp_e12</title>
<path fill="none" stroke="black" d="M395.28,-280.76C385.97,-299.85 373.13,-326.14 362.04,-348.87"/>
<polygon fill="black" stroke="black" points="358.81,-347.5 357.57,-358.03 365.1,-350.57 358.81,-347.5"/>
<text text-anchor="middle" x="375.16" y="-318.62" font-family="Times,serif" font-size="14.00">1</text>
</g>
<!-- S_E1 -->
<g id="node2" class="node">
<title>S_E1</title>
<ellipse fill="#6c9ac3" stroke="#6c9ac3" cx="429.48" cy="-327.48" rx="29.8" ry="29.8"/>
<text text-anchor="middle" x="429.48" y="-323.78" font-family="Times,serif" font-size="14.00">S_E1</text>
</g>
<!-- T_exp_e21 -->
<g id="node24" class="node">
<title>T_exp_e21</title>
<polygon fill="#e28f41" stroke="#e28f41" points="397.73,-528.59 320.73,-528.59 320.73,-451.59 397.73,-451.59 397.73,-528.59"/>
<text text-anchor="middle" x="359.23" y="-486.39" font-family="Times,serif" font-size="14.00">T_exp_e21</text>
</g>
<!-- S_E1&#45;&gt;T_exp_e21 -->
<g id="edge29" class="edge">
<title>S_E1&#45;&gt;T_exp_e21</title>
<path fill="none" stroke="black" d="M412.96,-352.64C400.88,-376.34 384.93,-412.45 373.43,-441.72"/>
<polygon fill="black" stroke="black" points="370.05,-440.76 369.71,-451.35 376.58,-443.28 370.05,-440.76"/>
<text text-anchor="middle" x="389.69" y="-400.98" font-family="Times,serif" font-size="14.00">1</text>
</g>
<!-- S_I1 -->
<g id="node3" class="node">
<title>S_I1</title>
<ellipse fill="#6c9ac3" stroke="#6c9ac3" cx="27.09" cy="-751.03" rx="27.1" ry="27.1"/>
<text text-anchor="middle" x="27.09" y="-747.33" font-family="Times,serif" font-size="14.00">S_I1</text>
</g>
<!-- T_exp_21 -->
<g id="node21" class="node">
<title>T_exp_21</title>
<polygon fill="#e28f41" stroke="#e28f41" points="173.68,-693.39 102.68,-693.39 102.68,-622.39 173.68,-622.39 173.68,-693.39"/>
<text text-anchor="middle" x="138.18" y="-654.19" font-family="Times,serif" font-size="14.00">T_exp_21</text>
</g>
<!-- S_I1&#45;&gt;T_exp_21 -->
<g id="edge18" class="edge">
<title>S_I1&#45;&gt;T_exp_21</title>
<path fill="none" stroke="black" d="M51.19,-737.86C64.89,-727.91 82.35,-713.81 98.04,-700.2"/>
<polygon fill="black" stroke="black" points="100.38,-702.8 105.58,-693.57 95.76,-697.54 100.38,-702.8"/>
<text text-anchor="middle" x="71.12" y="-722.83" font-family="Times,serif" font-size="14.00">1</text>
</g>
<!-- S_I21 -->
<g id="node4" class="node">
<title>S_I21</title>
<ellipse fill="#6c9ac3" stroke="#6c9ac3" cx="260.85" cy="-868.74" rx="31.7" ry="31.7"/>
<text text-anchor="middle" x="260.85" y="-865.04" font-family="Times,serif" font-size="14.00">S_I21</text>
</g>
<!-- T_exp_i221 -->
<g id="node22" class="node">
<title>T_exp_i221</title>
<polygon fill="#e28f41" stroke="#e28f41" points="290.82,-749.53 208.82,-749.53 208.82,-667.53 290.82,-667.53 290.82,-749.53"/>
<text text-anchor="middle" x="249.82" y="-704.83" font-family="Times,serif" font-size="14.00">T_exp_i221</text>
</g>
<!-- S_I21&#45;&gt;T_exp_i221 -->
<g id="edge21" class="edge">
<title>S_I21&#45;&gt;T_exp_i221</title>
<path fill="none" stroke="black" d="M264.16,-836.71C263.94,-814.74 262.19,-785.12 259.73,-759.88"/>
<polygon fill="black" stroke="black" points="263.19,-759.32 258.67,-749.73 256.23,-760.04 263.19,-759.32"/>
<text text-anchor="middle" x="258.44" y="-802.1" font-family="Times,serif" font-size="14.00">1</text>
</g>
<!-- S_A1 -->
<g id="node5" class="node">
<title>S_A1</title>
<ellipse fill="#6c9ac3" stroke="#6c9ac3" cx="194.26" cy="-221.2" rx="30.59" ry="30.59"/>
<text text-anchor="middle" x="194.26" y="-217.5" font-family="Times,serif" font-size="14.00">S_A1</text>
</g>
<!-- T_exp_a21 -->
<g id="node23" class="node">
<title>T_exp_a21</title>
<polygon fill="#e28f41" stroke="#e28f41" points="231.22,-435.26 154.22,-435.26 154.22,-358.26 231.22,-358.26 231.22,-435.26"/>
<text text-anchor="middle" x="192.72" y="-393.06" font-family="Times,serif" font-size="14.00">T_exp_a21</text>
</g>
<!-- S_A1&#45;&gt;T_exp_a21 -->
<g id="edge25" class="edge">
<title>S_A1&#45;&gt;T_exp_a21</title>
<path fill="none" stroke="black" d="M188.75,-251.34C186.86,-277.83 186.23,-316.89 187.02,-347.86"/>
<polygon fill="black" stroke="black" points="183.53,-348.14 187.35,-358.02 190.53,-347.91 183.53,-348.14"/>
<text text-anchor="middle" x="184.39" y="-303.4" font-family="Times,serif" font-size="14.00">1</text>
</g>
<!-- S_R1 -->
<g id="node6" class="node">
<title>S_R1</title>
<ellipse fill="#6c9ac3" stroke="#6c9ac3" cx="492.24" cy="-426.64" rx="30.59" ry="30.59"/>
<text text-anchor="middle" x="492.24" y="-422.94" font-family="Times,serif" font-size="14.00">S_R1</text>
</g>
<!-- S_R21 -->
<g id="node7" class="node">
<title>S_R21</title>
<ellipse fill="#6c9ac3" stroke="#6c9ac3" cx="496.24" cy="-529.64" rx="34.39" ry="34.39"/>
<text text-anchor="middle" x="496.24" y="-525.94" font-family="Times,serif" font-size="14.00">S_R21</text>
</g>
<!-- S_D1 -->
<g id="node8" class="node">
<title>S_D1</title>
<ellipse fill="#6c9ac3" stroke="#6c9ac3" cx="393.24" cy="-624.64" rx="30.59" ry="30.59"/>
<text text-anchor="middle" x="393.24" y="-620.94" font-family="Times,serif" font-size="14.00">S_D1</text>
</g>
<!-- S_S2 -->
<g id="node9" class="node">
<title>S_S2</title>
<ellipse fill="#6c9ac3" stroke="#6c9ac3" cx="198.31" cy="-550.8" rx="29.5" ry="29.5"/>
<text text-anchor="middle" x="198.31" y="-547.1" font-family="Times,serif" font-size="14.00">S_S2</text>
</g>
<!-- S_S2&#45;&gt;T_exp_21 -->
<g id="edge17" class="edge">
<title>S_S2&#45;&gt;T_exp_21</title>
<path fill="none" stroke="black" d="M183.91,-576.45C177.7,-587.5 170.26,-600.76 163.2,-613.33"/>
<polygon fill="black" stroke="black" points="159.99,-611.89 158.15,-622.33 166.1,-615.32 159.99,-611.89"/>
<text text-anchor="middle" x="170.05" y="-598.69" font-family="Times,serif" font-size="14.00">1</text>
</g>
<!-- S_S2&#45;&gt;T_exp_i221 -->
<g id="edge22" class="edge">
<title>S_S2&#45;&gt;T_exp_i221</title>
<path fill="none" stroke="black" d="M207.4,-578.63C214.52,-600.44 224.62,-631.36 233.17,-657.56"/>
<polygon fill="black" stroke="black" points="229.94,-658.92 236.37,-667.34 236.59,-656.75 229.94,-658.92"/>
<text text-anchor="middle" x="216.79" y="-621.9" font-family="Times,serif" font-size="14.00">1</text>
</g>
<!-- S_S2&#45;&gt;T_exp_a21 -->
<g id="edge26" class="edge">
<title>S_S2&#45;&gt;T_exp_a21</title>
<path fill="none" stroke="black" d="M197.25,-521.46C196.47,-499.98 195.39,-470.34 194.48,-445.34"/>
<polygon fill="black" stroke="black" points="197.98,-445.18 194.12,-435.31 190.98,-445.43 197.98,-445.18"/>
<text text-anchor="middle" x="192.36" y="-487.2" font-family="Times,serif" font-size="14.00">1</text>
</g>
<!-- S_S2&#45;&gt;T_exp_e21 -->
<g id="edge30" class="edge">
<title>S_S2&#45;&gt;T_exp_e21</title>
<path fill="none" stroke="black" d="M225.97,-540.36C249.28,-531.57 283.18,-518.78 310.95,-508.3"/>
<polygon fill="black" stroke="black" points="312.37,-511.51 320.49,-504.71 309.9,-504.96 312.37,-511.51"/>
<text text-anchor="middle" x="264.96" y="-513.13" font-family="Times,serif" font-size="14.00">1</text>
</g>
<!-- S_E2 -->
<g id="node10" class="node">
<title>S_E2</title>
<ellipse fill="#6c9ac3" stroke="#6c9ac3" cx="275.1" cy="-550.17" rx="29.8" ry="29.8"/>
<text text-anchor="middle" x="275.1" y="-546.47" font-family="Times,serif" font-size="14.00">S_E2</text>
</g>
<!-- S_E2&#45;&gt;T_exp_e12 -->
<g id="edge14" class="edge">
<title>S_E2&#45;&gt;T_exp_e12</title>
<path fill="none" stroke="black" d="M291.38,-524.76C302.02,-503.08 315.52,-471.32 325.49,-444.85"/>
<polygon fill="black" stroke="black" points="328.82,-445.95 329,-435.36 322.25,-443.53 328.82,-445.95"/>
<text text-anchor="middle" x="304.94" y="-488.6" font-family="Times,serif" font-size="14.00">1</text>
</g>
<!-- S_I2 -->
<g id="node11" class="node">
<title>S_I2</title>
<ellipse fill="#6c9ac3" stroke="#6c9ac3" cx="535.77" cy="-27.14" rx="27.1" ry="27.1"/>
<text text-anchor="middle" x="535.77" y="-23.44" font-family="Times,serif" font-size="14.00">S_I2</text>
</g>
<!-- S_I2&#45;&gt;T_exp_12 -->
<g id="edge2" class="edge">
<title>S_I2&#45;&gt;T_exp_12</title>
<path fill="none" stroke="black" d="M521,-50.42C512.38,-68.82 501.91,-95.03 494.06,-117.53"/>
<polygon fill="black" stroke="black" points="490.66,-116.65 490.75,-127.24 497.29,-118.9 490.66,-116.65"/>
<text text-anchor="middle" x="504.03" y="-87.78" font-family="Times,serif" font-size="14.00">1</text>
</g>
<!-- S_I22 -->
<g id="node12" class="node">
<title>S_I22</title>
<ellipse fill="#6c9ac3" stroke="#6c9ac3" cx="117.73" cy="-201.22" rx="31.7" ry="31.7"/>
<text text-anchor="middle" x="117.73" y="-197.52" font-family="Times,serif" font-size="14.00">S_I22</text>
</g>
<!-- S_I22&#45;&gt;T_exp_i212 -->
<g id="edge6" class="edge">
<title>S_I22&#45;&gt;T_exp_i212</title>
<path fill="none" stroke="black" d="M143.21,-220.64C164.98,-233.81 196.91,-250.98 223.8,-264.13"/>
<polygon fill="black" stroke="black" points="222.54,-267.41 233.07,-268.6 225.58,-261.11 222.54,-267.41"/>
<text text-anchor="middle" x="180" y="-246.19" font-family="Times,serif" font-size="14.00">1</text>
</g>
<!-- S_A2 -->
<g id="node13" class="node">
<title>S_A2</title>
<ellipse fill="#6c9ac3" stroke="#6c9ac3" cx="715.46" cy="-221.82" rx="30.59" ry="30.59"/>
<text text-anchor="middle" x="715.46" y="-218.12" font-family="Times,serif" font-size="14.00">S_A2</text>
</g>
<!-- S_A2&#45;&gt;T_exp_a12 -->
<g id="edge10" class="edge">
<title>S_A2&#45;&gt;T_exp_a12</title>
<path fill="none" stroke="black" d="M684.75,-223.37C664.65,-226.79 637.96,-232.73 615,-238.79"/>
<polygon fill="black" stroke="black" points="613.83,-235.48 605.09,-241.47 615.66,-242.23 613.83,-235.48"/>
<text text-anchor="middle" x="646.38" y="-234.88" font-family="Times,serif" font-size="14.00">1</text>
</g>
<!-- S_R2 -->
<g id="node14" class="node">
<title>S_R2</title>
<ellipse fill="#6c9ac3" stroke="#6c9ac3" cx="558.24" cy="-657.64" rx="30.59" ry="30.59"/>
<text text-anchor="middle" x="558.24" y="-653.94" font-family="Times,serif" font-size="14.00">S_R2</text>
</g>
<!-- S_R22 -->
<g id="node15" class="node">
<title>S_R22</title>
<ellipse fill="#6c9ac3" stroke="#6c9ac3" cx="595.24" cy="-397.64" rx="34.39" ry="34.39"/>
<text text-anchor="middle" x="595.24" y="-393.94" font-family="Times,serif" font-size="14.00">S_R22</text>
</g>
<!-- S_D2 -->
<g id="node16" class="node">
<title>S_D2</title>
<ellipse fill="#6c9ac3" stroke="#6c9ac3" cx="624.24" cy="-525.64" rx="30.59" ry="30.59"/>
<text text-anchor="middle" x="624.24" y="-521.94" font-family="Times,serif" font-size="14.00">S_D2</text>
</g>
<!-- T_exp_12&#45;&gt;S_E1 -->
<g id="edge3" class="edge">
<title>T_exp_12&#45;&gt;S_E1</title>
<path fill="none" stroke="black" d="M471.63,-198.62C462.87,-225.4 450.91,-261.98 441.96,-289.33"/>
<polygon fill="black" stroke="black" points="438.6,-288.36 438.81,-298.95 445.25,-290.53 438.6,-288.36"/>
<text text-anchor="middle" x="453.3" y="-247.78" font-family="Times,serif" font-size="14.00">1</text>
</g>
<!-- T_exp_12&#45;&gt;S_I2 -->
<g id="edge4" class="edge">
<title>T_exp_12&#45;&gt;S_I2</title>
<path fill="none" stroke="black" d="M503.64,-127.3C512.14,-107.75 521.43,-83.56 527.99,-63.84"/>
<polygon fill="black" stroke="black" points="531.34,-64.86 531.06,-54.27 524.67,-62.72 531.34,-64.86"/>
<text text-anchor="middle" x="512.31" y="-99.37" font-family="Times,serif" font-size="14.00">1</text>
</g>
<!-- T_exp_i212&#45;&gt;S_E1 -->
<g id="edge7" class="edge">
<title>T_exp_i212&#45;&gt;S_E1</title>
<path fill="none" stroke="black" d="M315.34,-295.2C338.67,-301.8 367.69,-310.01 390.62,-316.49"/>
<polygon fill="black" stroke="black" points="389.79,-319.9 400.37,-319.25 391.7,-313.16 389.79,-319.9"/>
<text text-anchor="middle" x="349.48" y="-309.65" font-family="Times,serif" font-size="14.00">1</text>
</g>
<!-- T_exp_i212&#45;&gt;S_I22 -->
<g id="edge8" class="edge">
<title>T_exp_i212&#45;&gt;S_I22</title>
<path fill="none" stroke="black" d="M232.99,-254.96C209.59,-241.62 180.45,-226.39 157.31,-215.47"/>
<polygon fill="black" stroke="black" points="158.66,-212.24 148.12,-211.21 155.72,-218.59 158.66,-212.24"/>
<text text-anchor="middle" x="191.65" y="-239.01" font-family="Times,serif" font-size="14.00">1</text>
</g>
<!-- T_exp_a12&#45;&gt;S_E1 -->
<g id="edge11" class="edge">
<title>T_exp_a12&#45;&gt;S_E1</title>
<path fill="none" stroke="black" d="M527.5,-276.85C507.94,-286.96 484.38,-299.12 465.27,-309"/>
<polygon fill="black" stroke="black" points="463.56,-305.94 456.28,-313.64 466.77,-312.16 463.56,-305.94"/>
<text text-anchor="middle" x="492.88" y="-296.73" font-family="Times,serif" font-size="14.00">1</text>
</g>
<!-- T_exp_a12&#45;&gt;S_A2 -->
<g id="edge12" class="edge">
<title>T_exp_a12&#45;&gt;S_A2</title>
<path fill="none" stroke="black" d="M604.95,-253.83C627.33,-249.67 655.4,-243.12 677.65,-236.87"/>
<polygon fill="black" stroke="black" points="678.79,-240.19 687.42,-234.04 676.84,-233.46 678.79,-240.19"/>
<text text-anchor="middle" x="637.8" y="-249.15" font-family="Times,serif" font-size="14.00">1</text>
</g>
<!-- T_exp_e12&#45;&gt;S_E1 -->
<g id="edge15" class="edge">
<title>T_exp_e12&#45;&gt;S_E1</title>
<path fill="none" stroke="black" d="M377.46,-367.14C384.17,-362.02 391.08,-356.76 397.58,-351.8"/>
<polygon fill="black" stroke="black" points="399.72,-354.57 405.55,-345.73 395.48,-349 399.72,-354.57"/>
<text text-anchor="middle" x="384.02" y="-363.27" font-family="Times,serif" font-size="14.00">1</text>
</g>
<!-- T_exp_e12&#45;&gt;S_E2 -->
<g id="edge16" class="edge">
<title>T_exp_e12&#45;&gt;S_E2</title>
<path fill="none" stroke="black" d="M316.06,-435.5C305.36,-458.74 293.24,-488.17 284.83,-511.4"/>
<polygon fill="black" stroke="black" points="281.5,-510.35 281.47,-520.94 288.1,-512.67 281.5,-510.35"/>
<text text-anchor="middle" x="296.95" y="-477.25" font-family="Times,serif" font-size="14.00">1</text>
</g>
<!-- T_exp_21&#45;&gt;S_I1 -->
<g id="edge20" class="edge">
<title>T_exp_21&#45;&gt;S_I1</title>
<path fill="none" stroke="black" d="M102.38,-679.85C85.8,-692.67 66.54,-708.91 51.62,-722.67"/>
<polygon fill="black" stroke="black" points="49.13,-720.21 44.25,-729.62 53.93,-725.31 49.13,-720.21"/>
<text text-anchor="middle" x="73.5" y="-705.06" font-family="Times,serif" font-size="14.00">1</text>
</g>
<!-- T_exp_21&#45;&gt;S_E2 -->
<g id="edge19" class="edge">
<title>T_exp_21&#45;&gt;S_E2</title>
<path fill="none" stroke="black" d="M173.8,-629.87C195.34,-612.92 222.57,-591.49 243.38,-575.13"/>
<polygon fill="black" stroke="black" points="245.6,-577.83 251.29,-568.9 241.27,-572.33 245.6,-577.83"/>
<text text-anchor="middle" x="205.09" y="-606.3" font-family="Times,serif" font-size="14.00">1</text>
</g>
<!-- T_exp_i221&#45;&gt;S_I21 -->
<g id="edge23" class="edge">
<title>T_exp_i221&#45;&gt;S_I21</title>
<path fill="none" stroke="black" d="M246.67,-749.79C247.29,-773.68 249.34,-803.66 251.99,-827.54"/>
<polygon fill="black" stroke="black" points="248.55,-828.19 253.21,-837.71 255.5,-827.36 248.55,-828.19"/>
<text text-anchor="middle" x="245.83" y="-792.46" font-family="Times,serif" font-size="14.00">1</text>
</g>
<!-- T_exp_i221&#45;&gt;S_E2 -->
<g id="edge24" class="edge">
<title>T_exp_i221&#45;&gt;S_E2</title>
<path fill="none" stroke="black" d="M256.4,-667.34C260.19,-643.55 264.95,-613.76 268.71,-590.18"/>
<polygon fill="black" stroke="black" points="272.19,-590.58 270.31,-580.15 265.28,-589.47 272.19,-590.58"/>
<text text-anchor="middle" x="259.06" y="-632.56" font-family="Times,serif" font-size="14.00">1</text>
</g>
<!-- T_exp_a21&#45;&gt;S_A1 -->
<g id="edge27" class="edge">
<title>T_exp_a21&#45;&gt;S_A1</title>
<path fill="none" stroke="black" d="M198.78,-357.85C200.38,-329.25 200.74,-290.49 199.69,-261.56"/>
<polygon fill="black" stroke="black" points="203.17,-261.22 199.23,-251.38 196.18,-261.53 203.17,-261.22"/>
<text text-anchor="middle" x="195.73" y="-313.5" font-family="Times,serif" font-size="14.00">1</text>
</g>
<!-- T_exp_a21&#45;&gt;S_E2 -->
<g id="edge28" class="edge">
<title>T_exp_a21&#45;&gt;S_E2</title>
<path fill="none" stroke="black" d="M213.51,-435.47C226.55,-459.76 243.25,-490.85 255.97,-514.54"/>
<polygon fill="black" stroke="black" points="252.99,-516.39 260.8,-523.54 259.16,-513.08 252.99,-516.39"/>
<text text-anchor="middle" x="231.24" y="-478.8" font-family="Times,serif" font-size="14.00">1</text>
</g>
<!-- T_exp_e21&#45;&gt;S_E1 -->
<g id="edge31" class="edge">
<title>T_exp_e21&#45;&gt;S_E1</title>
<path fill="none" stroke="black" d="M382.42,-451.42C394.77,-425.67 409.25,-391.99 418.99,-366.22"/>
<polygon fill="black" stroke="black" points="422.3,-367.37 422.48,-356.77 415.74,-364.94 422.3,-367.37"/>
<text text-anchor="middle" x="397.21" y="-412.62" font-family="Times,serif" font-size="14.00">1</text>
</g>
<!-- T_exp_e21&#45;&gt;S_E2 -->
<g id="edge32" class="edge">
<title>T_exp_e21&#45;&gt;S_E2</title>
<path fill="none" stroke="black" d="M320.61,-517.67C316.4,-520.67 312.15,-523.71 308.02,-526.66"/>
<polygon fill="black" stroke="black" points="305.88,-523.89 299.78,-532.55 309.95,-529.58 305.88,-523.89"/>
<text text-anchor="middle" x="310.82" y="-525.96" font-family="Times,serif" font-size="14.00">1</text>
</g>
</g>
</svg>
