<?xml version="1.0" encoding="UTF-8" standalone="no"?>
<!DOCTYPE svg PUBLIC "-//W3C//DTD SVG 1.1//EN"
 "http://www.w3.org/Graphics/SVG/1.1/DTD/svg11.dtd">
<!-- Generated by graphviz version 2.44.1 (0)
 -->
<!-- Title: G Pages: 1 -->
<svg width="265pt" height="232pt"
 viewBox="0.00 0.00 264.95 231.88" xmlns="http://www.w3.org/2000/svg" xmlns:xlink="http://www.w3.org/1999/xlink">
<g id="graph0" class="graph" transform="scale(1 1) rotate(0) translate(4 227.88)">
<title>G</title>
<polygon fill="white" stroke="transparent" points="-4,4 -4,-227.88 260.95,-227.88 260.95,4 -4,4"/>
<!-- n1 -->
<g id="box1" class="node">
<title>n1</title>
<ellipse fill="none" stroke="black" cx="55.61" cy="-124.11" rx="18" ry="18"/>
<text text-anchor="middle" x="55.61" y="-120.41" font-family="Serif" font-size="14.00">sir1</text>
</g>
<!-- n7 -->
<!-- junction -->
<g id="junction1" class="node">
<title>n7</title>
<ellipse fill="black" stroke="black" cx="89.03" cy="-60.57" rx="2.5" ry="2.5"/>
<text text-anchor="middle" x="83.53" y="-66.87" font-family="Serif" font-size="14.00">s</text>
</g>
<!-- n1&#45;&#45;n7 -->
<g id="edge1" class="edge">
<title>n1&#45;&#45;n7</title>
<path fill="none" stroke="black" d="M64.04,-108.08C72.24,-92.49 84,-70.14 87.8,-62.92"/>
</g>
<!-- n8 -->
<!-- junction -->
<g id="junction2" class="node">
<title>n8</title>
<ellipse fill="black" stroke="black" cx="26.81" cy="-174.64" rx="2.5" ry="2.5"/>
<text text-anchor="middle" x="22.31" y="-180.94" font-family="Serif" font-size="14.00">i</text>
</g>
<!-- n1&#45;&#45;n8 -->
<g id="edge4" class="edge">
<title>n1&#45;&#45;n8</title>
<path fill="none" stroke="black" d="M46.65,-139.82C39.92,-151.64 31.31,-166.74 28.1,-172.38"/>
</g>
<!-- n10 -->
<!-- junction -->
<g id="junction4" class="node">
<title>n10</title>
<ellipse fill="black" stroke="black" cx="99.35" cy="-110.01" rx="2.5" ry="2.5"/>
<text text-anchor="middle" x="93.85" y="-116.31" font-family="Serif" font-size="14.00">r</text>
</g>
<!-- n1&#45;&#45;n10 -->
<g id="edge8" class="edge">
<title>n1&#45;&#45;n10</title>
<path fill="none" stroke="black" d="M72.9,-118.54C82.07,-115.59 92.37,-112.27 96.94,-110.79"/>
</g>
<!-- n2 -->
<g id="box2" class="node">
<title>n2</title>
<ellipse fill="none" stroke="black" cx="144.93" cy="-74.76" rx="18" ry="18"/>
<text text-anchor="middle" x="144.93" y="-71.06" font-family="Serif" font-size="14.00">sir2</text>
</g>
<!-- n2&#45;&#45;n7 -->
<g id="edge2" class="edge">
<title>n2&#45;&#45;n7</title>
<path fill="none" stroke="black" d="M127.24,-70.27C114.19,-66.96 97.68,-62.77 91.51,-61.2"/>
</g>
<!-- n9 -->
<!-- junction -->
<g id="junction3" class="node">
<title>n9</title>
<ellipse fill="black" stroke="black" cx="201.37" cy="-69.41" rx="2.5" ry="2.5"/>
<text text-anchor="middle" x="192.87" y="-75.71" font-family="Serif" font-size="14.00">i2</text>
</g>
<!-- n2&#45;&#45;n9 -->
<g id="edge6" class="edge">
<title>n2&#45;&#45;n9</title>
<path fill="none" stroke="black" d="M163.1,-73.03C175.99,-71.81 192.1,-70.29 198.53,-69.68"/>
</g>
<!-- n2&#45;&#45;n10 -->
<g id="edge9" class="edge">
<title>n2&#45;&#45;n10</title>
<path fill="none" stroke="black" d="M130.51,-85.91C119.87,-94.14 106.4,-104.56 101.37,-108.45"/>
</g>
<!-- n3 -->
<!-- n3&#45;&#45;n7 -->
<g id="edge3" class="edge">
<title>n3&#45;&#45;n7</title>
<path fill="none" stroke="black" d="M73.19,-1.17C74.72,-6.9 85.51,-47.36 88.35,-58.01"/>
</g>
<!-- n4 -->
<!-- n4&#45;&#45;n8 -->
<g id="edge5" class="edge">
<title>n4&#45;&#45;n8</title>
<path fill="none" stroke="black" d="M0.8,-222.83C3.28,-218.23 20.71,-185.95 25.56,-176.96"/>
</g>
<!-- n5 -->
<!-- n5&#45;&#45;n9 -->
<g id="edge7" class="edge">
<title>n5&#45;&#45;n9</title>
<path fill="none" stroke="black" d="M255.84,-72.75C250.64,-72.43 214.15,-70.19 203.99,-69.57"/>
</g>
<!-- n6 -->
<!-- n6&#45;&#45;n10 -->
<g id="edge10" class="edge">
<title>n6&#45;&#45;n10</title>
<path fill="none" stroke="black" d="M36.87,-69.2C42.94,-73.17 86.23,-101.44 96.95,-108.45"/>
</g>
</g>
</svg>
