<?xml version="1.0" encoding="UTF-8" standalone="no"?>
<!DOCTYPE svg PUBLIC "-//W3C//DTD SVG 1.1//EN"
 "http://www.w3.org/Graphics/SVG/1.1/DTD/svg11.dtd">
<!-- Generated by graphviz version 2.44.1 (0)
 -->
<!-- Title: G Pages: 1 -->
<svg width="404pt" height="127pt"
 viewBox="0.00 0.00 404.19 127.16" xmlns="http://www.w3.org/2000/svg" xmlns:xlink="http://www.w3.org/1999/xlink">
<g id="graph0" class="graph" transform="scale(1 1) rotate(0) translate(4 123.16)">
<title>G</title>
<polygon fill="white" stroke="transparent" points="-4,4 -4,-123.16 400.19,-123.16 400.19,4 -4,4"/>
<!-- S_1 -->
<g id="node1" class="node">
<title>S_1</title>
<ellipse fill="#6c9ac3" stroke="#6c9ac3" cx="24.7" cy="-61.46" rx="24.9" ry="24.9"/>
<text text-anchor="middle" x="24.7" y="-57.76" font-family="Times,serif" font-size="14.00">S_1</text>
</g>
<!-- T_1 -->
<g id="node5" class="node">
<title>T_1</title>
<polygon fill="#e28f41" stroke="#e28f41" points="130.4,-108.46 92.4,-108.46 92.4,-70.46 130.4,-70.46 130.4,-108.46"/>
<text text-anchor="middle" x="111.4" y="-85.76" font-family="Times,serif" font-size="14.00">T_1</text>
</g>
<!-- S_1&#45;&gt;T_1 -->
<g id="edge2" class="edge">
<title>S_1&#45;&gt;T_1</title>
<path fill="none" stroke="black" d="M48.4,-68.96C58.9,-72.44 71.48,-76.6 82.55,-80.26"/>
<polygon fill="black" stroke="black" points="81.6,-83.63 92.19,-83.44 83.8,-76.98 81.6,-83.63"/>
<text text-anchor="middle" x="70.9" y="-80.26" font-family="Times,serif" font-size="14.00">1</text>
</g>
<!-- T_3 -->
<g id="node7" class="node">
<title>T_3</title>
<polygon fill="#e28f41" stroke="#e28f41" points="130.4,-52.46 92.4,-52.46 92.4,-14.46 130.4,-14.46 130.4,-52.46"/>
<text text-anchor="middle" x="111.4" y="-29.76" font-family="Times,serif" font-size="14.00">T_3</text>
</g>
<!-- S_1&#45;&gt;T_3 -->
<g id="edge7" class="edge">
<title>S_1&#45;&gt;T_3</title>
<path fill="none" stroke="black" d="M48.4,-53.96C58.9,-50.48 71.48,-46.33 82.55,-42.67"/>
<polygon fill="black" stroke="black" points="83.8,-45.94 92.19,-39.48 81.6,-39.29 83.8,-45.94"/>
<text text-anchor="middle" x="70.9" y="-51.26" font-family="Times,serif" font-size="14.00">1</text>
</g>
<!-- S_2 -->
<g id="node2" class="node">
<title>S_2</title>
<ellipse fill="#6c9ac3" stroke="#6c9ac3" cx="198.09" cy="-94.46" rx="24.9" ry="24.9"/>
<text text-anchor="middle" x="198.09" y="-90.76" font-family="Times,serif" font-size="14.00">S_2</text>
</g>
<!-- S_2&#45;&gt;T_1 -->
<g id="edge1" class="edge">
<title>S_2&#45;&gt;T_1</title>
<path fill="none" stroke="black" d="M175.06,-84.95C166.8,-82.35 157.27,-80.49 148.4,-81.46 145.83,-81.74 143.19,-82.13 140.55,-82.59"/>
<polygon fill="black" stroke="black" points="139.69,-79.19 130.58,-84.61 141.08,-86.06 139.69,-79.19"/>
<text text-anchor="middle" x="151.9" y="-85.26" font-family="Times,serif" font-size="14.00">1</text>
</g>
<!-- T_2 -->
<g id="node6" class="node">
<title>T_2</title>
<polygon fill="#e28f41" stroke="#e28f41" points="303.79,-111.46 265.79,-111.46 265.79,-73.46 303.79,-73.46 303.79,-111.46"/>
<text text-anchor="middle" x="284.79" y="-88.76" font-family="Times,serif" font-size="14.00">T_2</text>
</g>
<!-- S_2&#45;&gt;T_2 -->
<g id="edge4" class="edge">
<title>S_2&#45;&gt;T_2</title>
<path fill="none" stroke="black" d="M223.14,-93.89C233.16,-93.66 244.87,-93.38 255.31,-93.13"/>
<polygon fill="black" stroke="black" points="255.7,-96.63 265.61,-92.89 255.54,-89.63 255.7,-96.63"/>
<text text-anchor="middle" x="244.29" y="-97.26" font-family="Times,serif" font-size="14.00">1</text>
</g>
<!-- S_3 -->
<g id="node3" class="node">
<title>S_3</title>
<ellipse fill="#6c9ac3" stroke="#6c9ac3" cx="198.09" cy="-27.46" rx="24.9" ry="24.9"/>
<text text-anchor="middle" x="198.09" y="-23.76" font-family="Times,serif" font-size="14.00">S_3</text>
</g>
<!-- S_3&#45;&gt;T_3 -->
<g id="edge6" class="edge">
<title>S_3&#45;&gt;T_3</title>
<path fill="none" stroke="black" d="M180.02,-10.13C170.9,-3.02 159.32,2.69 148.4,-1.46 144.35,-3 140.47,-5.22 136.85,-7.79"/>
<polygon fill="black" stroke="black" points="134.47,-5.22 128.94,-14.26 138.9,-10.64 134.47,-5.22"/>
<text text-anchor="middle" x="151.9" y="-5.26" font-family="Times,serif" font-size="14.00">1</text>
</g>
<!-- T_4 -->
<g id="node8" class="node">
<title>T_4</title>
<polygon fill="#e28f41" stroke="#e28f41" points="303.79,-54.46 265.79,-54.46 265.79,-16.46 303.79,-16.46 303.79,-54.46"/>
<text text-anchor="middle" x="284.79" y="-31.76" font-family="Times,serif" font-size="14.00">T_4</text>
</g>
<!-- S_3&#45;&gt;T_4 -->
<g id="edge9" class="edge">
<title>S_3&#45;&gt;T_4</title>
<path fill="none" stroke="black" d="M223.14,-29.73C233.26,-30.69 245.11,-31.81 255.64,-32.8"/>
<polygon fill="black" stroke="black" points="255.33,-36.29 265.61,-33.74 255.99,-29.32 255.33,-36.29"/>
<text text-anchor="middle" x="244.29" y="-35.26" font-family="Times,serif" font-size="14.00">1</text>
</g>
<!-- S_4 -->
<g id="node4" class="node">
<title>S_4</title>
<ellipse fill="#6c9ac3" stroke="#6c9ac3" cx="371.49" cy="-63.46" rx="24.9" ry="24.9"/>
<text text-anchor="middle" x="371.49" y="-59.76" font-family="Times,serif" font-size="14.00">S_4</text>
</g>
<!-- T_1&#45;&gt;S_2 -->
<g id="edge3" class="edge">
<title>T_1&#45;&gt;S_2</title>
<path fill="none" stroke="black" d="M130.61,-93.71C136.28,-94.84 142.56,-95.9 148.4,-96.46 153.2,-96.92 158.27,-97.08 163.27,-97.05"/>
<polygon fill="black" stroke="black" points="163.39,-100.54 173.28,-96.74 163.18,-93.55 163.39,-100.54"/>
<text text-anchor="middle" x="151.9" y="-100.26" font-family="Times,serif" font-size="14.00">2</text>
</g>
<!-- T_2&#45;&gt;S_4 -->
<g id="edge5" class="edge">
<title>T_2&#45;&gt;S_4</title>
<path fill="none" stroke="black" d="M304.17,-86.17C314.1,-82.77 326.66,-78.47 338.17,-74.53"/>
<polygon fill="black" stroke="black" points="339.6,-77.74 347.92,-71.19 337.33,-71.12 339.6,-77.74"/>
<text text-anchor="middle" x="325.29" y="-83.26" font-family="Times,serif" font-size="14.00">1</text>
</g>
<!-- T_3&#45;&gt;S_3 -->
<g id="edge8" class="edge">
<title>T_3&#45;&gt;S_3</title>
<path fill="none" stroke="black" d="M130.77,-32.16C140.21,-31.49 152.02,-30.65 163.05,-29.87"/>
<polygon fill="black" stroke="black" points="163.55,-33.35 173.27,-29.15 163.05,-26.36 163.55,-33.35"/>
<text text-anchor="middle" x="151.9" y="-34.26" font-family="Times,serif" font-size="14.00">2</text>
</g>
<!-- T_4&#45;&gt;S_4 -->
<g id="edge10" class="edge">
<title>T_4&#45;&gt;S_4</title>
<path fill="none" stroke="black" d="M303.8,-41.28C311.5,-43.78 320.59,-46.75 328.79,-49.46 331.74,-50.44 334.81,-51.46 337.88,-52.48"/>
<polygon fill="black" stroke="black" points="336.97,-55.87 347.56,-55.72 339.19,-49.23 336.97,-55.87"/>
<text text-anchor="middle" x="325.29" y="-53.26" font-family="Times,serif" font-size="14.00">1</text>
</g>
</g>
</svg>
