<?xml version="1.0" encoding="UTF-8" standalone="no"?>
<!DOCTYPE svg PUBLIC "-//W3C//DTD SVG 1.1//EN"
 "http://www.w3.org/Graphics/SVG/1.1/DTD/svg11.dtd">
<!-- Generated by graphviz version 2.44.1 (0)
 -->
<!-- Title: G Pages: 1 -->
<svg width="404pt" height="57pt"
 viewBox="0.00 0.00 404.19 57.40" xmlns="http://www.w3.org/2000/svg" xmlns:xlink="http://www.w3.org/1999/xlink">
<g id="graph0" class="graph" transform="scale(1 1) rotate(0) translate(4 53.4)">
<title>G</title>
<polygon fill="white" stroke="transparent" points="-4,4 -4,-53.4 400.19,-53.4 400.19,4 -4,4"/>
<!-- S_1 -->
<g id="node1" class="node">
<title>S_1</title>
<ellipse fill="#6c9ac3" stroke="#6c9ac3" cx="24.7" cy="-24.7" rx="24.9" ry="24.9"/>
<text text-anchor="middle" x="24.7" y="-21" font-family="Times,serif" font-size="14.00">S_1</text>
</g>
<!-- T_1 -->
<g id="node4" class="node">
<title>T_1</title>
<polygon fill="#e28f41" stroke="#e28f41" points="130.4,-43.7 92.4,-43.7 92.4,-5.7 130.4,-5.7 130.4,-43.7"/>
<text text-anchor="middle" x="111.4" y="-21" font-family="Times,serif" font-size="14.00">T_1</text>
</g>
<!-- S_1&#45;&gt;T_1 -->
<g id="edge2" class="edge">
<title>S_1&#45;&gt;T_1</title>
<path fill="none" stroke="black" d="M49.74,-24.7C59.76,-24.7 71.47,-24.7 81.92,-24.7"/>
<polygon fill="black" stroke="black" points="82.22,-28.2 92.22,-24.7 82.22,-21.2 82.22,-28.2"/>
<text text-anchor="middle" x="70.9" y="-28.5" font-family="Times,serif" font-size="14.00">1</text>
</g>
<!-- S_2 -->
<g id="node2" class="node">
<title>S_2</title>
<ellipse fill="#6c9ac3" stroke="#6c9ac3" cx="198.09" cy="-24.7" rx="24.9" ry="24.9"/>
<text text-anchor="middle" x="198.09" y="-21" font-family="Times,serif" font-size="14.00">S_2</text>
</g>
<!-- S_2&#45;&gt;T_1 -->
<g id="edge1" class="edge">
<title>S_2&#45;&gt;T_1</title>
<path fill="none" stroke="black" d="M177.06,-11.59C168.39,-7.42 158.05,-4.42 148.4,-6.7 145.53,-7.38 142.63,-8.32 139.78,-9.42"/>
<polygon fill="black" stroke="black" points="138.13,-6.33 130.46,-13.63 141.01,-12.71 138.13,-6.33"/>
<text text-anchor="middle" x="151.9" y="-10.5" font-family="Times,serif" font-size="14.00">1</text>
</g>
<!-- T_2 -->
<g id="node5" class="node">
<title>T_2</title>
<polygon fill="#e28f41" stroke="#e28f41" points="303.79,-43.7 265.79,-43.7 265.79,-5.7 303.79,-5.7 303.79,-43.7"/>
<text text-anchor="middle" x="284.79" y="-21" font-family="Times,serif" font-size="14.00">T_2</text>
</g>
<!-- S_2&#45;&gt;T_2 -->
<g id="edge4" class="edge">
<title>S_2&#45;&gt;T_2</title>
<path fill="none" stroke="black" d="M223.14,-24.7C233.16,-24.7 244.87,-24.7 255.31,-24.7"/>
<polygon fill="black" stroke="black" points="255.61,-28.2 265.61,-24.7 255.61,-21.2 255.61,-28.2"/>
<text text-anchor="middle" x="244.29" y="-28.5" font-family="Times,serif" font-size="14.00">1</text>
</g>
<!-- S_3 -->
<g id="node3" class="node">
<title>S_3</title>
<ellipse fill="#6c9ac3" stroke="#6c9ac3" cx="371.49" cy="-24.7" rx="24.9" ry="24.9"/>
<text text-anchor="middle" x="371.49" y="-21" font-family="Times,serif" font-size="14.00">S_3</text>
</g>
<!-- T_1&#45;&gt;S_2 -->
<g id="edge3" class="edge">
<title>T_1&#45;&gt;S_2</title>
<path fill="none" stroke="black" d="M130.77,-24.7C140.21,-24.7 152.02,-24.7 163.05,-24.7"/>
<polygon fill="black" stroke="black" points="163.28,-28.2 173.27,-24.7 163.27,-21.2 163.28,-28.2"/>
<text text-anchor="middle" x="151.9" y="-28.5" font-family="Times,serif" font-size="14.00">2</text>
</g>
<!-- T_2&#45;&gt;S_3 -->
<g id="edge5" class="edge">
<title>T_2&#45;&gt;S_3</title>
<path fill="none" stroke="black" d="M304.17,-24.7C313.61,-24.7 325.42,-24.7 336.44,-24.7"/>
<polygon fill="black" stroke="black" points="336.67,-28.2 346.67,-24.7 336.67,-21.2 336.67,-28.2"/>
<text text-anchor="middle" x="325.29" y="-28.5" font-family="Times,serif" font-size="14.00">1</text>
</g>
</g>
</svg>
