<?xml version="1.0" encoding="UTF-8" standalone="no"?>
<!DOCTYPE svg PUBLIC "-//W3C//DTD SVG 1.1//EN"
 "http://www.w3.org/Graphics/SVG/1.1/DTD/svg11.dtd">
<!-- Generated by graphviz version 2.44.1 (0)
 -->
<!-- Title: G Pages: 1 -->
<svg width="239pt" height="60pt"
 viewBox="0.00 0.00 239.49 60.00" xmlns="http://www.w3.org/2000/svg" xmlns:xlink="http://www.w3.org/1999/xlink">
<g id="graph0" class="graph" transform="scale(1 1) rotate(0) translate(4 56)">
<title>G</title>
<polygon fill="white" stroke="transparent" points="-4,4 -4,-56 235.49,-56 235.49,4 -4,4"/>
<!-- S_I -->
<g id="node1" class="node">
<title>S_I</title>
<ellipse fill="#6c9ac3" stroke="#6c9ac3" cx="22.75" cy="-26" rx="23" ry="23"/>
<text text-anchor="middle" x="22.75" y="-22.3" font-family="Times,serif" font-size="14.00">S_I</text>
</g>
<!-- T_rec -->
<g id="node3" class="node">
<title>T_rec</title>
<polygon fill="#e28f41" stroke="#e28f41" points="136.5,-50 88.5,-50 88.5,-2 136.5,-2 136.5,-50"/>
<text text-anchor="middle" x="112.5" y="-22.3" font-family="Times,serif" font-size="14.00">T_rec</text>
</g>
<!-- S_I&#45;&gt;T_rec -->
<g id="edge1" class="edge">
<title>S_I&#45;&gt;T_rec</title>
<path fill="none" stroke="black" d="M45.89,-26C55.74,-26 67.54,-26 78.41,-26"/>
<polygon fill="black" stroke="black" points="78.44,-29.5 88.44,-26 78.44,-22.5 78.44,-29.5"/>
<text text-anchor="middle" x="67" y="-29.8" font-family="Times,serif" font-size="14.00">1</text>
</g>
<!-- S_R -->
<g id="node2" class="node">
<title>S_R</title>
<ellipse fill="#6c9ac3" stroke="#6c9ac3" cx="205.49" cy="-26" rx="26" ry="26"/>
<text text-anchor="middle" x="205.49" y="-22.3" font-family="Times,serif" font-size="14.00">S_R</text>
</g>
<!-- T_rec&#45;&gt;S_R -->
<g id="edge2" class="edge">
<title>T_rec&#45;&gt;S_R</title>
<path fill="none" stroke="black" d="M136.93,-26C146.75,-26 158.37,-26 169.19,-26"/>
<polygon fill="black" stroke="black" points="169.22,-29.5 179.22,-26 169.22,-22.5 169.22,-29.5"/>
<text text-anchor="middle" x="158" y="-29.8" font-family="Times,serif" font-size="14.00">1</text>
</g>
</g>
</svg>
