<?xml version="1.0" encoding="UTF-8" standalone="no"?>
<!DOCTYPE svg PUBLIC "-//W3C//DTD SVG 1.1//EN"
 "http://www.w3.org/Graphics/SVG/1.1/DTD/svg11.dtd">
<!-- Generated by graphviz version 2.44.1 (0)
 -->
<!-- Title: G Pages: 1 -->
<svg width="244pt" height="168pt"
 viewBox="0.00 0.00 243.76 167.77" xmlns="http://www.w3.org/2000/svg" xmlns:xlink="http://www.w3.org/1999/xlink">
<g id="graph0" class="graph" transform="scale(1 1) rotate(0) translate(4 163.77)">
<title>G</title>
<polygon fill="white" stroke="transparent" points="-4,4 -4,-163.77 239.76,-163.77 239.76,4 -4,4"/>
<!-- n1 -->
<g id="box1" class="node">
<title>n1</title>
<ellipse fill="none" stroke="black" cx="47.67" cy="-104.59" rx="18" ry="18"/>
<text text-anchor="middle" x="47.67" y="-100.89" font-family="Serif" font-size="14.00">X</text>
</g>
<!-- n6 -->
<!-- junction -->
<g id="junction1" class="node">
<title>n6</title>
<ellipse fill="black" stroke="black" cx="23.01" cy="-131.02" rx="2.5" ry="2.5"/>
<text text-anchor="middle" x="17.01" y="-137.32" font-family="Serif" font-size="14.00">a</text>
</g>
<!-- n1&#45;&#45;n6 -->
<g id="edge1" class="edge">
<title>n1&#45;&#45;n6</title>
<path fill="none" stroke="black" d="M35.34,-117.81C31.29,-122.14 27.25,-126.48 24.94,-128.95"/>
</g>
<!-- n7 -->
<!-- junction -->
<g id="junction2" class="node">
<title>n7</title>
<ellipse fill="black" stroke="black" cx="74.79" cy="-80.65" rx="2.5" ry="2.5"/>
<text text-anchor="middle" x="68.29" y="-66.95" font-family="Serif" font-size="14.00">b</text>
</g>
<!-- n1&#45;&#45;n7 -->
<g id="edge3" class="edge">
<title>n1&#45;&#45;n7</title>
<path fill="none" stroke="black" d="M61.23,-92.62C65.68,-88.69 70.13,-84.76 72.66,-82.52"/>
</g>
<!-- n2 -->
<g id="box2" class="node">
<title>n2</title>
<ellipse fill="none" stroke="black" cx="104.34" cy="-59.81" rx="18" ry="18"/>
<text text-anchor="middle" x="104.34" y="-56.11" font-family="Serif" font-size="14.00">Y</text>
</g>
<!-- n2&#45;&#45;n7 -->
<g id="edge4" class="edge">
<title>n2&#45;&#45;n7</title>
<path fill="none" stroke="black" d="M89.56,-70.23C84.72,-73.65 79.87,-77.06 77.11,-79.01"/>
</g>
<!-- n8 -->
<!-- junction -->
<g id="junction3" class="node">
<title>n8</title>
<ellipse fill="black" stroke="black" cx="134.71" cy="-40.19" rx="2.5" ry="2.5"/>
<text text-anchor="middle" x="128.71" y="-46.49" font-family="Serif" font-size="14.00">c</text>
</g>
<!-- n2&#45;&#45;n8 -->
<g id="edge5" class="edge">
<title>n2&#45;&#45;n8</title>
<path fill="none" stroke="black" d="M119.53,-50C124.51,-46.78 129.49,-43.56 132.33,-41.73"/>
</g>
<!-- n3 -->
<g id="box3" class="node">
<title>n3</title>
<ellipse fill="none" stroke="black" cx="166.85" cy="-23.58" rx="18" ry="18"/>
<text text-anchor="middle" x="166.85" y="-19.88" font-family="Serif" font-size="14.00">Z</text>
</g>
<!-- n3&#45;&#45;n8 -->
<g id="edge6" class="edge">
<title>n3&#45;&#45;n8</title>
<path fill="none" stroke="black" d="M150.78,-31.88C145.51,-34.61 140.24,-37.33 137.24,-38.88"/>
</g>
<!-- n9 -->
<!-- junction -->
<g id="junction4" class="node">
<title>n9</title>
<ellipse fill="black" stroke="black" cx="200.45" cy="-10.22" rx="2.5" ry="2.5"/>
<text text-anchor="middle" x="193.45" y="-16.52" font-family="Serif" font-size="14.00">d</text>
</g>
<!-- n3&#45;&#45;n9 -->
<g id="edge7" class="edge">
<title>n3&#45;&#45;n9</title>
<path fill="none" stroke="black" d="M183.65,-16.9C189.16,-14.71 194.68,-12.52 197.82,-11.27"/>
</g>
<!-- n4 -->
<!-- n4&#45;&#45;n6 -->
<g id="edge2" class="edge">
<title>n4&#45;&#45;n6</title>
<path fill="none" stroke="black" d="M1.06,-158.57C3.87,-155.04 16.6,-139.06 21.28,-133.19"/>
</g>
<!-- n5 -->
<!-- n5&#45;&#45;n9 -->
<g id="edge8" class="edge">
<title>n5&#45;&#45;n9</title>
<path fill="none" stroke="black" d="M234.4,-0.74C230.05,-1.96 210.36,-7.46 203.13,-9.47"/>
</g>
</g>
</svg>
