<?xml version="1.0" encoding="UTF-8" standalone="no"?>
<!-- Created with Inkscape (http://www.inkscape.org/) -->

<svg
   version="1.1"
   id="svg2"
   width="800"
   height="533.33331"
   viewBox="0 0 800 533.33331"
   sodipodi:docname="eco_solution.pdf"
   xmlns:inkscape="http://www.inkscape.org/namespaces/inkscape"
   xmlns:sodipodi="http://sodipodi.sourceforge.net/DTD/sodipodi-0.dtd"
   xmlns="http://www.w3.org/2000/svg"
   xmlns:svg="http://www.w3.org/2000/svg">
  <defs
     id="defs6">
    <clipPath
       clipPathUnits="userSpaceOnUse"
       id="clipPath14">
      <path
         d="M 0,0 H 600 V 400 H 0 Z"
         id="path12" />
    </clipPath>
    <clipPath
       clipPathUnits="userSpaceOnUse"
       id="clipPath22">
      <path
         d="M 0,0 H 600 V 600 H 0 Z"
         id="path20" />
    </clipPath>
    <clipPath
       clipPathUnits="userSpaceOnUse"
       id="clipPath32">
      <path
         d="M 0,0 H 600 V 600 H 0 Z"
         id="path30" />
    </clipPath>
    <clipPath
       clipPathUnits="userSpaceOnUse"
       id="clipPath156">
      <path
         d="M 0,0 H 600 V 600 H 0 Z"
         id="path154" />
    </clipPath>
  </defs>
  <sodipodi:namedview
     id="namedview4"
     pagecolor="#ffffff"
     bordercolor="#000000"
     borderopacity="0.25"
     inkscape:showpageshadow="2"
     inkscape:pageopacity="0.0"
     inkscape:pagecheckerboard="0"
     inkscape:deskcolor="#d1d1d1" />
  <g
     id="g8"
     inkscape:groupmode="layer"
     inkscape:label="eco_solution"
     transform="matrix(1.3333333,0,0,-1.3333333,0,533.33333)">
    <g
       id="g10"
       clip-path="url(#clipPath14)">
      <g
         id="g16">
        <g
           id="g18"
           clip-path="url(#clipPath22)">
          <path
             d="M 0,0 H 600 V 400 H 0"
             style="fill:#ffffff;fill-opacity:1;fill-rule:evenodd;stroke:none"
             id="path24" />
        </g>
      </g>
      <g
         id="g26">
        <g
           id="g28"
           clip-path="url(#clipPath32)">
          <path
             d="M 40.4,44.21 H 588.19 V 369.13 H 40.4"
             style="fill:#ffffff;fill-opacity:1;fill-rule:evenodd;stroke:none"
             id="path34" />
        </g>
      </g>
      <path
         d="M 40.4,44.21 V 369.13"
         style="fill:none;stroke:#000000;stroke-width:0.5;stroke-linecap:butt;stroke-linejoin:miter;stroke-miterlimit:10;stroke-dasharray:none;stroke-opacity:0.0980392"
         id="path36" />
      <path
         d="M 149.96,44.21 V 369.13"
         style="fill:none;stroke:#000000;stroke-width:0.5;stroke-linecap:butt;stroke-linejoin:miter;stroke-miterlimit:10;stroke-dasharray:none;stroke-opacity:0.0980392"
         id="path38" />
      <path
         d="M 259.52,44.21 V 369.13"
         style="fill:none;stroke:#000000;stroke-width:0.5;stroke-linecap:butt;stroke-linejoin:miter;stroke-miterlimit:10;stroke-dasharray:none;stroke-opacity:0.0980392"
         id="path40" />
      <path
         d="M 369.07,44.21 V 369.13"
         style="fill:none;stroke:#000000;stroke-width:0.5;stroke-linecap:butt;stroke-linejoin:miter;stroke-miterlimit:10;stroke-dasharray:none;stroke-opacity:0.0980392"
         id="path42" />
      <path
         d="M 478.63,44.21 V 369.13"
         style="fill:none;stroke:#000000;stroke-width:0.5;stroke-linecap:butt;stroke-linejoin:miter;stroke-miterlimit:10;stroke-dasharray:none;stroke-opacity:0.0980392"
         id="path44" />
      <path
         d="M 588.19,44.21 V 369.13"
         style="fill:none;stroke:#000000;stroke-width:0.5;stroke-linecap:butt;stroke-linejoin:miter;stroke-miterlimit:10;stroke-dasharray:none;stroke-opacity:0.0980392"
         id="path46" />
      <path
         d="M 40.4,44.21 H 588.19"
         style="fill:none;stroke:#000000;stroke-width:1;stroke-linecap:butt;stroke-linejoin:miter;stroke-miterlimit:10;stroke-dasharray:none;stroke-opacity:1"
         id="path48" />
      <path
         d="M 40.4,44.21 V 48.1"
         style="fill:none;stroke:#000000;stroke-width:1;stroke-linecap:butt;stroke-linejoin:miter;stroke-miterlimit:10;stroke-dasharray:none;stroke-opacity:1"
         id="path50" />
      <path
         d="M 149.96,44.21 V 48.1"
         style="fill:none;stroke:#000000;stroke-width:1;stroke-linecap:butt;stroke-linejoin:miter;stroke-miterlimit:10;stroke-dasharray:none;stroke-opacity:1"
         id="path52" />
      <path
         d="M 259.52,44.21 V 48.1"
         style="fill:none;stroke:#000000;stroke-width:1;stroke-linecap:butt;stroke-linejoin:miter;stroke-miterlimit:10;stroke-dasharray:none;stroke-opacity:1"
         id="path54" />
      <path
         d="M 369.07,44.21 V 48.1"
         style="fill:none;stroke:#000000;stroke-width:1;stroke-linecap:butt;stroke-linejoin:miter;stroke-miterlimit:10;stroke-dasharray:none;stroke-opacity:1"
         id="path56" />
      <path
         d="M 478.63,44.21 V 48.1"
         style="fill:none;stroke:#000000;stroke-width:1;stroke-linecap:butt;stroke-linejoin:miter;stroke-miterlimit:10;stroke-dasharray:none;stroke-opacity:1"
         id="path58" />
      <path
         d="M 588.19,44.21 V 48.1"
         style="fill:none;stroke:#000000;stroke-width:1;stroke-linecap:butt;stroke-linejoin:miter;stroke-miterlimit:10;stroke-dasharray:none;stroke-opacity:1"
         id="path60" />
      <path
         d="m 40.4,36.91 c 0,0 -0.9,0 -1.36,-0.89 0,0 -0.45,-0.89 -0.45,-2.67 0,0 0,-1.78 0.45,-2.67 0,0 0.46,-0.88 1.36,-0.88 0,0 0.91,0 1.36,0.88 0,0 0.46,0.89 0.46,2.67 0,0 0,1.78 -0.46,2.67 0,0 -0.45,0.89 -1.36,0.89 m 0,0.92 c 0,0 1.45,0 2.22,-1.15 0,0 0.77,-1.14 0.77,-3.33 0,0 0,-2.18 -0.77,-3.33 0,0 -0.77,-1.15 -2.22,-1.15 0,0 -1.45,0 -2.22,1.15 0,0 -0.77,1.15 -0.77,3.33 0,0 0,2.19 0.77,3.33 0,0 0.77,1.15 2.22,1.15 z"
         style="fill:#000000;fill-opacity:1;fill-rule:evenodd;stroke:none"
         id="path62" />
      <path
         d="m 145.24,30.02 h 4.08 v -0.98 h -5.48 v 0.98 c 0,0 0.66,0.69 1.81,1.85 0,0 1.15,1.16 1.45,1.5 0,0 0.56,0.63 0.78,1.06 0,0 0.22,0.44 0.22,0.86 0,0 0,0.69 -0.48,1.13 0,0 -0.48,0.43 -1.26,0.43 0,0 -0.55,0 -1.16,-0.19 0,0 -0.61,-0.19 -1.3,-0.58 v 1.18 c 0,0 0.7,0.28 1.31,0.43 0,0 0.62,0.14 1.13,0.14 0,0 1.34,0 2.14,-0.67 0,0 0.8,-0.67 0.8,-1.79 0,0 0,-0.53 -0.21,-1.01 0,0 -0.19,-0.48 -0.72,-1.13 0,0 -0.14,-0.17 -0.92,-0.97 0,0 -0.77,-0.8 -2.19,-2.24 z"
         style="fill:#000000;fill-opacity:1;fill-rule:evenodd;stroke:none"
         id="path64" />
      <path
         d="m 153.09,36.91 c 0,0 -0.9,0 -1.36,-0.89 0,0 -0.45,-0.89 -0.45,-2.67 0,0 0,-1.78 0.45,-2.67 0,0 0.46,-0.88 1.36,-0.88 0,0 0.91,0 1.36,0.88 0,0 0.46,0.89 0.46,2.67 0,0 0,1.78 -0.46,2.67 0,0 -0.45,0.89 -1.36,0.89 m 0,0.92 c 0,0 1.45,0 2.22,-1.15 0,0 0.77,-1.14 0.77,-3.33 0,0 0,-2.18 -0.77,-3.33 0,0 -0.77,-1.15 -2.22,-1.15 0,0 -1.45,0 -2.22,1.15 0,0 -0.76,1.15 -0.76,3.33 0,0 0,2.19 0.76,3.33 0,0 0.77,1.15 2.22,1.15 z"
         style="fill:#000000;fill-opacity:1;fill-rule:evenodd;stroke:none"
         id="path66" />
      <path
         d="m 256.89,36.66 -2.95,-4.61 h 2.95 v 4.61 m -0.31,1.02 h 1.47 v -5.63 h 1.24 v -0.98 h -1.24 v -2.03 h -1.16 v 2.03 h -3.9 v 1.13 z"
         style="fill:#000000;fill-opacity:1;fill-rule:evenodd;stroke:none"
         id="path68" />
      <path
         d="m 263.05,36.91 c 0,0 -0.9,0 -1.36,-0.89 0,0 -0.45,-0.89 -0.45,-2.67 0,0 0,-1.78 0.45,-2.67 0,0 0.46,-0.88 1.36,-0.88 0,0 0.91,0 1.36,0.88 0,0 0.46,0.89 0.46,2.67 0,0 0,1.78 -0.46,2.67 0,0 -0.45,0.89 -1.36,0.89 m 0,0.92 c 0,0 1.46,0 2.22,-1.15 0,0 0.77,-1.14 0.77,-3.33 0,0 0,-2.18 -0.77,-3.33 0,0 -0.76,-1.15 -2.22,-1.15 0,0 -1.45,0 -2.22,1.15 0,0 -0.76,1.15 -0.76,3.33 0,0 0,2.19 0.76,3.33 0,0 0.77,1.15 2.22,1.15 z"
         style="fill:#000000;fill-opacity:1;fill-rule:evenodd;stroke:none"
         id="path70" />
      <path
         d="m 365.8,33.82 c 0,0 -0.79,0 -1.25,-0.54 0,0 -0.46,-0.53 -0.46,-1.47 0,0 0,-0.93 0.46,-1.48 0,0 0.46,-0.53 1.25,-0.53 0,0 0.78,0 1.24,0.53 0,0 0.46,0.55 0.46,1.48 0,0 0,0.94 -0.46,1.47 0,0 -0.46,0.54 -1.24,0.54 m 2.32,3.67 v -1.07 c 0,0 -0.44,0.21 -0.89,0.32 0,0 -0.45,0.11 -0.89,0.11 0,0 -1.16,0 -1.77,-0.78 0,0 -0.61,-0.78 -0.69,-2.36 0,0 0.34,0.5 0.85,0.77 0,0 0.52,0.27 1.14,0.27 0,0 1.3,0 2.05,-0.79 0,0 0.76,-0.79 0.76,-2.15 0,0 0,-1.33 -0.79,-2.14 0,0 -0.78,-0.8 -2.09,-0.8 0,0 -1.5,0 -2.29,1.15 0,0 -0.8,1.15 -0.8,3.33 0,0 0,2.05 0.98,3.26 0,0 0.97,1.22 2.61,1.22 0,0 0.44,0 0.88,-0.08 0,0 0.45,-0.09 0.94,-0.26 z"
         style="fill:#000000;fill-opacity:1;fill-rule:evenodd;stroke:none"
         id="path72" />
      <path
         d="m 372.45,36.91 c 0,0 -0.91,0 -1.36,-0.89 0,0 -0.45,-0.89 -0.45,-2.67 0,0 0,-1.78 0.45,-2.67 0,0 0.45,-0.88 1.36,-0.88 0,0 0.91,0 1.36,0.88 0,0 0.45,0.89 0.45,2.67 0,0 0,1.78 -0.45,2.67 0,0 -0.45,0.89 -1.36,0.89 m 0,0.92 c 0,0 1.45,0 2.21,-1.15 0,0 0.77,-1.14 0.77,-3.33 0,0 0,-2.18 -0.77,-3.33 0,0 -0.76,-1.15 -2.21,-1.15 0,0 -1.46,0 -2.23,1.15 0,0 -0.76,1.15 -0.76,3.33 0,0 0,2.19 0.76,3.33 0,0 0.77,1.15 2.23,1.15 z"
         style="fill:#000000;fill-opacity:1;fill-rule:evenodd;stroke:none"
         id="path74" />
      <path
         d="m 475.25,33.14 c 0,0 -0.83,0 -1.31,-0.45 0,0 -0.47,-0.44 -0.47,-1.22 0,0 0,-0.78 0.47,-1.23 0,0 0.48,-0.44 1.31,-0.44 0,0 0.84,0 1.32,0.44 0,0 0.48,0.45 0.48,1.23 0,0 0,0.78 -0.48,1.22 0,0 -0.48,0.45 -1.32,0.45 m -1.16,0.5 c 0,0 -0.76,0.18 -1.18,0.7 0,0 -0.42,0.51 -0.42,1.25 0,0 0,1.04 0.74,1.64 0,0 0.74,0.6 2.02,0.6 0,0 1.29,0 2.03,-0.6 0,0 0.73,-0.6 0.73,-1.64 0,0 0,-0.74 -0.42,-1.25 0,0 -0.41,-0.52 -1.16,-0.7 0,0 0.84,-0.2 1.31,-0.77 0,0 0.48,-0.57 0.48,-1.4 0,0 0,-1.26 -0.77,-1.93 0,0 -0.77,-0.67 -2.2,-0.67 0,0 -1.43,0 -2.19,0.67 0,0 -0.77,0.67 -0.77,1.93 0,0 0,0.83 0.48,1.4 0,0 0.47,0.57 1.32,0.77 m -0.43,1.84 c 0,0 0,-0.67 0.41,-1.04 0,0 0.43,-0.38 1.18,-0.38 0,0 0.76,0 1.18,0.38 0,0 0.43,0.37 0.43,1.04 0,0 0,0.68 -0.43,1.05 0,0 -0.42,0.38 -1.18,0.38 0,0 -0.75,0 -1.18,-0.38 0,0 -0.41,-0.37 -0.41,-1.05 z"
         style="fill:#000000;fill-opacity:1;fill-rule:evenodd;stroke:none"
         id="path76" />
      <path
         d="m 481.98,36.91 c 0,0 -0.9,0 -1.36,-0.89 0,0 -0.45,-0.89 -0.45,-2.67 0,0 0,-1.78 0.45,-2.67 0,0 0.46,-0.88 1.36,-0.88 0,0 0.91,0 1.36,0.88 0,0 0.46,0.89 0.46,2.67 0,0 0,1.78 -0.46,2.67 0,0 -0.45,0.89 -1.36,0.89 m 0,0.92 c 0,0 1.46,0 2.22,-1.15 0,0 0.77,-1.14 0.77,-3.33 0,0 0,-2.18 -0.77,-3.33 0,0 -0.76,-1.15 -2.22,-1.15 0,0 -1.45,0 -2.22,1.15 0,0 -0.76,1.15 -0.76,3.33 0,0 0,2.19 0.76,3.33 0,0 0.77,1.15 2.22,1.15 z"
         style="fill:#000000;fill-opacity:1;fill-rule:evenodd;stroke:none"
         id="path78" />
      <path
         d="m 579.03,30.02 h 1.91 v 6.59 l -2.08,-0.41 v 1.06 l 2.07,0.42 h 1.17 v -7.66 h 1.91 v -0.98 h -4.98 z"
         style="fill:#000000;fill-opacity:1;fill-rule:evenodd;stroke:none"
         id="path80" />
      <path
         d="m 587.78,36.91 c 0,0 -0.91,0 -1.36,-0.89 0,0 -0.46,-0.89 -0.46,-2.67 0,0 0,-1.78 0.46,-2.67 0,0 0.45,-0.88 1.36,-0.88 0,0 0.9,0 1.36,0.88 0,0 0.45,0.89 0.45,2.67 0,0 0,1.78 -0.45,2.67 0,0 -0.46,0.89 -1.36,0.89 m 0,0.92 c 0,0 1.45,0 2.21,-1.15 0,0 0.77,-1.14 0.77,-3.33 0,0 0,-2.18 -0.77,-3.33 0,0 -0.76,-1.15 -2.21,-1.15 0,0 -1.46,0 -2.23,1.15 0,0 -0.76,1.15 -0.76,3.33 0,0 0,2.19 0.76,3.33 0,0 0.77,1.15 2.23,1.15 z"
         style="fill:#000000;fill-opacity:1;fill-rule:evenodd;stroke:none"
         id="path82" />
      <path
         d="m 594.53,36.91 c 0,0 -0.9,0 -1.36,-0.89 0,0 -0.45,-0.89 -0.45,-2.67 0,0 0,-1.78 0.45,-2.67 0,0 0.46,-0.88 1.36,-0.88 0,0 0.91,0 1.36,0.88 0,0 0.46,0.89 0.46,2.67 0,0 0,1.78 -0.46,2.67 0,0 -0.45,0.89 -1.36,0.89 m 0,0.92 c 0,0 1.45,0 2.22,-1.15 0,0 0.76,-1.14 0.76,-3.33 0,0 0,-2.18 -0.76,-3.33 0,0 -0.77,-1.15 -2.22,-1.15 0,0 -1.45,0 -2.22,1.15 0,0 -0.77,1.15 -0.77,3.33 0,0 0,2.19 0.77,3.33 0,0 0.77,1.15 2.22,1.15 z"
         style="fill:#000000;fill-opacity:1;fill-rule:evenodd;stroke:none"
         id="path84" />
      <path
         d="M 314.06,22.43 V 19.9 h 3.02 v -1.14 h -3.02 v -4.83 c 0,0 0,-1.09 0.29,-1.41 0,0 0.31,-0.31 1.22,-0.31 h 1.51 v -1.22 h -1.51 c 0,0 -1.69,0 -2.34,0.63 0,0 -0.64,0.63 -0.64,2.31 v 4.83 h -1.08 v 1.14 h 1.08 v 2.53 z"
         style="fill:#000000;fill-opacity:1;fill-rule:evenodd;stroke:none"
         id="path86" />
      <path
         d="M 40.4,53.4 H 588.19"
         style="fill:none;stroke:#000000;stroke-width:0.5;stroke-linecap:butt;stroke-linejoin:miter;stroke-miterlimit:10;stroke-dasharray:none;stroke-opacity:0.0980392"
         id="path88" />
      <path
         d="M 40.4,140.38 H 588.19"
         style="fill:none;stroke:#000000;stroke-width:0.5;stroke-linecap:butt;stroke-linejoin:miter;stroke-miterlimit:10;stroke-dasharray:none;stroke-opacity:0.0980392"
         id="path90" />
      <path
         d="M 40.4,227.36 H 588.19"
         style="fill:none;stroke:#000000;stroke-width:0.5;stroke-linecap:butt;stroke-linejoin:miter;stroke-miterlimit:10;stroke-dasharray:none;stroke-opacity:0.0980392"
         id="path92" />
      <path
         d="M 40.4,314.34 H 588.19"
         style="fill:none;stroke:#000000;stroke-width:0.5;stroke-linecap:butt;stroke-linejoin:miter;stroke-miterlimit:10;stroke-dasharray:none;stroke-opacity:0.0980392"
         id="path94" />
      <path
         d="M 40.4,44.21 V 369.13"
         style="fill:none;stroke:#000000;stroke-width:1;stroke-linecap:butt;stroke-linejoin:miter;stroke-miterlimit:10;stroke-dasharray:none;stroke-opacity:1"
         id="path96" />
      <path
         d="m 40.4,53.4 h 6.57"
         style="fill:none;stroke:#000000;stroke-width:1;stroke-linecap:butt;stroke-linejoin:miter;stroke-miterlimit:10;stroke-dasharray:none;stroke-opacity:1"
         id="path98" />
      <path
         d="m 40.4,140.38 h 6.57"
         style="fill:none;stroke:#000000;stroke-width:1;stroke-linecap:butt;stroke-linejoin:miter;stroke-miterlimit:10;stroke-dasharray:none;stroke-opacity:1"
         id="path100" />
      <path
         d="m 40.4,227.36 h 6.57"
         style="fill:none;stroke:#000000;stroke-width:1;stroke-linecap:butt;stroke-linejoin:miter;stroke-miterlimit:10;stroke-dasharray:none;stroke-opacity:1"
         id="path102" />
      <path
         d="m 40.4,314.34 h 6.57"
         style="fill:none;stroke:#000000;stroke-width:1;stroke-linecap:butt;stroke-linejoin:miter;stroke-miterlimit:10;stroke-dasharray:none;stroke-opacity:1"
         id="path104" />
      <path
         d="m 28.41,56.95 c 0,0 -0.9,0 -1.36,-0.89 0,0 -0.45,-0.89 -0.45,-2.67 0,0 0,-1.77 0.45,-2.67 0,0 0.46,-0.88 1.36,-0.88 0,0 0.91,0 1.36,0.88 0,0 0.46,0.9 0.46,2.67 0,0 0,1.78 -0.46,2.67 0,0 -0.45,0.89 -1.36,0.89 m 0,0.93 c 0,0 1.46,0 2.22,-1.15 0,0 0.77,-1.15 0.77,-3.34 0,0 0,-2.18 -0.77,-3.33 0,0 -0.76,-1.15 -2.22,-1.15 0,0 -1.45,0 -2.22,1.15 0,0 -0.76,1.15 -0.76,3.33 0,0 0,2.19 0.76,3.34 0,0 0.77,1.15 2.22,1.15 z"
         style="fill:#000000;fill-opacity:1;fill-rule:evenodd;stroke:none"
         id="path106" />
      <path
         d="m 19.42,144.7 h 4.59 v -0.98 h -3.52 v -2.12 c 0,0 0.26,0.09 0.51,0.13 0,0 0.25,0.04 0.51,0.04 0,0 1.45,0 2.29,-0.79 0,0 0.85,-0.79 0.85,-2.15 0,0 0,-1.39 -0.87,-2.17 0,0 -0.87,-0.77 -2.45,-0.77 0,0 -0.54,0 -1.11,0.1 0,0 -0.56,0.09 -1.16,0.27 v 1.18 c 0,0 0.52,-0.29 1.07,-0.42 0,0 0.56,-0.14 1.18,-0.14 0,0 1,0 1.58,0.52 0,0 0.59,0.53 0.59,1.43 0,0 0,0.91 -0.59,1.43 0,0 -0.58,0.53 -1.58,0.53 0,0 -0.47,0 -0.94,-0.11 0,0 -0.46,-0.1 -0.95,-0.32 z"
         style="fill:#000000;fill-opacity:1;fill-rule:evenodd;stroke:none"
         id="path108" />
      <path
         d="m 28.41,143.93 c 0,0 -0.9,0 -1.36,-0.89 0,0 -0.45,-0.89 -0.45,-2.67 0,0 0,-1.77 0.45,-2.67 0,0 0.46,-0.88 1.36,-0.88 0,0 0.91,0 1.36,0.88 0,0 0.46,0.9 0.46,2.67 0,0 0,1.78 -0.46,2.67 0,0 -0.45,0.89 -1.36,0.89 m 0,0.93 c 0,0 1.46,0 2.22,-1.15 0,0 0.77,-1.15 0.77,-3.34 0,0 0,-2.18 -0.77,-3.33 0,0 -0.76,-1.15 -2.22,-1.15 0,0 -1.45,0 -2.22,1.15 0,0 -0.76,1.15 -0.76,3.33 0,0 0,2.19 0.76,3.34 0,0 0.77,1.15 2.22,1.15 z"
         style="fill:#000000;fill-opacity:1;fill-rule:evenodd;stroke:none"
         id="path110" />
      <path
         d="m 12.92,224.02 h 1.91 v 6.59 l -2.08,-0.41 v 1.06 l 2.06,0.42 h 1.17 v -7.66 h 1.91 v -0.98 h -4.97 z"
         style="fill:#000000;fill-opacity:1;fill-rule:evenodd;stroke:none"
         id="path112" />
      <path
         d="m 21.66,230.91 c 0,0 -0.9,0 -1.36,-0.89 0,0 -0.45,-0.89 -0.45,-2.67 0,0 0,-1.78 0.45,-2.67 0,0 0.46,-0.88 1.36,-0.88 0,0 0.91,0 1.36,0.88 0,0 0.46,0.89 0.46,2.67 0,0 0,1.78 -0.46,2.67 0,0 -0.45,0.89 -1.36,0.89 m 0,0.93 c 0,0 1.45,0 2.22,-1.16 0,0 0.77,-1.14 0.77,-3.33 0,0 0,-2.18 -0.77,-3.33 0,0 -0.77,-1.15 -2.22,-1.15 0,0 -1.45,0 -2.22,1.15 0,0 -0.77,1.15 -0.77,3.33 0,0 0,2.19 0.77,3.33 0,0 0.77,1.16 2.22,1.16 z"
         style="fill:#000000;fill-opacity:1;fill-rule:evenodd;stroke:none"
         id="path114" />
      <path
         d="m 28.41,230.91 c 0,0 -0.9,0 -1.36,-0.89 0,0 -0.45,-0.89 -0.45,-2.67 0,0 0,-1.78 0.45,-2.67 0,0 0.46,-0.88 1.36,-0.88 0,0 0.91,0 1.36,0.88 0,0 0.46,0.89 0.46,2.67 0,0 0,1.78 -0.46,2.67 0,0 -0.45,0.89 -1.36,0.89 m 0,0.93 c 0,0 1.46,0 2.22,-1.16 0,0 0.77,-1.14 0.77,-3.33 0,0 0,-2.18 -0.77,-3.33 0,0 -0.76,-1.15 -2.22,-1.15 0,0 -1.45,0 -2.22,1.15 0,0 -0.76,1.15 -0.76,3.33 0,0 0,2.19 0.76,3.33 0,0 0.77,1.16 2.22,1.16 z"
         style="fill:#000000;fill-opacity:1;fill-rule:evenodd;stroke:none"
         id="path116" />
      <path
         d="m 13.16,311 h 1.91 v 6.59 L 13,317.18 v 1.06 l 2.06,0.42 h 1.17 V 311 h 1.91 v -0.98 h -4.98 z"
         style="fill:#000000;fill-opacity:1;fill-rule:evenodd;stroke:none"
         id="path118" />
      <path
         d="m 19.42,318.66 h 4.59 v -0.98 h -3.52 v -2.12 c 0,0 0.26,0.08 0.51,0.12 0,0 0.25,0.05 0.51,0.05 0,0 1.45,0 2.29,-0.79 0,0 0.85,-0.79 0.85,-2.15 0,0 0,-1.39 -0.87,-2.17 0,0 -0.87,-0.77 -2.45,-0.77 0,0 -0.54,0 -1.11,0.09 0,0 -0.56,0.1 -1.16,0.28 v 1.18 c 0,0 0.52,-0.29 1.07,-0.43 0,0 0.56,-0.13 1.18,-0.13 0,0 1,0 1.58,0.52 0,0 0.59,0.53 0.59,1.43 0,0 0,0.9 -0.59,1.43 0,0 -0.58,0.53 -1.58,0.53 0,0 -0.47,0 -0.94,-0.11 0,0 -0.46,-0.1 -0.95,-0.32 z"
         style="fill:#000000;fill-opacity:1;fill-rule:evenodd;stroke:none"
         id="path120" />
      <path
         d="m 28.41,317.89 c 0,0 -0.9,0 -1.36,-0.89 0,0 -0.45,-0.89 -0.45,-2.67 0,0 0,-1.78 0.45,-2.67 0,0 0.46,-0.88 1.36,-0.88 0,0 0.91,0 1.36,0.88 0,0 0.46,0.89 0.46,2.67 0,0 0,1.78 -0.46,2.67 0,0 -0.45,0.89 -1.36,0.89 m 0,0.93 c 0,0 1.46,0 2.22,-1.16 0,0 0.77,-1.14 0.77,-3.33 0,0 0,-2.18 -0.77,-3.33 0,0 -0.76,-1.15 -2.22,-1.15 0,0 -1.45,0 -2.22,1.15 0,0 -0.76,1.15 -0.76,3.33 0,0 0,2.19 0.76,3.33 0,0 0.77,1.16 2.22,1.16 z"
         style="fill:#000000;fill-opacity:1;fill-rule:evenodd;stroke:none"
         id="path122" />
      <path
         d="m 264.1,396.98 h 9.56 v -1.73 h -7.52 v -4.47 h 7.2 v -1.72 h -7.2 v -5.48 h 7.7 v -1.72 h -9.74 z"
         style="fill:#000000;fill-opacity:1;fill-rule:evenodd;stroke:none"
         id="path124" />
      <path
         d="m 283.96,392.76 v -1.74 c 0,0 -0.79,0.44 -1.59,0.65 0,0 -0.79,0.22 -1.6,0.22 0,0 -1.81,0 -2.82,-1.15 0,0 -1,-1.15 -1,-3.22 0,0 0,-2.08 1,-3.23 0,0 1.01,-1.15 2.82,-1.15 0,0 0.81,0 1.6,0.21 0,0 0.8,0.23 1.59,0.66 v -1.72 c 0,0 -0.78,-0.36 -1.62,-0.55 0,0 -0.83,-0.18 -1.77,-0.18 0,0 -2.57,0 -4.08,1.61 0,0 -1.5,1.61 -1.5,4.35 0,0 0,2.77 1.51,4.36 0,0 1.53,1.59 4.19,1.59 0,0 0.86,0 1.68,-0.18 0,0 0.82,-0.17 1.59,-0.53 z"
         style="fill:#000000;fill-opacity:1;fill-rule:evenodd;stroke:none"
         id="path126" />
      <path
         d="m 290.31,391.89 c 0,0 -1.5,0 -2.37,-1.17 0,0 -0.87,-1.17 -0.87,-3.2 0,0 0,-2.04 0.86,-3.21 0,0 0.87,-1.17 2.38,-1.17 0,0 1.49,0 2.36,1.18 0,0 0.87,1.17 0.87,3.2 0,0 0,2.01 -0.87,3.19 0,0 -0.87,1.18 -2.36,1.18 m 0,1.58 c 0,0 2.43,0 3.82,-1.58 0,0 1.38,-1.58 1.38,-4.37 0,0 0,-2.79 -1.38,-4.38 0,0 -1.39,-1.58 -3.82,-1.58 0,0 -2.44,0 -3.83,1.58 0,0 -1.38,1.59 -1.38,4.38 0,0 0,2.79 1.38,4.37 0,0 1.39,1.58 3.83,1.58 z"
         style="fill:#000000;fill-opacity:1;fill-rule:evenodd;stroke:none"
         id="path128" />
      <path
         d="m 304.7,392.86 v -1.76 c 0,0 -0.79,0.41 -1.64,0.61 0,0 -0.85,0.2 -1.76,0.2 0,0 -1.39,0 -2.09,-0.42 0,0 -0.69,-0.43 -0.69,-1.28 0,0 0,-0.65 0.5,-1.02 0,0 0.49,-0.37 1.99,-0.7 l 0.64,-0.14 c 0,0 1.99,-0.43 2.82,-1.21 0,0 0.84,-0.77 0.84,-2.15 0,0 0,-1.58 -1.26,-2.51 0,0 -1.25,-0.92 -3.43,-0.92 0,0 -0.91,0 -1.91,0.18 0,0 -0.98,0.18 -2.07,0.53 v 1.93 c 0,0 1.03,-0.54 2.03,-0.81 0,0 1.01,-0.27 1.99,-0.27 0,0 1.31,0 2.02,0.45 0,0 0.71,0.45 0.71,1.27 0,0 0,0.76 -0.51,1.17 0,0 -0.51,0.4 -2.24,0.78 l -0.65,0.15 c 0,0 -1.73,0.36 -2.5,1.11 0,0 -0.77,0.76 -0.77,2.08 0,0 0,1.6 1.13,2.47 0,0 1.14,0.87 3.22,0.87 0,0 1.04,0 1.95,-0.15 0,0 0.91,-0.15 1.68,-0.46 z"
         style="fill:#000000;fill-opacity:1;fill-rule:evenodd;stroke:none"
         id="path130" />
      <path
         d="m 311.98,380.8 c 0,0 -0.79,-2.02 -1.54,-2.64 0,0 -0.75,-0.62 -2,-0.62 h -1.49 v 1.56 h 1.09 c 0,0 0.77,0 1.2,0.37 0,0 0.42,0.36 0.94,1.72 l 0.33,0.85 -4.59,11.16 h 1.98 l 3.54,-8.87 3.55,8.87 h 1.97 z"
         style="fill:#000000;fill-opacity:1;fill-rule:evenodd;stroke:none"
         id="path132" />
      <path
         d="m 326.15,392.86 v -1.76 c 0,0 -0.79,0.41 -1.64,0.61 0,0 -0.85,0.2 -1.76,0.2 0,0 -1.39,0 -2.09,-0.42 0,0 -0.69,-0.43 -0.69,-1.28 0,0 0,-0.65 0.5,-1.02 0,0 0.49,-0.37 1.99,-0.7 l 0.64,-0.14 c 0,0 1.98,-0.43 2.82,-1.21 0,0 0.84,-0.77 0.84,-2.15 0,0 0,-1.58 -1.26,-2.51 0,0 -1.25,-0.92 -3.43,-0.92 0,0 -0.91,0 -1.91,0.18 0,0 -0.98,0.18 -2.07,0.53 v 1.93 c 0,0 1.03,-0.54 2.03,-0.81 0,0 1.01,-0.27 1.99,-0.27 0,0 1.31,0 2.02,0.45 0,0 0.71,0.45 0.71,1.27 0,0 0,0.76 -0.51,1.17 0,0 -0.51,0.4 -2.24,0.78 l -0.65,0.15 c 0,0 -1.73,0.36 -2.5,1.11 0,0 -0.77,0.76 -0.77,2.08 0,0 0,1.6 1.13,2.47 0,0 1.14,0.87 3.22,0.87 0,0 1.04,0 1.95,-0.15 0,0 0.91,-0.15 1.68,-0.46 z"
         style="fill:#000000;fill-opacity:1;fill-rule:evenodd;stroke:none"
         id="path134" />
      <path
         d="m 330.55,396.42 v -3.22 h 3.84 v -1.45 h -3.84 v -6.16 c 0,0 0,-1.38 0.38,-1.78 0,0 0.38,-0.39 1.55,-0.39 h 1.91 v -1.56 h -1.91 c 0,0 -2.16,0 -2.98,0.8 0,0 -0.82,0.81 -0.82,2.93 v 6.16 h -1.37 v 1.45 h 1.37 v 3.22 z"
         style="fill:#000000;fill-opacity:1;fill-rule:evenodd;stroke:none"
         id="path136" />
      <path
         d="m 346.05,387.99 v -0.91 h -8.57 c 0,0 0.12,-1.92 1.16,-2.94 0,0 1.04,-1 2.89,-1 0,0 1.08,0 2.08,0.27 0,0 1.01,0.26 2,0.79 v -1.77 c 0,0 -1,-0.42 -2.05,-0.64 0,0 -1.06,-0.23 -2.14,-0.23 0,0 -2.71,0 -4.3,1.58 0,0 -1.58,1.58 -1.58,4.28 0,0 0,2.78 1.5,4.41 0,0 1.5,1.64 4.06,1.64 0,0 2.28,0 3.61,-1.48 0,0 1.34,-1.47 1.34,-4 m -1.87,0.55 c 0,0 -0.02,1.53 -0.86,2.44 0,0 -0.83,0.91 -2.2,0.91 0,0 -1.56,0 -2.51,-0.88 0,0 -0.93,-0.88 -1.07,-2.48 z"
         style="fill:#000000;fill-opacity:1;fill-rule:evenodd;stroke:none"
         id="path138" />
      <path
         d="m 356.83,391.02 c 0,0 0.7,1.26 1.67,1.85 0,0 0.98,0.6 2.29,0.6 0,0 1.78,0 2.74,-1.24 0,0 0.96,-1.24 0.96,-3.53 v -6.84 h -1.87 v 6.78 c 0,0 0,1.63 -0.58,2.42 0,0 -0.58,0.79 -1.76,0.79 0,0 -1.45,0 -2.29,-0.96 0,0 -0.84,-0.96 -0.84,-2.62 v -6.41 h -1.88 v 6.78 c 0,0 0,1.64 -0.57,2.42 0,0 -0.58,0.79 -1.79,0.79 0,0 -1.42,0 -2.26,-0.97 0,0 -0.84,-0.96 -0.84,-2.61 v -6.41 h -1.88 v 11.34 h 1.88 v -1.76 c 0,0 0.63,1.04 1.52,1.54 0,0 0.9,0.49 2.12,0.49 0,0 1.24,0 2.1,-0.63 0,0 0.87,-0.62 1.28,-1.82 z"
         style="fill:#000000;fill-opacity:1;fill-rule:evenodd;stroke:none"
         id="path140" />
      <path
         d="m 40.4,227.36 0.55,-12.59 0.55,-14.87 0.54,-16.5 0.55,-17.26 0.55,-17.03 0.55,-15.95 0.55,-14.27 0.55,-12.27 0.54,-10.24 0.55,-8.37 0.55,-6.71 0.55,-5.35 0.55,-4.23 0.55,-3.34 0.54,-2.64 0.55,-2.1 0.55,-1.67 0.55,-1.33 0.55,-1.08 0.55,-0.87 0.54,-0.71 0.55,-0.59 0.55,-0.48 0.55,-0.4 0.55,-0.33 0.55,-0.28 0.54,-0.24 0.55,-0.2 0.55,-0.18 0.55,-0.14 0.55,-0.13 0.55,-0.11 0.54,-0.1 0.55,-0.08 0.55,-0.07 0.55,-0.07 0.55,-0.05 0.55,-0.05 0.54,-0.04 0.55,-0.04 0.55,-0.03 0.55,-0.03 0.55,-0.03 0.55,-0.02 0.54,-0.02 0.55,-0.02 0.55,-0.01 0.55,-0.01 0.55,-0.01 0.55,-0.01 0.54,-0.01 h 0.55 l 0.55,-0.01 h 0.55 0.55 0.55 0.54 0.55 0.55 l 0.55,0.01 h 0.55 l 0.55,0.01 0.54,0.01 h 0.55 l 0.55,0.01 0.55,0.01 0.55,0.01 0.55,0.01 0.54,0.01 0.55,0.02 0.55,0.01 0.55,0.01 0.55,0.02 0.55,0.01 0.54,0.02 0.55,0.02 0.55,0.02 0.55,0.01 0.55,0.02 0.55,0.02 0.54,0.02 0.55,0.03 0.55,0.02 0.55,0.02 0.55,0.03 0.55,0.02 0.54,0.03 0.55,0.03 0.55,0.03 0.55,0.02 0.55,0.04 0.55,0.03 0.54,0.03 0.55,0.03 0.55,0.04 0.55,0.03 0.55,0.04 0.55,0.04 0.54,0.03 0.55,0.04 0.55,0.05 0.55,0.04 0.55,0.04 0.55,0.05 0.55,0.04 0.54,0.05 0.55,0.05 0.55,0.05 0.55,0.05 0.55,0.06 0.55,0.05 0.54,0.06 0.55,0.06 0.55,0.05 0.55,0.07 0.55,0.06 0.55,0.06 0.54,0.07 0.55,0.07 0.55,0.07 0.55,0.07 0.55,0.07 0.55,0.08 0.54,0.08 0.55,0.07 0.55,0.09 0.55,0.08 0.55,0.08 0.55,0.09 0.54,0.09 0.55,0.09 0.55,0.09 0.55,0.1 0.55,0.09 0.55,0.1 0.54,0.1 0.55,0.11 0.55,0.1 0.55,0.11 0.55,0.1 0.55,0.11 0.54,0.11 0.55,0.11 0.55,0.12 0.55,0.11 0.55,0.11 0.55,0.12 0.54,0.11 0.55,0.12 0.55,0.11 0.55,0.11 0.55,0.11 0.55,0.11 0.54,0.11 0.55,0.1 0.55,0.1 0.55,0.09 0.55,0.09 0.55,0.09 0.54,0.07 0.55,0.07 0.55,0.06 0.55,0.06 0.55,0.04 0.55,0.03 0.54,0.02 0.55,0.01 h 0.55 l 0.55,-0.02 0.55,-0.02 0.55,-0.04 0.54,-0.05 0.55,-0.06 0.55,-0.06 0.55,-0.08 0.55,-0.08 0.55,-0.09 0.54,-0.09 0.55,-0.1 0.55,-0.1 0.55,-0.1 0.55,-0.1 0.55,-0.1 0.54,-0.1 0.55,-0.1 0.55,-0.09 0.55,-0.09 0.55,-0.09 0.55,-0.08 0.54,-0.08 0.55,-0.08 0.55,-0.06 0.55,-0.07 0.55,-0.06 0.55,-0.05 0.54,-0.05 0.55,-0.04 0.55,-0.04 0.55,-0.04 0.55,-0.03 0.55,-0.02 0.54,-0.02 0.55,-0.02 0.55,-0.01 h 0.55 0.55 0.55 l 0.54,0.01 0.55,0.01 0.55,0.01 0.55,0.02 0.55,0.03 0.55,0.02 0.54,0.03 0.55,0.04 0.55,0.04 0.55,0.04 0.55,0.05 0.55,0.05 0.54,0.05 0.55,0.06 0.55,0.06 0.55,0.07 0.55,0.07 0.55,0.07 0.54,0.08 0.55,0.08 0.55,0.09 0.55,0.09 0.55,0.09 0.55,0.1 0.54,0.11 0.55,0.1 0.55,0.11 0.55,0.12 0.55,0.12 0.55,0.13 0.54,0.13 0.55,0.13 0.55,0.14 0.55,0.14 0.55,0.15 0.55,0.16 0.54,0.16 0.55,0.16 0.55,0.17 0.55,0.18 0.55,0.18 0.55,0.19 0.54,0.2 0.55,0.2 0.55,0.2 0.55,0.22 0.55,0.22 0.55,0.22 0.54,0.24 0.55,0.24 0.55,0.25 0.55,0.25 0.55,0.27 0.55,0.27 0.54,0.28 0.55,0.29 0.55,0.29 0.55,0.31 0.55,0.31 0.55,0.32 0.54,0.33 0.55,0.35 0.55,0.35 0.55,0.36 0.55,0.37 0.55,0.38 0.54,0.39 0.55,0.4 0.55,0.42 0.55,0.42 0.55,0.44 0.55,0.45 0.54,0.46 0.55,0.47 0.55,0.48 0.55,0.5 0.55,0.51 0.55,0.52 0.54,0.54 0.55,0.55 0.55,0.56 0.55,0.58 0.55,0.59 0.55,0.6 0.54,0.62 0.55,0.63 0.55,0.65 0.55,0.66 0.55,0.68 0.55,0.69 0.54,0.7 0.55,0.72 0.55,0.73 0.55,0.75 0.55,0.75 0.55,0.77 0.54,0.78 0.55,0.79 0.55,0.8 0.55,0.81 0.55,0.82 0.55,0.82 0.54,0.83 0.55,0.84 0.55,0.83 0.55,0.84 0.55,0.83 0.55,0.82 0.54,0.81 0.55,0.8 0.55,0.77 0.55,0.76 0.55,0.72 0.55,0.7 0.54,0.65 0.55,0.62 0.55,0.57 0.55,0.52 0.55,0.46 0.55,0.4 0.54,0.32 0.55,0.26 0.55,0.17 0.55,0.1 0.55,0.01 0.55,-0.07 0.54,-0.16 0.55,-0.24 0.55,-0.32 0.55,-0.4 0.55,-0.47 0.55,-0.54 0.54,-0.6 0.55,-0.66 0.55,-0.7 0.55,-0.74 0.55,-0.77 0.55,-0.79 0.54,-0.8 0.55,-0.81 0.55,-0.81 0.55,-0.8 0.55,-0.78 0.55,-0.76 0.54,-0.74 0.55,-0.72 0.55,-0.68 0.55,-0.64 0.55,-0.61 0.55,-0.58 0.54,-0.54 0.55,-0.5 0.55,-0.47 0.55,-0.43 0.55,-0.4 0.55,-0.37 0.54,-0.33 0.55,-0.3 0.55,-0.27 0.55,-0.23 0.55,-0.2 0.55,-0.17 0.54,-0.14 0.55,-0.11 0.55,-0.08 0.55,-0.05 0.55,-0.02 h 0.55 l 0.54,0.04 0.55,0.06 0.55,0.08 0.55,0.11 0.55,0.14 0.55,0.16 0.54,0.19 0.55,0.21 0.55,0.23 0.55,0.26 0.55,0.28 0.55,0.31 0.54,0.33 0.55,0.35 0.55,0.38 0.55,0.41 0.55,0.42 0.55,0.45 0.54,0.48 0.55,0.5 0.55,0.52 0.55,0.55 0.55,0.58 0.55,0.59 0.54,0.63 0.55,0.65 0.55,0.68 0.55,0.7 0.55,0.73 0.55,0.76 0.54,0.79 0.55,0.82 0.55,0.84 0.55,0.88 0.55,0.9 0.55,0.93 0.54,0.97 0.55,1 0.55,1.03 0.55,1.06 0.55,1.1 0.55,1.13 0.54,1.16 0.55,1.21 0.55,1.23 0.55,1.28 0.55,1.31 0.55,1.35 0.54,1.39 0.55,1.43 0.55,1.48 0.55,1.51 0.55,1.55 0.55,1.6 0.54,1.65 0.55,1.69 0.55,1.73 0.55,1.78 0.55,1.83 0.55,1.88 0.54,1.93 0.55,1.97 0.55,2.03 0.55,2.08 0.55,2.13 0.55,2.19 0.54,2.24 0.55,2.29 0.55,2.35 0.55,2.41 0.55,2.47 0.55,2.52 0.54,2.58 0.55,2.64 0.55,2.69 0.55,2.75 0.55,2.82 0.55,2.86 0.54,2.93 0.55,2.98 0.55,3.04 0.55,3.09 0.55,3.15 0.55,3.2 0.54,3.25 0.55,3.3 0.55,3.35 0.55,3.39 0.55,3.43 0.55,3.47 0.54,3.5 0.55,3.53 0.55,3.55 0.55,3.56 0.55,3.57 0.55,3.57 0.54,3.57 0.55,3.54 0.55,3.52 0.55,3.47 0.55,3.43 0.55,3.35 0.55,3.27 0.54,3.16 0.55,3.05 0.55,2.91 0.55,2.75 0.55,2.57 0.55,2.37 0.54,2.13 0.55,1.88 0.55,1.59 0.55,1.28 0.55,0.93 0.55,0.55 0.54,0.14 0.55,-0.32 0.55,-0.85 0.55,-1.41 0.55,-2.07 0.55,-2.8 0.54,-3.6 0.55,-4.52 0.55,-5.65 0.55,-6.9 0.55,-8.28 0.55,-9.71 0.54,-11.19 0.55,-12.67 0.55,-13.88 0.55,-14.67 0.55,-15.02 0.55,-14.91 0.54,-14.3 0.55,-13.18 0.55,-11.77 0.55,-10.32 0.55,-8.88 0.55,-7.52 0.54,-6.25 0.55,-5.12 0.55,-4.18 0.55,-3.45 0.55,-2.86 0.55,-2.36 0.54,-1.94 0.55,-1.6 0.55,-1.32 0.55,-1.11 0.55,-0.92 0.55,-0.78 0.54,-0.66 0.55,-0.56 0.55,-0.47 0.55,-0.41 0.55,-0.35 0.55,-0.3 0.54,-0.26 0.55,-0.23 0.55,-0.19 0.55,-0.17 0.55,-0.15 0.55,-0.13 0.54,-0.11 0.55,-0.09 0.55,-0.09 0.55,-0.07 0.55,-0.06 0.55,-0.05 0.54,-0.04 0.55,-0.03 0.55,-0.03 0.55,-0.02 0.55,-0.01 0.55,-0.01 h 0.54 0.55 l 0.55,0.01 0.55,0.01 0.55,0.01 0.55,0.02 0.54,0.02 0.55,0.03 0.55,0.03 0.55,0.04 0.55,0.03 0.55,0.04 0.54,0.05 0.55,0.05 0.55,0.05 0.55,0.05 0.55,0.06 0.55,0.06 0.54,0.06 0.55,0.07 0.55,0.07 0.55,0.07 0.55,0.08 0.55,0.08 0.54,0.08 0.55,0.09 0.55,0.09 0.55,0.1 0.55,0.1 0.55,0.1 0.54,0.1 0.55,0.11 0.55,0.12 0.55,0.12 0.55,0.12 0.55,0.12 0.54,0.13 0.55,0.14 0.55,0.14 0.55,0.14 0.55,0.15 0.55,0.16 0.54,0.16 0.55,0.16 0.55,0.17 0.55,0.17 0.55,0.18 0.55,0.19 0.54,0.19 0.55,0.2 0.55,0.21 0.55,0.21 0.55,0.21 0.55,0.23 0.54,0.23 0.55,0.24 0.55,0.24 0.55,0.25 0.55,0.27 0.55,0.26 0.54,0.28 0.55,0.29 0.55,0.29 0.55,0.3 0.55,0.31 0.55,0.32 0.54,0.33 0.55,0.34 0.55,0.35 0.55,0.36 0.55,0.38 0.55,0.38 0.54,0.39 0.55,0.4 0.55,0.42 0.55,0.43 0.55,0.44 0.55,0.45 0.54,0.47 0.55,0.48 0.55,0.49 0.55,0.51 0.55,0.52 0.55,0.53 0.54,0.55 0.55,0.57 0.55,0.58 0.55,0.59 0.55,0.62 0.55,0.62 0.54,0.65 0.55,0.66 0.55,0.67 0.55,0.7 0.55,0.7 0.55,0.73 0.54,0.74 0.55,0.75 0.55,0.77 0.55,0.79 0.55,0.8 0.55,0.81 0.54,0.82 0.55,0.83 0.55,0.83 0.55,0.85 0.55,0.84 0.55,0.85 0.54,0.83 0.55,0.83 0.55,0.8 0.55,0.78 0.55,0.74 0.55,0.69 0.54,0.64 0.55,0.58 0.55,0.49 0.55,0.4 0.55,0.29 0.55,0.16 0.54,0.02 0.55,-0.13 0.55,-0.29 0.55,-0.45 0.55,-0.62 0.55,-0.79 0.54,-0.93 0.55,-1.06 0.55,-1.17 0.55,-1.27 0.55,-1.33 0.55,-1.37 0.54,-1.39 0.55,-1.38 0.55,-1.35 0.55,-1.32 0.55,-1.26 0.55,-1.21 0.54,-1.14 0.55,-1.07 0.55,-0.99 0.55,-0.93 0.55,-0.86 0.55,-0.8 0.54,-0.73 0.55,-0.67 0.55,-0.62 0.55,-0.56 0.55,-0.52 0.55,-0.46 0.54,-0.42 0.55,-0.38 0.55,-0.34 0.55,-0.31 0.55,-0.27 0.55,-0.24 0.54,-0.21 0.55,-0.18 0.55,-0.16 0.55,-0.14 0.55,-0.11 0.55,-0.08 0.54,-0.07 0.55,-0.05 0.55,-0.03 0.55,-0.01 0.55,0.01 0.55,0.02 0.54,0.04 0.55,0.06 0.55,0.07 0.55,0.09 0.55,0.1 0.55,0.11 0.54,0.13 0.55,0.14 0.55,0.16 0.55,0.17 0.55,0.18 0.55,0.2 0.54,0.21 0.55,0.23 0.55,0.23 0.55,0.26 0.55,0.26 0.55,0.28 0.54,0.29 0.55,0.31 0.55,0.32 0.55,0.34 0.55,0.35 0.55,0.36 0.54,0.39 0.55,0.39 0.55,0.41 0.55,0.43 0.55,0.45 0.55,0.46 0.54,0.48 0.55,0.49 0.55,0.51 0.55,0.54 0.55,0.55 0.55,0.57 0.54,0.58 0.55,0.61 0.55,0.63 0.55,0.65 0.55,0.68 0.55,0.69 0.54,0.72 0.55,0.74 0.55,0.76 0.55,0.79 0.55,0.81 0.55,0.84 0.54,0.87 0.55,0.9 0.55,0.92 0.55,0.95 0.55,0.98 0.55,1.01 0.54,1.04 0.55,1.07 0.55,1.11 0.55,1.14 0.55,1.18 0.55,1.21 0.54,1.25 0.55,1.28 0.55,1.33 0.55,1.36 0.55,1.41 0.55,1.45 0.54,1.49 0.55,1.53 0.55,1.59 0.55,1.62 0.55,1.68 0.55,1.73 0.54,1.77 0.55,1.83 0.55,1.88 0.55,1.94 0.55,1.99 0.55,2.06 0.54,2.11 0.55,2.17 0.55,2.23 0.55,2.3 0.55,2.37 0.55,2.43 0.54,2.5 0.55,2.57 0.55,2.64 0.55,2.72 0.55,2.8 0.55,2.87 0.54,2.95 0.55,3.03 0.55,3.12 0.55,3.2 0.55,3.28 0.55,3.37 0.54,3.46 0.55,3.55 0.55,3.63 0.55,3.73 0.55,3.83 0.55,3.91 0.54,4.01 0.55,4.1 0.55,4.18 0.55,4.28 0.55,4.36 0.55,4.43 0.54,4.51 0.55,4.57 0.55,4.62 0.55,4.66 0.55,4.68 0.55,4.67 0.54,4.61 0.55,4.47 0.55,4.26 0.55,3.96 0.55,3.59 0.55,3.01 0.54,2.05 0.55,0.69 0.55,-1.12 0.55,-3.43 0.55,-6.28 0.55,-9.68 0.54,-13.71 0.55,-17.58 0.55,-20.38 0.55,-21.95 0.55,-22.14 0.55,-20.8 0.54,-18.19 0.55,-15.22 0.55,-12.25 0.55,-9.53 0.55,-7.3 0.55,-5.59 0.55,-4.25 0.54,-3.22 0.55,-2.45 0.55,-1.88 0.55,-1.47 0.55,-1.14 0.55,-0.9 0.54,-0.71 0.55,-0.57 0.55,-0.47 0.55,-0.38 0.55,-0.31 0.55,-0.25 0.54,-0.22 0.55,-0.18 0.55,-0.15 0.55,-0.13 0.55,-0.11 0.55,-0.1 0.54,-0.08 0.55,-0.07 0.55,-0.07 0.55,-0.05 0.55,-0.05 0.55,-0.04 0.54,-0.04 0.55,-0.03 0.55,-0.03 0.55,-0.03 0.55,-0.02 0.55,-0.02 0.54,-0.02 0.55,-0.02 0.55,-0.01 0.55,-0.02 0.55,-0.01 0.55,-0.01 0.54,-0.01 0.55,-0.01 h 0.55 l 0.55,-0.01 h 0.55 l 0.55,-0.01 h 0.54 l 0.55,-0.01 h 0.55 0.55 0.55 0.55 0.54 0.55 0.55 0.55 0.55 0.55 l 0.54,0.01 h 0.55 0.55 l 0.55,0.01 h 0.55 l 0.55,0.01 h 0.54 l 0.55,0.01 h 0.55 l 0.55,0.01 h 0.55 l 0.55,0.01 0.54,0.01 h 0.55 l 0.55,0.01 0.55,0.01 0.55,0.01 0.55,0.01 h 0.54 l 0.55,0.01 0.55,0.01 0.55,0.01 0.55,0.01 0.55,0.01 0.54,0.02 0.55,0.01 0.55,0.01 0.55,0.01 0.55,0.01 0.55,0.02 0.54,0.01 0.55,0.01 0.55,0.02 0.55,0.01 0.55,0.02 0.55,0.01 0.54,0.02 0.55,0.01 0.55,0.02 0.55,0.01 0.55,0.02 0.55,0.02 0.54,0.02 0.55,0.02 0.55,0.01 0.55,0.02 0.55,0.02 0.55,0.02 0.54,0.02 0.55,0.03 0.55,0.02 0.55,0.02 0.55,0.02 0.55,0.02 0.54,0.03 0.55,0.02 0.55,0.03 0.55,0.02 0.55,0.02 0.55,0.03 0.54,0.03 0.55,0.02 0.55,0.03 0.55,0.03 0.55,0.02 0.55,0.03 0.54,0.03 0.55,0.03 0.55,0.02 0.55,0.03 0.55,0.03 0.55,0.03 0.54,0.03 0.55,0.03 0.55,0.03 0.55,0.03 0.55,0.03 0.55,0.03 0.54,0.03 0.55,0.03 0.55,0.03 0.55,0.03 0.55,0.03 0.55,0.02 0.54,0.03 0.55,0.03 0.55,0.03 0.55,0.02"
         style="fill:none;stroke:#009afa;stroke-width:2;stroke-linecap:butt;stroke-linejoin:miter;stroke-miterlimit:10;stroke-dasharray:none;stroke-opacity:1"
         id="path142" />
      <path
         d="m 40.4,140.38 0.55,21.37 0.55,23.46 0.54,24.23 0.55,23.36 0.55,20.8 0.55,16.93 0.55,12.29 0.55,7.48 0.54,3.02 0.55,-0.8 0.55,-3.88 0.55,-6.19 0.55,-7.87 0.55,-8.98 0.54,-9.65 0.55,-10.01 0.55,-10.1 0.55,-10.02 0.55,-9.8 0.55,-9.5 0.54,-9.15 0.55,-8.75 0.55,-8.33 0.55,-7.91 0.55,-7.49 0.55,-7.07 0.54,-6.66 0.55,-6.28 0.55,-5.9 0.55,-5.54 0.55,-5.2 0.55,-4.88 0.54,-4.57 0.55,-4.28 0.55,-4.01 0.55,-3.76 0.55,-3.51 0.55,-3.28 0.54,-3.07 0.55,-2.87 0.55,-2.69 0.55,-2.5 0.55,-2.35 0.55,-2.19 0.54,-2.04 0.55,-1.92 0.55,-1.78 0.55,-1.67 0.55,-1.56 0.55,-1.45 0.54,-1.36 0.55,-1.27 0.55,-1.18 0.55,-1.11 0.55,-1.03 0.55,-0.96 0.54,-0.9 0.55,-0.84 0.55,-0.79 0.55,-0.73 0.55,-0.68 0.55,-0.64 0.54,-0.59 0.55,-0.56 0.55,-0.52 0.55,-0.48 0.55,-0.45 0.55,-0.43 0.54,-0.39 0.55,-0.37 0.55,-0.34 0.55,-0.32 0.55,-0.3 0.55,-0.28 0.54,-0.26 0.55,-0.24 0.55,-0.23 0.55,-0.21 0.55,-0.2 0.55,-0.18 0.54,-0.18 0.55,-0.16 0.55,-0.15 0.55,-0.14 0.55,-0.13 0.55,-0.12 0.54,-0.12 0.55,-0.1 0.55,-0.1 0.55,-0.1 0.55,-0.08 0.55,-0.08 0.54,-0.08 0.55,-0.07 0.55,-0.07 0.55,-0.06 0.55,-0.05 0.55,-0.06 0.54,-0.05 0.55,-0.05 0.55,-0.04 0.55,-0.04 0.55,-0.04 0.55,-0.03 0.55,-0.04 0.54,-0.03 0.55,-0.03 0.55,-0.02 0.55,-0.03 0.55,-0.02 0.55,-0.03 0.54,-0.02 0.55,-0.02 0.55,-0.01 0.55,-0.02 0.55,-0.02 0.55,-0.01 0.54,-0.02 0.55,-0.01 0.55,-0.01 0.55,-0.01 0.55,-0.01 0.55,-0.01 0.54,-0.01 0.55,-0.01 0.55,-0.01 0.55,-0.01 h 0.55 l 0.55,-0.01 0.54,-0.01 h 0.55 l 0.55,-0.01 h 0.55 l 0.55,-0.01 h 0.55 0.54 l 0.55,-0.01 h 0.55 l 0.55,-0.01 h 0.55 0.55 0.54 l 0.55,-0.01 h 0.55 0.55 0.55 l 0.55,-0.01 h 0.54 0.55 0.55 0.55 0.55 l 0.55,-0.01 h 0.54 0.55 0.55 0.55 0.55 0.55 0.54 0.55 l 0.55,-0.01 h 0.55 0.55 0.55 0.54 0.55 0.55 0.55 0.55 0.55 0.54 0.55 0.55 0.55 0.55 0.55 0.54 0.55 0.55 0.55 0.55 l 0.55,-0.01 h 0.54 0.55 0.55 0.55 0.55 0.55 0.54 0.55 0.55 0.55 0.55 0.55 0.54 0.55 0.55 0.55 0.55 0.55 0.54 0.55 0.55 0.55 0.55 0.55 0.54 0.55 0.55 0.55 0.55 0.55 0.54 0.55 0.55 0.55 0.55 0.55 0.54 0.55 0.55 0.55 0.55 0.55 0.54 0.55 0.55 0.55 0.55 0.55 0.54 0.55 0.55 0.55 0.55 0.55 0.54 0.55 0.55 0.55 0.55 0.55 0.54 0.55 0.55 0.55 0.55 0.55 0.54 0.55 0.55 0.55 0.55 0.55 0.54 0.55 0.55 0.55 0.55 0.55 0.54 0.55 0.55 0.55 0.55 0.55 0.54 0.55 0.55 0.55 0.55 0.55 0.54 0.55 0.55 0.55 0.55 0.55 0.54 0.55 0.55 0.55 0.55 0.55 0.54 0.55 0.55 0.55 0.55 0.55 0.54 0.55 0.55 0.55 0.55 0.55 0.54 0.55 0.55 0.55 0.55 0.55 0.54 0.55 0.55 0.55 0.55 0.55 0.54 0.55 0.55 0.55 0.55 0.55 0.54 0.55 0.55 0.55 0.55 0.55 0.54 0.55 0.55 0.55 0.55 0.55 0.54 0.55 0.55 0.55 0.55 0.55 0.54 0.55 0.55 0.55 0.55 0.55 0.54 0.55 0.55 0.55 0.55 0.55 0.54 0.55 0.55 0.55 0.55 0.55 0.54 0.55 0.55 0.55 0.55 0.55 0.54 0.55 0.55 0.55 0.55 0.55 0.54 0.55 0.55 0.55 0.55 0.55 0.54 0.55 0.55 0.55 0.55 0.55 0.54 0.55 0.55 0.55 0.55 0.55 0.54 0.55 0.55 0.55 0.55 0.55 0.54 0.55 0.55 0.55 0.55 0.55 0.54 0.55 0.55 0.55 0.55 0.55 0.54 0.55 0.55 0.55 0.55 0.55 0.54 0.55 0.55 0.55 0.55 0.55 0.54 0.55 0.55 0.55 0.55 0.55 0.54 0.55 0.55 0.55 0.55 0.55 0.54 0.55 0.55 0.55 0.55 0.55 0.54 0.55 0.55 0.55 0.55 0.55 0.54 0.55 0.55 0.55 0.55 0.55 0.54 0.55 0.55 0.55 0.55 0.55 0.54 0.55 0.55 0.55 0.55 0.55 0.54 0.55 0.55 0.55 0.55 0.55 0.54 0.55 0.55 0.55 0.55 0.55 0.54 0.55 0.55 0.55 0.55 0.55 l 0.54,0.01 h 0.55 0.55 0.55 l 0.55,0.01 h 0.55 l 0.55,0.01 h 0.54 l 0.55,0.02 0.55,0.01 0.55,0.02 0.55,0.03 0.55,0.04 0.54,0.06 0.55,0.08 0.55,0.11 0.55,0.16 0.55,0.22 0.55,0.31 0.54,0.42 0.55,0.58 0.55,0.82 0.55,1.14 0.55,1.59 0.55,2.16 0.54,2.86 0.55,3.82 0.55,5.12 0.55,6.68 0.55,8.48 0.55,10.42 0.54,12.46 0.55,14.53 0.55,16.09 0.55,16.91 0.55,16.93 0.55,16.12 0.54,14.46 0.55,11.93 0.55,8.95 0.55,6.05 0.55,3.32 0.55,0.82 0.54,-1.38 0.55,-3.23 0.55,-4.64 0.55,-5.58 0.55,-6.23 0.55,-6.7 0.54,-6.98 0.55,-7.12 0.55,-7.13 0.55,-7.04 0.55,-6.87 0.55,-6.67 0.54,-6.44 0.55,-6.18 0.55,-5.91 0.55,-5.63 0.55,-5.36 0.55,-5.09 0.54,-4.81 0.55,-4.56 0.55,-4.3 0.55,-4.05 0.55,-3.82 0.55,-3.6 0.54,-3.39 0.55,-3.18 0.55,-2.99 0.55,-2.81 0.55,-2.64 0.55,-2.48 0.54,-2.32 0.55,-2.18 0.55,-2.05 0.55,-1.91 0.55,-1.8 0.55,-1.68 0.54,-1.58 0.55,-1.48 0.55,-1.38 0.55,-1.3 0.55,-1.21 0.55,-1.14 0.54,-1.07 0.55,-0.99 0.55,-0.94 0.55,-0.87 0.55,-0.82 0.55,-0.77 0.54,-0.72 0.55,-0.67 0.55,-0.63 0.55,-0.59 0.55,-0.55 0.55,-0.51 0.54,-0.49 0.55,-0.45 0.55,-0.42 0.55,-0.4 0.55,-0.37 0.55,-0.35 0.54,-0.32 0.55,-0.31 0.55,-0.28 0.55,-0.27 0.55,-0.25 0.55,-0.24 0.54,-0.22 0.55,-0.2 0.55,-0.2 0.55,-0.18 0.55,-0.17 0.55,-0.15 0.54,-0.15 0.55,-0.14 0.55,-0.13 0.55,-0.13 0.55,-0.11 0.55,-0.11 0.54,-0.1 0.55,-0.09 0.55,-0.09 0.55,-0.09 0.55,-0.07 0.55,-0.08 0.54,-0.07 0.55,-0.06 0.55,-0.06 0.55,-0.06 0.55,-0.05 0.55,-0.05 0.54,-0.05 0.55,-0.04 0.55,-0.04 0.55,-0.04 0.55,-0.04 0.55,-0.03 0.54,-0.04 0.55,-0.03 0.55,-0.02 0.55,-0.03 0.55,-0.03 0.55,-0.02 0.54,-0.02 0.55,-0.02 0.55,-0.02 0.55,-0.02 0.55,-0.02 0.55,-0.02 0.54,-0.01 0.55,-0.02 0.55,-0.01 0.55,-0.01 0.55,-0.01 0.55,-0.02 0.54,-0.01 0.55,-0.01 0.55,-0.01 0.55,-0.01 h 0.55 l 0.55,-0.01 0.54,-0.01 0.55,-0.01 h 0.55 l 0.55,-0.01 h 0.55 l 0.55,-0.01 0.54,-0.01 h 0.55 0.55 l 0.55,-0.01 h 0.55 l 0.55,-0.01 h 0.54 0.55 0.55 l 0.55,-0.01 h 0.55 0.55 0.54 l 0.55,-0.01 h 0.55 0.55 0.55 0.55 0.54 0.55 0.55 0.55 0.55 0.55 0.54 0.55 0.55 0.55 0.55 0.55 0.54 0.55 0.55 0.55 0.55 0.55 0.54 0.55 0.55 0.55 0.55 0.55 0.54 0.55 0.55 l 0.55,-0.01 h 0.55 0.55 0.54 l 0.55,-0.01 h 0.55 0.55 l 0.55,-0.01 h 0.55 0.54 l 0.55,-0.01 h 0.55 0.55 0.55 l 0.55,-0.01 h 0.54 0.55 l 0.55,-0.01 h 0.55 0.55 0.55 l 0.54,-0.01 h 0.55 0.55 0.55 0.55 l 0.55,-0.01 h 0.54 0.55 0.55 0.55 l 0.55,-0.01 h 0.55 0.54 0.55 0.55 0.55 0.55 0.55 l 0.54,-0.01 h 0.55 0.55 0.55 0.55 0.55 0.54 0.55 0.55 0.55 0.55 0.55 0.54 l 0.55,-0.01 h 0.55 0.55 0.55 0.55 0.54 0.55 0.55 0.55 0.55 0.55 0.54 0.55 0.55 0.55 0.55 0.55 0.54 0.55 0.55 0.55 0.55 0.55 0.54 0.55 0.55 0.55 0.55 0.55 0.54 0.55 0.55 0.55 0.55 0.55 0.54 0.55 0.55 0.55 0.55 0.55 0.54 0.55 0.55 0.55 0.55 0.55 0.54 0.55 0.55 0.55 0.55 0.55 0.54 0.55 0.55 0.55 0.55 0.55 0.54 0.55 0.55 0.55 l 0.55,0.01 h 0.55 0.54 0.55 0.55 0.55 l 0.55,0.01 h 0.55 0.54 l 0.55,0.01 h 0.55 l 0.55,0.01 h 0.55 l 0.55,0.01 0.54,0.01 0.55,0.01 0.55,0.02 0.55,0.01 0.55,0.03 0.55,0.02 0.54,0.03 0.55,0.04 0.55,0.05 0.55,0.06 0.55,0.08 0.55,0.11 0.54,0.14 0.55,0.19 0.55,0.24 0.55,0.3 0.55,0.4 0.55,0.52 0.54,0.73 0.55,1.01 0.55,1.41 0.55,1.93 0.55,2.53 0.55,3.44 0.54,4.92 0.55,6.99 0.55,9.7 0.55,13.07 0.55,17.14 0.55,21.93 0.54,27.51 0.55,32.29 0.55,34.52 0.55,34.2 0.55,31.32 0.55,25.88 0.54,18.49 0.55,11.02 0.55,4.19 0.55,-1.63 0.55,-6.03 0.55,-9.03 0.55,-11.14 0.54,-12.46 0.55,-13.15 0.55,-13.37 0.55,-13.32 0.55,-13.05 0.55,-12.65 0.54,-12.17 0.55,-11.62 0.55,-11.06 0.55,-10.47 0.55,-9.9 0.55,-9.34 0.54,-8.79 0.55,-8.26 0.55,-7.76 0.55,-7.27 0.55,-6.83 0.55,-6.39 0.54,-5.98 0.55,-5.6 0.55,-5.24 0.55,-4.9 0.55,-4.59 0.55,-4.28 0.54,-4 0.55,-3.74 0.55,-3.5 0.55,-3.26 0.55,-3.05 0.55,-2.84 0.54,-2.66 0.55,-2.48 0.55,-2.32 0.55,-2.17 0.55,-2.01 0.55,-1.89 0.54,-1.76 0.55,-1.64 0.55,-1.54 0.55,-1.43 0.55,-1.33 0.55,-1.25 0.54,-1.16 0.55,-1.09 0.55,-1.01 0.55,-0.94 0.55,-0.88 0.55,-0.83 0.54,-0.77 0.55,-0.71 0.55,-0.67 0.55,-0.63 0.55,-0.58 0.55,-0.54 0.54,-0.51 0.55,-0.47 0.55,-0.44 0.55,-0.41 0.55,-0.39 0.55,-0.36 0.54,-0.33 0.55,-0.31 0.55,-0.29 0.55,-0.27 0.55,-0.26 0.55,-0.23 0.54,-0.23 0.55,-0.2 0.55,-0.19 0.55,-0.18 0.55,-0.17 0.55,-0.16 0.54,-0.14 0.55,-0.14 0.55,-0.12 0.55,-0.12 0.55,-0.11 0.55,-0.11 0.54,-0.09 0.55,-0.09 0.55,-0.09 0.55,-0.07 0.55,-0.08 0.55,-0.06 0.54,-0.07 0.55,-0.06 0.55,-0.05 0.55,-0.05 0.55,-0.05 0.55,-0.05 0.54,-0.04 0.55,-0.04 0.55,-0.03 0.55,-0.04 0.55,-0.03 0.55,-0.03 0.54,-0.03 0.55,-0.02 0.55,-0.03 0.55,-0.02 0.55,-0.02 0.55,-0.02 0.54,-0.02 0.55,-0.02 0.55,-0.01 0.55,-0.02 0.55,-0.01 0.55,-0.01 0.54,-0.02 0.55,-0.01 0.55,-0.01 0.55,-0.01 0.55,-0.01 0.55,-0.01 h 0.54 l 0.55,-0.01 0.55,-0.01 0.55,-0.01 h 0.55 l 0.55,-0.01 h 0.54 l 0.55,-0.01 h 0.55 l 0.55,-0.01 h 0.55 0.55 l 0.54,-0.01 h 0.55 0.55 l 0.55,-0.01 h 0.55 0.55 0.54 l 0.55,-0.01 h 0.55 0.55 0.55 0.55 l 0.54,-0.01 h 0.55 0.55 0.55"
         style="fill:none;stroke:#e36f47;stroke-width:2;stroke-linecap:butt;stroke-linejoin:miter;stroke-miterlimit:10;stroke-dasharray:none;stroke-opacity:1"
         id="path144" />
      <path
         d="m 40.4,88.19 0.55,3.59 0.55,3.74 0.54,3.85 0.55,3.86 0.55,3.81 0.55,3.68 0.55,3.5 0.55,3.27 0.54,3.01 0.55,2.73 0.55,2.43 0.55,2.13 0.55,1.81 0.55,1.5 0.54,1.18 0.55,0.89 0.55,0.6 0.55,0.31 0.55,0.06 0.55,-0.19 0.54,-0.41 0.55,-0.62 0.55,-0.8 0.55,-0.97 0.55,-1.11 0.55,-1.24 0.54,-1.35 0.55,-1.44 0.55,-1.51 0.55,-1.58 0.55,-1.63 0.55,-1.66 0.54,-1.69 0.55,-1.71 0.55,-1.71 0.55,-1.71 0.55,-1.71 0.55,-1.69 0.54,-1.68 0.55,-1.65 0.55,-1.63 0.55,-1.6 0.55,-1.57 0.55,-1.53 0.54,-1.5 0.55,-1.47 0.55,-1.42 0.55,-1.39 0.55,-1.35 0.55,-1.32 0.54,-1.27 0.55,-1.23 0.55,-1.2 0.55,-1.16 0.55,-1.11 0.55,-1.09 0.54,-1.04 0.55,-1.01 0.55,-0.98 0.55,-0.94 0.55,-0.91 0.55,-0.87 0.54,-0.84 0.55,-0.82 0.55,-0.78 0.55,-0.75 0.55,-0.72 0.55,-0.7 0.54,-0.67 0.55,-0.64 0.55,-0.62 0.55,-0.6 0.55,-0.57 0.55,-0.55 0.54,-0.52 0.55,-0.51 0.55,-0.48 0.55,-0.47 0.55,-0.44 0.55,-0.43 0.54,-0.41 0.55,-0.39 0.55,-0.38 0.55,-0.36 0.55,-0.34 0.55,-0.33 0.54,-0.32 0.55,-0.3 0.55,-0.28 0.55,-0.28 0.55,-0.26 0.55,-0.25 0.54,-0.23 0.55,-0.23 0.55,-0.21 0.55,-0.2 0.55,-0.19 0.55,-0.19 0.54,-0.17 0.55,-0.16 0.55,-0.15 0.55,-0.14 0.55,-0.14 0.55,-0.12 0.55,-0.12 0.54,-0.1 0.55,-0.1 0.55,-0.09 0.55,-0.08 0.55,-0.07 0.55,-0.06 0.54,-0.06 0.55,-0.04 0.55,-0.04 0.55,-0.02 0.55,-0.02 0.55,-0.01 h 0.54 l 0.55,0.01 0.55,0.02 0.55,0.03 0.55,0.04 0.55,0.05 0.54,0.07 0.55,0.07 0.55,0.09 0.55,0.1 0.55,0.12 0.55,0.13 0.54,0.15 0.55,0.17 0.55,0.19 0.55,0.2 0.55,0.23 0.55,0.25 0.54,0.28 0.55,0.3 0.55,0.34 0.55,0.36 0.55,0.4 0.55,0.44 0.54,0.48 0.55,0.53 0.55,0.57 0.55,0.63 0.55,0.69 0.55,0.75 0.54,0.81 0.55,0.9 0.55,0.97 0.55,1.06 0.55,1.16 0.55,1.26 0.54,1.37 0.55,1.49 0.55,1.6 0.55,1.73 0.55,1.85 0.55,1.99 0.54,2.12 0.55,2.26 0.55,2.4 0.55,2.52 0.55,2.64 0.55,2.73 0.54,2.8 0.55,2.86 0.55,2.88 0.55,2.89 0.55,2.85 0.55,2.81 0.54,2.71 0.55,2.59 0.55,2.44 0.55,2.25 0.55,2.04 0.55,1.81 0.54,1.56 0.55,1.3 0.55,1.03 0.55,0.76 0.55,0.49 0.55,0.22 0.54,-0.02 0.55,-0.25 0.55,-0.46 0.55,-0.65 0.55,-0.83 0.55,-0.99 0.54,-1.13 0.55,-1.25 0.55,-1.36 0.55,-1.44 0.55,-1.52 0.55,-1.59 0.54,-1.63 0.55,-1.67 0.55,-1.69 0.55,-1.72 0.55,-1.71 0.55,-1.72 0.54,-1.71 0.55,-1.7 0.55,-1.69 0.55,-1.66 0.55,-1.64 0.55,-1.61 0.54,-1.57 0.55,-1.55 0.55,-1.51 0.55,-1.47 0.55,-1.44 0.55,-1.4 0.54,-1.36 0.55,-1.32 0.55,-1.29 0.55,-1.24 0.55,-1.21 0.55,-1.17 0.54,-1.13 0.55,-1.1 0.55,-1.05 0.55,-1.03 0.55,-0.98 0.55,-0.95 0.54,-0.92 0.55,-0.89 0.55,-0.85 0.55,-0.82 0.55,-0.79 0.55,-0.77 0.54,-0.73 0.55,-0.71 0.55,-0.68 0.55,-0.65 0.55,-0.63 0.55,-0.6 0.54,-0.58 0.55,-0.56 0.55,-0.53 0.55,-0.52 0.55,-0.49 0.55,-0.47 0.54,-0.45 0.55,-0.44 0.55,-0.42 0.55,-0.39 0.55,-0.39 0.55,-0.36 0.54,-0.35 0.55,-0.34 0.55,-0.31 0.55,-0.31 0.55,-0.29 0.55,-0.28 0.54,-0.27 0.55,-0.25 0.55,-0.24 0.55,-0.23 0.55,-0.21 0.55,-0.21 0.54,-0.19 0.55,-0.19 0.55,-0.17 0.55,-0.17 0.55,-0.15 0.55,-0.14 0.54,-0.14 0.55,-0.12 0.55,-0.12 0.55,-0.1 0.55,-0.1 0.55,-0.09 0.54,-0.08 0.55,-0.07 0.55,-0.06 0.55,-0.05 0.55,-0.04 0.55,-0.04 0.54,-0.02 0.55,-0.02 h 0.55 0.55 l 0.55,0.02 0.55,0.03 0.54,0.03 0.55,0.05 0.55,0.07 0.55,0.07 0.55,0.09 0.55,0.1 0.54,0.11 0.55,0.13 0.55,0.15 0.55,0.16 0.55,0.18 0.55,0.2 0.54,0.22 0.55,0.24 0.55,0.27 0.55,0.29 0.55,0.32 0.55,0.36 0.54,0.39 0.55,0.43 0.55,0.46 0.55,0.52 0.55,0.55 0.55,0.61 0.54,0.65 0.55,0.72 0.55,0.79 0.55,0.85 0.55,0.94 0.55,1.03 0.54,1.12 0.55,1.22 0.55,1.33 0.55,1.43 0.55,1.55 0.55,1.67 0.54,1.78 0.55,1.91 0.55,2.03 0.55,2.16 0.55,2.29 0.55,2.42 0.54,2.55 0.55,2.68 0.55,2.79 0.55,2.86 0.55,2.9 0.55,2.93 0.54,2.91 0.55,2.88 0.55,2.82 0.55,2.73 0.55,2.61 0.55,2.48 0.54,2.31 0.55,2.12 0.55,1.91 0.55,1.68 0.55,1.42 0.55,1.16 0.54,0.92 0.55,0.66 0.55,0.43 0.55,0.18 0.55,-0.04 0.55,-0.26 0.54,-0.47 0.55,-0.67 0.55,-0.84 0.55,-1.01 0.55,-1.16 0.55,-1.28 0.54,-1.38 0.55,-1.46 0.55,-1.51 0.55,-1.54 0.55,-1.58 0.55,-1.61 0.54,-1.64 0.55,-1.65 0.55,-1.67 0.55,-1.67 0.55,-1.67 0.55,-1.66 0.54,-1.65 0.55,-1.62 0.55,-1.61 0.55,-1.58 0.55,-1.56 0.55,-1.53 0.54,-1.49 0.55,-1.47 0.55,-1.43 0.55,-1.39 0.55,-1.36 0.55,-1.33 0.54,-1.29 0.55,-1.25 0.55,-1.22 0.55,-1.18 0.55,-1.15 0.55,-1.11 0.54,-1.08 0.55,-1.04 0.55,-1 0.55,-0.97 0.55,-0.94 0.55,-0.91 0.54,-0.88 0.55,-0.85 0.55,-0.82 0.55,-0.78 0.55,-0.76 0.55,-0.74 0.54,-0.7 0.55,-0.68 0.55,-0.66 0.55,-0.62 0.55,-0.61 0.55,-0.58 0.54,-0.56 0.55,-0.54 0.55,-0.52 0.55,-0.49 0.55,-0.48 0.55,-0.45 0.54,-0.44 0.55,-0.42 0.55,-0.4 0.55,-0.38 0.55,-0.36 0.55,-0.35 0.54,-0.34 0.55,-0.32 0.55,-0.3 0.55,-0.29 0.55,-0.27 0.55,-0.26 0.54,-0.25 0.55,-0.23 0.55,-0.22 0.55,-0.21 0.55,-0.19 0.55,-0.18 0.54,-0.17 0.55,-0.16 0.55,-0.15 0.55,-0.13 0.55,-0.13 0.55,-0.11 0.54,-0.09 0.55,-0.09 0.55,-0.08 0.55,-0.06 0.55,-0.05 0.55,-0.04 0.54,-0.03 0.55,-0.01 h 0.55 l 0.55,0.01 0.55,0.02 0.55,0.04 0.54,0.05 0.55,0.06 0.55,0.08 0.55,0.1 0.55,0.11 0.55,0.13 0.54,0.15 0.55,0.17 0.55,0.19 0.55,0.2 0.55,0.23 0.55,0.26 0.54,0.28 0.55,0.31 0.55,0.33 0.55,0.37 0.55,0.4 0.55,0.43 0.54,0.47 0.55,0.51 0.55,0.56 0.55,0.6 0.55,0.65 0.55,0.7 0.54,0.76 0.55,0.83 0.55,0.88 0.55,0.96 0.55,1.04 0.55,1.11 0.55,1.2 0.54,1.29 0.55,1.39 0.55,1.49 0.55,1.59 0.55,1.7 0.55,1.82 0.54,1.94 0.55,2.05 0.55,2.18 0.55,2.3 0.55,2.41 0.55,2.54 0.54,2.64 0.55,2.74 0.55,2.83 0.55,2.89 0.55,2.95 0.55,2.97 0.54,2.98 0.55,2.93 0.55,2.86 0.55,2.73 0.55,2.55 0.55,2.31 0.54,2.02 0.55,1.67 0.55,1.26 0.55,0.8 0.55,0.34 0.55,-0.13 0.54,-0.59 0.55,-1 0.55,-1.38 0.55,-1.68 0.55,-1.93 0.55,-2.12 0.54,-2.26 0.55,-2.36 0.55,-2.41 0.55,-2.44 0.55,-2.45 0.55,-2.43 0.54,-2.4 0.55,-2.36 0.55,-2.3 0.55,-2.25 0.55,-2.18 0.55,-2.12 0.54,-2.06 0.55,-1.98 0.55,-1.92 0.55,-1.84 0.55,-1.78 0.55,-1.71 0.54,-1.65 0.55,-1.58 0.55,-1.52 0.55,-1.45 0.55,-1.4 0.55,-1.34 0.54,-1.29 0.55,-1.23 0.55,-1.18 0.55,-1.12 0.55,-1.09 0.55,-1.03 0.54,-0.99 0.55,-0.95 0.55,-0.91 0.55,-0.86 0.55,-0.83 0.55,-0.8 0.54,-0.75 0.55,-0.73 0.55,-0.69 0.55,-0.67 0.55,-0.63 0.55,-0.6 0.54,-0.58 0.55,-0.55 0.55,-0.53 0.55,-0.51 0.55,-0.48 0.55,-0.46 0.54,-0.44 0.55,-0.42 0.55,-0.4 0.55,-0.38 0.55,-0.37 0.55,-0.35 0.54,-0.33 0.55,-0.32 0.55,-0.31 0.55,-0.29 0.55,-0.27 0.55,-0.27 0.54,-0.25 0.55,-0.24 0.55,-0.23 0.55,-0.22 0.55,-0.21 0.55,-0.2 0.54,-0.2 0.55,-0.18 0.55,-0.17 0.55,-0.17 0.55,-0.15 0.55,-0.16 0.54,-0.14 0.55,-0.14 0.55,-0.13 0.55,-0.12 0.55,-0.12 0.55,-0.11 0.54,-0.11 0.55,-0.1 0.55,-0.09 0.55,-0.1 0.55,-0.08 0.55,-0.08 0.54,-0.08 0.55,-0.07 0.55,-0.07 0.55,-0.07 0.55,-0.06 0.55,-0.06 0.54,-0.05 0.55,-0.05 0.55,-0.05 0.55,-0.04 0.55,-0.04 0.55,-0.04 0.54,-0.03 0.55,-0.03 0.55,-0.03 0.55,-0.02 0.55,-0.02 0.55,-0.02 0.54,-0.01 0.55,-0.01 0.55,-0.01 0.55,-0.01 h 0.55 l 0.55,0.01 0.54,0.01 0.55,0.01 0.55,0.01 0.55,0.02 0.55,0.03 0.55,0.03 0.54,0.03 0.55,0.04 0.55,0.05 0.55,0.05 0.55,0.06 0.55,0.07 0.54,0.08 0.55,0.09 0.55,0.09 0.55,0.11 0.55,0.12 0.55,0.13 0.54,0.15 0.55,0.17 0.55,0.18 0.55,0.2 0.55,0.23 0.55,0.26 0.54,0.3 0.55,0.33 0.55,0.37 0.55,0.42 0.55,0.47 0.55,0.54 0.54,0.6 0.55,0.69 0.55,0.78 0.55,0.89 0.55,1.02 0.55,1.17 0.54,1.33 0.55,1.54 0.55,1.76 0.55,2.01 0.55,2.3 0.55,2.63 0.54,2.98 0.55,3.39 0.55,3.84 0.55,4.31 0.55,4.81 0.55,5.31 0.54,5.79 0.55,6.23 0.55,6.59 0.55,6.89 0.55,7.06 0.55,7.09 0.54,6.95 0.55,6.61 0.55,6.14 0.55,5.53 0.55,4.82 0.55,4.03 0.54,3.19 0.55,2.33 0.55,1.51 0.55,0.74 0.55,0.06 0.55,-0.58 0.54,-1.15 0.55,-1.63 0.55,-2.05 0.55,-2.39 0.55,-2.66 0.55,-2.86 0.54,-3.03 0.55,-3.16 0.55,-3.24 0.55,-3.3 0.55,-3.33 0.55,-3.33 0.54,-3.31 0.55,-3.27 0.55,-3.22 0.55,-3.17 0.55,-3.1 0.55,-3.02 0.54,-2.95 0.55,-2.87 0.55,-2.78 0.55,-2.7 0.55,-2.61 0.55,-2.53 0.54,-2.44 0.55,-2.35 0.55,-2.27 0.55,-2.19 0.55,-2.11 0.55,-2.02 0.54,-1.95 0.55,-1.87 0.55,-1.8 0.55,-1.73 0.55,-1.66 0.55,-1.59 0.54,-1.53 0.55,-1.46 0.55,-1.41 0.55,-1.35 0.55,-1.29 0.55,-1.23 0.54,-1.19 0.55,-1.13 0.55,-1.09 0.55,-1.04 0.55,-1 0.55,-0.95 0.54,-0.92 0.55,-0.87 0.55,-0.84 0.55,-0.8 0.55,-0.77 0.55,-0.73 0.54,-0.7 0.55,-0.67 0.55,-0.64 0.55,-0.62 0.55,-0.59 0.55,-0.56 0.54,-0.53 0.55,-0.52 0.55,-0.49 0.55,-0.47 0.55,-0.45 0.55,-0.43 0.54,-0.41 0.55,-0.39 0.55,-0.38 0.55,-0.35 0.55,-0.35 0.55,-0.32 0.54,-0.32 0.55,-0.3 0.55,-0.28 0.55,-0.27 0.55,-0.26 0.55,-0.25 0.54,-0.24 0.55,-0.22 0.55,-0.22 0.55,-0.21 0.55,-0.19 0.55,-0.19 0.54,-0.18 0.55,-0.17 0.55,-0.16 0.55,-0.15 0.55,-0.15 0.55,-0.14 0.54,-0.13 0.55,-0.13 0.55,-0.11 0.55,-0.12 0.55,-0.1 0.55,-0.1 0.54,-0.1 0.55,-0.08 0.55,-0.09 0.55,-0.07 0.55,-0.08 0.55,-0.06 0.54,-0.07 0.55,-0.05 0.55,-0.06 0.55,-0.04 0.55,-0.05 0.55,-0.03 0.54,-0.04 0.55,-0.03 0.55,-0.02 0.55,-0.02 0.55,-0.01 0.55,-0.01 h 0.54 0.55 l 0.55,0.01 0.55,0.01 0.55,0.02 0.55,0.02 0.54,0.03 0.55,0.04 0.55,0.05 0.55,0.05 0.55,0.06 0.55,0.07 0.54,0.08 0.55,0.09 0.55,0.1 0.55,0.12 0.55,0.12 0.55,0.14 0.54,0.16 0.55,0.17 0.55,0.19 0.55,0.21 0.55,0.24 0.55,0.25 0.54,0.29 0.55,0.32 0.55,0.36 0.55,0.39 0.55,0.44 0.55,0.48 0.54,0.54 0.55,0.61 0.55,0.67 0.55,0.74 0.55,0.83 0.55,0.93 0.54,1.03 0.55,1.14 0.55,1.25 0.55,1.37 0.55,1.47 0.55,1.57 0.54,1.66 0.55,1.7 0.55,1.7 0.55,1.67 0.55,1.6 0.55,1.52 0.54,1.42 0.55,1.33 0.55,1.24 0.55,1.17 0.55,1.1 0.55,1.05 0.55,1 0.54,0.97 0.55,0.92 0.55,0.89 0.55,0.85 0.55,0.82 0.55,0.77 0.54,0.74 0.55,0.69 0.55,0.64 0.55,0.6 0.55,0.55 0.55,0.5 0.54,0.44 0.55,0.39 0.55,0.33 0.55,0.28 0.55,0.22 0.55,0.16 0.54,0.11 0.55,0.05 0.55,-0.01 0.55,-0.06 0.55,-0.11 0.55,-0.16 0.54,-0.21 0.55,-0.25 0.55,-0.3 0.55,-0.34 0.55,-0.38 0.55,-0.42 0.54,-0.44 0.55,-0.48 0.55,-0.51 0.55,-0.53 0.55,-0.55 0.55,-0.58 0.54,-0.59 0.55,-0.6 0.55,-0.62 0.55,-0.64 0.55,-0.64 0.55,-0.64 0.54,-0.65 0.55,-0.66 0.55,-0.66 0.55,-0.65 0.55,-0.66 0.55,-0.65 0.54,-0.65 0.55,-0.65 0.55,-0.64 0.55,-0.63 0.55,-0.62 0.55,-0.62 0.54,-0.61 0.55,-0.6 0.55,-0.58 0.55,-0.58 0.55,-0.57 0.55,-0.55 0.54,-0.54 0.55,-0.53 0.55,-0.52 0.55,-0.51 0.55,-0.49 0.55,-0.48 0.54,-0.47 0.55,-0.45 0.55,-0.44 0.55,-0.43 0.55,-0.42 0.55,-0.4 0.54,-0.39 0.55,-0.38 0.55,-0.36 0.55,-0.35 0.55,-0.34 0.55,-0.32 0.54,-0.32 0.55,-0.3 0.55,-0.28 0.55,-0.28 0.55,-0.26 0.55,-0.25 0.54,-0.24 0.55,-0.22 0.55,-0.22 0.55,-0.2 0.55,-0.19 0.55,-0.18 0.54,-0.16 0.55,-0.15 0.55,-0.15 0.55,-0.12 0.55,-0.12 0.55,-0.11 0.54,-0.09 0.55,-0.08 0.55,-0.07 0.55,-0.05 0.55,-0.05 0.55,-0.03 0.54,-0.02 h 0.55 l 0.55,0.01 0.55,0.02 0.55,0.03 0.55,0.05 0.54,0.07 0.55,0.07 0.55,0.1 0.55,0.1 0.55,0.13 0.55,0.14 0.54,0.15 0.55,0.17 0.55,0.19 0.55,0.21 0.55,0.23 0.55,0.24 0.54,0.27 0.55,0.28 0.55,0.3 0.55,0.33 0.55,0.34 0.55,0.37 0.54,0.39 0.55,0.42 0.55,0.43 0.55,0.46 0.55,0.49 0.55,0.51 0.54,0.54 0.55,0.56 0.55,0.58 0.55,0.61 0.55,0.64 0.55,0.66 0.54,0.69 0.55,0.71 0.55,0.73 0.55,0.75"
         style="fill:none;stroke:#3ea44e;stroke-width:2;stroke-linecap:butt;stroke-linejoin:miter;stroke-miterlimit:10;stroke-dasharray:none;stroke-opacity:1"
         id="path146" />
      <path
         d="m 40.4,227.36 0.55,-1.22 0.55,-1.94 0.54,-2.65 0.55,-3.34 0.55,-3.99 0.55,-4.57 0.55,-5.07 0.55,-5.47 0.54,-5.78 0.55,-6 0.55,-6.12 0.55,-6.15 0.55,-6.13 0.55,-6.02 0.54,-5.87 0.55,-5.67 0.55,-5.44 0.55,-5.19 0.55,-4.91 0.55,-4.63 0.54,-4.34 0.55,-4.06 0.55,-3.78 0.55,-3.52 0.55,-3.25 0.55,-3.01 0.54,-2.77 0.55,-2.56 0.55,-2.35 0.55,-2.16 0.55,-1.98 0.55,-1.82 0.54,-1.66 0.55,-1.52 0.55,-1.39 0.55,-1.27 0.55,-1.16 0.55,-1.05 0.54,-0.96 0.55,-0.87 0.55,-0.79 0.55,-0.71 0.55,-0.64 0.55,-0.57 0.54,-0.51 0.55,-0.46 0.55,-0.4 0.55,-0.35 0.55,-0.3 0.55,-0.26 0.54,-0.21 0.55,-0.17 0.55,-0.14 0.55,-0.09 0.55,-0.07 0.55,-0.03 0.54,0.01 0.55,0.03 0.55,0.07 0.55,0.09 0.55,0.13 0.55,0.15 0.54,0.18 0.55,0.21 0.55,0.24 0.55,0.26 0.55,0.29 0.55,0.31 0.54,0.34 0.55,0.37 0.55,0.39 0.55,0.42 0.55,0.45 0.55,0.47 0.54,0.5 0.55,0.53 0.55,0.55 0.55,0.58 0.55,0.61 0.55,0.64 0.54,0.67 0.55,0.7 0.55,0.72 0.55,0.76 0.55,0.79 0.55,0.82 0.54,0.85 0.55,0.88 0.55,0.92 0.55,0.96 0.55,0.99 0.55,1.02 0.54,1.06 0.55,1.1 0.55,1.14 0.55,1.18 0.55,1.22 0.55,1.25 0.54,1.31 0.55,1.34 0.55,1.39 0.55,1.43 0.55,1.48 0.55,1.53 0.55,1.58 0.54,1.63 0.55,1.67 0.55,1.73 0.55,1.78 0.55,1.84 0.55,1.88 0.54,1.95 0.55,2 0.55,2.06 0.55,2.12 0.55,2.18 0.55,2.24 0.54,2.3 0.55,2.36 0.55,2.42 0.55,2.49 0.55,2.55 0.55,2.62 0.54,2.68 0.55,2.74 0.55,2.8 0.55,2.87 0.55,2.94 0.55,2.99 0.54,3.05 0.55,3.11 0.55,3.17 0.55,3.21 0.55,3.27 0.55,3.31 0.54,3.36 0.55,3.38 0.55,3.42 0.55,3.44 0.55,3.46 0.55,3.46 0.54,3.46 0.55,3.43 0.55,3.41 0.55,3.35 0.55,3.3 0.55,3.21 0.54,3.12 0.55,2.99 0.55,2.85 0.55,2.66 0.55,2.46 0.55,2.21 0.54,1.95 0.55,1.64 0.55,1.3 0.55,0.94 0.55,0.54 0.55,0.1 0.54,-0.36 0.55,-0.87 0.55,-1.4 0.55,-1.95 0.55,-2.5 0.55,-3.04 0.54,-3.57 0.55,-4.1 0.55,-4.58 0.55,-5.03 0.55,-5.44 0.55,-5.8 0.54,-6.09 0.55,-6.32 0.55,-6.47 0.55,-6.57 0.55,-6.58 0.55,-6.54 0.54,-6.43 0.55,-6.26 0.55,-6.06 0.55,-5.82 0.55,-5.55 0.55,-5.26 0.54,-4.97 0.55,-4.66 0.55,-4.38 0.55,-4.08 0.55,-3.79 0.55,-3.52 0.54,-3.26 0.55,-3.01 0.55,-2.78 0.55,-2.56 0.55,-2.36 0.55,-2.16 0.54,-1.98 0.55,-1.81 0.55,-1.66 0.55,-1.52 0.55,-1.39 0.55,-1.27 0.54,-1.15 0.55,-1.06 0.55,-0.96 0.55,-0.87 0.55,-0.79 0.55,-0.72 0.54,-0.65 0.55,-0.58 0.55,-0.52 0.55,-0.47 0.55,-0.41 0.55,-0.36 0.54,-0.31 0.55,-0.27 0.55,-0.23 0.55,-0.19 0.55,-0.15 0.55,-0.12 0.54,-0.08 0.55,-0.05 0.55,-0.01 0.55,0.01 0.55,0.04 0.55,0.07 0.54,0.1 0.55,0.12 0.55,0.15 0.55,0.18 0.55,0.2 0.55,0.23 0.54,0.25 0.55,0.28 0.55,0.3 0.55,0.32 0.55,0.35 0.55,0.38 0.54,0.4 0.55,0.42 0.55,0.45 0.55,0.48 0.55,0.49 0.55,0.53 0.54,0.55 0.55,0.57 0.55,0.61 0.55,0.63 0.55,0.65 0.55,0.69 0.54,0.71 0.55,0.74 0.55,0.78 0.55,0.8 0.55,0.83 0.55,0.86 0.54,0.9 0.55,0.93 0.55,0.96 0.55,0.99 0.55,1.04 0.55,1.06 0.54,1.1 0.55,1.14 0.55,1.18 0.55,1.22 0.55,1.25 0.55,1.3 0.54,1.34 0.55,1.38 0.55,1.42 0.55,1.47 0.55,1.51 0.55,1.56 0.54,1.61 0.55,1.65 0.55,1.7 0.55,1.76 0.55,1.8 0.55,1.85 0.54,1.9 0.55,1.96 0.55,2.01 0.55,2.06 0.55,2.12 0.55,2.17 0.54,2.22 0.55,2.27 0.55,2.33 0.55,2.39 0.55,2.44 0.55,2.49 0.54,2.55 0.55,2.61 0.55,2.66 0.55,2.71 0.55,2.76 0.55,2.81 0.54,2.84 0.55,2.89 0.55,2.92 0.55,2.94 0.55,2.97 0.55,2.98 0.54,3 0.55,2.99 0.55,2.99 0.55,2.97 0.55,2.95 0.55,2.93 0.54,2.88 0.55,2.82 0.55,2.73 0.55,2.62 0.55,2.48 0.55,2.33 0.54,2.14 0.55,1.93 0.55,1.7 0.55,1.44 0.55,1.15 0.55,0.85 0.54,0.51 0.55,0.16 0.55,-0.23 0.55,-0.64 0.55,-1.08 0.55,-1.54 0.54,-2.03 0.55,-2.54 0.55,-3.03 0.55,-3.5 0.55,-3.93 0.55,-4.31 0.54,-4.68 0.55,-4.98 0.55,-5.25 0.55,-5.48 0.55,-5.65 0.55,-5.77 0.54,-5.85 0.55,-5.85 0.55,-5.82 0.55,-5.71 0.55,-5.54 0.55,-5.36 0.54,-5.14 0.55,-4.92 0.55,-4.68 0.55,-4.42 0.55,-4.16 0.55,-3.88 0.54,-3.62 0.55,-3.34 0.55,-3.09 0.55,-2.83 0.55,-2.59 0.55,-2.37 0.54,-2.17 0.55,-1.99 0.55,-1.85 0.55,-1.73 0.55,-1.6 0.55,-1.47 0.54,-1.36 0.55,-1.23 0.55,-1.14 0.55,-1.04 0.55,-0.95 0.55,-0.87 0.54,-0.8 0.55,-0.73 0.55,-0.66 0.55,-0.61 0.55,-0.55 0.55,-0.5 0.54,-0.46 0.55,-0.41 0.55,-0.37 0.55,-0.34 0.55,-0.3 0.55,-0.27 0.54,-0.23 0.55,-0.21 0.55,-0.18 0.55,-0.15 0.55,-0.14 0.55,-0.1 0.54,-0.09 0.55,-0.07 0.55,-0.04 0.55,-0.03 0.55,-0.01 0.55,0.01 0.54,0.03 0.55,0.04 0.55,0.06 0.55,0.07 0.55,0.09 0.55,0.11 0.54,0.12 0.55,0.13 0.55,0.15 0.55,0.16 0.55,0.18 0.55,0.19 0.54,0.21 0.55,0.22 0.55,0.23 0.55,0.25 0.55,0.26 0.55,0.28 0.54,0.29 0.55,0.3 0.55,0.32 0.55,0.33 0.55,0.35 0.55,0.36 0.54,0.38 0.55,0.39 0.55,0.4 0.55,0.43 0.55,0.43 0.55,0.46 0.54,0.47 0.55,0.48 0.55,0.5 0.55,0.52 0.55,0.53 0.55,0.55 0.54,0.57 0.55,0.59 0.55,0.6 0.55,0.62 0.55,0.64 0.55,0.65 0.54,0.68 0.55,0.69 0.55,0.71 0.55,0.73 0.55,0.74 0.55,0.77 0.54,0.78 0.55,0.81 0.55,0.82 0.55,0.84 0.55,0.86 0.55,0.88 0.54,0.89 0.55,0.92 0.55,0.92 0.55,0.95 0.55,0.96 0.55,0.98 0.54,0.98 0.55,1.01 0.55,1.01 0.55,1.02 0.55,1.03 0.55,1.04 0.54,1.05 0.55,1.04 0.55,1.05 0.55,1.05 0.55,1.04 0.55,1.03 0.54,1.02 0.55,1.01 0.55,0.99 0.55,0.96 0.55,0.93 0.55,0.89 0.54,0.85 0.55,0.81 0.55,0.75 0.55,0.69 0.55,0.61 0.55,0.54 0.55,0.46 0.54,0.35 0.55,0.25 0.55,0.14 0.55,0.02 0.55,-0.11 0.55,-0.26 0.54,-0.4 0.55,-0.55 0.55,-0.72 0.55,-0.87 0.55,-1.04 0.55,-1.21 0.54,-1.37 0.55,-1.54 0.55,-1.68 0.55,-1.83 0.55,-1.96 0.55,-2.08 0.54,-2.17 0.55,-2.26 0.55,-2.31 0.55,-2.34 0.55,-2.36 0.55,-2.34 0.54,-2.31 0.55,-2.24 0.55,-2.17 0.55,-2.07 0.55,-1.96 0.55,-1.84 0.54,-1.71 0.55,-1.59 0.55,-1.45 0.55,-1.32 0.55,-1.21 0.55,-1.1 0.54,-0.99 0.55,-0.89 0.55,-0.8 0.55,-0.72 0.55,-0.65 0.55,-0.58 0.54,-0.52 0.55,-0.47 0.55,-0.41 0.55,-0.37 0.55,-0.33 0.55,-0.29 0.54,-0.26 0.55,-0.22 0.55,-0.2 0.55,-0.17 0.55,-0.14 0.55,-0.12 0.54,-0.1 0.55,-0.08 0.55,-0.06 0.55,-0.04 0.55,-0.02 0.55,-0.01 0.54,0.01 0.55,0.02 0.55,0.04 0.55,0.05 0.55,0.06 0.55,0.08 0.54,0.09 0.55,0.11 0.55,0.11 0.55,0.13 0.55,0.14 0.55,0.16 0.54,0.16 0.55,0.18 0.55,0.19 0.55,0.21 0.55,0.21 0.55,0.23 0.54,0.25 0.55,0.25 0.55,0.27 0.55,0.28 0.55,0.3 0.55,0.31 0.54,0.32 0.55,0.34 0.55,0.36 0.55,0.37 0.55,0.38 0.55,0.4 0.54,0.42 0.55,0.44 0.55,0.45 0.55,0.47 0.55,0.49 0.55,0.51 0.54,0.53 0.55,0.55 0.55,0.57 0.55,0.6 0.55,0.61 0.55,0.64 0.54,0.66 0.55,0.69 0.55,0.71 0.55,0.74 0.55,0.76 0.55,0.8 0.54,0.82 0.55,0.85 0.55,0.88 0.55,0.91 0.55,0.95 0.55,0.98 0.54,1.01 0.55,1.05 0.55,1.09 0.55,1.13 0.55,1.16 0.55,1.21 0.54,1.24 0.55,1.3 0.55,1.33 0.55,1.39 0.55,1.43 0.55,1.48 0.54,1.53 0.55,1.58 0.55,1.64 0.55,1.7 0.55,1.75 0.55,1.81 0.54,1.88 0.55,1.93 0.55,2.01 0.55,2.07 0.55,2.14 0.55,2.21 0.54,2.29 0.55,2.36 0.55,2.44 0.55,2.53 0.55,2.6 0.55,2.7 0.54,2.78 0.55,2.87 0.55,2.96 0.55,3.06 0.55,3.16 0.55,3.26 0.54,3.36 0.55,3.47 0.55,3.58 0.55,3.68 0.55,3.8 0.55,3.91 0.54,4.03 0.55,4.14 0.55,4.26 0.55,4.39 0.55,4.51 0.55,4.64 0.54,4.76 0.55,4.89 0.55,5 0.55,5.12 0.55,5.24 0.55,5.34 0.54,5.44 0.55,5.54 0.55,5.61 0.55,5.7 0.55,5.75 0.55,5.79 0.54,5.81 0.55,5.81 0.55,5.77 0.55,5.7 0.55,5.57 0.55,5.38 0.54,5.14 0.55,4.8 0.55,4.39 0.55,3.87 0.55,3.25 0.55,2.53 0.54,1.66 0.55,0.68 0.55,-0.45 0.55,-1.72 0.55,-3.15 0.55,-4.67 0.54,-6.25 0.55,-7.83 0.55,-9.36 0.55,-10.8 0.55,-12.09 0.55,-13.19 0.54,-13.95 0.55,-14.35 0.55,-14.45 0.55,-14.27 0.55,-13.84 0.55,-13.18 0.54,-12.34 0.55,-11.36 0.55,-10.36 0.55,-9.38 0.55,-8.42 0.55,-7.5 0.54,-6.63 0.55,-5.83 0.55,-5.11 0.55,-4.47 0.55,-3.93 0.55,-3.45 0.54,-3.02 0.55,-2.64 0.55,-2.32 0.55,-2.02 0.55,-1.78 0.55,-1.57 0.54,-1.37 0.55,-1.22 0.55,-1.07 0.55,-0.95 0.55,-0.84 0.55,-0.75 0.54,-0.67 0.55,-0.59 0.55,-0.52 0.55,-0.47 0.55,-0.42 0.55,-0.38 0.54,-0.33 0.55,-0.3 0.55,-0.26 0.55,-0.23 0.55,-0.21 0.55,-0.18 0.54,-0.16 0.55,-0.14 0.55,-0.11 0.55,-0.11 0.55,-0.08 0.55,-0.07 0.54,-0.06 0.55,-0.04 0.55,-0.03 0.55,-0.02 0.55,-0.01 0.55,0.01 0.54,0.01 0.55,0.03 0.55,0.03 0.55,0.05 0.55,0.05 0.55,0.06 0.54,0.07 0.55,0.08 0.55,0.09 0.55,0.1 0.55,0.1 0.55,0.12 0.54,0.12 0.55,0.13 0.55,0.14 0.55,0.15 0.55,0.16 0.55,0.17 0.54,0.17 0.55,0.18 0.55,0.2 0.55,0.2 0.55,0.21 0.55,0.23 0.54,0.23 0.55,0.24 0.55,0.25 0.55,0.27 0.55,0.27 0.55,0.29 0.54,0.29 0.55,0.31 0.55,0.32 0.55,0.34 0.55,0.35 0.55,0.35 0.54,0.38 0.55,0.39 0.55,0.4 0.55,0.41 0.55,0.43 0.55,0.45 0.54,0.47 0.55,0.48 0.55,0.49 0.55,0.52 0.55,0.53 0.55,0.55 0.54,0.57 0.55,0.59 0.55,0.62 0.55,0.63 0.55,0.65 0.55,0.68 0.54,0.7 0.55,0.72 0.55,0.75 0.55,0.77 0.55,0.8 0.55,0.83 0.54,0.85 0.55,0.88 0.55,0.92 0.55,0.94 0.55,0.97 0.55,1 0.54,1.04 0.55,1.07 0.55,1.1 0.55,1.14 0.55,1.18 0.55,1.21 0.54,1.25 0.55,1.3 0.55,1.33 0.55,1.37 0.55,1.41 0.55,1.46 0.54,1.51 0.55,1.54 0.55,1.59 0.55,1.64 0.55,1.69 0.55,1.73 0.54,1.79 0.55,1.83 0.55,1.88 0.55,1.93 0.55,1.98 0.55,2.03 0.54,2.08 0.55,2.13 0.55,2.17 0.55,2.22 0.55,2.27 0.55,2.31 0.54,2.35 0.55,2.38 0.55,2.42 0.55,2.45 0.55,2.47 0.55,2.48 0.54,2.49 0.55,2.48 0.55,2.48 0.55,2.44 0.55,2.4 0.55,2.35 0.54,2.26 0.55,2.17 0.55,2.05 0.55,1.9 0.55,1.73 0.55,1.54 0.54,1.33 0.55,1.1 0.55,0.86 0.55,0.62 0.55,0.38 0.55,0.16 0.54,-0.07 0.55,-0.26 0.55,-0.45 0.55,-0.63 0.55,-0.78 0.55,-0.93 0.55,-1.08 0.54,-1.2 0.55,-1.32 0.55,-1.44 0.55,-1.53 0.55,-1.63 0.55,-1.71 0.54,-1.78 0.55,-1.84 0.55,-1.9 0.55,-1.95 0.55,-1.97 0.55,-2.01 0.54,-2.02 0.55,-2.03 0.55,-2.03 0.55,-2.02 0.55,-2 0.55,-1.98 0.54,-1.96 0.55,-1.92 0.55,-1.88 0.55,-1.83 0.55,-1.79 0.55,-1.74 0.54,-1.69 0.55,-1.63 0.55,-1.57 0.55,-1.51 0.55,-1.45 0.55,-1.39 0.54,-1.33 0.55,-1.27 0.55,-1.21 0.55,-1.14 0.55,-1.09 0.55,-1.03 0.54,-0.97 0.55,-0.91 0.55,-0.85 0.55,-0.8 0.55,-0.75 0.55,-0.69 0.54,-0.64 0.55,-0.6 0.55,-0.54 0.55,-0.49 0.55,-0.45 0.55,-0.4 0.54,-0.36 0.55,-0.32 0.55,-0.27 0.55,-0.23 0.55,-0.19 0.55,-0.16 0.54,-0.11 0.55,-0.08 0.55,-0.03 0.55,-0.01 0.55,0.03 0.55,0.07 0.54,0.1 0.55,0.14 0.55,0.16 0.55,0.2 0.55,0.24 0.55,0.26 0.54,0.3 0.55,0.33 0.55,0.35 0.55,0.39 0.55,0.42 0.55,0.45 0.54,0.48 0.55,0.51 0.55,0.53 0.55,0.57 0.55,0.6 0.55,0.62 0.54,0.66 0.55,0.68 0.55,0.71 0.55,0.74 0.55,0.77 0.55,0.8 0.54,0.83 0.55,0.85 0.55,0.89 0.55,0.91 0.55,0.94 0.55,0.96 0.54,1 0.55,1.02 0.55,1.05 0.55,1.07 0.55,1.1 0.55,1.13 0.54,1.15 0.55,1.18 0.55,1.21 0.55,1.22 0.55,1.25 0.55,1.28 0.54,1.29 0.55,1.32 0.55,1.34 0.55,1.35 0.55,1.38 0.55,1.39 0.54,1.41 0.55,1.42 0.55,1.43 0.55,1.44 0.55,1.45 0.55,1.46 0.54,1.46 0.55,1.46 0.55,1.46 0.55,1.46 0.55,1.45 0.55,1.45 0.54,1.42 0.55,1.42 0.55,1.39 0.55,1.37 0.55,1.33 0.55,1.31 0.54,1.27 0.55,1.23 0.55,1.18 0.55,1.12 0.55,1.08 0.55,1.01 0.54,0.94 0.55,0.87 0.55,0.79 0.55,0.71 0.55,0.62 0.55,0.52 0.54,0.43 0.55,0.33 0.55,0.21 0.55,0.11"
         style="fill:none;stroke:#c371d2;stroke-width:2;stroke-linecap:butt;stroke-linejoin:miter;stroke-miterlimit:10;stroke-dasharray:none;stroke-opacity:1"
         id="path148" />
      <g
         id="g150">
        <g
           id="g152"
           clip-path="url(#clipPath156)">
          <path
             d="m 473.19,282.7 h 96.74 v 75.6 h -96.74"
             style="fill:#ffffff;fill-opacity:1;fill-rule:evenodd;stroke:none"
             id="path158" />
        </g>
      </g>
      <path
         d="m 473.19,282.7 h 96.74 v 75.6 h -96.74 v -75.6"
         style="fill:none;stroke:#000000;stroke-width:1;stroke-linecap:butt;stroke-linejoin:miter;stroke-miterlimit:10;stroke-dasharray:none;stroke-opacity:1"
         id="path160" />
      <path
         d="M 479.28,343.18 H 515.8"
         style="fill:none;stroke:#009afa;stroke-width:1;stroke-linecap:butt;stroke-linejoin:miter;stroke-miterlimit:10;stroke-dasharray:none;stroke-opacity:1"
         id="path162" />
      <path
         d="m 525.68,344.35 c 0,0 -0.18,0.1 -0.39,0.15 0,0 -0.21,0.05 -0.47,0.05 0,0 -0.9,0 -1.39,-0.59 0,0 -0.48,-0.59 -0.48,-1.68 v -3.42 h -1.07 v 6.48 h 1.07 v -1 c 0,0 0.34,0.59 0.88,0.87 0,0 0.54,0.29 1.3,0.29 0,0 0.11,0 0.25,-0.02 0,0 0.13,-0.01 0.29,-0.04 z"
         style="fill:#000000;fill-opacity:1;fill-rule:evenodd;stroke:none"
         id="path164" />
      <path
         d="m 529.74,342.12 c 0,0 -1.29,0 -1.79,-0.3 0,0 -0.49,-0.29 -0.49,-1 0,0 0,-0.57 0.37,-0.91 0,0 0.37,-0.33 1.01,-0.33 0,0 0.89,0 1.42,0.63 0,0 0.54,0.63 0.54,1.67 v 0.24 h -1.06 m 2.13,0.44 v -3.7 h -1.07 v 0.98 c 0,0 -0.36,-0.59 -0.91,-0.87 0,0 -0.54,-0.28 -1.33,-0.28 0,0 -0.99,0 -1.58,0.56 0,0 -0.59,0.56 -0.59,1.5 0,0 0,1.09 0.73,1.65 0,0 0.73,0.55 2.19,0.55 h 1.49 v 0.11 c 0,0 0,0.73 -0.49,1.13 0,0 -0.48,0.41 -1.35,0.41 0,0 -0.56,0 -1.08,-0.14 0,0 -0.53,-0.13 -1.01,-0.4 v 0.99 c 0,0 0.58,0.22 1.13,0.33 0,0 0.55,0.12 1.07,0.12 0,0 1.41,0 2.1,-0.73 0,0 0.7,-0.73 0.7,-2.21 z"
         style="fill:#000000;fill-opacity:1;fill-rule:evenodd;stroke:none"
         id="path166" />
      <path
         d="m 537.63,342.1 c 0,0 0,1.17 -0.48,1.84 0,0 -0.48,0.67 -1.33,0.67 0,0 -0.84,0 -1.33,-0.67 0,0 -0.48,-0.67 -0.48,-1.84 0,0 0,-1.18 0.48,-1.85 0,0 0.49,-0.67 1.33,-0.67 0,0 0.85,0 1.33,0.67 0,0 0.48,0.67 0.48,1.85 m -3.62,2.26 c 0,0 0.34,0.58 0.85,0.86 0,0 0.51,0.28 1.22,0.28 0,0 1.18,0 1.92,-0.94 0,0 0.74,-0.94 0.74,-2.46 0,0 0,-1.53 -0.74,-2.47 0,0 -0.74,-0.94 -1.92,-0.94 0,0 -0.71,0 -1.22,0.28 0,0 -0.51,0.28 -0.85,0.86 v -0.97 h -1.07 v 9.01 h 1.07 z"
         style="fill:#000000;fill-opacity:1;fill-rule:evenodd;stroke:none"
         id="path168" />
      <path
         d="m 544.51,342.1 c 0,0 0,1.17 -0.49,1.84 0,0 -0.48,0.67 -1.32,0.67 0,0 -0.85,0 -1.33,-0.67 0,0 -0.48,-0.67 -0.48,-1.84 0,0 0,-1.18 0.48,-1.85 0,0 0.48,-0.67 1.33,-0.67 0,0 0.84,0 1.32,0.67 0,0 0.49,0.67 0.49,1.85 m -3.62,2.26 c 0,0 0.33,0.58 0.84,0.86 0,0 0.52,0.28 1.23,0.28 0,0 1.18,0 1.91,-0.94 0,0 0.75,-0.94 0.75,-2.46 0,0 0,-1.53 -0.75,-2.47 0,0 -0.73,-0.94 -1.91,-0.94 0,0 -0.71,0 -1.23,0.28 0,0 -0.51,0.28 -0.84,0.86 v -0.97 h -1.07 v 9.01 h 1.07 z"
         style="fill:#000000;fill-opacity:1;fill-rule:evenodd;stroke:none"
         id="path170" />
      <path
         d="m 546.73,345.34 h 1.07 v -6.48 h -1.07 v 6.48 m 0,2.53 h 1.07 v -1.35 h -1.07 z"
         style="fill:#000000;fill-opacity:1;fill-rule:evenodd;stroke:none"
         id="path172" />
      <path
         d="m 549.97,347.18 v -1.84 h 2.19 v -0.83 h -2.19 V 341 c 0,0 0,-0.8 0.21,-1.02 0,0 0.22,-0.23 0.89,-0.23 h 1.09 v -0.89 h -1.09 c 0,0 -1.24,0 -1.7,0.46 0,0 -0.47,0.46 -0.47,1.68 v 3.51 h -0.78 v 0.83 h 0.78 v 1.84 z"
         style="fill:#000000;fill-opacity:1;fill-rule:evenodd;stroke:none"
         id="path174" />
      <path
         d="m 557.41,345.15 v -1.01 c 0,0 -0.45,0.24 -0.94,0.35 0,0 -0.48,0.12 -1.01,0.12 0,0 -0.79,0 -1.19,-0.25 0,0 -0.39,-0.24 -0.39,-0.72 0,0 0,-0.38 0.28,-0.59 0,0 0.29,-0.21 1.14,-0.4 l 0.37,-0.08 c 0,0 1.13,-0.24 1.61,-0.69 0,0 0.48,-0.44 0.48,-1.23 0,0 0,-0.9 -0.72,-1.43 0,0 -0.71,-0.53 -1.96,-0.53 0,0 -0.52,0 -1.09,0.11 0,0 -0.56,0.1 -1.19,0.3 v 1.1 c 0,0 0.59,-0.31 1.17,-0.47 0,0 0.57,-0.15 1.13,-0.15 0,0 0.75,0 1.16,0.26 0,0 0.4,0.26 0.4,0.73 0,0 0,0.43 -0.29,0.66 0,0 -0.29,0.24 -1.28,0.45 l -0.37,0.09 c 0,0 -0.99,0.2 -1.43,0.63 0,0 -0.44,0.44 -0.44,1.19 0,0 0,0.91 0.65,1.41 0,0 0.65,0.5 1.84,0.5 0,0 0.59,0 1.11,-0.09 0,0 0.52,-0.08 0.96,-0.26 z"
         style="fill:#000000;fill-opacity:1;fill-rule:evenodd;stroke:none"
         id="path176" />
      <path
         d="M 479.28,328.06 H 515.8"
         style="fill:none;stroke:#e36f47;stroke-width:1;stroke-linecap:butt;stroke-linejoin:miter;stroke-miterlimit:10;stroke-dasharray:none;stroke-opacity:1"
         id="path178" />
      <path
         d="m 526.01,332.75 v -0.89 h -1.02 c 0,0 -0.57,0 -0.8,-0.23 0,0 -0.22,-0.23 -0.22,-0.83 v -0.58 h 1.76 v -0.83 h -1.76 v -5.65 h -1.07 v 5.65 h -1.02 v 0.83 h 1.02 v 0.45 c 0,0 0,1.09 0.5,1.58 0,0 0.51,0.5 1.6,0.5 z"
         style="fill:#000000;fill-opacity:1;fill-rule:evenodd;stroke:none"
         id="path180" />
      <path
         d="m 529.64,329.48 c 0,0 -0.86,0 -1.36,-0.68 0,0 -0.49,-0.66 -0.49,-1.82 0,0 0,-1.17 0.49,-1.84 0,0 0.49,-0.66 1.36,-0.66 0,0 0.85,0 1.35,0.67 0,0 0.49,0.67 0.49,1.83 0,0 0,1.15 -0.49,1.82 0,0 -0.5,0.68 -1.35,0.68 m 0,0.9 c 0,0 1.39,0 2.18,-0.9 0,0 0.79,-0.91 0.79,-2.5 0,0 0,-1.6 -0.79,-2.5 0,0 -0.79,-0.91 -2.18,-0.91 0,0 -1.4,0 -2.19,0.91 0,0 -0.79,0.9 -0.79,2.5 0,0 0,1.59 0.79,2.5 0,0 0.79,0.9 2.19,0.9 z"
         style="fill:#000000;fill-opacity:1;fill-rule:evenodd;stroke:none"
         id="path182" />
      <path
         d="m 538.75,330.22 -2.34,-3.15 2.46,-3.33 h -1.25 l -1.89,2.55 -1.89,-2.55 h -1.25 l 2.52,3.39 -2.31,3.09 h 1.26 l 1.72,-2.31 1.72,2.31 z"
         style="fill:#000000;fill-opacity:1;fill-rule:evenodd;stroke:none"
         id="path184" />
      <path
         d="m 545.17,327.25 v -0.52 h -4.9 c 0,0 0.07,-1.1 0.66,-1.68 0,0 0.6,-0.57 1.66,-0.57 0,0 0.61,0 1.18,0.15 0,0 0.58,0.15 1.15,0.45 v -1.01 c 0,0 -0.57,-0.24 -1.17,-0.37 0,0 -0.61,-0.13 -1.23,-0.13 0,0 -1.55,0 -2.45,0.91 0,0 -0.91,0.9 -0.91,2.44 0,0 0,1.59 0.86,2.52 0,0 0.86,0.94 2.32,0.94 0,0 1.31,0 2.07,-0.85 0,0 0.76,-0.84 0.76,-2.28 m -1.07,0.31 c 0,0 -0.01,0.87 -0.49,1.4 0,0 -0.47,0.52 -1.26,0.52 0,0 -0.89,0 -1.43,-0.51 0,0 -0.53,-0.5 -0.61,-1.42 z"
         style="fill:#000000;fill-opacity:1;fill-rule:evenodd;stroke:none"
         id="path186" />
      <path
         d="m 550.42,330.03 v -1.01 c 0,0 -0.45,0.24 -0.94,0.35 0,0 -0.49,0.12 -1.01,0.12 0,0 -0.79,0 -1.19,-0.25 0,0 -0.39,-0.24 -0.39,-0.72 0,0 0,-0.38 0.28,-0.59 0,0 0.29,-0.21 1.14,-0.4 l 0.37,-0.08 c 0,0 1.13,-0.24 1.61,-0.69 0,0 0.48,-0.44 0.48,-1.23 0,0 0,-0.9 -0.72,-1.43 0,0 -0.71,-0.53 -1.96,-0.53 0,0 -0.52,0 -1.09,0.11 0,0 -0.56,0.1 -1.19,0.3 v 1.1 c 0,0 0.59,-0.31 1.17,-0.47 0,0 0.57,-0.15 1.13,-0.15 0,0 0.75,0 1.16,0.26 0,0 0.4,0.26 0.4,0.73 0,0 0,0.43 -0.29,0.66 0,0 -0.29,0.24 -1.28,0.45 l -0.37,0.09 c 0,0 -0.99,0.2 -1.43,0.63 0,0 -0.44,0.44 -0.44,1.19 0,0 0,0.91 0.65,1.41 0,0 0.64,0.5 1.84,0.5 0,0 0.59,0 1.11,-0.09 0,0 0.52,-0.08 0.96,-0.26 z"
         style="fill:#000000;fill-opacity:1;fill-rule:evenodd;stroke:none"
         id="path188" />
      <path
         d="M 479.28,312.94 H 515.8"
         style="fill:none;stroke:#3ea44e;stroke-width:1;stroke-linecap:butt;stroke-linejoin:miter;stroke-miterlimit:10;stroke-dasharray:none;stroke-opacity:1"
         id="path190" />
      <path
         d="m 527.31,312.53 v -3.91 h -1.06 v 3.88 c 0,0 0,0.92 -0.36,1.38 0,0 -0.36,0.45 -1.08,0.45 0,0 -0.86,0 -1.36,-0.55 0,0 -0.5,-0.55 -0.5,-1.5 v -3.66 h -1.07 v 9.01 h 1.07 v -3.53 c 0,0 0.39,0.58 0.9,0.87 0,0 0.52,0.29 1.2,0.29 0,0 1.11,0 1.69,-0.7 0,0 0.57,-0.68 0.57,-2.03 z"
         style="fill:#000000;fill-opacity:1;fill-rule:evenodd;stroke:none"
         id="path192" />
      <path
         d="m 531.37,311.88 c 0,0 -1.29,0 -1.78,-0.3 0,0 -0.5,-0.29 -0.5,-1 0,0 0,-0.57 0.37,-0.91 0,0 0.37,-0.33 1.02,-0.33 0,0 0.88,0 1.41,0.63 0,0 0.54,0.63 0.54,1.67 v 0.24 h -1.06 m 2.13,0.44 v -3.7 h -1.07 v 0.98 c 0,0 -0.36,-0.59 -0.91,-0.87 0,0 -0.54,-0.28 -1.33,-0.28 0,0 -0.99,0 -1.58,0.56 0,0 -0.59,0.56 -0.59,1.5 0,0 0,1.09 0.73,1.65 0,0 0.74,0.55 2.19,0.55 h 1.49 v 0.11 c 0,0 0,0.73 -0.48,1.13 0,0 -0.48,0.41 -1.36,0.41 0,0 -0.55,0 -1.08,-0.14 0,0 -0.53,-0.13 -1.01,-0.4 v 0.99 c 0,0 0.58,0.22 1.13,0.33 0,0 0.55,0.12 1.07,0.12 0,0 1.41,0 2.1,-0.73 0,0 0.7,-0.73 0.7,-2.21 z"
         style="fill:#000000;fill-opacity:1;fill-rule:evenodd;stroke:none"
         id="path194" />
      <path
         d="m 533.99,315.1 h 1.07 l 1.33,-5.06 1.33,5.06 h 1.25 l 1.33,-5.06 1.33,5.06 h 1.06 L 541,308.62 h -1.26 l -1.39,5.31 -1.4,-5.31 h -1.26 z"
         style="fill:#000000;fill-opacity:1;fill-rule:evenodd;stroke:none"
         id="path196" />
      <path
         d="m 543.77,317.63 h 1.07 v -5.32 l 3.18,2.79 h 1.36 l -3.44,-3.03 3.58,-3.45 h -1.39 l -3.29,3.17 v -3.17 h -1.07 z"
         style="fill:#000000;fill-opacity:1;fill-rule:evenodd;stroke:none"
         id="path198" />
      <path
         d="m 554.77,314.91 v -1.01 c 0,0 -0.45,0.24 -0.94,0.35 0,0 -0.48,0.12 -1,0.12 0,0 -0.8,0 -1.2,-0.25 0,0 -0.39,-0.24 -0.39,-0.72 0,0 0,-0.38 0.28,-0.59 0,0 0.29,-0.21 1.14,-0.4 l 0.37,-0.08 c 0,0 1.13,-0.24 1.61,-0.69 0,0 0.48,-0.44 0.48,-1.23 0,0 0,-0.9 -0.72,-1.43 0,0 -0.71,-0.53 -1.96,-0.53 0,0 -0.52,0 -1.09,0.11 0,0 -0.56,0.1 -1.19,0.3 v 1.1 c 0,0 0.59,-0.31 1.17,-0.47 0,0 0.57,-0.15 1.13,-0.15 0,0 0.75,0 1.16,0.26 0,0 0.4,0.26 0.4,0.73 0,0 0,0.43 -0.29,0.66 0,0 -0.29,0.24 -1.28,0.45 l -0.37,0.09 c 0,0 -0.99,0.2 -1.43,0.63 0,0 -0.44,0.44 -0.44,1.19 0,0 0,0.91 0.65,1.41 0,0 0.65,0.5 1.84,0.5 0,0 0.59,0 1.11,-0.09 0,0 0.52,-0.08 0.96,-0.26 z"
         style="fill:#000000;fill-opacity:1;fill-rule:evenodd;stroke:none"
         id="path200" />
      <path
         d="M 479.28,297.82 H 515.8"
         style="fill:none;stroke:#c371d2;stroke-width:1;stroke-linecap:butt;stroke-linejoin:miter;stroke-miterlimit:10;stroke-dasharray:none;stroke-opacity:1"
         id="path202" />
      <path
         d="m 526.01,302.51 v -0.89 h -1.02 c 0,0 -0.57,0 -0.8,-0.23 0,0 -0.22,-0.23 -0.22,-0.83 v -0.58 h 1.76 v -0.83 h -1.76 v -5.65 h -1.07 v 5.65 h -1.02 v 0.83 h 1.02 v 0.45 c 0,0 0,1.09 0.5,1.58 0,0 0.51,0.5 1.6,0.5 z"
         style="fill:#000000;fill-opacity:1;fill-rule:evenodd;stroke:none"
         id="path204" />
      <path
         d="m 527.13,299.98 h 1.06 v -6.48 h -1.06 v 6.48 m 0,2.53 h 1.06 v -1.35 h -1.06 z"
         style="fill:#000000;fill-opacity:1;fill-rule:evenodd;stroke:none"
         id="path206" />
      <path
         d="m 533.44,299.79 v -1.01 c 0,0 -0.45,0.24 -0.94,0.35 0,0 -0.48,0.12 -1.01,0.12 0,0 -0.79,0 -1.19,-0.25 0,0 -0.39,-0.24 -0.39,-0.72 0,0 0,-0.38 0.28,-0.59 0,0 0.29,-0.21 1.14,-0.4 l 0.37,-0.08 c 0,0 1.13,-0.24 1.61,-0.69 0,0 0.48,-0.44 0.48,-1.23 0,0 0,-0.9 -0.72,-1.43 0,0 -0.71,-0.53 -1.96,-0.53 0,0 -0.52,0 -1.09,0.11 0,0 -0.56,0.1 -1.19,0.3 v 1.1 c 0,0 0.59,-0.31 1.17,-0.47 0,0 0.57,-0.15 1.13,-0.15 0,0 0.75,0 1.16,0.26 0,0 0.4,0.26 0.4,0.73 0,0 0,0.43 -0.29,0.66 0,0 -0.29,0.24 -1.28,0.45 l -0.37,0.09 c 0,0 -0.99,0.2 -1.43,0.63 0,0 -0.44,0.44 -0.44,1.19 0,0 0,0.91 0.65,1.41 0,0 0.65,0.5 1.84,0.5 0,0 0.59,0 1.11,-0.09 0,0 0.52,-0.08 0.96,-0.26 z"
         style="fill:#000000;fill-opacity:1;fill-rule:evenodd;stroke:none"
         id="path208" />
      <path
         d="m 540.29,297.41 v -3.91 h -1.06 v 3.88 c 0,0 0,0.92 -0.36,1.38 0,0 -0.36,0.45 -1.08,0.45 0,0 -0.86,0 -1.36,-0.55 0,0 -0.5,-0.55 -0.5,-1.5 v -3.66 h -1.07 v 9.01 h 1.07 v -3.53 c 0,0 0.39,0.58 0.9,0.87 0,0 0.52,0.29 1.2,0.29 0,0 1.12,0 1.69,-0.7 0,0 0.57,-0.68 0.57,-2.03 z"
         style="fill:#000000;fill-opacity:1;fill-rule:evenodd;stroke:none"
         id="path210" />
    </g>
  </g>
</svg>
