<?xml version="1.0" encoding="UTF-8" standalone="no"?>
<!DOCTYPE svg PUBLIC "-//W3C//DTD SVG 1.1//EN"
 "http://www.w3.org/Graphics/SVG/1.1/DTD/svg11.dtd">
<!-- Generated by graphviz version 2.44.1 (0)
 -->
<!-- Title: G Pages: 1 -->
<svg width="129pt" height="190pt"
 viewBox="0.00 0.00 128.55 190.46" xmlns="http://www.w3.org/2000/svg" xmlns:xlink="http://www.w3.org/1999/xlink">
<g id="graph0" class="graph" transform="scale(1 1) rotate(0) translate(4 186.46)">
<title>G</title>
<polygon fill="white" stroke="transparent" points="-4,4 -4,-186.46 124.55,-186.46 124.55,4 -4,4"/>
<!-- n1 -->
<g id="box1" class="node">
<title>n1</title>
<ellipse fill="none" stroke="black" cx="59.27" cy="-91.58" rx="43.62" ry="18"/>
<text text-anchor="middle" x="59.27" y="-87.88" font-family="Serif" font-size="14.00">crossexp12</text>
</g>
<!-- n6 -->
<!-- junction -->
<g id="junction1" class="node">
<title>n6</title>
<ellipse fill="black" stroke="black" cx="59.08" cy="-136.68" rx="2.5" ry="2.5"/>
<text text-anchor="middle" x="41.08" y="-142.98" font-family="Serif" font-size="14.00">pop1</text>
</g>
<!-- n1&#45;&#45;n6 -->
<g id="edge1" class="edge">
<title>n1&#45;&#45;n6</title>
<path fill="none" stroke="black" d="M59.2,-109.66C59.16,-118.88 59.12,-129.13 59.09,-133.92"/>
</g>
<!-- n7 -->
<!-- junction -->
<g id="junction2" class="node">
<title>n7</title>
<ellipse fill="black" stroke="black" cx="60.87" cy="-46.5" rx="2.5" ry="2.5"/>
<text text-anchor="middle" x="42.87" y="-52.8" font-family="Serif" font-size="14.00">pop2</text>
</g>
<!-- n1&#45;&#45;n7 -->
<g id="edge4" class="edge">
<title>n1&#45;&#45;n7</title>
<path fill="none" stroke="black" d="M59.91,-73.5C60.24,-64.29 60.6,-54.05 60.77,-49.26"/>
</g>
<!-- n2 -->
<g id="box2" class="node">
<title>n2</title>
<ellipse fill="none" stroke="black" cx="95.24" cy="-164.46" rx="25.13" ry="18"/>
<text text-anchor="middle" x="95.24" y="-160.76" font-family="Serif" font-size="14.00">coex1</text>
</g>
<!-- n2&#45;&#45;n6 -->
<g id="edge2" class="edge">
<title>n2&#45;&#45;n6</title>
<path fill="none" stroke="black" d="M78.01,-151.22C71.31,-146.08 64.47,-140.81 61.14,-138.26"/>
</g>
<!-- n3 -->
<g id="box3" class="node">
<title>n3</title>
<ellipse fill="none" stroke="black" cx="25.31" cy="-18" rx="25.13" ry="18"/>
<text text-anchor="middle" x="25.31" y="-14.3" font-family="Serif" font-size="14.00">coex2</text>
</g>
<!-- n3&#45;&#45;n7 -->
<g id="edge5" class="edge">
<title>n3&#45;&#45;n7</title>
<path fill="none" stroke="black" d="M42.26,-31.58C48.84,-36.86 55.57,-42.26 58.84,-44.88"/>
</g>
<!-- n4 -->
<!-- n4&#45;&#45;n6 -->
<g id="edge3" class="edge">
<title>n4&#45;&#45;n6</title>
<path fill="none" stroke="black" d="M23.33,-163.08C28.01,-159.63 49.46,-143.79 56.69,-138.44"/>
</g>
<!-- n5 -->
<!-- n5&#45;&#45;n7 -->
<g id="edge6" class="edge">
<title>n5&#45;&#45;n7</title>
<path fill="none" stroke="black" d="M97.45,-20.63C93.28,-23.58 70.1,-39.97 62.96,-45.02"/>
</g>
</g>
</svg>
