<?xml version="1.0" encoding="UTF-8" standalone="no"?>
<!DOCTYPE svg PUBLIC "-//W3C//DTD SVG 1.1//EN"
 "http://www.w3.org/Graphics/SVG/1.1/DTD/svg11.dtd">
<!-- Generated by graphviz version 2.44.1 (0)
 -->
<!-- Title: G Pages: 1 -->
<svg width="585pt" height="489pt"
 viewBox="0.00 0.00 585.00 489.00" xmlns="http://www.w3.org/2000/svg" xmlns:xlink="http://www.w3.org/1999/xlink">
<g id="graph0" class="graph" transform="scale(1 1) rotate(0) translate(4 485)">
<title>G</title>
<polygon fill="white" stroke="transparent" points="-4,4 -4,-485 581,-485 581,4 -4,4"/>
<!-- n1 -->
<g id="box1" class="node">
<title>n1</title>
<ellipse fill="none" stroke="black" cx="229.53" cy="-323.98" rx="37.17" ry="18"/>
<text text-anchor="middle" x="229.53" y="-320.28" font-family="Serif" font-size="14.00">exposure</text>
</g>
<!-- n20 -->
<!-- junction -->
<g id="junction1" class="node">
<title>n20</title>
<ellipse fill="black" stroke="black" cx="133.29" cy="-266.23" rx="2.5" ry="2.5"/>
<text text-anchor="middle" x="127.79" y="-272.53" font-family="Serif" font-size="14.00">s</text>
</g>
<!-- n1&#45;&#45;n20 -->
<g id="edge1" class="edge">
<title>n1&#45;&#45;n20</title>
<path fill="none" stroke="black" d="M205.74,-309.71C181.02,-294.87 144.69,-273.07 135.47,-267.54"/>
</g>
<!-- n21 -->
<!-- junction -->
<g id="junction2" class="node">
<title>n21</title>
<ellipse fill="black" stroke="black" cx="198.75" cy="-246.61" rx="2.5" ry="2.5"/>
<text text-anchor="middle" x="192.75" y="-252.91" font-family="Serif" font-size="14.00">e</text>
</g>
<!-- n1&#45;&#45;n21 -->
<g id="edge6" class="edge">
<title>n1&#45;&#45;n21</title>
<path fill="none" stroke="black" d="M222.39,-306.04C214.72,-286.75 203.17,-257.71 199.74,-249.1"/>
</g>
<!-- n22 -->
<!-- junction -->
<g id="junction3" class="node">
<title>n22</title>
<ellipse fill="black" stroke="black" cx="358.29" cy="-310.97" rx="2.5" ry="2.5"/>
<text text-anchor="middle" x="353.79" y="-317.27" font-family="Serif" font-size="14.00">i</text>
</g>
<!-- n1&#45;&#45;n22 -->
<g id="edge14" class="edge">
<title>n1&#45;&#45;n22</title>
<path fill="none" stroke="black" d="M266.08,-320.29C299.09,-316.95 344.19,-312.39 355.59,-311.24"/>
</g>
<!-- n2 -->
<g id="box2" class="node">
<title>n2</title>
<ellipse fill="none" stroke="black" cx="275.01" cy="-279.95" rx="47.86" ry="18"/>
<text text-anchor="middle" x="275.01" y="-276.25" font-family="Serif" font-size="14.00">exposure_i2</text>
</g>
<!-- n2&#45;&#45;n20 -->
<g id="edge2" class="edge">
<title>n2&#45;&#45;n20</title>
<path fill="none" stroke="black" d="M228.61,-275.45C192.76,-271.98 147.4,-267.59 135.99,-266.49"/>
</g>
<!-- n2&#45;&#45;n21 -->
<g id="edge7" class="edge">
<title>n2&#45;&#45;n21</title>
<path fill="none" stroke="black" d="M243.56,-266.2C226.49,-258.74 207.58,-250.47 201.09,-247.63"/>
</g>
<!-- n23 -->
<!-- junction -->
<g id="junction4" class="node">
<title>n23</title>
<ellipse fill="black" stroke="black" cx="426.85" cy="-271.94" rx="2.5" ry="2.5"/>
<text text-anchor="middle" x="418.35" y="-278.24" font-family="Serif" font-size="14.00">i2</text>
</g>
<!-- n2&#45;&#45;n23 -->
<g id="edge18" class="edge">
<title>n2&#45;&#45;n23</title>
<path fill="none" stroke="black" d="M322.64,-277.44C361.6,-275.38 412.17,-272.72 424.2,-272.08"/>
</g>
<!-- n3 -->
<g id="box3" class="node">
<title>n3</title>
<ellipse fill="none" stroke="black" cx="81.95" cy="-168.51" rx="44.98" ry="18"/>
<text text-anchor="middle" x="81.95" y="-164.81" font-family="Serif" font-size="14.00">exposure_a</text>
</g>
<!-- n3&#45;&#45;n20 -->
<g id="edge3" class="edge">
<title>n3&#45;&#45;n20</title>
<path fill="none" stroke="black" d="M91.37,-186.43C104.33,-211.12 126.7,-253.7 132.09,-263.95"/>
</g>
<!-- n3&#45;&#45;n21 -->
<g id="edge8" class="edge">
<title>n3&#45;&#45;n21</title>
<path fill="none" stroke="black" d="M105.03,-183.94C135.08,-204.03 185.12,-237.49 196.43,-245.06"/>
</g>
<!-- n24 -->
<!-- junction -->
<g id="junction5" class="node">
<title>n24</title>
<ellipse fill="black" stroke="black" cx="245.82" cy="-119.95" rx="2.5" ry="2.5"/>
<text text-anchor="middle" x="239.82" y="-126.25" font-family="Serif" font-size="14.00">a</text>
</g>
<!-- n3&#45;&#45;n24 -->
<g id="edge23" class="edge">
<title>n3&#45;&#45;n24</title>
<path fill="none" stroke="black" d="M118.32,-157.73C161.31,-144.99 228.86,-124.98 243.12,-120.75"/>
</g>
<!-- n4 -->
<g id="box4" class="node">
<title>n4</title>
<ellipse fill="none" stroke="black" cx="129.33" cy="-323.83" rx="44.98" ry="18"/>
<text text-anchor="middle" x="129.33" y="-320.13" font-family="Serif" font-size="14.00">exposure_e</text>
</g>
<!-- n4&#45;&#45;n20 -->
<g id="edge4" class="edge">
<title>n4&#45;&#45;n20</title>
<path fill="none" stroke="black" d="M130.58,-305.61C131.5,-292.16 132.67,-275.14 133.11,-268.78"/>
</g>
<!-- n4&#45;&#45;n21 -->
<g id="edge9" class="edge">
<title>n4&#45;&#45;n21</title>
<path fill="none" stroke="black" d="M151.66,-307.95C170.97,-289.11 195.97,-259.36 198.92,-249.52"/>
</g>
<!-- n4&#45;&#45;n21 -->
<g id="edge10" class="edge">
<title>n4&#45;&#45;n21</title>
<path fill="none" stroke="black" d="M138.07,-306.08C153.96,-284.46 185.82,-250.71 196.04,-246.68"/>
</g>
<!-- n5 -->
<g id="box5" class="node">
<title>n5</title>
<ellipse fill="none" stroke="black" cx="224.17" cy="-172.16" rx="89.45" ry="18"/>
<text text-anchor="middle" x="224.17" y="-168.46" font-family="Serif" font-size="14.00">asymptomatic_infection</text>
</g>
<!-- n5&#45;&#45;n21 -->
<g id="edge11" class="edge">
<title>n5&#45;&#45;n21</title>
<path fill="none" stroke="black" d="M218.02,-190.18C211.79,-208.43 202.67,-235.15 199.71,-243.8"/>
</g>
<!-- n5&#45;&#45;n24 -->
<g id="edge24" class="edge">
<title>n5&#45;&#45;n24</title>
<path fill="none" stroke="black" d="M231.62,-154.19C236.51,-142.39 242.43,-128.13 244.78,-122.46"/>
</g>
<!-- n6 -->
<g id="box6" class="node">
<title>n6</title>
<ellipse fill="none" stroke="black" cx="410" cy="-161.34" rx="88.1" ry="18"/>
<text text-anchor="middle" x="410" y="-157.64" font-family="Serif" font-size="14.00">asymptomatic_recovery</text>
</g>
<!-- n6&#45;&#45;n24 -->
<g id="edge25" class="edge">
<title>n6&#45;&#45;n24</title>
<path fill="none" stroke="black" d="M354.42,-147.33C312.74,-136.82 260.85,-123.74 248.53,-120.64"/>
</g>
<!-- n25 -->
<!-- junction -->
<g id="junction6" class="node">
<title>n25</title>
<ellipse fill="black" stroke="black" cx="428.92" cy="-91.21" rx="2.5" ry="2.5"/>
<text text-anchor="middle" x="423.42" y="-97.51" font-family="Serif" font-size="14.00">r</text>
</g>
<!-- n6&#45;&#45;n25 -->
<g id="edge27" class="edge">
<title>n6&#45;&#45;n25</title>
<path fill="none" stroke="black" d="M414.88,-143.28C419.52,-126.07 426.1,-101.65 428.23,-93.77"/>
</g>
<!-- n7 -->
<g id="box7" class="node">
<title>n7</title>
<ellipse fill="none" stroke="black" cx="302.39" cy="-218.4" rx="26.48" ry="18"/>
<text text-anchor="middle" x="302.39" y="-214.7" font-family="Serif" font-size="14.00">illness</text>
</g>
<!-- n7&#45;&#45;n21 -->
<g id="edge12" class="edge">
<title>n7&#45;&#45;n21</title>
<path fill="none" stroke="black" d="M277.56,-225.16C251.22,-232.33 211.95,-243.02 201.43,-245.88"/>
</g>
<!-- n7&#45;&#45;n22 -->
<g id="edge15" class="edge">
<title>n7&#45;&#45;n22</title>
<path fill="none" stroke="black" d="M312.64,-235.38C326.76,-258.76 351.12,-299.1 356.99,-308.82"/>
</g>
<!-- n8 -->
<g id="box8" class="node">
<title>n8</title>
<ellipse fill="none" stroke="black" cx="483.04" cy="-243.35" rx="45.83" ry="18"/>
<text text-anchor="middle" x="483.04" y="-239.65" font-family="Serif" font-size="14.00">progression</text>
</g>
<!-- n8&#45;&#45;n22 -->
<g id="edge16" class="edge">
<title>n8&#45;&#45;n22</title>
<path fill="none" stroke="black" d="M455.97,-258.03C423.58,-275.58 372.25,-303.4 360.67,-309.68"/>
</g>
<!-- n8&#45;&#45;n23 -->
<g id="edge19" class="edge">
<title>n8&#45;&#45;n23</title>
<path fill="none" stroke="black" d="M454.95,-257.65C444.41,-263.01 433.88,-268.37 429.27,-270.72"/>
</g>
<!-- n9 -->
<g id="box9" class="node">
<title>n9</title>
<ellipse fill="none" stroke="black" cx="411.62" cy="-364.64" rx="25.13" ry="18"/>
<text text-anchor="middle" x="411.62" y="-360.94" font-family="Serif" font-size="14.00">death</text>
</g>
<!-- n9&#45;&#45;n23 -->
<g id="edge20" class="edge">
<title>n9&#45;&#45;n23</title>
<path fill="none" stroke="black" d="M414.63,-346.32C418.45,-323.11 424.73,-284.86 426.42,-274.57"/>
</g>
<!-- n27 -->
<!-- junction -->
<g id="junction8" class="node">
<title>n27</title>
<ellipse fill="black" stroke="black" cx="326.35" cy="-386.56" rx="2.5" ry="2.5"/>
<text text-anchor="middle" x="319.35" y="-392.86" font-family="Serif" font-size="14.00">d</text>
</g>
<!-- n9&#45;&#45;n27 -->
<g id="edge33" class="edge">
<title>n9&#45;&#45;n27</title>
<path fill="none" stroke="black" d="M387.42,-370.86C366.14,-376.33 337.29,-383.74 328.8,-385.93"/>
</g>
<!-- n10 -->
<g id="box10" class="node">
<title>n10</title>
<ellipse fill="none" stroke="black" cx="541.71" cy="-136.22" rx="35.14" ry="18"/>
<text text-anchor="middle" x="541.71" y="-132.52" font-family="Serif" font-size="14.00">recovery</text>
</g>
<!-- n10&#45;&#45;n23 -->
<g id="edge21" class="edge">
<title>n10&#45;&#45;n23</title>
<path fill="none" stroke="black" d="M527.62,-152.86C499.83,-185.71 439.65,-256.82 428.61,-269.87"/>
</g>
<!-- n10&#45;&#45;n25 -->
<g id="edge28" class="edge">
<title>n10&#45;&#45;n25</title>
<path fill="none" stroke="black" d="M513.83,-125.09C484.86,-113.53 442.28,-96.54 431.48,-92.23"/>
</g>
<!-- n11 -->
<g id="box11" class="node">
<title>n11</title>
<ellipse fill="none" stroke="black" cx="191.41" cy="-21.44" rx="47.86" ry="18"/>
<text text-anchor="middle" x="191.41" y="-17.74" font-family="Serif" font-size="14.00">recover_late</text>
</g>
<!-- n11&#45;&#45;n25 -->
<g id="edge29" class="edge">
<title>n11&#45;&#45;n25</title>
<path fill="none" stroke="black" d="M229.05,-32.5C290.26,-50.48 406.56,-84.64 426.1,-90.38"/>
</g>
<!-- n26 -->
<!-- junction -->
<g id="junction7" class="node">
<title>n26</title>
<ellipse fill="black" stroke="black" cx="105.66" cy="-6.35" rx="2.5" ry="2.5"/>
<text text-anchor="middle" x="96.66" y="-12.65" font-family="Serif" font-size="14.00">r2</text>
</g>
<!-- n11&#45;&#45;n26 -->
<g id="edge31" class="edge">
<title>n11&#45;&#45;n26</title>
<path fill="none" stroke="black" d="M148.03,-13.81C131.41,-10.88 114.9,-7.98 108.47,-6.84"/>
</g>
<!-- n12 -->
<!-- n12&#45;&#45;n20 -->
<g id="edge5" class="edge">
<title>n12&#45;&#45;n20</title>
<path fill="none" stroke="black" d="M11.41,-226.55C20.88,-229.63 113.28,-259.71 130.52,-265.33"/>
</g>
<!-- n13 -->
<!-- n13&#45;&#45;n21 -->
<g id="edge13" class="edge">
<title>n13&#45;&#45;n21</title>
<path fill="none" stroke="black" d="M115.69,-110.73C122.26,-121.46 187.31,-227.89 197.43,-244.45"/>
</g>
<!-- n14 -->
<!-- n14&#45;&#45;n22 -->
<g id="edge17" class="edge">
<title>n14&#45;&#45;n22</title>
<path fill="none" stroke="black" d="M389.17,-432.4C386.77,-422.97 363.36,-330.9 358.99,-313.72"/>
</g>
<!-- n15 -->
<!-- n15&#45;&#45;n23 -->
<g id="edge22" class="edge">
<title>n15&#45;&#45;n23</title>
<path fill="none" stroke="black" d="M515.04,-319.24C508.25,-315.6 442.48,-280.32 429.19,-273.2"/>
</g>
<!-- n16 -->
<!-- n16&#45;&#45;n24 -->
<g id="edge26" class="edge">
<title>n16&#45;&#45;n24</title>
<path fill="none" stroke="black" d="M332.44,-1.21C325.65,-10.51 258.9,-102.02 247.48,-117.68"/>
</g>
<!-- n17 -->
<!-- n17&#45;&#45;n25 -->
<g id="edge30" class="edge">
<title>n17&#45;&#45;n25</title>
<path fill="none" stroke="black" d="M493.19,-20.93C486.83,-27.88 440.82,-78.2 430.83,-89.12"/>
</g>
<!-- n18 -->
<!-- n18&#45;&#45;n26 -->
<g id="edge32" class="edge">
<title>n18&#45;&#45;n26</title>
<path fill="none" stroke="black" d="M1.24,-85.27C9.42,-79.09 89.89,-18.27 103.66,-7.86"/>
</g>
<!-- n19 -->
<!-- n19&#45;&#45;n27 -->
<g id="edge34" class="edge">
<title>n19&#45;&#45;n27</title>
<path fill="none" stroke="black" d="M277.38,-480.27C281.15,-473.05 317.67,-403.16 325.05,-389.04"/>
</g>
</g>
</svg>
