<?xml version="1.0" encoding="UTF-8" standalone="no"?>
<!DOCTYPE svg PUBLIC "-//W3C//DTD SVG 1.1//EN"
 "http://www.w3.org/Graphics/SVG/1.1/DTD/svg11.dtd">
<!-- Generated by graphviz version 2.44.1 (0)
 -->
<!-- Title: G Pages: 1 -->
<svg width="444pt" height="137pt"
 viewBox="0.00 0.00 443.99 137.12" xmlns="http://www.w3.org/2000/svg" xmlns:xlink="http://www.w3.org/1999/xlink">
<g id="graph0" class="graph" transform="scale(1 1) rotate(0) translate(4 133.12)">
<title>G</title>
<polygon fill="white" stroke="transparent" points="-4,4 -4,-133.12 439.99,-133.12 439.99,4 -4,4"/>
<!-- S_S -->
<g id="node1" class="node">
<title>S_S</title>
<ellipse fill="#6c9ac3" stroke="#6c9ac3" cx="24.7" cy="-64.62" rx="24.9" ry="24.9"/>
<text text-anchor="middle" x="24.7" y="-60.92" font-family="Times,serif" font-size="14.00">S_S</text>
</g>
<!-- T_inf1 -->
<g id="node5" class="node">
<title>T_inf1</title>
<polygon fill="#e28f41" stroke="#e28f41" points="145.4,-127.12 92.4,-127.12 92.4,-74.12 145.4,-74.12 145.4,-127.12"/>
<text text-anchor="middle" x="118.9" y="-96.92" font-family="Times,serif" font-size="14.00">T_inf1</text>
</g>
<!-- S_S&#45;&gt;T_inf1 -->
<g id="edge1" class="edge">
<title>S_S&#45;&gt;T_inf1</title>
<path fill="none" stroke="black" d="M48.02,-73.33C58.43,-77.4 71.06,-82.33 82.71,-86.88"/>
<polygon fill="black" stroke="black" points="81.61,-90.21 92.19,-90.58 84.15,-83.69 81.61,-90.21"/>
<text text-anchor="middle" x="70.9" y="-86.42" font-family="Times,serif" font-size="14.00">1</text>
</g>
<!-- T_inf2 -->
<g id="node7" class="node">
<title>T_inf2</title>
<polygon fill="#e28f41" stroke="#e28f41" points="145.4,-56.12 92.4,-56.12 92.4,-3.12 145.4,-3.12 145.4,-56.12"/>
<text text-anchor="middle" x="118.9" y="-25.92" font-family="Times,serif" font-size="14.00">T_inf2</text>
</g>
<!-- S_S&#45;&gt;T_inf2 -->
<g id="edge7" class="edge">
<title>S_S&#45;&gt;T_inf2</title>
<path fill="none" stroke="black" d="M48.02,-56.15C58.43,-52.19 71.06,-47.4 82.71,-42.97"/>
<polygon fill="black" stroke="black" points="84.09,-46.2 92.19,-39.37 81.6,-39.65 84.09,-46.2"/>
<text text-anchor="middle" x="70.9" y="-51.42" font-family="Times,serif" font-size="14.00">1</text>
</g>
<!-- S_I1 -->
<g id="node2" class="node">
<title>S_I1</title>
<ellipse fill="#6c9ac3" stroke="#6c9ac3" cx="215.69" cy="-101.62" rx="27.1" ry="27.1"/>
<text text-anchor="middle" x="215.69" y="-97.92" font-family="Times,serif" font-size="14.00">S_I1</text>
</g>
<!-- S_I1&#45;&gt;T_inf1 -->
<g id="edge2" class="edge">
<title>S_I1&#45;&gt;T_inf1</title>
<path fill="none" stroke="black" d="M188.95,-95.21C180.81,-93.82 171.75,-92.95 163.4,-93.62 160.86,-93.82 158.25,-94.09 155.63,-94.4"/>
<polygon fill="black" stroke="black" points="155,-90.95 145.58,-95.79 155.96,-97.89 155,-90.95"/>
<text text-anchor="middle" x="166.9" y="-97.42" font-family="Times,serif" font-size="14.00">1</text>
</g>
<!-- T_rec1 -->
<g id="node6" class="node">
<title>T_rec1</title>
<polygon fill="#e28f41" stroke="#e28f41" points="340.99,-129.12 285.99,-129.12 285.99,-74.12 340.99,-74.12 340.99,-129.12"/>
<text text-anchor="middle" x="313.49" y="-97.92" font-family="Times,serif" font-size="14.00">T_rec1</text>
</g>
<!-- S_I1&#45;&gt;T_rec1 -->
<g id="edge4" class="edge">
<title>S_I1&#45;&gt;T_rec1</title>
<path fill="none" stroke="black" d="M243.12,-101.62C253.2,-101.62 264.87,-101.62 275.73,-101.62"/>
<polygon fill="black" stroke="black" points="275.81,-105.12 285.81,-101.62 275.81,-98.12 275.81,-105.12"/>
<text text-anchor="middle" x="264.49" y="-105.42" font-family="Times,serif" font-size="14.00">1</text>
</g>
<!-- S_I2 -->
<g id="node3" class="node">
<title>S_I2</title>
<ellipse fill="#6c9ac3" stroke="#6c9ac3" cx="215.69" cy="-28.62" rx="27.1" ry="27.1"/>
<text text-anchor="middle" x="215.69" y="-24.92" font-family="Times,serif" font-size="14.00">S_I2</text>
</g>
<!-- S_I2&#45;&gt;T_inf2 -->
<g id="edge6" class="edge">
<title>S_I2&#45;&gt;T_inf2</title>
<path fill="none" stroke="black" d="M195.01,-9.92C185.78,-3.38 174.4,1.62 163.4,-1.62 160.57,-2.45 157.75,-3.53 154.99,-4.78"/>
<polygon fill="black" stroke="black" points="153.09,-1.82 145.86,-9.56 156.35,-8.02 153.09,-1.82"/>
<text text-anchor="middle" x="166.9" y="-5.42" font-family="Times,serif" font-size="14.00">1</text>
</g>
<!-- T_rec2 -->
<g id="node8" class="node">
<title>T_rec2</title>
<polygon fill="#e28f41" stroke="#e28f41" points="340.99,-56.12 285.99,-56.12 285.99,-1.12 340.99,-1.12 340.99,-56.12"/>
<text text-anchor="middle" x="313.49" y="-24.92" font-family="Times,serif" font-size="14.00">T_rec2</text>
</g>
<!-- S_I2&#45;&gt;T_rec2 -->
<g id="edge9" class="edge">
<title>S_I2&#45;&gt;T_rec2</title>
<path fill="none" stroke="black" d="M243.12,-28.62C253.2,-28.62 264.87,-28.62 275.73,-28.62"/>
<polygon fill="black" stroke="black" points="275.81,-32.12 285.81,-28.62 275.81,-25.12 275.81,-32.12"/>
<text text-anchor="middle" x="264.49" y="-32.42" font-family="Times,serif" font-size="14.00">1</text>
</g>
<!-- S_R -->
<g id="node4" class="node">
<title>S_R</title>
<ellipse fill="#6c9ac3" stroke="#6c9ac3" cx="409.99" cy="-64.62" rx="26" ry="26"/>
<text text-anchor="middle" x="409.99" y="-60.92" font-family="Times,serif" font-size="14.00">S_R</text>
</g>
<!-- T_inf1&#45;&gt;S_I1 -->
<g id="edge3" class="edge">
<title>T_inf1&#45;&gt;S_I1</title>
<path fill="none" stroke="black" d="M145.55,-106.14C151.39,-107.17 157.58,-108.09 163.4,-108.62 168.34,-109.07 173.54,-109 178.65,-108.61"/>
<polygon fill="black" stroke="black" points="179.37,-112.05 188.91,-107.44 178.58,-105.1 179.37,-112.05"/>
<text text-anchor="middle" x="166.9" y="-112.42" font-family="Times,serif" font-size="14.00">2</text>
</g>
<!-- T_rec1&#45;&gt;S_R -->
<g id="edge5" class="edge">
<title>T_rec1&#45;&gt;S_R</title>
<path fill="none" stroke="black" d="M341.07,-91.21C351.87,-86.98 364.48,-82.04 375.88,-77.58"/>
<polygon fill="black" stroke="black" points="377.47,-80.72 385.51,-73.81 374.92,-74.2 377.47,-80.72"/>
<text text-anchor="middle" x="362.49" y="-86.42" font-family="Times,serif" font-size="14.00">1</text>
</g>
<!-- T_inf2&#45;&gt;S_I2 -->
<g id="edge8" class="edge">
<title>T_inf2&#45;&gt;S_I2</title>
<path fill="none" stroke="black" d="M145.8,-29.34C155.77,-29.24 167.35,-29.12 178.14,-29"/>
<polygon fill="black" stroke="black" points="178.2,-32.5 188.16,-28.9 178.12,-25.5 178.2,-32.5"/>
<text text-anchor="middle" x="166.9" y="-32.42" font-family="Times,serif" font-size="14.00">2</text>
</g>
<!-- T_rec2&#45;&gt;S_R -->
<g id="edge10" class="edge">
<title>T_rec2&#45;&gt;S_R</title>
<path fill="none" stroke="black" d="M341.07,-38.74C351.87,-42.86 364.48,-47.66 375.88,-52"/>
<polygon fill="black" stroke="black" points="374.92,-55.38 385.51,-55.67 377.41,-48.84 374.92,-55.38"/>
<text text-anchor="middle" x="362.49" y="-51.42" font-family="Times,serif" font-size="14.00">1</text>
</g>
</g>
</svg>
