<?xml version="1.0" encoding="UTF-8" standalone="no"?>
<!DOCTYPE svg PUBLIC "-//W3C//DTD SVG 1.1//EN"
 "http://www.w3.org/Graphics/SVG/1.1/DTD/svg11.dtd">
<!-- Generated by graphviz version 2.44.1 (0)
 -->
<!-- Title: G Pages: 1 -->
<svg width="144pt" height="68pt"
 viewBox="0.00 0.00 143.64 68.21" xmlns="http://www.w3.org/2000/svg" xmlns:xlink="http://www.w3.org/1999/xlink">
<g id="graph0" class="graph" transform="scale(1 1) rotate(0) translate(4 64.21)">
<title>G</title>
<polygon fill="white" stroke="transparent" points="-4,4 -4,-64.21 139.64,-64.21 139.64,4 -4,4"/>
<!-- n1 -->
<g id="node1" class="node">
<title>n1</title>
<ellipse fill="none" stroke="black" cx="10.61" cy="-29.61" rx="10.71" ry="10.71"/>
<text text-anchor="middle" x="10.61" y="-25.91" font-family="Times,serif" font-size="14.00">1</text>
</g>
<!-- n2 -->
<g id="node2" class="node">
<title>n2</title>
<ellipse fill="none" stroke="black" cx="67.82" cy="-29.61" rx="10.71" ry="10.71"/>
<text text-anchor="middle" x="67.82" y="-25.91" font-family="Times,serif" font-size="14.00">2</text>
</g>
<!-- n1&#45;&gt;n2 -->
<g id="edge1" class="edge">
<title>n1&#45;&gt;n2</title>
<path fill="none" stroke="black" d="M20.23,-24.54C29.12,-22.61 43.09,-22.34 53.41,-23.72"/>
<polygon fill="black" stroke="black" points="53.21,-25.46 58.43,-24.6 53.81,-22.02 53.21,-25.46"/>
</g>
<!-- n1&#45;&gt;n2 -->
<g id="edge2" class="edge">
<title>n1&#45;&gt;n2</title>
<path fill="none" stroke="black" d="M20.23,-34.67C29.12,-36.6 43.09,-36.87 53.41,-35.49"/>
<polygon fill="black" stroke="black" points="53.81,-37.2 58.43,-34.62 53.21,-33.75 53.81,-37.2"/>
</g>
<!-- n3 -->
<g id="node3" class="node">
<title>n3</title>
<ellipse fill="none" stroke="black" cx="125.03" cy="-49.61" rx="10.71" ry="10.71"/>
<text text-anchor="middle" x="125.03" y="-45.91" font-family="Times,serif" font-size="14.00">3</text>
</g>
<!-- n2&#45;&gt;n3 -->
<g id="edge3" class="edge">
<title>n2&#45;&gt;n3</title>
<path fill="none" stroke="black" d="M77.94,-32.91C86.6,-36.05 99.75,-40.81 109.79,-44.45"/>
<polygon fill="black" stroke="black" points="109.42,-46.17 114.72,-46.23 110.61,-42.88 109.42,-46.17"/>
</g>
<!-- n4 -->
<g id="node4" class="node">
<title>n4</title>
<ellipse fill="none" stroke="black" cx="125.03" cy="-10.61" rx="10.71" ry="10.71"/>
<text text-anchor="middle" x="125.03" y="-6.91" font-family="Times,serif" font-size="14.00">4</text>
</g>
<!-- n2&#45;&gt;n4 -->
<g id="edge4" class="edge">
<title>n2&#45;&gt;n4</title>
<path fill="none" stroke="black" d="M78.19,-26.38C86.88,-23.39 99.96,-18.89 109.92,-15.46"/>
<polygon fill="black" stroke="black" points="110.65,-17.06 114.81,-13.78 109.51,-13.75 110.65,-17.06"/>
</g>
</g>
</svg>
