<?xml version="1.0" encoding="UTF-8" standalone="no"?>
<!DOCTYPE svg PUBLIC "-//W3C//DTD SVG 1.1//EN"
 "http://www.w3.org/Graphics/SVG/1.1/DTD/svg11.dtd">
<!-- Generated by graphviz version 2.44.1 (0)
 -->
<!-- Title: G Pages: 1 -->
<svg width="144pt" height="127pt"
 viewBox="0.00 0.00 143.64 127.21" xmlns="http://www.w3.org/2000/svg" xmlns:xlink="http://www.w3.org/1999/xlink">
<g id="graph0" class="graph" transform="scale(1 1) rotate(0) translate(4 123.21)">
<title>G</title>
<polygon fill="white" stroke="transparent" points="-4,4 -4,-123.21 139.64,-123.21 139.64,4 -4,4"/>
<!-- n1 -->
<g id="node1" class="node">
<title>n1</title>
<ellipse fill="none" stroke="black" cx="10.61" cy="-30.61" rx="10.71" ry="10.71"/>
<text text-anchor="middle" x="10.61" y="-26.91" font-family="Times,serif" font-size="14.00">1</text>
</g>
<!-- n2 -->
<g id="node2" class="node">
<title>n2</title>
<ellipse fill="none" stroke="black" cx="67.82" cy="-30.61" rx="10.71" ry="10.71"/>
<text text-anchor="middle" x="67.82" y="-26.91" font-family="Times,serif" font-size="14.00">2</text>
</g>
<!-- n1&#45;&gt;n2 -->
<g id="edge1" class="edge">
<title>n1&#45;&gt;n2</title>
<path fill="none" stroke="black" d="M20.23,-25.54C29.12,-23.61 43.09,-23.34 53.41,-24.72"/>
<polygon fill="black" stroke="black" points="53.21,-26.46 58.43,-25.6 53.81,-23.02 53.21,-26.46"/>
</g>
<!-- n1&#45;&gt;n2 -->
<g id="edge2" class="edge">
<title>n1&#45;&gt;n2</title>
<path fill="none" stroke="black" d="M20.23,-35.67C29.12,-37.6 43.09,-37.87 53.41,-36.49"/>
<polygon fill="black" stroke="black" points="53.81,-38.2 58.43,-35.62 53.21,-34.75 53.81,-38.2"/>
</g>
<!-- n3 -->
<g id="node3" class="node">
<title>n3</title>
<ellipse fill="none" stroke="black" cx="125.03" cy="-49.61" rx="10.71" ry="10.71"/>
<text text-anchor="middle" x="125.03" y="-45.91" font-family="Times,serif" font-size="14.00">3</text>
</g>
<!-- n2&#45;&gt;n3 -->
<g id="edge3" class="edge">
<title>n2&#45;&gt;n3</title>
<path fill="none" stroke="black" d="M78.19,-33.83C86.88,-36.82 99.96,-41.32 109.92,-44.75"/>
<polygon fill="black" stroke="black" points="109.51,-46.46 114.81,-46.43 110.65,-43.15 109.51,-46.46"/>
</g>
<!-- n4 -->
<g id="node4" class="node">
<title>n4</title>
<ellipse fill="none" stroke="black" cx="125.03" cy="-10.61" rx="10.71" ry="10.71"/>
<text text-anchor="middle" x="125.03" y="-6.91" font-family="Times,serif" font-size="14.00">4</text>
</g>
<!-- n2&#45;&gt;n4 -->
<g id="edge4" class="edge">
<title>n2&#45;&gt;n4</title>
<path fill="none" stroke="black" d="M77.94,-27.3C86.6,-24.17 99.75,-19.4 109.79,-15.77"/>
<polygon fill="black" stroke="black" points="110.61,-17.33 114.72,-13.98 109.42,-14.04 110.61,-17.33"/>
</g>
<!-- n5 -->
<g id="node5" class="node">
<title>n5</title>
<ellipse fill="none" stroke="black" cx="10.61" cy="-108.61" rx="10.71" ry="10.71"/>
<text text-anchor="middle" x="10.61" y="-104.91" font-family="Times,serif" font-size="14.00">5</text>
</g>
<!-- n7 -->
<g id="node7" class="node">
<title>n7</title>
<ellipse fill="none" stroke="black" cx="67.82" cy="-98.61" rx="10.71" ry="10.71"/>
<text text-anchor="middle" x="67.82" y="-94.91" font-family="Times,serif" font-size="14.00">7</text>
</g>
<!-- n5&#45;&gt;n7 -->
<g id="edge5" class="edge">
<title>n5&#45;&gt;n7</title>
<path fill="none" stroke="black" d="M21.22,-106.86C29.77,-105.32 42.4,-103.03 52.2,-101.25"/>
<polygon fill="black" stroke="black" points="52.7,-102.94 57.31,-100.33 52.08,-99.5 52.7,-102.94"/>
</g>
<!-- n6 -->
<g id="node6" class="node">
<title>n6</title>
<ellipse fill="none" stroke="black" cx="10.61" cy="-69.61" rx="10.71" ry="10.71"/>
<text text-anchor="middle" x="10.61" y="-65.91" font-family="Times,serif" font-size="14.00">6</text>
</g>
<!-- n6&#45;&gt;n7 -->
<g id="edge6" class="edge">
<title>n6&#45;&gt;n7</title>
<path fill="none" stroke="black" d="M20.23,-74.14C29.18,-78.83 43.27,-86.24 53.61,-91.67"/>
<polygon fill="black" stroke="black" points="52.83,-93.24 58.07,-94.01 54.46,-90.14 52.83,-93.24"/>
</g>
<!-- n8 -->
<g id="node8" class="node">
<title>n8</title>
<ellipse fill="none" stroke="black" cx="125.03" cy="-98.61" rx="10.71" ry="10.71"/>
<text text-anchor="middle" x="125.03" y="-94.91" font-family="Times,serif" font-size="14.00">8</text>
</g>
<!-- n7&#45;&gt;n8 -->
<g id="edge7" class="edge">
<title>n7&#45;&gt;n8</title>
<path fill="none" stroke="black" d="M78.44,-98.61C86.88,-98.61 99.31,-98.61 109.06,-98.61"/>
<polygon fill="black" stroke="black" points="109.15,-100.36 114.15,-98.61 109.15,-96.86 109.15,-100.36"/>
</g>
</g>
</svg>
