<?xml version="1.0" encoding="UTF-8" standalone="no"?>
<!DOCTYPE svg PUBLIC "-//W3C//DTD SVG 1.1//EN"
 "http://www.w3.org/Graphics/SVG/1.1/DTD/svg11.dtd">
<!-- Generated by graphviz version 2.44.1 (0)
 -->
<!-- Title: G Pages: 1 -->
<svg width="144pt" height="68pt"
 viewBox="0.00 0.00 143.64 68.21" xmlns="http://www.w3.org/2000/svg" xmlns:xlink="http://www.w3.org/1999/xlink">
<g id="graph0" class="graph" transform="scale(1 1) rotate(0) translate(4 64.21)">
<title>G</title>
<polygon fill="white" stroke="transparent" points="-4,4 -4,-64.21 139.64,-64.21 139.64,4 -4,4"/>
<!-- n1 -->
<g id="node1" class="node">
<title>n1</title>
<ellipse fill="none" stroke="black" cx="10.61" cy="-49.61" rx="10.71" ry="10.71"/>
<text text-anchor="middle" x="10.61" y="-45.91" font-family="Times,serif" font-size="14.00">1</text>
</g>
<!-- n3 -->
<g id="node3" class="node">
<title>n3</title>
<ellipse fill="none" stroke="black" cx="67.82" cy="-29.61" rx="10.71" ry="10.71"/>
<text text-anchor="middle" x="67.82" y="-25.91" font-family="Times,serif" font-size="14.00">3</text>
</g>
<!-- n1&#45;&gt;n3 -->
<g id="edge1" class="edge">
<title>n1&#45;&gt;n3</title>
<path fill="none" stroke="black" d="M20.72,-46.3C29.38,-43.17 42.53,-38.4 52.58,-34.77"/>
<polygon fill="black" stroke="black" points="53.4,-36.33 57.5,-32.98 52.21,-33.04 53.4,-36.33"/>
</g>
<!-- n2 -->
<g id="node2" class="node">
<title>n2</title>
<ellipse fill="none" stroke="black" cx="10.61" cy="-10.61" rx="10.71" ry="10.71"/>
<text text-anchor="middle" x="10.61" y="-6.91" font-family="Times,serif" font-size="14.00">2</text>
</g>
<!-- n2&#45;&gt;n3 -->
<g id="edge2" class="edge">
<title>n2&#45;&gt;n3</title>
<path fill="none" stroke="black" d="M20.97,-13.83C29.67,-16.82 42.74,-21.32 52.71,-24.75"/>
<polygon fill="black" stroke="black" points="52.29,-26.46 57.59,-26.43 53.43,-23.15 52.29,-26.46"/>
</g>
<!-- n4 -->
<g id="node4" class="node">
<title>n4</title>
<ellipse fill="none" stroke="black" cx="125.03" cy="-29.61" rx="10.71" ry="10.71"/>
<text text-anchor="middle" x="125.03" y="-25.91" font-family="Times,serif" font-size="14.00">4</text>
</g>
<!-- n3&#45;&gt;n4 -->
<g id="edge3" class="edge">
<title>n3&#45;&gt;n4</title>
<path fill="none" stroke="black" d="M78.44,-29.61C86.88,-29.61 99.31,-29.61 109.06,-29.61"/>
<polygon fill="black" stroke="black" points="109.15,-31.36 114.15,-29.61 109.15,-27.86 109.15,-31.36"/>
</g>
</g>
</svg>
