<?xml version="1.0" encoding="UTF-8" standalone="no"?>
<!DOCTYPE svg PUBLIC "-//W3C//DTD SVG 1.1//EN"
 "http://www.w3.org/Graphics/SVG/1.1/DTD/svg11.dtd">
<!-- Generated by graphviz version 2.44.1 (0)
 -->
<!-- Title: G Pages: 1 -->
<svg width="228pt" height="332pt"
 viewBox="0.00 0.00 228.17 332.04" xmlns="http://www.w3.org/2000/svg" xmlns:xlink="http://www.w3.org/1999/xlink">
<g id="graph0" class="graph" transform="scale(1 1) rotate(0) translate(4 328.04)">
<title>G</title>
<polygon fill="white" stroke="transparent" points="-4,4 -4,-328.04 224.17,-328.04 224.17,4 -4,4"/>
<!-- n1 -->
<g id="box1" class="node">
<title>n1</title>
<ellipse fill="none" stroke="black" cx="102.18" cy="-211.61" rx="37.17" ry="18"/>
<text text-anchor="middle" x="102.18" y="-207.91" font-family="Serif" font-size="14.00">exposure</text>
</g>
<!-- n8 -->
<!-- junction -->
<g id="junction1" class="node">
<title>n8</title>
<ellipse fill="black" stroke="black" cx="85.46" cy="-269.27" rx="2.5" ry="2.5"/>
<text text-anchor="middle" x="79.96" y="-275.57" font-family="Serif" font-size="14.00">s</text>
</g>
<!-- n1&#45;&#45;n8 -->
<g id="edge1" class="edge">
<title>n1&#45;&#45;n8</title>
<path fill="none" stroke="black" d="M96.98,-229.54C93.07,-243.02 88.08,-260.24 86.21,-266.68"/>
</g>
<!-- n9 -->
<!-- junction -->
<g id="junction2" class="node">
<title>n9</title>
<ellipse fill="black" stroke="black" cx="162.54" cy="-197.32" rx="2.5" ry="2.5"/>
<text text-anchor="middle" x="156.54" y="-203.62" font-family="Serif" font-size="14.00">e</text>
</g>
<!-- n1&#45;&#45;n9 -->
<g id="edge3" class="edge">
<title>n1&#45;&#45;n9</title>
<path fill="none" stroke="black" d="M135.54,-203.71C145.79,-201.29 155.55,-198.98 160,-197.92"/>
</g>
<!-- n10 -->
<!-- junction -->
<g id="junction3" class="node">
<title>n10</title>
<ellipse fill="black" stroke="black" cx="73.11" cy="-155.65" rx="2.5" ry="2.5"/>
<text text-anchor="middle" x="68.61" y="-161.95" font-family="Serif" font-size="14.00">i</text>
</g>
<!-- n1&#45;&#45;n10 -->
<g id="edge6" class="edge">
<title>n1&#45;&#45;n10</title>
<path fill="none" stroke="black" d="M92.98,-193.9C86.19,-180.84 77.6,-164.31 74.39,-158.13"/>
</g>
<!-- n2 -->
<g id="box2" class="node">
<title>n2</title>
<ellipse fill="none" stroke="black" cx="135.26" cy="-144.07" rx="26.48" ry="18"/>
<text text-anchor="middle" x="135.26" y="-140.37" font-family="Serif" font-size="14.00">illness</text>
</g>
<!-- n2&#45;&#45;n9 -->
<g id="edge4" class="edge">
<title>n2&#45;&#45;n9</title>
<path fill="none" stroke="black" d="M144.04,-161.21C150.39,-173.62 158.37,-189.18 161.34,-194.99"/>
</g>
<!-- n2&#45;&#45;n10 -->
<g id="edge7" class="edge">
<title>n2&#45;&#45;n10</title>
<path fill="none" stroke="black" d="M109.62,-148.85C96.24,-151.34 81.48,-154.09 75.66,-155.17"/>
</g>
<!-- n3 -->
<g id="box3" class="node">
<title>n3</title>
<ellipse fill="none" stroke="black" cx="54.04" cy="-98.06" rx="35.14" ry="18"/>
<text text-anchor="middle" x="54.04" y="-94.36" font-family="Serif" font-size="14.00">recovery</text>
</g>
<!-- n3&#45;&#45;n10 -->
<g id="edge8" class="edge">
<title>n3&#45;&#45;n10</title>
<path fill="none" stroke="black" d="M59.97,-115.97C64.43,-129.44 70.12,-146.64 72.25,-153.07"/>
</g>
<!-- n11 -->
<!-- junction -->
<g id="junction4" class="node">
<title>n11</title>
<ellipse fill="black" stroke="black" cx="31.41" cy="-46.18" rx="2.5" ry="2.5"/>
<text text-anchor="middle" x="25.91" y="-52.48" font-family="Serif" font-size="14.00">r</text>
</g>
<!-- n3&#45;&#45;n11 -->
<g id="edge10" class="edge">
<title>n3&#45;&#45;n11</title>
<path fill="none" stroke="black" d="M46.26,-80.21C41.14,-68.48 34.96,-54.31 32.5,-48.67"/>
</g>
<!-- n4 -->
<!-- n4&#45;&#45;n8 -->
<g id="edge2" class="edge">
<title>n4&#45;&#45;n8</title>
<path fill="none" stroke="black" d="M70.29,-322.93C71.74,-317.81 81.9,-281.86 84.73,-271.85"/>
</g>
<!-- n5 -->
<!-- n5&#45;&#45;n9 -->
<g id="edge5" class="edge">
<title>n5&#45;&#45;n9</title>
<path fill="none" stroke="black" d="M219.03,-207.61C213.63,-206.63 175.79,-199.73 165.26,-197.82"/>
</g>
<!-- n6 -->
<!-- n6&#45;&#45;n10 -->
<g id="edge9" class="edge">
<title>n6&#45;&#45;n10</title>
<path fill="none" stroke="black" d="M14.62,-172.62C20.25,-170.99 60.1,-159.42 70.58,-156.38"/>
</g>
<!-- n7 -->
<!-- n7&#45;&#45;n11 -->
<g id="edge11" class="edge">
<title>n7&#45;&#45;n11</title>
<path fill="none" stroke="black" d="M0.85,-1.01C3.77,-5.33 24.24,-35.58 29.94,-44.01"/>
</g>
</g>
</svg>
