<?xml version="1.0" encoding="UTF-8" standalone="no"?>
<!DOCTYPE svg PUBLIC "-//W3C//DTD SVG 1.1//EN"
 "http://www.w3.org/Graphics/SVG/1.1/DTD/svg11.dtd">
<!-- Generated by graphviz version 2.44.1 (0)
 -->
<!-- Title: G Pages: 1 -->
<svg width="360pt" height="92pt"
 viewBox="0.00 0.00 360.00 92.00" xmlns="http://www.w3.org/2000/svg" xmlns:xlink="http://www.w3.org/1999/xlink">
<g id="graph0" class="graph" transform="scale(1 1) rotate(0) translate(4 88)">
<title>G</title>
<polygon fill="white" stroke="transparent" points="-4,4 -4,-88 356,-88 356,4 -4,4"/>
<!-- n1p1 -->
<!-- n1p2 -->
<!-- n1p1&#45;&gt;n1p2 -->
<!-- n3 -->
<!-- exposure -->
<g id="n3" class="node">
<title>n3</title>
<polygon fill="none" stroke="black" points="45.5,-29 45.5,-77 110.5,-77 110.5,-29 45.5,-29"/>
<text text-anchor="start" x="50.5" y="-49.3" font-family="Serif" font-size="14.00">exposure</text>
</g>
<!-- n1p1&#45;&gt;n3 -->
<!-- S -->
<g id="e1" class="edge">
<title>n1p1:e&#45;&gt;n3:w</title>
<path fill="none" stroke="black" d="M1,-72C18.95,-72 24.24,-66.25 39.81,-65.17"/>
<polygon fill="black" stroke="black" points="40.06,-66.92 45,-65 39.94,-63.42 40.06,-66.92"/>
<text text-anchor="middle" x="23" y="-72.8" font-family="Serif" font-size="14.00">S</text>
</g>
<!-- n1p2&#45;&gt;n3 -->
<!-- I -->
<g id="e2" class="edge">
<title>n1p2:e&#45;&gt;n3:w</title>
<path fill="none" stroke="black" d="M1,-12C22.59,-12 21.86,-36.65 39.97,-40.5"/>
<polygon fill="black" stroke="black" points="39.85,-42.24 45,-41 40.2,-38.76 39.85,-42.24"/>
<text text-anchor="middle" x="23" y="-34.8" font-family="Serif" font-size="14.00">I</text>
</g>
<!-- n5 -->
<!-- recovery -->
<g id="n5" class="node">
<title>n5</title>
<polygon fill="none" stroke="black" points="243,-5 243,-30 305,-30 305,-5 243,-5"/>
<text text-anchor="start" x="248" y="-13.8" font-family="Serif" font-size="14.00">recovery</text>
</g>
<!-- n1p2&#45;&gt;n5 -->
<!-- I -->
<g id="e3" class="edge">
<title>n1p2:e&#45;&gt;n5:w</title>
<path fill="none" stroke="black" d="M1,-12C106.79,-12 134.51,-16.84 237.71,-17"/>
<polygon fill="black" stroke="black" points="238,-18.75 243,-17 238,-15.25 238,-18.75"/>
<text text-anchor="middle" x="132.5" y="-18.8" font-family="Serif" font-size="14.00">I</text>
</g>
<!-- n2p1 -->
<!-- n4 -->
<!-- illness -->
<g id="n4" class="node">
<title>n4</title>
<polygon fill="none" stroke="black" points="155.5,-35 155.5,-60 202.5,-60 202.5,-35 155.5,-35"/>
<text text-anchor="start" x="160.5" y="-43.8" font-family="Serif" font-size="14.00">illness</text>
</g>
<!-- n3&#45;&gt;n4 -->
<!-- E -->
<g id="e5" class="edge">
<title>n3:e&#45;&gt;n4:w</title>
<path fill="none" stroke="black" d="M110,-53C128.29,-53 133.82,-48.07 149.71,-47.15"/>
<polygon fill="black" stroke="black" points="150.05,-48.89 155,-47 149.95,-45.39 150.05,-48.89"/>
<text text-anchor="middle" x="132.5" y="-53.8" font-family="Serif" font-size="14.00">E</text>
</g>
<!-- n4&#45;&gt;n5 -->
<!-- I -->
<g id="e6" class="edge">
<title>n4:e&#45;&gt;n5:w</title>
<path fill="none" stroke="black" d="M202,-47C222.64,-47 220.94,-21.93 237.74,-17.63"/>
<polygon fill="black" stroke="black" points="238.24,-19.33 243,-17 237.83,-15.85 238.24,-19.33"/>
<text text-anchor="middle" x="222.5" y="-38.8" font-family="Serif" font-size="14.00">I</text>
</g>
<!-- n5&#45;&gt;n2p1 -->
<!-- R -->
<g id="e4" class="edge">
<title>n5:e&#45;&gt;n2p1:w</title>
<path fill="none" stroke="black" d="M305,-17C323.53,-17 329.46,-17 345.63,-17"/>
<polygon fill="black" stroke="black" points="346,-18.75 351,-17 346,-15.25 346,-18.75"/>
<text text-anchor="middle" x="328" y="-20.8" font-family="Serif" font-size="14.00">R</text>
</g>
</g>
</svg>
