<?xml version="1.0" encoding="UTF-8" standalone="no"?>
<!DOCTYPE svg PUBLIC "-//W3C//DTD SVG 1.1//EN"
 "http://www.w3.org/Graphics/SVG/1.1/DTD/svg11.dtd">
<!-- Generated by graphviz version 2.44.1 (0)
 -->
<!-- Title: G Pages: 1 -->
<svg width="267pt" height="92pt"
 viewBox="0.00 0.00 267.00 92.00" xmlns="http://www.w3.org/2000/svg" xmlns:xlink="http://www.w3.org/1999/xlink">
<g id="graph0" class="graph" transform="scale(1 1) rotate(0) translate(4 88)">
<title>G</title>
<polygon fill="white" stroke="transparent" points="-4,4 -4,-88 263,-88 263,4 -4,4"/>
<!-- n1p1 -->
<!-- n1p2 -->
<!-- n1p1&#45;&gt;n1p2 -->
<!-- n3 -->
<!-- infection -->
<g id="n3" class="node">
<title>n3</title>
<polygon fill="none" stroke="black" points="45,-18 45,-66 109,-66 109,-18 45,-18"/>
<text text-anchor="start" x="50" y="-38.3" font-family="Serif" font-size="14.00">infection</text>
</g>
<!-- n1p1&#45;&gt;n3 -->
<!-- S -->
<g id="e1" class="edge">
<title>n1p1:e&#45;&gt;n3:w</title>
<path fill="none" stroke="black" d="M1,-72C20.31,-72 23.43,-56.96 39.96,-54.38"/>
<polygon fill="black" stroke="black" points="40.14,-56.12 45,-54 39.88,-52.63 40.14,-56.12"/>
<text text-anchor="middle" x="23" y="-68.8" font-family="Serif" font-size="14.00">S</text>
</g>
<!-- n1p2&#45;&gt;n3 -->
<!-- I -->
<g id="e2" class="edge">
<title>n1p2:e&#45;&gt;n3:w</title>
<path fill="none" stroke="black" d="M1,-12C20.31,-12 23.43,-27.04 39.96,-29.62"/>
<polygon fill="black" stroke="black" points="39.88,-31.37 45,-30 40.14,-27.88 39.88,-31.37"/>
<text text-anchor="middle" x="23" y="-26.8" font-family="Serif" font-size="14.00">I</text>
</g>
<!-- n2p1 -->
<!-- n4 -->
<!-- recovery -->
<g id="n4" class="node">
<title>n4</title>
<polygon fill="none" stroke="black" points="150,-30 150,-55 212,-55 212,-30 150,-30"/>
<text text-anchor="start" x="155" y="-38.8" font-family="Serif" font-size="14.00">recovery</text>
</g>
<!-- n3&#45;&gt;n4 -->
<!-- I -->
<g id="e3" class="edge">
<title>n3:e&#45;&gt;n4:w</title>
<path fill="none" stroke="black" d="M109,-42C125.37,-42 130.71,-42 144.84,-42"/>
<polygon fill="black" stroke="black" points="145,-43.75 150,-42 145,-40.25 145,-43.75"/>
<text text-anchor="middle" x="129.5" y="-45.8" font-family="Serif" font-size="14.00">I</text>
</g>
<!-- n4&#45;&gt;n2p1 -->
<!-- R -->
<g id="e4" class="edge">
<title>n4:e&#45;&gt;n2p1:w</title>
<path fill="none" stroke="black" d="M212,-42C230.53,-42 236.46,-42 252.63,-42"/>
<polygon fill="black" stroke="black" points="253,-43.75 258,-42 253,-40.25 253,-43.75"/>
<text text-anchor="middle" x="235" y="-45.8" font-family="Serif" font-size="14.00">R</text>
</g>
</g>
</svg>
