<?xml version="1.0" encoding="UTF-8" standalone="no"?>
<!DOCTYPE svg PUBLIC "-//W3C//DTD SVG 1.1//EN"
 "http://www.w3.org/Graphics/SVG/1.1/DTD/svg11.dtd">
<!-- Generated by graphviz version 2.44.1 (0)
 -->
<!-- Title: G Pages: 1 -->
<svg width="249pt" height="34pt"
 viewBox="0.00 0.00 249.20 33.60" xmlns="http://www.w3.org/2000/svg" xmlns:xlink="http://www.w3.org/1999/xlink">
<g id="graph0" class="graph" transform="scale(1 1) rotate(0) translate(4 29.6)">
<title>G</title>
<polygon fill="white" stroke="transparent" points="-4,4 -4,-29.6 245.2,-29.6 245.2,4 -4,4"/>
<!-- n1 -->
<g id="node1" class="node">
<title>n1</title>
<ellipse fill="black" stroke="black" cx="41.4" cy="-12.8" rx="1.8" ry="1.8"/>
</g>
<!-- n6 -->
<g id="node6" class="node">
<title>n6</title>
<ellipse fill="black" stroke="black" cx="81" cy="-12.8" rx="1.8" ry="1.8"/>
</g>
<!-- n1&#45;&gt;n6 -->
<g id="edge3" class="edge">
<title>n1&#45;&gt;n6</title>
<path fill="none" stroke="black" d="M43.33,-12.8C47.45,-12.8 64.24,-12.8 73.61,-12.8"/>
<polygon fill="black" stroke="black" points="73.66,-14.55 78.66,-12.8 73.66,-11.05 73.66,-14.55"/>
</g>
<!-- n2 -->
<g id="node2" class="node">
<title>n2</title>
<ellipse fill="black" stroke="black" cx="120.6" cy="-12.8" rx="1.8" ry="1.8"/>
</g>
<!-- n7 -->
<g id="node7" class="node">
<title>n7</title>
<ellipse fill="black" stroke="black" cx="160.2" cy="-23.8" rx="1.8" ry="1.8"/>
</g>
<!-- n2&#45;&gt;n7 -->
<g id="edge6" class="edge">
<title>n2&#45;&gt;n7</title>
<path fill="none" stroke="black" d="M122.53,-13.07C126.65,-14.28 143.44,-19.19 152.81,-21.93"/>
<polygon fill="black" stroke="black" points="152.57,-23.68 157.86,-23.41 153.55,-20.32 152.57,-23.68"/>
</g>
<!-- n8 -->
<g id="node8" class="node">
<title>n8</title>
<ellipse fill="black" stroke="black" cx="160.2" cy="-1.8" rx="1.8" ry="1.8"/>
</g>
<!-- n2&#45;&gt;n8 -->
<g id="edge7" class="edge">
<title>n2&#45;&gt;n8</title>
<path fill="none" stroke="black" d="M122.53,-12.53C126.65,-11.32 143.44,-6.41 152.81,-3.67"/>
<polygon fill="black" stroke="black" points="153.55,-5.28 157.86,-2.19 152.57,-1.92 153.55,-5.28"/>
</g>
<!-- n3 -->
<g id="node3" class="node">
<title>n3</title>
<ellipse fill="black" stroke="black" cx="199.8" cy="-12.8" rx="1.8" ry="1.8"/>
</g>
<!-- n9 -->
<g id="node9" class="node">
<title>n9</title>
<ellipse fill="black" stroke="black" cx="239.4" cy="-12.8" rx="1.8" ry="1.8"/>
</g>
<!-- n3&#45;&gt;n9 -->
<g id="edge10" class="edge">
<title>n3&#45;&gt;n9</title>
<path fill="none" stroke="black" d="M201.73,-12.8C205.85,-12.8 222.64,-12.8 232.01,-12.8"/>
<polygon fill="black" stroke="black" points="232.06,-14.55 237.06,-12.8 232.06,-11.05 232.06,-14.55"/>
</g>
<!-- n4 -->
<g id="node4" class="node">
<title>n4</title>
<ellipse fill="black" stroke="black" cx="1.8" cy="-23.8" rx="1.8" ry="1.8"/>
</g>
<!-- n4&#45;&gt;n1 -->
<g id="edge1" class="edge">
<title>n4&#45;&gt;n1</title>
<path fill="none" stroke="black" d="M3.73,-23.53C7.85,-22.32 24.64,-17.41 34.01,-14.67"/>
<polygon fill="black" stroke="black" points="34.75,-16.28 39.06,-13.19 33.77,-12.92 34.75,-16.28"/>
</g>
<!-- n5 -->
<g id="node5" class="node">
<title>n5</title>
<ellipse fill="black" stroke="black" cx="1.8" cy="-1.8" rx="1.8" ry="1.8"/>
</g>
<!-- n5&#45;&gt;n1 -->
<g id="edge2" class="edge">
<title>n5&#45;&gt;n1</title>
<path fill="none" stroke="black" d="M3.73,-2.07C7.85,-3.28 24.64,-8.19 34.01,-10.93"/>
<polygon fill="black" stroke="black" points="33.77,-12.68 39.06,-12.41 34.75,-9.32 33.77,-12.68"/>
</g>
<!-- n6&#45;&gt;n2 -->
<g id="edge4" class="edge">
<title>n6&#45;&gt;n2</title>
<path fill="none" stroke="black" d="M82.42,-11.22C85.6,-5.54 105.88,-4.54 115.08,-8.22"/>
<polygon fill="black" stroke="black" points="114.17,-9.73 119.23,-11.31 116.26,-6.92 114.17,-9.73"/>
</g>
<!-- n6&#45;&gt;n2 -->
<g id="edge5" class="edge">
<title>n6&#45;&gt;n2</title>
<path fill="none" stroke="black" d="M82.42,-14.38C85.6,-20.06 105.88,-21.06 115.08,-17.38"/>
<polygon fill="black" stroke="black" points="116.26,-18.68 119.23,-14.29 114.17,-15.87 116.26,-18.68"/>
</g>
<!-- n7&#45;&gt;n3 -->
<g id="edge8" class="edge">
<title>n7&#45;&gt;n3</title>
<path fill="none" stroke="black" d="M162.13,-23.53C166.25,-22.32 183.04,-17.41 192.41,-14.67"/>
<polygon fill="black" stroke="black" points="193.15,-16.28 197.46,-13.19 192.17,-12.92 193.15,-16.28"/>
</g>
<!-- n8&#45;&gt;n3 -->
<g id="edge9" class="edge">
<title>n8&#45;&gt;n3</title>
<path fill="none" stroke="black" d="M162.13,-2.07C166.25,-3.28 183.04,-8.19 192.41,-10.93"/>
<polygon fill="black" stroke="black" points="192.17,-12.68 197.46,-12.41 193.15,-9.32 192.17,-12.68"/>
</g>
</g>
</svg>
