<?xml version="1.0" encoding="UTF-8" standalone="no"?>
<!DOCTYPE svg PUBLIC "-//W3C//DTD SVG 1.1//EN"
 "http://www.w3.org/Graphics/SVG/1.1/DTD/svg11.dtd">
<!-- Generated by graphviz version 2.44.1 (0)
 -->
<!-- Title: G Pages: 1 -->
<svg width="245pt" height="127pt"
 viewBox="0.00 0.00 245.09 127.10" xmlns="http://www.w3.org/2000/svg" xmlns:xlink="http://www.w3.org/1999/xlink">
<g id="graph0" class="graph" transform="scale(1 1) rotate(0) translate(4 123.1)">
<title>G</title>
<polygon fill="white" stroke="transparent" points="-4,4 -4,-123.1 241.09,-123.1 241.09,4 -4,4"/>
<!-- S_S -->
<g id="node1" class="node">
<title>S_S</title>
<ellipse fill="#6c9ac3" stroke="#6c9ac3" cx="24.7" cy="-63.35" rx="24.9" ry="24.9"/>
<text text-anchor="middle" x="24.7" y="-59.65" font-family="Times,serif" font-size="14.00">S_S</text>
</g>
<!-- T_exp -->
<g id="node4" class="node">
<title>T_exp</title>
<polygon fill="#e28f41" stroke="#e28f41" points="143.4,-88.85 92.4,-88.85 92.4,-37.85 143.4,-37.85 143.4,-88.85"/>
<text text-anchor="middle" x="117.9" y="-59.65" font-family="Times,serif" font-size="14.00">T_exp</text>
</g>
<!-- S_S&#45;&gt;T_exp -->
<g id="edge2" class="edge">
<title>S_S&#45;&gt;T_exp</title>
<path fill="none" stroke="black" d="M49.66,-63.35C59.58,-63.35 71.27,-63.35 82.11,-63.35"/>
<polygon fill="black" stroke="black" points="82.14,-66.85 92.14,-63.35 82.14,-59.85 82.14,-66.85"/>
<text text-anchor="middle" x="70.9" y="-67.15" font-family="Times,serif" font-size="14.00">1</text>
</g>
<!-- S_I -->
<g id="node2" class="node">
<title>S_I</title>
<ellipse fill="#6c9ac3" stroke="#6c9ac3" cx="211.74" cy="-96.35" rx="23" ry="23"/>
<text text-anchor="middle" x="211.74" y="-92.65" font-family="Times,serif" font-size="14.00">S_I</text>
</g>
<!-- S_I&#45;&gt;T_exp -->
<g id="edge1" class="edge">
<title>S_I&#45;&gt;T_exp</title>
<path fill="none" stroke="black" d="M194.88,-80.57C187.47,-74.28 178.15,-67.73 168.4,-64.35 163.77,-62.74 158.74,-61.8 153.73,-61.31"/>
<polygon fill="black" stroke="black" points="153.74,-57.81 143.6,-60.86 153.43,-64.8 153.74,-57.81"/>
<text text-anchor="middle" x="164.9" y="-68.15" font-family="Times,serif" font-size="14.00">1</text>
</g>
<!-- S_E -->
<g id="node3" class="node">
<title>S_E</title>
<ellipse fill="#6c9ac3" stroke="#6c9ac3" cx="211.74" cy="-25.35" rx="25.2" ry="25.2"/>
<text text-anchor="middle" x="211.74" y="-21.65" font-family="Times,serif" font-size="14.00">S_E</text>
</g>
<!-- T_exp&#45;&gt;S_I -->
<g id="edge3" class="edge">
<title>T_exp&#45;&gt;S_I</title>
<path fill="none" stroke="black" d="M143.57,-72.77C149.4,-74.96 155.61,-77.26 161.4,-79.35 167.55,-81.57 174.16,-83.88 180.47,-86.07"/>
<polygon fill="black" stroke="black" points="179.45,-89.42 190.05,-89.36 181.73,-82.8 179.45,-89.42"/>
<text text-anchor="middle" x="164.9" y="-85.15" font-family="Times,serif" font-size="14.00">1</text>
</g>
<!-- T_exp&#45;&gt;S_E -->
<g id="edge4" class="edge">
<title>T_exp&#45;&gt;S_E</title>
<path fill="none" stroke="black" d="M143.45,-51.33C149.29,-48.61 155.52,-45.79 161.4,-43.35 166.66,-41.16 172.29,-38.96 177.8,-36.9"/>
<polygon fill="black" stroke="black" points="179.3,-40.08 187.48,-33.35 176.89,-33.5 179.3,-40.08"/>
<text text-anchor="middle" x="164.9" y="-47.15" font-family="Times,serif" font-size="14.00">1</text>
</g>
</g>
</svg>
