<?xml version="1.0" encoding="UTF-8" standalone="no"?>
<!DOCTYPE svg PUBLIC "-//W3C//DTD SVG 1.1//EN"
 "http://www.w3.org/Graphics/SVG/1.1/DTD/svg11.dtd">
<!-- Generated by graphviz version 2.40.1 (20161225.0304)
 -->
<!-- Title: G Pages: 1 -->
<svg width="347pt" height="201pt"
 viewBox="0.00 0.00 347.39 201.00" xmlns="http://www.w3.org/2000/svg" xmlns:xlink="http://www.w3.org/1999/xlink">
<g id="graph0" class="graph" transform="scale(1 1) rotate(0) translate(4 197)">
<title>G</title>
<polygon fill="#ffffff" stroke="transparent" points="-4,4 -4,-197 343.3945,-197 343.3945,4 -4,4"/>
<!-- s1 -->
<g id="node1" class="node">
<title>s1</title>
<ellipse fill="#6c9ac3" stroke="#6c9ac3" cx="18" cy="-90" rx="18" ry="18"/>
<text text-anchor="middle" x="18" y="-86.3" font-family="Times,serif" font-size="14.00" fill="#000000">Q</text>
</g>
<!-- t1 -->
<g id="node3" class="node">
<title>t1</title>
<polygon fill="#ffeec6" stroke="#ffeec6" points="123.5,-162 87.5,-162 87.5,-126 123.5,-126 123.5,-162"/>
<text text-anchor="start" x="100" y="-140.3" font-family="Times,serif" font-size="14.00" fill="#000000">id</text>
</g>
<!-- s1&#45;&gt;t1 -->
<g id="edge5" class="edge">
<title>s1&#45;&gt;t1</title>
<path fill="none" stroke="#000000" d="M29.8697,-104.0687C36.4054,-111.1149 45.0032,-119.3296 54,-125 61.2561,-129.5733 69.7754,-133.2793 77.773,-136.1626"/>
<polygon fill="#000000" stroke="#000000" points="76.8965,-139.5592 87.4898,-139.3782 79.0958,-132.9136 76.8965,-139.5592"/>
<text text-anchor="middle" x="58" y="-132.8" font-family="Times,serif" font-size="14.00" fill="#000000">1</text>
</g>
<!-- t4 -->
<g id="node6" class="node">
<title>t4</title>
<polygon fill="#a8dcd9" stroke="#a8dcd9" points="131,-100.5 80,-100.5 80,-49.5 131,-49.5 131,-100.5"/>
<text text-anchor="start" x="88" y="-71.3" font-family="Times,serif" font-size="14.00" fill="#000000">exit_q</text>
</g>
<!-- s1&#45;&gt;t4 -->
<g id="edge1" class="edge">
<title>s1&#45;&gt;t4</title>
<path fill="none" stroke="#000000" d="M33.5228,-80.2643C39.6596,-76.9534 46.9272,-73.6697 54,-72 59.0461,-70.8088 64.4435,-70.3097 69.7754,-70.2507"/>
<polygon fill="#000000" stroke="#000000" points="69.7187,-73.7509 79.8383,-70.6133 69.9708,-66.7554 69.7187,-73.7509"/>
<text text-anchor="middle" x="58" y="-75.8" font-family="Times,serif" font-size="14.00" fill="#000000">1</text>
</g>
<!-- s2 -->
<g id="node2" class="node">
<title>s2</title>
<ellipse fill="#6c9ac3" stroke="#6c9ac3" cx="206.1972" cy="-103" rx="31.3957" ry="31.3957"/>
<text text-anchor="middle" x="206.1972" y="-99.3" font-family="Times,serif" font-size="14.00" fill="#000000">NotQ</text>
</g>
<!-- t2 -->
<g id="node4" class="node">
<title>t2</title>
<polygon fill="#ffeec6" stroke="#ffeec6" points="328.3945,-192 292.3945,-192 292.3945,-156 328.3945,-156 328.3945,-192"/>
<text text-anchor="start" x="304.8945" y="-170.3" font-family="Times,serif" font-size="14.00" fill="#000000">id</text>
</g>
<!-- s2&#45;&gt;t2 -->
<g id="edge6" class="edge">
<title>s2&#45;&gt;t2</title>
<path fill="none" stroke="#000000" d="M217.6565,-132.236C225.6326,-148.2769 237.9888,-166.7409 255.3945,-176 263.4584,-180.2897 273.169,-181.0969 282.1721,-180.4242"/>
<polygon fill="#000000" stroke="#000000" points="282.8264,-183.868 292.2749,-179.0748 281.8996,-176.9296 282.8264,-183.868"/>
<text text-anchor="middle" x="259.3945" y="-181.8" font-family="Times,serif" font-size="14.00" fill="#000000">1</text>
</g>
<!-- t3 -->
<g id="node5" class="node">
<title>t3</title>
<polygon fill="#a8dcd9" stroke="#a8dcd9" points="339.3945,-58 281.3945,-58 281.3945,0 339.3945,0 339.3945,-58"/>
<text text-anchor="start" x="289.3945" y="-25.3" font-family="Times,serif" font-size="14.00" fill="#000000">enter_q</text>
</g>
<!-- s2&#45;&gt;t3 -->
<g id="edge2" class="edge">
<title>s2&#45;&gt;t3</title>
<path fill="none" stroke="#000000" d="M231.3828,-84.3688C239.0603,-78.7439 247.5456,-72.5816 255.3945,-67 260.9867,-63.0232 266.9295,-58.8564 272.7628,-54.7994"/>
<polygon fill="#000000" stroke="#000000" points="274.9509,-57.5414 281.1771,-48.9691 270.964,-51.7877 274.9509,-57.5414"/>
<text text-anchor="middle" x="259.3945" y="-70.8" font-family="Times,serif" font-size="14.00" fill="#000000">1</text>
</g>
<!-- t5 -->
<g id="node7" class="node">
<title>t5</title>
<polygon fill="#a08eae" stroke="#a08eae" points="339.3945,-137 281.3945,-137 281.3945,-79 339.3945,-79 339.3945,-137"/>
<text text-anchor="start" x="289.3945" y="-104.3" font-family="Times,serif" font-size="14.00" fill="#000000">interact</text>
</g>
<!-- s2&#45;&gt;t5 -->
<g id="edge7" class="edge">
<title>s2&#45;&gt;t5</title>
<path fill="none" stroke="#000000" d="M234.2116,-88.7499C243.4345,-85.653 253.7879,-83.8629 263.3945,-86 266.1977,-86.6236 269.0315,-87.433 271.8448,-88.3722"/>
<polygon fill="#000000" stroke="#000000" points="270.6666,-91.6689 281.2567,-91.9845 273.1748,-85.1337 270.6666,-91.6689"/>
<text text-anchor="middle" x="259.3945" y="-89.8" font-family="Times,serif" font-size="14.00" fill="#000000">2</text>
</g>
<!-- t1&#45;&gt;s1 -->
<g id="edge3" class="edge">
<title>t1&#45;&gt;s1</title>
<path fill="none" stroke="#000000" d="M87.1464,-128.0857C79.6395,-122.0021 70.6883,-115.2675 62,-110 56.576,-106.7115 50.5186,-103.6212 44.675,-100.8988"/>
<polygon fill="#000000" stroke="#000000" points="45.7522,-97.5479 35.1918,-96.6945 42.9151,-103.9472 45.7522,-97.5479"/>
<text text-anchor="middle" x="58" y="-113.8" font-family="Times,serif" font-size="14.00" fill="#000000">1</text>
</g>
<!-- t2&#45;&gt;s2 -->
<g id="edge10" class="edge">
<title>t2&#45;&gt;s2</title>
<path fill="none" stroke="#000000" d="M292.2177,-161.6144C278.0871,-151.9857 258.0666,-138.3438 240.8953,-126.6433"/>
<polygon fill="#000000" stroke="#000000" points="242.4566,-123.4718 232.2218,-120.7331 238.5148,-129.2566 242.4566,-123.4718"/>
<text text-anchor="middle" x="259.3945" y="-143.8" font-family="Times,serif" font-size="14.00" fill="#000000">1</text>
</g>
<!-- t3&#45;&gt;s1 -->
<g id="edge8" class="edge">
<title>t3&#45;&gt;s1</title>
<path fill="none" stroke="#000000" d="M281.2183,-24.7792C236.3168,-19.5015 148.3143,-14.0376 80,-40 63.8264,-46.1467 48.6515,-58.2295 37.363,-68.9773"/>
<polygon fill="#000000" stroke="#000000" points="34.8142,-66.5761 30.2042,-76.1154 39.7568,-71.533 34.8142,-66.5761"/>
<text text-anchor="middle" x="153" y="-27.8" font-family="Times,serif" font-size="14.00" fill="#000000">1</text>
</g>
<!-- t4&#45;&gt;s2 -->
<g id="edge9" class="edge">
<title>t4&#45;&gt;s2</title>
<path fill="none" stroke="#000000" d="M131.1707,-82.138C141.8231,-85.1001 154.4336,-88.6065 166.2457,-91.891"/>
<polygon fill="#000000" stroke="#000000" points="165.3475,-95.274 175.9197,-94.581 167.2229,-88.5299 165.3475,-95.274"/>
<text text-anchor="middle" x="153" y="-92.8" font-family="Times,serif" font-size="14.00" fill="#000000">1</text>
</g>
<!-- t5&#45;&gt;s2 -->
<g id="edge4" class="edge">
<title>t5&#45;&gt;s2</title>
<path fill="none" stroke="#000000" d="M281.2918,-106.6035C270.8443,-106.1021 258.8532,-105.5267 247.5648,-104.9851"/>
<polygon fill="#000000" stroke="#000000" points="247.6161,-101.4836 237.4598,-104.5002 247.2806,-108.4755 247.6161,-101.4836"/>
<text text-anchor="middle" x="259.3945" y="-108.8" font-family="Times,serif" font-size="14.00" fill="#000000">2</text>
</g>
</g>
</svg>
