<?xml version="1.0" encoding="UTF-8" standalone="no"?>
<!-- Created with Inkscape (http://www.inkscape.org/) -->

<svg
   width="62.473362mm"
   height="52.279324mm"
   viewBox="0 0 62.473362 52.279324"
   version="1.1"
   id="svg4879"
   inkscape:version="1.2.1 (9c6d41e410, 2022-07-14)"
   sodipodi:docname="sviivr_composite.svg"
   xmlns:inkscape="http://www.inkscape.org/namespaces/inkscape"
   xmlns:sodipodi="http://sodipodi.sourceforge.net/DTD/sodipodi-0.dtd"
   xmlns="http://www.w3.org/2000/svg"
   xmlns:svg="http://www.w3.org/2000/svg">
  <sodipodi:namedview
     id="namedview4881"
     pagecolor="#ffffff"
     bordercolor="#666666"
     borderopacity="1.0"
     inkscape:showpageshadow="2"
     inkscape:pageopacity="0.0"
     inkscape:pagecheckerboard="0"
     inkscape:deskcolor="#d1d1d1"
     inkscape:document-units="mm"
     showgrid="false"
     inkscape:zoom="0.73406285"
     inkscape:cx="117.15618"
     inkscape:cy="154.61891"
     inkscape:window-width="1848"
     inkscape:window-height="1003"
     inkscape:window-x="72"
     inkscape:window-y="40"
     inkscape:window-maximized="1"
     inkscape:current-layer="layer1" />
  <defs
     id="defs4876" />
  <g
     inkscape:label="Layer 1"
     inkscape:groupmode="layer"
     id="layer1"
     transform="translate(-73.844709,-107.81718)">
    <path
       style="fill:#518ab5;fill-opacity:1;fill-rule:nonzero;stroke:none;stroke-width:0.352778"
       d="m 129.77583,139.29501 c -1.49654,1.49655 -1.49654,3.92328 0,5.4212 1.49655,1.49655 3.92328,1.49655 5.41983,0 1.49655,-1.49792 1.49655,-3.92465 0,-5.4212 -1.49655,-1.49655 -3.92328,-1.49655 -5.41983,0"
       id="path2148" />
    <g
       style="fill:#000000;fill-opacity:1"
       id="g2152"
       transform="matrix(0.35277777,0,0,0.35277777,71.826573,59.811154)">
      <g
         id="use2150"
         transform="translate(168.6528,236.4917)">
        <path
           style="stroke:none"
           d="M 6.359375,-6.046875 H 4.5 V -5.875 c 0.359375,0.046875 0.65625,0.03125 0.65625,0.375 0,0.15625 -0.0625,0.390625 -0.171875,0.65625 l -1.34375,3.375 L 2.25,-4.59375 C 1.984375,-5.203125 1.890625,-5.421875 1.890625,-5.5625 c 0,-0.1875 0.125,-0.265625 0.421875,-0.28125 L 2.5625,-5.875 V -6.046875 H 0.140625 V -5.875 c 0.46875,0.015625 0.59375,0.125 0.984375,1.015625 L 3.359375,0.09375 H 3.5 l 2.015625,-5.125 C 5.78125,-5.71875 6,-5.859375 6.359375,-5.875 Z m 0,0"
           id="path5255" />
      </g>
    </g>
    <path
       style="fill:#518ab5;fill-opacity:1;fill-rule:nonzero;stroke:none;stroke-width:0.352778"
       d="m 101.9119,108.93959 c -1.49792,1.49655 -1.49792,3.92327 0,5.4212 1.49655,1.49655 3.92328,1.49655 5.41983,0 1.49655,-1.49793 1.49655,-3.92465 0,-5.4212 -1.49655,-1.49655 -3.92328,-1.49655 -5.41983,0"
       id="path2154" />
    <g
       style="fill:#000000;fill-opacity:1"
       id="g2158"
       transform="matrix(0.35277777,0,0,0.35277777,71.826573,59.811154)">
      <g
         id="use2156"
         transform="translate(89.918701,150.4445)">
        <path
           style="stroke:none"
           d="m 1.859375,-5.3125 c 0,-0.328125 0.15625,-0.390625 0.46875,-0.390625 1.125,0 1.671875,0.40625 1.671875,1.21875 C 4,-4.03125 3.8125,-3.625 3.484375,-3.4375 c -0.421875,0.21875 -0.75,0.296875 -1.625,0.3125 z M 6.015625,0 V -0.171875 C 5.625,-0.203125 5.421875,-0.265625 5.171875,-0.609375 L 3.34375,-2.90625 c 1.140625,-0.171875 1.640625,-0.703125 1.640625,-1.5 C 4.984375,-4.8125 4.84375,-5.25 4.546875,-5.5 4.15625,-5.828125 3.5,-6.046875 2.640625,-6.046875 H 0.15625 V -5.875 c 0.703125,0.0625 0.78125,0.171875 0.78125,0.84375 V -1.125 c 0,0.796875 -0.09375,0.890625 -0.78125,0.953125 V 0 h 2.515625 v -0.171875 c -0.703125,-0.046875 -0.8125,-0.15625 -0.8125,-0.84375 v -1.78125 L 2.375,-2.8125 4.546875,0 Z m 0,0"
           id="path5287" />
      </g>
    </g>
    <path
       style="fill:#518ab5;fill-opacity:1;fill-rule:nonzero;stroke:none;stroke-width:0.352778"
       d="m 115.90037,124.76911 c -1.49655,1.49655 -1.49655,3.92328 0,5.41982 1.49793,1.49656 3.92465,1.49656 5.4212,0 1.49655,-1.49654 1.49655,-3.92327 0,-5.41982 -1.49655,-1.49655 -3.92327,-1.49655 -5.4212,0"
       id="path2160" />
    <g
       style="fill:#000000;fill-opacity:1"
       id="g2166"
       transform="matrix(0.35277777,0,0,0.35277777,71.826573,59.811154)">
      <g
         id="use2162"
         transform="translate(128.8166,195.31509)">
        <path
           style="stroke:none"
           d="M 2.875,0 V -0.171875 C 2.125,-0.203125 1.984375,-0.34375 1.984375,-1.015625 V -5.03125 c 0,-0.6875 0.125,-0.796875 0.890625,-0.84375 V -6.046875 H 0.171875 V -5.875 c 0.765625,0.046875 0.875,0.125 0.875,0.84375 v 4.015625 c 0,0.703125 -0.109375,0.8125 -0.875,0.84375 V 0 Z m 0,0"
           id="path5295" />
      </g>
      <g
         id="use2164"
         transform="translate(131.85579,195.31509)">
        <path
           style="stroke:none"
           d="m 4.359375,-4.109375 h -1.28125 v 0.140625 c 0.296875,0.03125 0.4375,0.125 0.4375,0.296875 C 3.515625,-3.59375 3.5,-3.5 3.453125,-3.40625 L 2.5625,-1.046875 1.625,-3.375 c -0.0625,-0.140625 -0.078125,-0.25 -0.078125,-0.34375 0,-0.15625 0.109375,-0.21875 0.421875,-0.25 V -4.109375 H 0.171875 V -3.96875 C 0.515625,-3.953125 0.609375,-3.859375 1,-2.921875 l 1.09375,2.625 c 0.046875,0.078125 0.046875,0.140625 0.078125,0.1875 C 2.234375,0.0625 2.28125,0.125 2.34375,0.125 c 0.046875,0 0.109375,-0.109375 0.25,-0.453125 L 3.765625,-3.25 C 4,-3.875 4.078125,-3.9375 4.359375,-3.96875 Z m 0,0"
           id="path5231" />
      </g>
    </g>
    <path
       style="fill:#e17d35;fill-opacity:1;fill-rule:nonzero;stroke:none;stroke-width:0.352778"
       d="m 135.36102,124.98822 v 4.98299 c 0,0.21084 -0.17225,0.38309 -0.38447,0.38309 h -4.98161 c -0.21221,0 -0.38309,-0.17225 -0.38309,-0.38309 v -4.98299 c 0,-0.21222 0.17088,-0.38309 0.38309,-0.38309 h 4.98161 c 0.21222,0 0.38447,0.17087 0.38447,0.38309 z m 0,0"
       id="path2168" />
    <g
       style="fill:#000000;fill-opacity:1"
       id="g2172"
       transform="matrix(0.35277777,0,0,0.35277777,71.826573,59.811154)">
      <g
         id="use2170"
         transform="translate(169.02589,193.81509)">
        <path
           style="stroke:none"
           d="M 0.90625,-2.84375 V -2.9375 c 0,-0.53125 0.1875,-0.90625 0.546875,-0.90625 0.46875,0 0.578125,0.546875 0.578125,0.953125 0,0.21875 -0.078125,0.46875 -0.25,0.46875 -0.078125,0 -0.25,-0.046875 -0.296875,-0.046875 -0.1875,0 -0.25,0.0625 -0.25,0.125 0,0.09375 0.09375,0.15625 0.234375,0.15625 0.109375,0 0.140625,-0.046875 0.265625,-0.046875 0.171875,0 0.5,0.265625 0.5,1.046875 0,0.59375 -0.28125,1.0625 -0.71875,1.0625 -0.3125,0 -0.609375,-0.21875 -0.609375,-0.390625 z m 1.109375,0.5 C 2.21875,-2.421875 2.34375,-2.546875 2.421875,-2.6875 2.484375,-2.828125 2.5,-2.96875 2.5,-3.09375 2.5,-3.609375 2.03125,-4 1.5625,-4 0.9375,-4 0.421875,-3.609375 0.421875,-2.1875 v 2.984375 c 0,0.171875 -0.046875,0.359375 -0.09375,0.46875 H 0.8125 C 0.84375,1.1875 0.90625,1.015625 0.90625,0.796875 V -0.1875 c 0.21875,0.203125 0.375,0.25 0.625,0.25 0.6875,0 1.203125,-0.6875 1.203125,-1.40625 0,-0.453125 -0.25,-0.890625 -0.703125,-0.984375 z m 0,0"
           id="path5239" />
      </g>
    </g>
    <g
       style="fill:#000000;fill-opacity:1"
       id="g2176"
       transform="matrix(0.35277777,0,0,0.35277777,71.826573,59.811154)">
      <g
         id="use2174"
         transform="translate(171.93573,193.81509)">
        <path
           style="stroke:none"
           d="m 2.796875,-2.640625 h -0.8125 v 0.09375 C 2.171875,-2.53125 2.25,-2.46875 2.25,-2.359375 c 0,0.0625 0,0.109375 -0.03125,0.171875 l -0.578125,1.515625 -0.59375,-1.5 c -0.03125,-0.078125 -0.0625,-0.15625 -0.0625,-0.21875 0,-0.09375 0.078125,-0.140625 0.28125,-0.15625 v -0.09375 h -1.15625 v 0.09375 c 0.21875,0.015625 0.28125,0.0625 0.53125,0.671875 L 1.34375,-0.1875 C 1.375,-0.140625 1.375,-0.09375 1.390625,-0.078125 1.4375,0.03125 1.46875,0.078125 1.5,0.078125 1.53125,0.078125 1.578125,0 1.671875,-0.21875 l 0.75,-1.875 c 0.15625,-0.390625 0.203125,-0.4375 0.375,-0.453125 z m 0,0"
           id="path5311" />
      </g>
    </g>
    <path
       style="fill:none;stroke:#7f7f7f;stroke-width:0.230011;stroke-linecap:round;stroke-linejoin:round;stroke-miterlimit:10;stroke-opacity:1"
       d="m 132.48506,138.17329 v -5.48183"
       id="path2178" />
    <path
       style="fill:#7f7f7f;fill-opacity:1;fill-rule:nonzero;stroke:#7f7f7f;stroke-width:0.230011;stroke-linecap:butt;stroke-linejoin:miter;stroke-miterlimit:10;stroke-opacity:1"
       d="m 132.48506,130.85178 -0.68902,1.83968 h 1.37941 z m 0,0"
       id="path2180" />
    <path
       style="fill:#e17d35;fill-opacity:1;fill-rule:nonzero;stroke:none;stroke-width:0.352778"
       d="m 121.10246,108.7756 h -4.98298 c -0.21084,0 -0.3831,0.17088 -0.3831,0.38309 v 4.98299 c 0,0.21084 0.17226,0.3831 0.3831,0.3831 h 4.98298 c 0.21222,0 0.3831,-0.17226 0.3831,-0.3831 v -4.98299 c 0,-0.21221 -0.17088,-0.38309 -0.3831,-0.38309 z m 0,0"
       id="path2182" />
    <g
       style="fill:#000000;fill-opacity:1"
       id="g2190"
       transform="matrix(0.35277777,0,0,0.35277777,71.826573,59.811154)">
      <g
         id="use2188"
         transform="translate(130.49416,148.9445)">
        <path
           style="stroke:none"
           d="M 2.609375,-2.640625 H 2.015625 L 1.40625,-0.5625 C 1.3125,-1.078125 1.25,-2.671875 0.5625,-2.671875 c -0.34375,0 -0.5,0.4375 -0.5,0.921875 h 0.078125 c 0.046875,-0.359375 0.21875,-0.515625 0.34375,-0.515625 0.5625,0 0.71875,1.625 0.765625,2.046875 C 1.1875,-0.046875 1.109375,0.125 1.0625,0.3125 0.984375,0.53125 0.953125,0.734375 0.953125,0.875 c 0,0.234375 0.09375,0.40625 0.28125,0.40625 C 1.53125,1.28125 1.59375,1 1.59375,0.6875 1.59375,0.4375 1.546875,0.15625 1.515625,0 Z m 0,0"
           id="path5263" />
      </g>
    </g>
    <g
       style="fill:#000000;fill-opacity:1"
       id="g2194"
       transform="matrix(0.35277777,0,0,0.35277777,71.826573,59.811154)">
      <g
         id="use2192"
         transform="translate(133.27492,148.9445)">
        <path
           style="stroke:none"
           d="m 2.796875,-2.640625 h -0.8125 v 0.09375 C 2.171875,-2.53125 2.25,-2.46875 2.25,-2.359375 c 0,0.0625 0,0.109375 -0.03125,0.171875 l -0.578125,1.515625 -0.59375,-1.5 c -0.03125,-0.078125 -0.0625,-0.15625 -0.0625,-0.21875 0,-0.09375 0.078125,-0.140625 0.28125,-0.15625 v -0.09375 h -1.15625 v 0.09375 c 0.21875,0.015625 0.28125,0.0625 0.53125,0.671875 L 1.34375,-0.1875 C 1.375,-0.140625 1.375,-0.09375 1.390625,-0.078125 1.4375,0.03125 1.46875,0.078125 1.5,0.078125 1.53125,0.078125 1.578125,0 1.671875,-0.21875 l 0.75,-1.875 c 0.15625,-0.390625 0.203125,-0.4375 0.375,-0.453125 z m 0,0"
           id="path5315" />
      </g>
    </g>
    <path
       style="fill:none;stroke:#7f7f7f;stroke-width:0.230011;stroke-linecap:round;stroke-linejoin:round;stroke-miterlimit:10;stroke-opacity:1"
       d="m 122.44329,127.50314 c 1.43454,0.008 3.02204,0.0152 4.29397,0.0152 0.19017,0 0.36931,-10e-4 0.53743,-10e-4"
       id="path2196" />
    <path
       style="fill:#7f7f7f;fill-opacity:1;fill-rule:nonzero;stroke:#7f7f7f;stroke-width:0.230011;stroke-linecap:butt;stroke-linejoin:miter;stroke-miterlimit:10;stroke-opacity:1"
       d="m 129.113,127.49074 -1.84933,-0.66284 0.0193,1.37942 z m 0,0"
       id="path2198" />
    <path
       style="fill:none;stroke:#7f7f7f;stroke-width:0.230011;stroke-linecap:round;stroke-linejoin:round;stroke-miterlimit:10;stroke-opacity:1"
       d="m 129.61185,125.56286 c 0,0 -2.34542,-0.36517 -5.158,0.007"
       id="path2200" />
    <path
       style="fill:#7f7f7f;fill-opacity:1;fill-rule:nonzero;stroke:#7f7f7f;stroke-width:0.230011;stroke-linecap:butt;stroke-linejoin:miter;stroke-miterlimit:10;stroke-opacity:1"
       d="m 122.65,125.93494 1.94028,0.31143 -0.27423,-1.35323 z m 0,0"
       id="path2202" />
    <path
       style="fill:none;stroke:#7f7f7f;stroke-width:0.230011;stroke-linecap:round;stroke-linejoin:round;stroke-miterlimit:10;stroke-opacity:1"
       d="m 129.61185,129.39519 c 0,0 -2.19246,0.63114 -5.20761,0.14883"
       id="path2204" />
    <path
       style="fill:#7f7f7f;fill-opacity:1;fill-rule:nonzero;stroke:#7f7f7f;stroke-width:0.230011;stroke-linecap:butt;stroke-linejoin:miter;stroke-miterlimit:10;stroke-opacity:1"
       d="m 122.61555,129.11545 1.62884,1.09967 0.3197,-1.34221 z m 0,0"
       id="path2206" />
    <path
       style="fill:none;stroke:#7f7f7f;stroke-width:0.230011;stroke-linecap:round;stroke-linejoin:round;stroke-miterlimit:10;stroke-opacity:1"
       d="m 118.61097,123.64601 v -6.7827"
       id="path2208" />
    <path
       style="fill:#7f7f7f;fill-opacity:1;fill-rule:nonzero;stroke:#7f7f7f;stroke-width:0.230011;stroke-linecap:butt;stroke-linejoin:miter;stroke-miterlimit:10;stroke-opacity:1"
       d="m 118.61097,115.02363 -0.6904,1.83968 h 1.3808 z m 0,0"
       id="path2210" />
    <path
       style="fill:none;stroke:#7f7f7f;stroke-width:0.230011;stroke-linecap:round;stroke-linejoin:round;stroke-miterlimit:10;stroke-opacity:1"
       d="m 115.73638,111.65019 h -4.9444"
       id="path2212" />
    <path
       style="fill:#7f7f7f;fill-opacity:1;fill-rule:nonzero;stroke:#7f7f7f;stroke-width:0.230011;stroke-linecap:butt;stroke-linejoin:miter;stroke-miterlimit:10;stroke-opacity:1"
       d="m 108.9523,111.65019 1.83968,0.68902 v -1.37942 z m 0,0"
       id="path2214" />
    <path
       style="fill:#518ab5;fill-opacity:1;fill-rule:nonzero;stroke:none;stroke-width:0.352778"
       d="m 80.464116,139.21922 c 1.496549,1.49655 1.496549,3.92327 0,5.4212 -1.496549,1.49655 -3.923275,1.49655 -5.421202,0 -1.495171,-1.49793 -1.495171,-3.92465 0,-5.4212 1.497927,-1.49655 3.924653,-1.49655 5.421202,0"
       id="path2216" />
    <g
       style="fill:#000000;fill-opacity:1"
       id="g2220"
       transform="matrix(0.35277777,0,0,0.35277777,71.826573,59.811154)">
      <g
         id="use2218"
         transform="translate(14.2646,236.2766)">
        <path
           style="stroke:none"
           d="M 4.28125,-4.21875 4.078125,-6.171875 h -0.1875 C 3.84375,-5.96875 3.75,-5.859375 3.59375,-5.859375 3.5,-5.859375 3.359375,-5.890625 3.1875,-5.96875 2.84375,-6.109375 2.609375,-6.171875 2.234375,-6.171875 c -0.90625,0 -1.59375,0.609375 -1.59375,1.59375 C 0.640625,-4 0.9375,-3.4375 1.765625,-3 2.34375,-2.6875 2.96875,-2.296875 3.296875,-1.9375 3.46875,-1.75 3.5625,-1.546875 3.5625,-1.21875 c 0,0.59375 -0.453125,1.015625 -1.09375,1.015625 -0.859375,0 -1.453125,-0.515625 -1.875,-1.609375 H 0.390625 L 0.65625,0.125 h 0.203125 c 0,-0.203125 0.109375,-0.3125 0.25,-0.3125 0.109375,0 0.265625,0.03125 0.4375,0.109375 C 1.875,0.0625 2.234375,0.125 2.625,0.125 c 1.046875,0 1.859375,-0.6875 1.859375,-1.703125 0,-0.6875 -0.453125,-1.21875 -1.421875,-1.78125 -0.953125,-0.5625 -1.625,-0.953125 -1.625,-1.5625 0,-0.5 0.34375,-0.875 0.921875,-0.875 0.546875,0 1,0.296875 1.3125,0.71875 0.171875,0.21875 0.265625,0.453125 0.375,0.859375 z m 0,0"
           id="path5271" />
      </g>
    </g>
    <path
       style="fill:none;stroke:#7f7f7f;stroke-width:0.230011;stroke-linecap:round;stroke-linejoin:round;stroke-miterlimit:10;stroke-opacity:1"
       d="m 77.753515,138.09612 v -4.02525"
       id="path2222" />
    <path
       style="fill:#7f7f7f;fill-opacity:1;fill-rule:nonzero;stroke:#7f7f7f;stroke-width:0.230011;stroke-linecap:butt;stroke-linejoin:miter;stroke-miterlimit:10;stroke-opacity:1"
       d="m 77.753515,132.23119 -0.689019,1.83968 h 1.379416 z m 0,0"
       id="path2224" />
    <path
       style="fill:#518ab5;fill-opacity:1;fill-rule:nonzero;stroke:none;stroke-width:0.352778"
       d="m 107.33173,108.93959 c 1.49655,1.49655 1.49655,3.92327 0,5.4212 -1.49655,1.49655 -3.92328,1.49655 -5.41983,0 -1.49792,-1.49793 -1.49792,-3.92465 0,-5.4212 1.49655,-1.49655 3.92328,-1.49655 5.41983,0"
       id="path2226" />
    <g
       style="fill:#000000;fill-opacity:1"
       id="g2230"
       transform="matrix(0.35277777,0,0,0.35277777,71.826573,59.811154)">
      <g
         id="use2228"
         transform="translate(89.918701,150.4445)">
        <path
           style="stroke:none"
           d="m 1.859375,-5.3125 c 0,-0.328125 0.15625,-0.390625 0.46875,-0.390625 1.125,0 1.671875,0.40625 1.671875,1.21875 C 4,-4.03125 3.8125,-3.625 3.484375,-3.4375 c -0.421875,0.21875 -0.75,0.296875 -1.625,0.3125 z M 6.015625,0 V -0.171875 C 5.625,-0.203125 5.421875,-0.265625 5.171875,-0.609375 L 3.34375,-2.90625 c 1.140625,-0.171875 1.640625,-0.703125 1.640625,-1.5 C 4.984375,-4.8125 4.84375,-5.25 4.546875,-5.5 4.15625,-5.828125 3.5,-6.046875 2.640625,-6.046875 H 0.15625 V -5.875 c 0.703125,0.0625 0.78125,0.171875 0.78125,0.84375 V -1.125 c 0,0.796875 -0.09375,0.890625 -0.78125,0.953125 V 0 h 2.515625 v -0.171875 c -0.703125,-0.046875 -0.8125,-0.15625 -0.8125,-0.84375 v -1.78125 L 2.375,-2.8125 4.546875,0 Z m 0,0"
           id="path5291" />
      </g>
    </g>
    <path
       style="fill:#518ab5;fill-opacity:1;fill-rule:nonzero;stroke:none;stroke-width:0.352778"
       d="m 94.262412,126.14853 c 1.49655,1.49655 1.49655,3.92327 0,5.41982 -1.496549,1.49655 -3.923274,1.49655 -5.421202,0 -1.496549,-1.49655 -1.496549,-3.92327 0,-5.41982 1.497928,-1.49655 3.924653,-1.49655 5.421202,0"
       id="path2232" />
    <g
       style="fill:#000000;fill-opacity:1"
       id="g2236"
       transform="matrix(0.35277777,0,0,0.35277777,71.826573,59.811154)">
      <g
         id="use2234"
         transform="translate(54.3946,199.22411)">
        <path
           style="stroke:none"
           d="M 2.875,0 V -0.171875 C 2.125,-0.203125 1.984375,-0.34375 1.984375,-1.015625 V -5.03125 c 0,-0.6875 0.125,-0.796875 0.890625,-0.84375 V -6.046875 H 0.171875 V -5.875 c 0.765625,0.046875 0.875,0.125 0.875,0.84375 v 4.015625 c 0,0.703125 -0.109375,0.8125 -0.875,0.84375 V 0 Z m 0,0"
           id="path5299" />
      </g>
    </g>
    <path
       style="fill:#e17d35;fill-opacity:1;fill-rule:nonzero;stroke:none;stroke-width:0.352778"
       d="m 74.878928,126.36626 v 4.98299 c 0,0.21221 0.172254,0.38309 0.383094,0.38309 h 4.982986 c 0.212218,0 0.383095,-0.17088 0.383095,-0.38309 v -4.98299 c 0,-0.21084 -0.170877,-0.3831 -0.383095,-0.3831 h -4.982986 c -0.21084,0 -0.383094,0.17226 -0.383094,0.3831 z m 0,0"
       id="path2238" />
    <g
       style="fill:#000000;fill-opacity:1"
       id="g2242"
       transform="matrix(0.35277777,0,0,0.35277777,71.826573,59.811154)">
      <g
         id="use2240"
         transform="translate(15.3469,197.72411)">
        <path
           style="stroke:none"
           d="M 0.90625,-2.84375 V -2.9375 c 0,-0.53125 0.1875,-0.90625 0.546875,-0.90625 0.46875,0 0.578125,0.546875 0.578125,0.953125 0,0.21875 -0.078125,0.46875 -0.25,0.46875 -0.078125,0 -0.25,-0.046875 -0.296875,-0.046875 -0.1875,0 -0.25,0.0625 -0.25,0.125 0,0.09375 0.09375,0.15625 0.234375,0.15625 0.109375,0 0.140625,-0.046875 0.265625,-0.046875 0.171875,0 0.5,0.265625 0.5,1.046875 0,0.59375 -0.28125,1.0625 -0.71875,1.0625 -0.3125,0 -0.609375,-0.21875 -0.609375,-0.390625 z m 1.109375,0.5 C 2.21875,-2.421875 2.34375,-2.546875 2.421875,-2.6875 2.484375,-2.828125 2.5,-2.96875 2.5,-3.09375 2.5,-3.609375 2.03125,-4 1.5625,-4 0.9375,-4 0.421875,-3.609375 0.421875,-2.1875 v 2.984375 c 0,0.171875 -0.046875,0.359375 -0.09375,0.46875 H 0.8125 C 0.84375,1.1875 0.90625,1.015625 0.90625,0.796875 V -0.1875 c 0.21875,0.203125 0.375,0.25 0.625,0.25 0.6875,0 1.203125,-0.6875 1.203125,-1.40625 0,-0.453125 -0.25,-0.890625 -0.703125,-0.984375 z m 0,0"
           id="path5243" />
      </g>
    </g>
    <path
       style="fill:#e17d35;fill-opacity:1;fill-rule:nonzero;stroke:none;stroke-width:0.352778"
       d="m 89.060318,108.7756 h 4.982986 c 0.21084,0 0.383095,0.17088 0.383095,0.38309 v 4.98299 c 0,0.21084 -0.172255,0.3831 -0.383095,0.3831 h -4.982986 c -0.21084,0 -0.383094,-0.17226 -0.383094,-0.3831 v -4.98299 c 0,-0.21221 0.172254,-0.38309 0.383094,-0.38309 z m 0,0"
       id="path2244" />
    <g
       style="fill:#000000;fill-opacity:1"
       id="g2252"
       transform="matrix(0.35277777,0,0,0.35277777,71.826573,59.811154)">
      <g
         id="use2250"
         transform="translate(55.257149,148.9445)">
        <path
           style="stroke:none"
           d="M 2.609375,-2.640625 H 2.015625 L 1.40625,-0.5625 C 1.3125,-1.078125 1.25,-2.671875 0.5625,-2.671875 c -0.34375,0 -0.5,0.4375 -0.5,0.921875 h 0.078125 c 0.046875,-0.359375 0.21875,-0.515625 0.34375,-0.515625 0.5625,0 0.71875,1.625 0.765625,2.046875 C 1.1875,-0.046875 1.109375,0.125 1.0625,0.3125 0.984375,0.53125 0.953125,0.734375 0.953125,0.875 c 0,0.234375 0.09375,0.40625 0.28125,0.40625 C 1.53125,1.28125 1.59375,1 1.59375,0.6875 1.59375,0.4375 1.546875,0.15625 1.515625,0 Z m 0,0"
           id="path5267" />
      </g>
    </g>
    <path
       style="fill:none;stroke:#7f7f7f;stroke-width:0.230011;stroke-linecap:round;stroke-linejoin:round;stroke-miterlimit:10;stroke-opacity:1"
       d="m 87.719487,128.88394 c -1.333941,0.007 -2.797417,0.0124 -4.007335,0.0124 -0.271473,0 -0.51952,0 -0.745518,-0.001"
       id="path2254" />
    <path
       style="fill:#7f7f7f;fill-opacity:1;fill-rule:nonzero;stroke:#7f7f7f;stroke-width:0.230011;stroke-linecap:butt;stroke-linejoin:miter;stroke-miterlimit:10;stroke-opacity:1"
       d="m 81.126952,128.86602 1.828657,0.71934 0.02205,-1.37942 z m 0,0"
       id="path2256" />
    <path
       style="fill:none;stroke:#7f7f7f;stroke-width:0.230011;stroke-linecap:round;stroke-linejoin:round;stroke-miterlimit:10;stroke-opacity:1"
       d="m 80.628103,126.94228 c 0,0 2.384006,-0.34313 5.101497,-0.0262"
       id="path2258" />
    <path
       style="fill:#7f7f7f;fill-opacity:1;fill-rule:nonzero;stroke:#7f7f7f;stroke-width:0.230011;stroke-linecap:butt;stroke-linejoin:miter;stroke-miterlimit:10;stroke-opacity:1"
       d="m 87.537586,127.25647 -1.679828,-1.01837 -0.256316,1.35599 z m 0,0"
       id="path2260" />
    <path
       style="fill:none;stroke:#7f7f7f;stroke-width:0.230011;stroke-linecap:round;stroke-linejoin:round;stroke-miterlimit:10;stroke-opacity:1"
       d="m 80.628103,130.77461 c 0,0 2.273763,0.59393 5.153863,0.18741"
       id="path2262" />
    <path
       style="fill:#7f7f7f;fill-opacity:1;fill-rule:nonzero;stroke:#7f7f7f;stroke-width:0.230011;stroke-linecap:butt;stroke-linejoin:miter;stroke-miterlimit:10;stroke-opacity:1"
       d="m 87.576171,130.5555 -1.947168,-0.26596 0.305925,1.34634 z m 0,0"
       id="path2264" />
    <path
       style="fill:none;stroke:#7f7f7f;stroke-width:0.230011;stroke-linecap:round;stroke-linejoin:round;stroke-miterlimit:10;stroke-opacity:1"
       d="m 91.551811,125.02543 v -8.16212"
       id="path2266" />
    <path
       style="fill:#7f7f7f;fill-opacity:1;fill-rule:nonzero;stroke:#7f7f7f;stroke-width:0.230011;stroke-linecap:butt;stroke-linejoin:miter;stroke-miterlimit:10;stroke-opacity:1"
       d="m 91.551811,115.02363 -0.689019,1.83968 h 1.379416 z m 0,0"
       id="path2268" />
    <path
       style="fill:none;stroke:#7f7f7f;stroke-width:0.230011;stroke-linecap:round;stroke-linejoin:round;stroke-miterlimit:10;stroke-opacity:1"
       d="M 94.426399,111.65019 H 98.45027"
       id="path2270" />
    <path
       style="fill:#7f7f7f;fill-opacity:1;fill-rule:nonzero;stroke:#7f7f7f;stroke-width:0.230011;stroke-linecap:butt;stroke-linejoin:miter;stroke-miterlimit:10;stroke-opacity:1"
       d="m 100.28995,111.65019 -1.83968,-0.6904 v 1.37942 z m 0,0"
       id="path2272" />
    <path
       style="fill:#518ab5;fill-opacity:1;fill-rule:nonzero;stroke:none;stroke-width:0.352778"
       d="m 80.386946,139.29501 c 1.497928,1.49655 1.497928,3.92328 0,5.4212 -1.496549,1.49655 -3.923275,1.49655 -5.419824,0 -1.49655,-1.49792 -1.49655,-3.92465 0,-5.4212 1.496549,-1.49655 3.923275,-1.49655 5.419824,0"
       id="path2274" />
    <g
       style="fill:#000000;fill-opacity:1"
       id="g2278"
       transform="matrix(0.35277777,0,0,0.35277777,71.826573,59.811154)">
      <g
         id="use2276"
         transform="translate(14.0473,236.4917)">
        <path
           style="stroke:none"
           d="M 4.28125,-4.21875 4.078125,-6.171875 h -0.1875 C 3.84375,-5.96875 3.75,-5.859375 3.59375,-5.859375 3.5,-5.859375 3.359375,-5.890625 3.1875,-5.96875 2.84375,-6.109375 2.609375,-6.171875 2.234375,-6.171875 c -0.90625,0 -1.59375,0.609375 -1.59375,1.59375 C 0.640625,-4 0.9375,-3.4375 1.765625,-3 2.34375,-2.6875 2.96875,-2.296875 3.296875,-1.9375 3.46875,-1.75 3.5625,-1.546875 3.5625,-1.21875 c 0,0.59375 -0.453125,1.015625 -1.09375,1.015625 -0.859375,0 -1.453125,-0.515625 -1.875,-1.609375 H 0.390625 L 0.65625,0.125 h 0.203125 c 0,-0.203125 0.109375,-0.3125 0.25,-0.3125 0.109375,0 0.265625,0.03125 0.4375,0.109375 C 1.875,0.0625 2.234375,0.125 2.625,0.125 c 1.046875,0 1.859375,-0.6875 1.859375,-1.703125 0,-0.6875 -0.453125,-1.21875 -1.421875,-1.78125 -0.953125,-0.5625 -1.625,-0.953125 -1.625,-1.5625 0,-0.5 0.34375,-0.875 0.921875,-0.875 0.546875,0 1,0.296875 1.3125,0.71875 0.171875,0.21875 0.265625,0.453125 0.375,0.859375 z m 0,0"
           id="path5275" />
      </g>
    </g>
    <path
       style="fill:#518ab5;fill-opacity:1;fill-rule:nonzero;stroke:none;stroke-width:0.352778"
       d="m 94.262412,126.14853 c 1.49655,1.49655 1.49655,3.92327 0,5.41982 -1.496549,1.49655 -3.923274,1.49655 -5.421202,0 -1.496549,-1.49655 -1.496549,-3.92327 0,-5.41982 1.497928,-1.49655 3.924653,-1.49655 5.421202,0"
       id="path2280" />
    <g
       style="fill:#000000;fill-opacity:1"
       id="g2284"
       transform="matrix(0.35277777,0,0,0.35277777,71.826573,59.811154)">
      <g
         id="use2282"
         transform="translate(54.3946,199.22411)">
        <path
           style="stroke:none"
           d="M 2.875,0 V -0.171875 C 2.125,-0.203125 1.984375,-0.34375 1.984375,-1.015625 V -5.03125 c 0,-0.6875 0.125,-0.796875 0.890625,-0.84375 V -6.046875 H 0.171875 V -5.875 c 0.765625,0.046875 0.875,0.125 0.875,0.84375 v 4.015625 c 0,0.703125 -0.109375,0.8125 -0.875,0.84375 V 0 Z m 0,0"
           id="path5303" />
      </g>
    </g>
    <path
       style="fill:#e17d35;fill-opacity:1;fill-rule:nonzero;stroke:none;stroke-width:0.352778"
       d="m 88.677224,139.51412 v 4.98299 c 0,0.21083 0.172254,0.38309 0.383094,0.38309 h 4.982986 c 0.21084,0 0.383095,-0.17226 0.383095,-0.38309 v -4.98299 c 0,-0.21222 -0.172255,-0.38309 -0.383095,-0.38309 h -4.982986 c -0.21084,0 -0.383094,0.17087 -0.383094,0.38309 z m 0,0"
       id="path2286" />
    <g
       style="fill:#000000;fill-opacity:1"
       id="g2290"
       transform="matrix(0.35277777,0,0,0.35277777,71.826573,59.811154)">
      <g
         id="use2288"
         transform="translate(54.459301,234.9917)">
        <path
           style="stroke:none"
           d="M 0.90625,-2.84375 V -2.9375 c 0,-0.53125 0.1875,-0.90625 0.546875,-0.90625 0.46875,0 0.578125,0.546875 0.578125,0.953125 0,0.21875 -0.078125,0.46875 -0.25,0.46875 -0.078125,0 -0.25,-0.046875 -0.296875,-0.046875 -0.1875,0 -0.25,0.0625 -0.25,0.125 0,0.09375 0.09375,0.15625 0.234375,0.15625 0.109375,0 0.140625,-0.046875 0.265625,-0.046875 0.171875,0 0.5,0.265625 0.5,1.046875 0,0.59375 -0.28125,1.0625 -0.71875,1.0625 -0.3125,0 -0.609375,-0.21875 -0.609375,-0.390625 z m 1.109375,0.5 C 2.21875,-2.421875 2.34375,-2.546875 2.421875,-2.6875 2.484375,-2.828125 2.5,-2.96875 2.5,-3.09375 2.5,-3.609375 2.03125,-4 1.5625,-4 0.9375,-4 0.421875,-3.609375 0.421875,-2.1875 v 2.984375 c 0,0.171875 -0.046875,0.359375 -0.09375,0.46875 H 0.8125 C 0.84375,1.1875 0.90625,1.015625 0.90625,0.796875 V -0.1875 c 0.21875,0.203125 0.375,0.25 0.625,0.25 0.6875,0 1.203125,-0.6875 1.203125,-1.40625 0,-0.453125 -0.25,-0.890625 -0.703125,-0.984375 z m 0,0"
           id="path5247" />
      </g>
    </g>
    <path
       style="fill:none;stroke:#7f7f7f;stroke-width:0.230011;stroke-linecap:round;stroke-linejoin:round;stroke-miterlimit:10;stroke-opacity:1"
       d="m 81.510047,142.00562 h 4.828646"
       id="path2292" />
    <path
       style="fill:#7f7f7f;fill-opacity:1;fill-rule:nonzero;stroke:#7f7f7f;stroke-width:0.230011;stroke-linecap:butt;stroke-linejoin:miter;stroke-miterlimit:10;stroke-opacity:1"
       d="m 88.178374,142.00562 -1.839681,-0.6904 v 1.37942 z m 0,0"
       id="path2294" />
    <path
       style="fill:#518ab5;fill-opacity:1;fill-rule:nonzero;stroke:none;stroke-width:0.352778"
       d="m 129.77583,139.29501 c -1.49654,1.49655 -1.49654,3.92328 0,5.4212 1.49655,1.49655 3.92328,1.49655 5.41983,0 1.49655,-1.49792 1.49655,-3.92465 0,-5.4212 -1.49655,-1.49655 -3.92328,-1.49655 -5.41983,0"
       id="path2296" />
    <g
       style="fill:#000000;fill-opacity:1"
       id="g2300"
       transform="matrix(0.35277777,0,0,0.35277777,71.826573,59.811154)">
      <g
         id="use2298"
         transform="translate(168.6528,236.4917)">
        <path
           style="stroke:none"
           d="M 6.359375,-6.046875 H 4.5 V -5.875 c 0.359375,0.046875 0.65625,0.03125 0.65625,0.375 0,0.15625 -0.0625,0.390625 -0.171875,0.65625 l -1.34375,3.375 L 2.25,-4.59375 C 1.984375,-5.203125 1.890625,-5.421875 1.890625,-5.5625 c 0,-0.1875 0.125,-0.265625 0.421875,-0.28125 L 2.5625,-5.875 V -6.046875 H 0.140625 V -5.875 c 0.46875,0.015625 0.59375,0.125 0.984375,1.015625 L 3.359375,0.09375 H 3.5 l 2.015625,-5.125 C 5.78125,-5.71875 6,-5.859375 6.359375,-5.875 Z m 0,0"
           id="path5259" />
      </g>
    </g>
    <path
       style="fill:#518ab5;fill-opacity:1;fill-rule:nonzero;stroke:none;stroke-width:0.352778"
       d="m 115.90037,124.76911 c -1.49655,1.49655 -1.49655,3.92328 0,5.41982 1.49793,1.49656 3.92465,1.49656 5.4212,0 1.49655,-1.49654 1.49655,-3.92327 0,-5.41982 -1.49655,-1.49655 -3.92327,-1.49655 -5.4212,0"
       id="path2302" />
    <g
       style="fill:#000000;fill-opacity:1"
       id="g2308"
       transform="matrix(0.35277777,0,0,0.35277777,71.826573,59.811154)">
      <g
         id="use2304"
         transform="translate(128.8166,195.31509)">
        <path
           style="stroke:none"
           d="M 2.875,0 V -0.171875 C 2.125,-0.203125 1.984375,-0.34375 1.984375,-1.015625 V -5.03125 c 0,-0.6875 0.125,-0.796875 0.890625,-0.84375 V -6.046875 H 0.171875 V -5.875 c 0.765625,0.046875 0.875,0.125 0.875,0.84375 v 4.015625 c 0,0.703125 -0.109375,0.8125 -0.875,0.84375 V 0 Z m 0,0"
           id="path5307" />
      </g>
      <g
         id="use2306"
         transform="translate(131.85579,195.31509)">
        <path
           style="stroke:none"
           d="m 4.359375,-4.109375 h -1.28125 v 0.140625 c 0.296875,0.03125 0.4375,0.125 0.4375,0.296875 C 3.515625,-3.59375 3.5,-3.5 3.453125,-3.40625 L 2.5625,-1.046875 1.625,-3.375 c -0.0625,-0.140625 -0.078125,-0.25 -0.078125,-0.34375 0,-0.15625 0.109375,-0.21875 0.421875,-0.25 V -4.109375 H 0.171875 V -3.96875 C 0.515625,-3.953125 0.609375,-3.859375 1,-2.921875 l 1.09375,2.625 c 0.046875,0.078125 0.046875,0.140625 0.078125,0.1875 C 2.234375,0.0625 2.28125,0.125 2.34375,0.125 c 0.046875,0 0.109375,-0.109375 0.25,-0.453125 L 3.765625,-3.25 C 4,-3.875 4.078125,-3.9375 4.359375,-3.96875 Z m 0,0"
           id="path5235" />
      </g>
    </g>
    <path
       style="fill:#e17d35;fill-opacity:1;fill-rule:nonzero;stroke:none;stroke-width:0.352778"
       d="m 115.73638,144.8802 h 5.74918 v -5.74917 h -5.74918 z m 0,0"
       id="path2310" />
    <g
       style="fill:#000000;fill-opacity:1"
       id="g2314"
       transform="matrix(0.35277777,0,0,0.35277777,71.826573,59.811154)">
      <g
         id="use2312"
         transform="translate(129.6963,234.9917)">
        <path
           style="stroke:none"
           d="M 0.90625,-2.84375 V -2.9375 c 0,-0.53125 0.1875,-0.90625 0.546875,-0.90625 0.46875,0 0.578125,0.546875 0.578125,0.953125 0,0.21875 -0.078125,0.46875 -0.25,0.46875 -0.078125,0 -0.25,-0.046875 -0.296875,-0.046875 -0.1875,0 -0.25,0.0625 -0.25,0.125 0,0.09375 0.09375,0.15625 0.234375,0.15625 0.109375,0 0.140625,-0.046875 0.265625,-0.046875 0.171875,0 0.5,0.265625 0.5,1.046875 0,0.59375 -0.28125,1.0625 -0.71875,1.0625 -0.3125,0 -0.609375,-0.21875 -0.609375,-0.390625 z m 1.109375,0.5 C 2.21875,-2.421875 2.34375,-2.546875 2.421875,-2.6875 2.484375,-2.828125 2.5,-2.96875 2.5,-3.09375 2.5,-3.609375 2.03125,-4 1.5625,-4 0.9375,-4 0.421875,-3.609375 0.421875,-2.1875 v 2.984375 c 0,0.171875 -0.046875,0.359375 -0.09375,0.46875 H 0.8125 C 0.84375,1.1875 0.90625,1.015625 0.90625,0.796875 V -0.1875 c 0.21875,0.203125 0.375,0.25 0.625,0.25 0.6875,0 1.203125,-0.6875 1.203125,-1.40625 0,-0.453125 -0.25,-0.890625 -0.703125,-0.984375 z m 0,0"
           id="path5251" />
      </g>
    </g>
    <g
       style="fill:#000000;fill-opacity:1"
       id="g2318"
       transform="matrix(0.35277777,0,0,0.35277777,71.826573,59.811154)">
      <g
         id="use2316"
         transform="translate(132.60614,234.9917)">
        <path
           style="stroke:none"
           d="m 2.796875,-2.640625 h -0.8125 v 0.09375 C 2.171875,-2.53125 2.25,-2.46875 2.25,-2.359375 c 0,0.0625 0,0.109375 -0.03125,0.171875 l -0.578125,1.515625 -0.59375,-1.5 c -0.03125,-0.078125 -0.0625,-0.15625 -0.0625,-0.21875 0,-0.09375 0.078125,-0.140625 0.28125,-0.15625 v -0.09375 h -1.15625 v 0.09375 c 0.21875,0.015625 0.28125,0.0625 0.53125,0.671875 L 1.34375,-0.1875 C 1.375,-0.140625 1.375,-0.09375 1.390625,-0.078125 1.4375,0.03125 1.46875,0.078125 1.5,0.078125 1.53125,0.078125 1.578125,0 1.671875,-0.21875 l 0.75,-1.875 c 0.15625,-0.390625 0.203125,-0.4375 0.375,-0.453125 z m 0,0"
           id="path5319" />
      </g>
    </g>
    <path
       style="fill:none;stroke:#7f7f7f;stroke-width:0.230011;stroke-linecap:round;stroke-linejoin:round;stroke-miterlimit:10;stroke-opacity:1"
       d="m 128.65273,142.00562 h -4.82864"
       id="path2320" />
    <path
       style="fill:#7f7f7f;fill-opacity:1;fill-rule:nonzero;stroke:#7f7f7f;stroke-width:0.230011;stroke-linecap:butt;stroke-linejoin:miter;stroke-miterlimit:10;stroke-opacity:1"
       d="m 121.98441,142.00562 1.83968,0.68902 v -1.37942 z m 0,0"
       id="path2322" />
    <path
       style="fill:#518ab5;fill-opacity:1;fill-rule:nonzero;stroke:none;stroke-width:0.352778"
       d="m 80.464116,139.37218 c 1.496549,1.49655 1.496549,3.92328 0,5.41982 -1.496549,1.49656 -3.923275,1.49656 -5.421202,0 -1.495171,-1.49654 -1.495171,-3.92327 0,-5.41982 1.497927,-1.49655 3.924653,-1.49655 5.421202,0"
       id="path2324" />
    <g
       style="fill:#000000;fill-opacity:1"
       id="g2328"
       transform="matrix(0.35277777,0,0,0.35277777,71.826573,59.811154)">
      <g
         id="use2326"
         transform="translate(14.2646,236.709)">
        <path
           style="stroke:none"
           d="M 4.28125,-4.21875 4.078125,-6.171875 h -0.1875 C 3.84375,-5.96875 3.75,-5.859375 3.59375,-5.859375 3.5,-5.859375 3.359375,-5.890625 3.1875,-5.96875 2.84375,-6.109375 2.609375,-6.171875 2.234375,-6.171875 c -0.90625,0 -1.59375,0.609375 -1.59375,1.59375 C 0.640625,-4 0.9375,-3.4375 1.765625,-3 2.34375,-2.6875 2.96875,-2.296875 3.296875,-1.9375 3.46875,-1.75 3.5625,-1.546875 3.5625,-1.21875 c 0,0.59375 -0.453125,1.015625 -1.09375,1.015625 -0.859375,0 -1.453125,-0.515625 -1.875,-1.609375 H 0.390625 L 0.65625,0.125 h 0.203125 c 0,-0.203125 0.109375,-0.3125 0.25,-0.3125 0.109375,0 0.265625,0.03125 0.4375,0.109375 C 1.875,0.0625 2.234375,0.125 2.625,0.125 c 1.046875,0 1.859375,-0.6875 1.859375,-1.703125 0,-0.6875 -0.453125,-1.21875 -1.421875,-1.78125 -0.953125,-0.5625 -1.625,-0.953125 -1.625,-1.5625 0,-0.5 0.34375,-0.875 0.921875,-0.875 0.546875,0 1,0.296875 1.3125,0.71875 0.171875,0.21875 0.265625,0.453125 0.375,0.859375 z m 0,0"
           id="path5279" />
      </g>
    </g>
    <path
       style="fill:none;stroke:#7f7f7f;stroke-width:0.230011;stroke-linecap:round;stroke-linejoin:round;stroke-miterlimit:10;stroke-opacity:1"
       d="m 91.551811,139.13103 v -4.10242"
       id="path2330" />
    <path
       style="fill:#7f7f7f;fill-opacity:1;fill-rule:nonzero;stroke:#7f7f7f;stroke-width:0.230011;stroke-linecap:butt;stroke-linejoin:miter;stroke-miterlimit:10;stroke-opacity:1"
       d="m 91.551811,133.18893 -0.689019,1.83968 h 1.379416 z m 0,0"
       id="path2332" />
    <path
       style="fill:none;stroke:#7f7f7f;stroke-width:0.230011;stroke-linecap:round;stroke-linejoin:round;stroke-miterlimit:10;stroke-opacity:1"
       d="m 116.35788,130.5803 c -2.0519,2.57969 -5.37022,6.20806 -9.39822,8.6279 -4.17684,2.50803 -7.918211,2.99723 -10.204377,2.99861"
       id="path2334" />
    <path
       style="fill:#7f7f7f;fill-opacity:1;fill-rule:nonzero;stroke:#7f7f7f;stroke-width:0.230011;stroke-linecap:butt;stroke-linejoin:miter;stroke-miterlimit:10;stroke-opacity:1"
       d="m 94.922493,142.04834 1.773535,0.84473 0.119889,-1.3739 z m 0,0"
       id="path2336" />
    <path
       style="fill:none;stroke:#7f7f7f;stroke-width:0.230011;stroke-linecap:round;stroke-linejoin:round;stroke-miterlimit:10;stroke-opacity:1"
       d="m 92.509548,139.13103 c 0,0 0.923285,-4.51859 8.317842,-7.81899 3.69314,-1.64813 8.1318,-2.60587 11.65131,-3.15295"
       id="path2338" />
    <path
       style="fill:#7f7f7f;fill-opacity:1;fill-rule:nonzero;stroke:#7f7f7f;stroke-width:0.230011;stroke-linecap:butt;stroke-linejoin:miter;stroke-miterlimit:10;stroke-opacity:1"
       d="m 114.30184,127.90691 -1.91685,-0.42995 0.1888,1.36564 z m 0,0"
       id="path2340" />
    <path
       style="fill:none;stroke:#7f7f7f;stroke-width:0.230011;stroke-linecap:round;stroke-linejoin:round;stroke-miterlimit:10;stroke-opacity:1"
       d="m 117.65323,139.13103 c 0,0 -2.76296,-4.86999 -10.15751,-7.7804 -3.3197,-1.30638 -6.87366,-1.94304 -9.779944,-2.24621"
       id="path2342" />
    <path
       style="fill:#7f7f7f;fill-opacity:1;fill-rule:nonzero;stroke:#7f7f7f;stroke-width:0.230011;stroke-linecap:butt;stroke-linejoin:miter;stroke-miterlimit:10;stroke-opacity:1"
       d="m 95.881607,128.9556 1.777669,0.83646 0.110243,-1.37528 z m 0,0"
       id="path2344" />
    <path
       style="fill:none;stroke:#7f7f7f;stroke-width:0.230011;stroke-linecap:round;stroke-linejoin:round;stroke-miterlimit:10;stroke-opacity:1"
       d="m 93.642295,132.07272 c 1.675695,2.21037 4.368381,5.10425 8.104245,7.13548 4.43728,2.41157 8.99308,2.87183 11.65407,2.89801"
       id="path2346" />
    <path
       style="fill:#7f7f7f;fill-opacity:1;fill-rule:nonzero;stroke:#7f7f7f;stroke-width:0.230011;stroke-linecap:butt;stroke-linejoin:miter;stroke-miterlimit:10;stroke-opacity:1"
       d="m 115.23891,142.02767 -1.86862,-0.61048 0.0606,1.37804 z m 0,0"
       id="path2348" />
    <path
       style="fill:none;stroke:#7f7f7f;stroke-width:0.230011;stroke-linecap:round;stroke-linejoin:round;stroke-miterlimit:10;stroke-opacity:1"
       d="m 118.61097,139.13103 v -5.48046"
       id="path2350" />
    <path
       style="fill:#7f7f7f;fill-opacity:1;fill-rule:nonzero;stroke:#7f7f7f;stroke-width:0.230011;stroke-linecap:butt;stroke-linejoin:miter;stroke-miterlimit:10;stroke-opacity:1"
       d="m 118.61097,131.81089 -0.6904,1.83968 h 1.3808 z m 0,0"
       id="path2352" />
    <path
       style="fill:#e17d35;fill-opacity:1;fill-rule:nonzero;stroke:none;stroke-width:0.352778"
       d="m 101.74654,154.73042 v 4.98298 c 0,0.21084 0.17225,0.3831 0.38309,0.3831 h 4.98299 c 0.21222,0 0.3831,-0.17226 0.3831,-0.3831 v -4.98298 c 0,-0.21222 -0.17088,-0.3831 -0.3831,-0.3831 h -4.98299 c -0.21084,0 -0.38309,0.17088 -0.38309,0.3831 z m 0,0"
       id="path2354" />
    <g
       style="fill:#000000;fill-opacity:1"
       id="g2358"
       transform="matrix(0.35277777,0,0,0.35277777,71.826573,59.811154)">
      <g
         id="use2356"
         transform="translate(91.627602,278.1239)">
        <path
           style="stroke:none"
           d="M 2.484375,-2.703125 C 2.484375,-1.96875 1.875,-0.65625 1.0625,-0.53125 H 1.046875 V -2.671875 L 1.03125,-2.703125 c -0.3125,0.125 -0.609375,0.21875 -0.90625,0.3125 v 0.109375 c 0.09375,-0.015625 0.203125,-0.015625 0.234375,-0.015625 0.140625,0 0.203125,0.09375 0.203125,0.28125 v 2.09375 h 0.125 c 0.84375,-0.1875 1.421875,-0.8125 1.6875,-1.4375 0.21875,-0.5 0.21875,-0.984375 0.21875,-1.34375 z m 0,0"
           id="path5283" />
      </g>
    </g>
    <path
       style="fill:none;stroke:#7f7f7f;stroke-width:0.230011;stroke-linecap:round;stroke-linejoin:round;stroke-miterlimit:10;stroke-opacity:1"
       d="m 80.356629,144.89536 c 2.199349,2.21727 5.609994,5.30821 9.508463,7.61229 4.01147,2.37022 7.42487,3.25079 9.551183,3.57463"
       id="path2360" />
    <path
       style="fill:#7f7f7f;fill-opacity:1;fill-rule:nonzero;stroke:#7f7f7f;stroke-width:0.230011;stroke-linecap:butt;stroke-linejoin:miter;stroke-miterlimit:10;stroke-opacity:1"
       d="m 101.25044,156.22421 -1.780421,-0.82957 -0.107487,1.37528 z m 0,0"
       id="path2362" />
    <path
       style="fill:none;stroke:#7f7f7f;stroke-width:0.230011;stroke-linecap:round;stroke-linejoin:round;stroke-miterlimit:10;stroke-opacity:1"
       d="m 107.49572,156.2628 c 0,0 6.41201,-0.40652 13.49237,-4.44555 2.90766,-1.65916 5.36745,-3.61184 7.25536,-5.33577"
       id="path2364" />
    <path
       style="fill:#7f7f7f;fill-opacity:1;fill-rule:nonzero;stroke:#7f7f7f;stroke-width:0.230011;stroke-linecap:butt;stroke-linejoin:miter;stroke-miterlimit:10;stroke-opacity:1"
       d="m 129.57051,145.2068 -1.80523,0.77721 0.95635,0.99495 z m 0,0"
       id="path2366" />
  </g>
</svg>
