<?xml version="1.0" encoding="UTF-8" standalone="no"?>
<!DOCTYPE svg PUBLIC "-//W3C//DTD SVG 1.1//EN"
 "http://www.w3.org/Graphics/SVG/1.1/DTD/svg11.dtd">
<!-- Generated by graphviz version 2.40.1 (20161225.0304)
 -->
<!-- Title: G Pages: 1 -->
<svg width="444pt" height="147pt"
 viewBox="0.00 0.00 444.00 147.00" xmlns="http://www.w3.org/2000/svg" xmlns:xlink="http://www.w3.org/1999/xlink">
<g id="graph0" class="graph" transform="scale(1 1) rotate(0) translate(4 143)">
<title>G</title>
<polygon fill="#ffffff" stroke="transparent" points="-4,4 -4,-143 440,-143 440,4 -4,4"/>
<!-- s1 -->
<g id="node1" class="node">
<title>s1</title>
<ellipse fill="#6c9ac3" stroke="#6c9ac3" cx="18" cy="-45" rx="18" ry="18"/>
<text text-anchor="middle" x="18" y="-41.3" font-family="Times,serif" font-size="14.00" fill="#000000">S</text>
</g>
<!-- t1 -->
<g id="node4" class="node">
<title>t1</title>
<polygon fill="#a08eae" stroke="#a08eae" points="116,-101 80,-101 80,-65 116,-65 116,-101"/>
<text text-anchor="start" x="90" y="-79.3" font-family="Times,serif" font-size="14.00" fill="#000000">inf</text>
</g>
<!-- s1&#45;&gt;t1 -->
<g id="edge1" class="edge">
<title>s1&#45;&gt;t1</title>
<path fill="none" stroke="#000000" d="M34.5761,-52.8736C44.9765,-57.8138 58.6391,-64.3036 70.6191,-69.9941"/>
<polygon fill="#000000" stroke="#000000" points="69.2372,-73.2124 79.7717,-74.3416 72.2406,-66.8895 69.2372,-73.2124"/>
<text text-anchor="middle" x="58" y="-68.8" font-family="Times,serif" font-size="14.00" fill="#000000">1</text>
</g>
<!-- t3 -->
<g id="node6" class="node">
<title>t3</title>
<polygon fill="#a8dcd9" stroke="#a8dcd9" points="116,-36 80,-36 80,0 116,0 116,-36"/>
<text text-anchor="start" x="92.5" y="-14.3" font-family="Times,serif" font-size="14.00" fill="#000000">id</text>
</g>
<!-- s1&#45;&gt;t3 -->
<g id="edge7" class="edge">
<title>s1&#45;&gt;t3</title>
<path fill="none" stroke="#000000" d="M35.3588,-39.1414C45.5241,-35.7106 58.5981,-31.2981 70.1702,-27.3926"/>
<polygon fill="#000000" stroke="#000000" points="71.4864,-30.6424 79.8421,-24.1283 69.2479,-24.0099 71.4864,-30.6424"/>
<text text-anchor="middle" x="58" y="-35.8" font-family="Times,serif" font-size="14.00" fill="#000000">1</text>
</g>
<!-- s2 -->
<g id="node2" class="node">
<title>s2</title>
<ellipse fill="#6c9ac3" stroke="#6c9ac3" cx="178" cy="-83" rx="18" ry="18"/>
<text text-anchor="middle" x="178" y="-79.3" font-family="Times,serif" font-size="14.00" fill="#000000">I</text>
</g>
<!-- s2&#45;&gt;t1 -->
<g id="edge4" class="edge">
<title>s2&#45;&gt;t1</title>
<path fill="none" stroke="#000000" d="M162.4772,-73.2643C156.3404,-69.9534 149.0728,-66.6697 142,-65 136.7136,-63.752 131.2372,-64.3354 126.018,-65.8909"/>
<polygon fill="#000000" stroke="#000000" points="124.3239,-62.8036 116.4158,-69.8544 126.9947,-69.2741 124.3239,-62.8036"/>
<text text-anchor="middle" x="138" y="-68.8" font-family="Times,serif" font-size="14.00" fill="#000000">1</text>
</g>
<!-- t2 -->
<g id="node5" class="node">
<title>t2</title>
<polygon fill="#ffeec6" stroke="#ffeec6" points="276,-139 240,-139 240,-103 276,-103 276,-139"/>
<text text-anchor="start" x="249" y="-117.3" font-family="Times,serif" font-size="14.00" fill="#000000">rec</text>
</g>
<!-- s2&#45;&gt;t2 -->
<g id="edge5" class="edge">
<title>s2&#45;&gt;t2</title>
<path fill="none" stroke="#000000" d="M194.5761,-90.8736C204.9765,-95.8138 218.6391,-102.3036 230.6191,-107.9941"/>
<polygon fill="#000000" stroke="#000000" points="229.2372,-111.2124 239.7717,-112.3416 232.2406,-104.8895 229.2372,-111.2124"/>
<text text-anchor="middle" x="218" y="-106.8" font-family="Times,serif" font-size="14.00" fill="#000000">1</text>
</g>
<!-- t4 -->
<g id="node7" class="node">
<title>t4</title>
<polygon fill="#a8dcd9" stroke="#a8dcd9" points="276,-74 240,-74 240,-38 276,-38 276,-74"/>
<text text-anchor="start" x="252.5" y="-52.3" font-family="Times,serif" font-size="14.00" fill="#000000">id</text>
</g>
<!-- s2&#45;&gt;t4 -->
<g id="edge8" class="edge">
<title>s2&#45;&gt;t4</title>
<path fill="none" stroke="#000000" d="M195.3588,-77.1414C205.5241,-73.7106 218.5981,-69.2981 230.1702,-65.3926"/>
<polygon fill="#000000" stroke="#000000" points="231.4864,-68.6424 239.8421,-62.1283 229.2479,-62.0099 231.4864,-68.6424"/>
<text text-anchor="middle" x="218" y="-73.8" font-family="Times,serif" font-size="14.00" fill="#000000">1</text>
</g>
<!-- s3 -->
<g id="node3" class="node">
<title>s3</title>
<ellipse fill="#6c9ac3" stroke="#6c9ac3" cx="338" cy="-121" rx="18" ry="18"/>
<text text-anchor="middle" x="338" y="-117.3" font-family="Times,serif" font-size="14.00" fill="#000000">R</text>
</g>
<!-- t5 -->
<g id="node8" class="node">
<title>t5</title>
<polygon fill="#a8dcd9" stroke="#a8dcd9" points="436,-139 400,-139 400,-103 436,-103 436,-139"/>
<text text-anchor="start" x="412.5" y="-117.3" font-family="Times,serif" font-size="14.00" fill="#000000">id</text>
</g>
<!-- s3&#45;&gt;t5 -->
<g id="edge3" class="edge">
<title>s3&#45;&gt;t5</title>
<path fill="none" stroke="#000000" d="M356.1532,-121C366.0749,-121 378.5833,-121 389.7508,-121"/>
<polygon fill="#000000" stroke="#000000" points="389.9186,-124.5001 399.9186,-121 389.9186,-117.5001 389.9186,-124.5001"/>
<text text-anchor="middle" x="378" y="-124.8" font-family="Times,serif" font-size="14.00" fill="#000000">1</text>
</g>
<!-- t1&#45;&gt;s2 -->
<g id="edge9" class="edge">
<title>t1&#45;&gt;s2</title>
<path fill="none" stroke="#000000" d="M116.1532,-83C126.0749,-83 138.5833,-83 149.7508,-83"/>
<polygon fill="#000000" stroke="#000000" points="149.9186,-86.5001 159.9186,-83 149.9186,-79.5001 149.9186,-86.5001"/>
<text text-anchor="middle" x="138" y="-86.8" font-family="Times,serif" font-size="14.00" fill="#000000">2</text>
</g>
<!-- t2&#45;&gt;s3 -->
<g id="edge10" class="edge">
<title>t2&#45;&gt;s3</title>
<path fill="none" stroke="#000000" d="M276.1532,-121C286.0749,-121 298.5833,-121 309.7508,-121"/>
<polygon fill="#000000" stroke="#000000" points="309.9186,-124.5001 319.9186,-121 309.9186,-117.5001 309.9186,-124.5001"/>
<text text-anchor="middle" x="298" y="-124.8" font-family="Times,serif" font-size="14.00" fill="#000000">1</text>
</g>
<!-- t3&#45;&gt;s1 -->
<g id="edge2" class="edge">
<title>t3&#45;&gt;s1</title>
<path fill="none" stroke="#000000" d="M79.9988,-8.9764C71.8522,-6.1291 62.227,-4.5261 54,-8 46.7343,-11.068 40.2098,-16.3989 34.7756,-22.0743"/>
<polygon fill="#000000" stroke="#000000" points="31.9531,-19.9879 28.0737,-29.8469 37.2546,-24.559 31.9531,-19.9879"/>
<text text-anchor="middle" x="58" y="-11.8" font-family="Times,serif" font-size="14.00" fill="#000000">1</text>
</g>
<!-- t4&#45;&gt;s2 -->
<g id="edge6" class="edge">
<title>t4&#45;&gt;s2</title>
<path fill="none" stroke="#000000" d="M239.9988,-46.9764C231.8522,-44.1291 222.227,-42.5261 214,-46 206.7343,-49.068 200.2098,-54.3989 194.7756,-60.0743"/>
<polygon fill="#000000" stroke="#000000" points="191.9531,-57.9879 188.0737,-67.8469 197.2546,-62.559 191.9531,-57.9879"/>
<text text-anchor="middle" x="218" y="-49.8" font-family="Times,serif" font-size="14.00" fill="#000000">1</text>
</g>
<!-- t5&#45;&gt;s3 -->
<g id="edge11" class="edge">
<title>t5&#45;&gt;s3</title>
<path fill="none" stroke="#000000" d="M399.6364,-109.1237C394.1769,-106.2076 388.0366,-103.4953 382,-102 375.0541,-100.2795 367.8094,-101.8592 361.2506,-104.7159"/>
<polygon fill="#000000" stroke="#000000" points="359.3816,-101.7474 352.2465,-109.5795 362.7084,-107.9064 359.3816,-101.7474"/>
<text text-anchor="middle" x="378" y="-105.8" font-family="Times,serif" font-size="14.00" fill="#000000">1</text>
</g>
</g>
</svg>
