<?xml version="1.0" encoding="UTF-8" standalone="no"?>
<!DOCTYPE svg PUBLIC "-//W3C//DTD SVG 1.1//EN"
 "http://www.w3.org/Graphics/SVG/1.1/DTD/svg11.dtd">
<!-- Generated by graphviz version 2.40.1 (20161225.0304)
 -->
<!-- Title: G Pages: 1 -->
<svg width="1004pt" height="244pt"
 viewBox="0.00 0.00 1003.85 244.00" xmlns="http://www.w3.org/2000/svg" xmlns:xlink="http://www.w3.org/1999/xlink">
<g id="graph0" class="graph" transform="scale(1 1) rotate(0) translate(4 240)">
<title>G</title>
<polygon fill="#ffffff" stroke="transparent" points="-4,4 -4,-240 999.8549,-240 999.8549,4 -4,4"/>
<!-- s1 -->
<g id="node1" class="node">
<title>s1</title>
<ellipse fill="#6c9ac3" stroke="#6c9ac3" cx="26.8701" cy="-42" rx="26.7407" ry="26.7407"/>
<text text-anchor="start" x="22.8701" y="-45.8" font-family="Times,serif" font-size="14.00" fill="#000000">S</text>
<text text-anchor="start" x="19.8701" y="-30.8" font-family="Times,serif" font-size="14.00" fill="#000000"> Q</text>
</g>
<!-- t6 -->
<g id="node12" class="node">
<title>t6</title>
<polygon fill="#a8dcd9" stroke="#a8dcd9" points="148.7401,-110.5 97.7401,-110.5 97.7401,-59.5 148.7401,-59.5 148.7401,-110.5"/>
<text text-anchor="start" x="105.7401" y="-81.3" font-family="Times,serif" font-size="14.00" fill="#000000">exit_q</text>
</g>
<!-- s1&#45;&gt;t6 -->
<g id="edge13" class="edge">
<title>s1&#45;&gt;t6</title>
<path fill="none" stroke="#000000" d="M51.4376,-52.962C62.6143,-57.949 76.0432,-63.9409 88.2485,-69.3869"/>
<polygon fill="#000000" stroke="#000000" points="87.1498,-72.7292 97.7082,-73.6077 90.0022,-66.3367 87.1498,-72.7292"/>
<text text-anchor="middle" x="75.7401" y="-68.8" font-family="Times,serif" font-size="14.00" fill="#000000">1</text>
</g>
<!-- s2 -->
<g id="node2" class="node">
<title>s2</title>
<ellipse fill="#6c9ac3" stroke="#6c9ac3" cx="665.0523" cy="-96" rx="26.7407" ry="26.7407"/>
<text text-anchor="start" x="662.5523" y="-99.8" font-family="Times,serif" font-size="14.00" fill="#000000">I</text>
<text text-anchor="start" x="658.0523" y="-84.8" font-family="Times,serif" font-size="14.00" fill="#000000"> Q</text>
</g>
<!-- t1 -->
<g id="node7" class="node">
<title>t1</title>
<polygon fill="#ffeec6" stroke="#ffeec6" points="792.1148,-129 756.1148,-129 756.1148,-93 792.1148,-93 792.1148,-129"/>
<text text-anchor="start" x="765.1148" y="-107.3" font-family="Times,serif" font-size="14.00" fill="#000000">rec</text>
</g>
<!-- s2&#45;&gt;t1 -->
<g id="edge6" class="edge">
<title>s2&#45;&gt;t1</title>
<path fill="none" stroke="#000000" d="M691.732,-99.6694C708.0789,-101.9177 728.9902,-104.7938 745.654,-107.0856"/>
<polygon fill="#000000" stroke="#000000" points="745.5168,-110.5996 755.9005,-108.4949 746.4707,-103.6649 745.5168,-110.5996"/>
<text text-anchor="middle" x="723.1148" y="-108.8" font-family="Times,serif" font-size="14.00" fill="#000000">1</text>
</g>
<!-- t7 -->
<g id="node13" class="node">
<title>t7</title>
<polygon fill="#a8dcd9" stroke="#a8dcd9" points="799.6148,-70.5 748.6148,-70.5 748.6148,-19.5 799.6148,-19.5 799.6148,-70.5"/>
<text text-anchor="start" x="756.6148" y="-41.3" font-family="Times,serif" font-size="14.00" fill="#000000">exit_q</text>
</g>
<!-- s2&#45;&gt;t7 -->
<g id="edge11" class="edge">
<title>s2&#45;&gt;t7</title>
<path fill="none" stroke="#000000" d="M689.5281,-84.5546C704.228,-77.6806 723.1653,-68.8251 739.3937,-61.2363"/>
<polygon fill="#000000" stroke="#000000" points="741.0073,-64.3456 748.5832,-56.9391 738.0421,-58.0047 741.0073,-64.3456"/>
<text text-anchor="middle" x="723.1148" y="-74.8" font-family="Times,serif" font-size="14.00" fill="#000000">1</text>
</g>
<!-- s3 -->
<g id="node3" class="node">
<title>s3</title>
<ellipse fill="#6c9ac3" stroke="#6c9ac3" cx="873.9848" cy="-176" rx="26.7407" ry="26.7407"/>
<text text-anchor="start" x="868.9848" y="-179.8" font-family="Times,serif" font-size="14.00" fill="#000000">R</text>
<text text-anchor="start" x="866.9848" y="-164.8" font-family="Times,serif" font-size="14.00" fill="#000000"> Q</text>
</g>
<!-- t8 -->
<g id="node14" class="node">
<title>t8</title>
<polygon fill="#a8dcd9" stroke="#a8dcd9" points="995.8549,-230.5 944.8549,-230.5 944.8549,-179.5 995.8549,-179.5 995.8549,-230.5"/>
<text text-anchor="start" x="952.8549" y="-201.3" font-family="Times,serif" font-size="14.00" fill="#000000">exit_q</text>
</g>
<!-- s3&#45;&gt;t8 -->
<g id="edge18" class="edge">
<title>s3&#45;&gt;t8</title>
<path fill="none" stroke="#000000" d="M899.8103,-183.7715C910.5908,-187.0156 923.29,-190.8371 934.9211,-194.3371"/>
<polygon fill="#000000" stroke="#000000" points="934.208,-197.7775 944.7924,-197.3076 936.2251,-191.0744 934.208,-197.7775"/>
<text text-anchor="middle" x="922.8549" y="-194.8" font-family="Times,serif" font-size="14.00" fill="#000000">1</text>
</g>
<!-- s4 -->
<g id="node4" class="node">
<title>s4</title>
<ellipse fill="#6c9ac3" stroke="#6c9ac3" cx="228.8026" cy="-90" rx="36.125" ry="36.125"/>
<text text-anchor="start" x="224.8026" y="-93.8" font-family="Times,serif" font-size="14.00" fill="#000000">S</text>
<text text-anchor="start" x="211.3026" y="-78.8" font-family="Times,serif" font-size="14.00" fill="#000000"> NotQ</text>
</g>
<!-- t3 -->
<g id="node9" class="node">
<title>t3</title>
<polygon fill="#a8dcd9" stroke="#a8dcd9" points="366.865,-58 308.865,-58 308.865,0 366.865,0 366.865,-58"/>
<text text-anchor="start" x="316.865" y="-25.3" font-family="Times,serif" font-size="14.00" fill="#000000">enter_q</text>
</g>
<!-- s4&#45;&gt;t3 -->
<g id="edge8" class="edge">
<title>s4&#45;&gt;t3</title>
<path fill="none" stroke="#000000" d="M260.3479,-72.3563C272.5988,-65.5042 286.7442,-57.5925 299.5708,-50.4184"/>
<polygon fill="#000000" stroke="#000000" points="301.6125,-53.2868 308.6316,-45.3506 298.1954,-47.1775 301.6125,-53.2868"/>
<text text-anchor="middle" x="286.865" y="-63.8" font-family="Times,serif" font-size="14.00" fill="#000000">1</text>
</g>
<!-- t9 -->
<g id="node15" class="node">
<title>t9</title>
<polygon fill="#a08eae" stroke="#a08eae" points="355.865,-115 319.865,-115 319.865,-79 355.865,-79 355.865,-115"/>
<text text-anchor="start" x="329.865" y="-93.3" font-family="Times,serif" font-size="14.00" fill="#000000">inf</text>
</g>
<!-- s4&#45;&gt;t9 -->
<g id="edge14" class="edge">
<title>s4&#45;&gt;t9</title>
<path fill="none" stroke="#000000" d="M264.8159,-92.3115C279.3075,-93.2416 295.779,-94.2988 309.4083,-95.1736"/>
<polygon fill="#000000" stroke="#000000" points="309.4336,-98.6823 319.6373,-95.8301 309.882,-91.6967 309.4336,-98.6823"/>
<text text-anchor="middle" x="286.865" y="-97.8" font-family="Times,serif" font-size="14.00" fill="#000000">1</text>
</g>
<!-- s5 -->
<g id="node5" class="node">
<title>s5</title>
<ellipse fill="#6c9ac3" stroke="#6c9ac3" cx="446.9275" cy="-97" rx="36.125" ry="36.125"/>
<text text-anchor="start" x="444.4275" y="-100.8" font-family="Times,serif" font-size="14.00" fill="#000000">I</text>
<text text-anchor="start" x="429.4275" y="-85.8" font-family="Times,serif" font-size="14.00" fill="#000000"> NotQ</text>
</g>
<!-- t2 -->
<g id="node8" class="node">
<title>t2</title>
<polygon fill="#ffeec6" stroke="#ffeec6" points="573.9899,-187 537.9899,-187 537.9899,-151 573.9899,-151 573.9899,-187"/>
<text text-anchor="start" x="546.9899" y="-165.3" font-family="Times,serif" font-size="14.00" fill="#000000">rec</text>
</g>
<!-- s5&#45;&gt;t2 -->
<g id="edge4" class="edge">
<title>s5&#45;&gt;t2</title>
<path fill="none" stroke="#000000" d="M477.3074,-117.056C493.5353,-127.7692 513.3392,-140.8432 529.0189,-151.1945"/>
<polygon fill="#000000" stroke="#000000" points="527.4423,-154.3476 537.7161,-156.9361 531.299,-148.5058 527.4423,-154.3476"/>
<text text-anchor="middle" x="504.9899" y="-140.8" font-family="Times,serif" font-size="14.00" fill="#000000">1</text>
</g>
<!-- t4 -->
<g id="node10" class="node">
<title>t4</title>
<polygon fill="#a8dcd9" stroke="#a8dcd9" points="584.9899,-126 526.9899,-126 526.9899,-68 584.9899,-68 584.9899,-126"/>
<text text-anchor="start" x="534.9899" y="-93.3" font-family="Times,serif" font-size="14.00" fill="#000000">enter_q</text>
</g>
<!-- s5&#45;&gt;t4 -->
<g id="edge10" class="edge">
<title>s5&#45;&gt;t4</title>
<path fill="none" stroke="#000000" d="M483.2437,-97C493.9501,-97 505.715,-97 516.6046,-97"/>
<polygon fill="#000000" stroke="#000000" points="516.7139,-100.5001 526.7139,-97 516.7138,-93.5001 516.7139,-100.5001"/>
<text text-anchor="middle" x="504.9899" y="-100.8" font-family="Times,serif" font-size="14.00" fill="#000000">1</text>
</g>
<!-- s5&#45;&gt;t9 -->
<g id="edge9" class="edge">
<title>s5&#45;&gt;t9</title>
<path fill="none" stroke="#000000" d="M414.3998,-80.746C404.9741,-77.7605 394.5988,-76.107 384.865,-78 378.4017,-79.257 371.7021,-81.402 365.4563,-83.8085"/>
<polygon fill="#000000" stroke="#000000" points="363.9894,-80.6282 356.1142,-87.7156 366.6904,-87.0862 363.9894,-80.6282"/>
<text text-anchor="middle" x="388.865" y="-81.8" font-family="Times,serif" font-size="14.00" fill="#000000">1</text>
</g>
<!-- s6 -->
<g id="node6" class="node">
<title>s6</title>
<ellipse fill="#6c9ac3" stroke="#6c9ac3" cx="665.0523" cy="-177" rx="36.125" ry="36.125"/>
<text text-anchor="start" x="660.0523" y="-180.8" font-family="Times,serif" font-size="14.00" fill="#000000">R</text>
<text text-anchor="start" x="647.5523" y="-165.8" font-family="Times,serif" font-size="14.00" fill="#000000"> NotQ</text>
</g>
<!-- t5 -->
<g id="node11" class="node">
<title>t5</title>
<polygon fill="#a8dcd9" stroke="#a8dcd9" points="803.1148,-205 745.1148,-205 745.1148,-147 803.1148,-147 803.1148,-205"/>
<text text-anchor="start" x="753.1148" y="-172.3" font-family="Times,serif" font-size="14.00" fill="#000000">enter_q</text>
</g>
<!-- s6&#45;&gt;t5 -->
<g id="edge16" class="edge">
<title>s6&#45;&gt;t5</title>
<path fill="none" stroke="#000000" d="M701.3686,-176.667C712.075,-176.5688 723.8399,-176.461 734.7295,-176.3611"/>
<polygon fill="#000000" stroke="#000000" points="734.8713,-179.8601 744.8388,-176.2684 734.8071,-172.8604 734.8713,-179.8601"/>
<text text-anchor="middle" x="723.1148" y="-179.8" font-family="Times,serif" font-size="14.00" fill="#000000">1</text>
</g>
<!-- t1&#45;&gt;s3 -->
<g id="edge17" class="edge">
<title>t1&#45;&gt;s3</title>
<path fill="none" stroke="#000000" d="M792.4325,-122.922C806.4013,-132.0136 825.9778,-144.7548 842.4492,-155.4752"/>
<polygon fill="#000000" stroke="#000000" points="840.9347,-158.6655 851.2252,-161.187 844.7532,-152.7986 840.9347,-158.6655"/>
<text text-anchor="middle" x="825.1148" y="-148.8" font-family="Times,serif" font-size="14.00" fill="#000000">1</text>
</g>
<!-- t2&#45;&gt;s6 -->
<g id="edge7" class="edge">
<title>t2&#45;&gt;s6</title>
<path fill="none" stroke="#000000" d="M573.9993,-170.321C586.2084,-171.2166 602.9378,-172.4437 618.7277,-173.602"/>
<polygon fill="#000000" stroke="#000000" points="618.682,-177.1079 628.9113,-174.349 619.1941,-170.1267 618.682,-177.1079"/>
<text text-anchor="middle" x="606.9899" y="-176.8" font-family="Times,serif" font-size="14.00" fill="#000000">1</text>
</g>
<!-- t3&#45;&gt;s1 -->
<g id="edge3" class="edge">
<title>t3&#45;&gt;s1</title>
<path fill="none" stroke="#000000" d="M308.8496,-30.2129C252.1844,-32.5816 126.8779,-37.8195 64.1565,-40.4414"/>
<polygon fill="#000000" stroke="#000000" points="63.7698,-36.9544 53.9248,-40.8691 64.0623,-43.9483 63.7698,-36.9544"/>
<text text-anchor="middle" x="170.7401" y="-40.8" font-family="Times,serif" font-size="14.00" fill="#000000">1</text>
</g>
<!-- t4&#45;&gt;s2 -->
<g id="edge12" class="edge">
<title>t4&#45;&gt;s2</title>
<path fill="none" stroke="#000000" d="M585.2166,-96.732C598.2895,-96.6122 613.8555,-96.4694 627.756,-96.342"/>
<polygon fill="#000000" stroke="#000000" points="628.0249,-99.8398 637.9924,-96.2481 627.9607,-92.84 628.0249,-99.8398"/>
<text text-anchor="middle" x="606.9899" y="-100.8" font-family="Times,serif" font-size="14.00" fill="#000000">1</text>
</g>
<!-- t5&#45;&gt;s3 -->
<g id="edge19" class="edge">
<title>t5&#45;&gt;s3</title>
<path fill="none" stroke="#000000" d="M803.2698,-176C813.7411,-176 825.6963,-176 836.7597,-176"/>
<polygon fill="#000000" stroke="#000000" points="837.0162,-179.5001 847.0162,-176 837.0161,-172.5001 837.0162,-179.5001"/>
<text text-anchor="middle" x="825.1148" y="-179.8" font-family="Times,serif" font-size="14.00" fill="#000000">1</text>
</g>
<!-- t6&#45;&gt;s4 -->
<g id="edge2" class="edge">
<title>t6&#45;&gt;s4</title>
<path fill="none" stroke="#000000" d="M148.7938,-86.2104C158.9878,-86.6932 171.0476,-87.2644 182.6703,-87.8149"/>
<polygon fill="#000000" stroke="#000000" points="182.5595,-91.3135 192.7139,-88.2906 182.8907,-84.3213 182.5595,-91.3135"/>
<text text-anchor="middle" x="170.7401" y="-91.8" font-family="Times,serif" font-size="14.00" fill="#000000">1</text>
</g>
<!-- t7&#45;&gt;s5 -->
<g id="edge1" class="edge">
<title>t7&#45;&gt;s5</title>
<path fill="none" stroke="#000000" d="M748.3646,-43.248C702.8798,-40.8568 605.6855,-38.9167 526.9899,-59 513.5656,-62.4259 499.6795,-68.1433 487.3173,-74.1162"/>
<polygon fill="#000000" stroke="#000000" points="485.5583,-71.083 478.1939,-78.6998 488.7008,-77.338 485.5583,-71.083"/>
<text text-anchor="middle" x="606.9899" y="-49.8" font-family="Times,serif" font-size="14.00" fill="#000000">1</text>
</g>
<!-- t8&#45;&gt;s6 -->
<g id="edge15" class="edge">
<title>t8&#45;&gt;s6</title>
<path fill="none" stroke="#000000" d="M944.6485,-210.219C902.4307,-217.8618 816.017,-229.5911 745.1148,-214 731.6483,-211.0388 717.7497,-205.5829 705.389,-199.7538"/>
<polygon fill="#000000" stroke="#000000" points="706.7862,-196.5404 696.2692,-195.2585 703.6913,-202.8191 706.7862,-196.5404"/>
<text text-anchor="middle" x="825.1148" y="-224.8" font-family="Times,serif" font-size="14.00" fill="#000000">1</text>
</g>
<!-- t9&#45;&gt;s5 -->
<g id="edge5" class="edge">
<title>t9&#45;&gt;s5</title>
<path fill="none" stroke="#000000" d="M355.8745,-97C368.0835,-97 384.8129,-97 400.6028,-97"/>
<polygon fill="#000000" stroke="#000000" points="400.7864,-100.5001 410.7864,-97 400.7863,-93.5001 400.7864,-100.5001"/>
<text text-anchor="middle" x="388.865" y="-100.8" font-family="Times,serif" font-size="14.00" fill="#000000">2</text>
</g>
</g>
</svg>
