<?xml version="1.0" encoding="UTF-8" standalone="no"?>
<!DOCTYPE svg PUBLIC "-//W3C//DTD SVG 1.1//EN"
 "http://www.w3.org/Graphics/SVG/1.1/DTD/svg11.dtd">
<!-- Generated by graphviz version 2.40.1 (20161225.0304)
 -->
<!-- Title: G Pages: 1 -->
<svg width="169pt" height="238pt"
 viewBox="0.00 0.00 169.40 238.00" xmlns="http://www.w3.org/2000/svg" xmlns:xlink="http://www.w3.org/1999/xlink">
<g id="graph0" class="graph" transform="scale(1 1) rotate(0) translate(4 234)">
<title>G</title>
<polygon fill="#ffffff" stroke="transparent" points="-4,4 -4,-234 165.3956,-234 165.3956,4 -4,4"/>
<!-- s1 -->
<g id="node1" class="node">
<title>s1</title>
<ellipse fill="#6c9ac3" stroke="#6c9ac3" cx="24.6978" cy="-110" rx="24.8972" ry="24.8972"/>
<text text-anchor="middle" x="24.6978" y="-106.3" font-family="Times,serif" font-size="14.00" fill="#000000">Pop</text>
</g>
<!-- t1 -->
<g id="node2" class="node">
<title>t1</title>
<polygon fill="#a08eae" stroke="#a08eae" points="156.3956,-230 98.3956,-230 98.3956,-172 156.3956,-172 156.3956,-230"/>
<text text-anchor="start" x="106.3956" y="-197.3" font-family="Times,serif" font-size="14.00" fill="#000000">interact</text>
</g>
<!-- s1&#45;&gt;t1 -->
<g id="edge5" class="edge">
<title>s1&#45;&gt;t1</title>
<path fill="none" stroke="#000000" d="M36.2995,-131.8071C43.8601,-144.4634 54.6719,-160.0222 67.3956,-171 73.7899,-176.5169 81.376,-181.3155 88.9655,-185.36"/>
<polygon fill="#000000" stroke="#000000" points="87.6317,-188.6054 98.1451,-189.9171 90.7444,-182.3355 87.6317,-188.6054"/>
<text text-anchor="middle" x="71.3956" y="-179.8" font-family="Times,serif" font-size="14.00" fill="#000000">2</text>
</g>
<!-- t2 -->
<g id="node3" class="node">
<title>t2</title>
<polygon fill="#ffeec6" stroke="#ffeec6" points="161.3956,-151 93.3956,-151 93.3956,-83 161.3956,-83 161.3956,-151"/>
<text text-anchor="start" x="101.3956" y="-113.3" font-family="Times,serif" font-size="14.00" fill="#000000">t_disease</text>
</g>
<!-- s1&#45;&gt;t2 -->
<g id="edge3" class="edge">
<title>s1&#45;&gt;t2</title>
<path fill="none" stroke="#000000" d="M49.5581,-111.6945C59.557,-112.376 71.4012,-113.1834 82.7944,-113.9599"/>
<polygon fill="#000000" stroke="#000000" points="82.85,-117.4718 93.0649,-114.66 83.3261,-110.488 82.85,-117.4718"/>
<text text-anchor="middle" x="71.3956" y="-116.8" font-family="Times,serif" font-size="14.00" fill="#000000">1</text>
</g>
<!-- t3 -->
<g id="node4" class="node">
<title>t3</title>
<polygon fill="#a8dcd9" stroke="#a8dcd9" points="156.3956,-58 98.3956,-58 98.3956,0 156.3956,0 156.3956,-58"/>
<text text-anchor="start" x="106.3956" y="-25.3" font-family="Times,serif" font-size="14.00" fill="#000000">t_strata</text>
</g>
<!-- s1&#45;&gt;t3 -->
<g id="edge2" class="edge">
<title>s1&#45;&gt;t3</title>
<path fill="none" stroke="#000000" d="M43.6346,-93.6362C50.9778,-87.3962 59.5042,-80.2777 67.3956,-74 74.6543,-68.2256 82.5191,-62.1806 90.0906,-56.4625"/>
<polygon fill="#000000" stroke="#000000" points="92.2519,-59.2165 98.1489,-50.4144 88.05,-53.618 92.2519,-59.2165"/>
<text text-anchor="middle" x="71.3956" y="-77.8" font-family="Times,serif" font-size="14.00" fill="#000000">1</text>
</g>
<!-- t1&#45;&gt;s1 -->
<g id="edge1" class="edge">
<title>t1&#45;&gt;s1</title>
<path fill="none" stroke="#000000" d="M98.1898,-175.1209C83.382,-161.9998 65.5355,-146.186 51.1372,-133.4278"/>
<polygon fill="#000000" stroke="#000000" points="53.3399,-130.7032 43.5342,-126.6908 48.6975,-135.9424 53.3399,-130.7032"/>
<text text-anchor="middle" x="71.3956" y="-155.8" font-family="Times,serif" font-size="14.00" fill="#000000">2</text>
</g>
<!-- t2&#45;&gt;s1 -->
<g id="edge4" class="edge">
<title>t2&#45;&gt;s1</title>
<path fill="none" stroke="#000000" d="M93.3849,-99.5734C87.5214,-97.2666 81.3837,-95.2652 75.3956,-94 69.1139,-92.6728 62.5027,-93.2483 56.2049,-94.7904"/>
<polygon fill="#000000" stroke="#000000" points="55.0982,-91.4697 46.6587,-97.8748 57.2504,-98.1306 55.0982,-91.4697"/>
<text text-anchor="middle" x="71.3956" y="-97.8" font-family="Times,serif" font-size="14.00" fill="#000000">1</text>
</g>
<!-- t3&#45;&gt;s1 -->
<g id="edge6" class="edge">
<title>t3&#45;&gt;s1</title>
<path fill="none" stroke="#000000" d="M98.1265,-34.7348C87.7213,-37.768 76.3727,-42.3033 67.3956,-49 56.7913,-56.9106 47.8416,-68.2455 40.9185,-79.0024"/>
<polygon fill="#000000" stroke="#000000" points="37.7691,-77.4466 35.5878,-87.8144 43.7585,-81.0698 37.7691,-77.4466"/>
<text text-anchor="middle" x="71.3956" y="-52.8" font-family="Times,serif" font-size="14.00" fill="#000000">1</text>
</g>
</g>
</svg>
