<?xml version="1.0" encoding="UTF-8" standalone="no"?>
<!DOCTYPE svg PUBLIC "-//W3C//DTD SVG 1.1//EN"
 "http://www.w3.org/Graphics/SVG/1.1/DTD/svg11.dtd">
<!-- Generated by graphviz version 2.40.1 (20161225.0304)
 -->
<!-- Title: G Pages: 1 -->
<svg width="1048pt" height="220pt"
 viewBox="0.00 0.00 1048.00 220.00" xmlns="http://www.w3.org/2000/svg" xmlns:xlink="http://www.w3.org/1999/xlink">
<g id="graph0" class="graph" transform="scale(1 1) rotate(0) translate(4 216)">
<title>G</title>
<polygon fill="#ffffff" stroke="transparent" points="-4,4 -4,-216 1044,-216 1044,4 -4,4"/>
<!-- n1p1 -->
<!-- n1p2 -->
<!-- n1p1&#45;&gt;n1p2 -->
<!-- n4 -->
<!-- measure -->
<g id="n4" class="node">
<title>n4</title>
<polygon fill="none" stroke="#000000" points="307,-96 307,-168 379,-168 379,-96 307,-96"/>
<text text-anchor="start" x="312" y="-128.3" font-family="Serif" font-size="14.00" fill="#000000">measure</text>
</g>
<!-- n1p1&#45;&gt;n4 -->
<!-- Material -->
<g id="e4" class="edge">
<title>n1p1:e&#45;&gt;n4:w</title>
<path fill="none" stroke="#000000" d="M1,-192C136.1995,-192 169.2295,-156.9083 301.8348,-156.0173"/>
<polygon fill="#000000" stroke="#000000" points="302.0059,-157.7668 307,-156 301.9941,-154.2668 302.0059,-157.7668"/>
<text text-anchor="middle" x="147" y="-186.8" font-family="Serif" font-size="14.00" fill="#000000">Material</text>
</g>
<!-- n1p3 -->
<!-- n1p2&#45;&gt;n1p3 -->
<!-- n1p2&#45;&gt;n4 -->
<!-- ForceRange -->
<g id="e5" class="edge">
<title>n1p2:e&#45;&gt;n4:w</title>
<path fill="none" stroke="#000000" d="M1,-132C135.2734,-132 170.1203,-132 301.8692,-132"/>
<polygon fill="#000000" stroke="#000000" points="302,-133.7501 307,-132 302,-130.2501 302,-133.7501"/>
<text text-anchor="middle" x="147" y="-135.8" font-family="Serif" font-size="14.00" fill="#000000">ForceRange</text>
</g>
<!-- n1p4 -->
<!-- n1p3&#45;&gt;n1p4 -->
<!-- n3 -->
<!-- calibrate -->
<g id="n3" class="node">
<title>n3</title>
<polygon fill="none" stroke="#000000" points="110,-36 110,-84 184,-84 184,-36 110,-36"/>
<text text-anchor="start" x="115" y="-56.3" font-family="Serif" font-size="14.00" fill="#000000">calibrate</text>
</g>
<!-- n1p3&#45;&gt;n3 -->
<!-- Material -->
<g id="e1" class="edge">
<title>n1p3:e&#45;&gt;n3:w</title>
<path fill="none" stroke="#000000" d="M1,-72C47.6467,-72 60.6066,-72 104.7532,-72"/>
<polygon fill="#000000" stroke="#000000" points="105,-73.7501 110,-72 105,-70.2501 105,-73.7501"/>
<text text-anchor="middle" x="52.5" y="-75.8" font-family="Serif" font-size="14.00" fill="#000000">Material</text>
</g>
<!-- n1p4&#45;&gt;n3 -->
<!-- ValueFile -->
<g id="e2" class="edge">
<title>n1p4:e&#45;&gt;n3:w</title>
<path fill="none" stroke="#000000" d="M1,-12C50.2247,-12 58.4377,-45.5132 104.7787,-47.8696"/>
<polygon fill="#000000" stroke="#000000" points="104.9578,-49.6246 110,-48 105.0453,-46.1257 104.9578,-49.6246"/>
<text text-anchor="middle" x="52.5" y="-47.8" font-family="Serif" font-size="14.00" fill="#000000">ValueFile</text>
</g>
<!-- n2p1 -->
<!-- n2p2 -->
<!-- n2p1&#45;&gt;n2p2 -->
<!-- n2p3 -->
<!-- n2p2&#45;&gt;n2p3 -->
<!-- n3&#45;&gt;n4 -->
<!-- Calibration -->
<g id="e7" class="edge">
<title>n3:e&#45;&gt;n4:w</title>
<path fill="none" stroke="#000000" d="M184,-60C197.467,-60 277.4951,-100.448 301.8823,-107.084"/>
<polygon fill="#000000" stroke="#000000" points="301.7699,-108.8416 307,-108 302.3866,-105.3964 301.7699,-108.8416"/>
<text text-anchor="middle" x="248.5" y="-105.8" font-family="Serif" font-size="14.00" fill="#000000">Calibration</text>
</g>
<!-- n5 -->
<!-- edge_detection -->
<g id="n5" class="node">
<title>n5</title>
<polygon fill="none" stroke="#000000" points="468,-80 468,-128 588,-128 588,-80 468,-80"/>
<text text-anchor="start" x="473" y="-100.3" font-family="Serif" font-size="14.00" fill="#000000">edge_detection</text>
</g>
<!-- n4&#45;&gt;n5 -->
<!-- Images -->
<g id="e11" class="edge">
<title>n4:e&#45;&gt;n5:w</title>
<path fill="none" stroke="#000000" d="M379,-114C416.9386,-114 427.2483,-104.9155 462.5967,-104.0639"/>
<polygon fill="#000000" stroke="#000000" points="463.0211,-105.8091 468,-104 462.9796,-102.3093 463.0211,-105.8091"/>
<text text-anchor="middle" x="423.5" y="-116.8" font-family="Serif" font-size="14.00" fill="#000000">Images</text>
</g>
<!-- n7 -->
<!-- lin_interp -->
<g id="n7" class="node">
<title>n7</title>
<polygon fill="none" stroke="#000000" points="883,-104 883,-176 963,-176 963,-104 883,-104"/>
<text text-anchor="start" x="888" y="-136.3" font-family="Serif" font-size="14.00" fill="#000000">lin_interp</text>
</g>
<!-- n4&#45;&gt;n7 -->
<!-- ValueFile -->
<g id="e10" class="edge">
<title>n4:e&#45;&gt;n7:w</title>
<path fill="none" stroke="#000000" d="M379,-150C601.278,-150 658.0874,-157.8755 877.78,-157.9985"/>
<polygon fill="#000000" stroke="#000000" points="877.9995,-159.7485 883,-158 878.0005,-156.2485 877.9995,-159.7485"/>
<text text-anchor="middle" x="639.5" y="-158.8" font-family="Serif" font-size="14.00" fill="#000000">ValueFile</text>
</g>
<!-- n6 -->
<!-- calc_strain -->
<g id="n6" class="node">
<title>n6</title>
<polygon fill="none" stroke="#000000" points="691.5,-83 691.5,-131 780.5,-131 780.5,-83 691.5,-83"/>
<text text-anchor="start" x="696.5" y="-103.3" font-family="Serif" font-size="14.00" fill="#000000">calc_strain</text>
</g>
<!-- n5&#45;&gt;n6 -->
<!-- Images -->
<g id="e6" class="edge">
<title>n5:e&#45;&gt;n6:w</title>
<path fill="none" stroke="#000000" d="M588,-116C632.3699,-116 644.4017,-107.6894 686.2452,-107.0401"/>
<polygon fill="#000000" stroke="#000000" points="686.5135,-108.7882 691.5,-107 686.4868,-105.2883 686.5135,-108.7882"/>
<text text-anchor="middle" x="639.5" y="-118.8" font-family="Serif" font-size="14.00" fill="#000000">Images</text>
</g>
<!-- n6&#45;&gt;n7 -->
<!-- ValueFile -->
<g id="e3" class="edge">
<title>n6:e&#45;&gt;n7:w</title>
<path fill="none" stroke="#000000" d="M780,-119C824.0082,-119 836.2593,-121.7702 877.7865,-121.9866"/>
<polygon fill="#000000" stroke="#000000" points="877.9955,-123.7371 883,-122 878.0045,-120.2371 877.9955,-123.7371"/>
<text text-anchor="middle" x="831.5" y="-124.8" font-family="Serif" font-size="14.00" fill="#000000">ValueFile</text>
</g>
<!-- n7&#45;&gt;n2p1 -->
<!-- Value -->
<g id="e8" class="edge">
<title>n7:e&#45;&gt;n2p1:w</title>
<path fill="none" stroke="#000000" d="M963,-164C998.6237,-164 1001.4279,-196.7041 1033.9748,-199.7701"/>
<polygon fill="#000000" stroke="#000000" points="1033.9252,-201.5196 1039,-200 1034.0852,-198.0232 1033.9252,-201.5196"/>
<text text-anchor="middle" x="1001" y="-199.8" font-family="Serif" font-size="14.00" fill="#000000">Value</text>
</g>
<!-- n7&#45;&gt;n2p2 -->
<!-- Value -->
<g id="e9" class="edge">
<title>n7:e&#45;&gt;n2p2:w</title>
<path fill="none" stroke="#000000" d="M963,-140C994.9306,-140 1004.2228,-140 1033.6773,-140"/>
<polygon fill="#000000" stroke="#000000" points="1034,-141.7501 1039,-140 1034,-138.2501 1034,-141.7501"/>
<text text-anchor="middle" x="1001" y="-143.8" font-family="Serif" font-size="14.00" fill="#000000">Value</text>
</g>
<!-- n7&#45;&gt;n2p3 -->
<!-- Value -->
<g id="e12" class="edge">
<title>n7:e&#45;&gt;n2p3:w</title>
<path fill="none" stroke="#000000" d="M963,-116C998.6237,-116 1001.4279,-83.2959 1033.9748,-80.2299"/>
<polygon fill="#000000" stroke="#000000" points="1034.0852,-81.9768 1039,-80 1033.9252,-78.4804 1034.0852,-81.9768"/>
<text text-anchor="middle" x="1001" y="-115.8" font-family="Serif" font-size="14.00" fill="#000000">Value</text>
</g>
</g>
</svg>
